%TF.GenerationSoftware,KiCad,Pcbnew,8.0.5*%
%TF.CreationDate,2024-09-24T14:12:54-04:00*%
%TF.ProjectId,MPD V1,4d504420-5631-42e6-9b69-6361645f7063,rev?*%
%TF.SameCoordinates,Original*%
%TF.FileFunction,Drillmap*%
%TF.FilePolarity,Positive*%
%FSLAX45Y45*%
G04 Gerber Fmt 4.5, Leading zero omitted, Abs format (unit mm)*
G04 Created by KiCad (PCBNEW 8.0.5) date 2024-09-24 14:12:54*
%MOMM*%
%LPD*%
G01*
G04 APERTURE LIST*
%ADD10C,0.200000*%
%ADD11C,0.100000*%
%ADD12C,0.139700*%
%ADD13C,0.150000*%
%ADD14C,0.152000*%
G04 APERTURE END LIST*
D10*
X4572000Y-3911600D02*
X22352000Y-3911600D01*
X22352000Y-12954000D01*
X4572000Y-12954000D01*
X4572000Y-3911600D01*
D11*
X12842800Y-7606445D02*
X13325400Y-7606445D01*
X13325400Y-7708045D01*
X12741200Y-7708045D01*
X12741200Y-6844445D01*
X12131600Y-6844445D01*
X12131600Y-7708045D01*
X11572800Y-7708045D01*
X11572800Y-7606445D01*
X12030000Y-7606445D01*
X12030000Y-6742845D01*
X12842800Y-6742845D01*
X12842800Y-7606445D01*
G36*
X12842800Y-7606445D02*
G01*
X13325400Y-7606445D01*
X13325400Y-7708045D01*
X12741200Y-7708045D01*
X12741200Y-6844445D01*
X12131600Y-6844445D01*
X12131600Y-7708045D01*
X11572800Y-7708045D01*
X11572800Y-7606445D01*
X12030000Y-7606445D01*
X12030000Y-6742845D01*
X12842800Y-6742845D01*
X12842800Y-7606445D01*
G37*
X6746800Y-7606445D02*
X7229400Y-7606445D01*
X7229400Y-7708045D01*
X6645200Y-7708045D01*
X6645200Y-6844445D01*
X6035600Y-6844445D01*
X6035600Y-7708045D01*
X5476800Y-7708045D01*
X5476800Y-7606445D01*
X5934000Y-7606445D01*
X5934000Y-6742845D01*
X6746800Y-6742845D01*
X6746800Y-7606445D01*
G36*
X6746800Y-7606445D02*
G01*
X7229400Y-7606445D01*
X7229400Y-7708045D01*
X6645200Y-7708045D01*
X6645200Y-6844445D01*
X6035600Y-6844445D01*
X6035600Y-7708045D01*
X5476800Y-7708045D01*
X5476800Y-7606445D01*
X5934000Y-7606445D01*
X5934000Y-6742845D01*
X6746800Y-6742845D01*
X6746800Y-7606445D01*
G37*
X20878800Y-7606445D02*
X21361400Y-7606445D01*
X21361400Y-7708045D01*
X20777200Y-7708045D01*
X20777200Y-6844445D01*
X20167600Y-6844445D01*
X20167600Y-7708045D01*
X19608800Y-7708045D01*
X19608800Y-7606445D01*
X20066000Y-7606445D01*
X20066000Y-6742845D01*
X20878800Y-6742845D01*
X20878800Y-7606445D01*
G36*
X20878800Y-7606445D02*
G01*
X21361400Y-7606445D01*
X21361400Y-7708045D01*
X20777200Y-7708045D01*
X20777200Y-6844445D01*
X20167600Y-6844445D01*
X20167600Y-7708045D01*
X19608800Y-7708045D01*
X19608800Y-7606445D01*
X20066000Y-7606445D01*
X20066000Y-6742845D01*
X20878800Y-6742845D01*
X20878800Y-7606445D01*
G37*
X16906800Y-7606445D02*
X17389400Y-7606445D01*
X17389400Y-7708045D01*
X16805200Y-7708045D01*
X16805200Y-6844445D01*
X16195600Y-6844445D01*
X16195600Y-7708045D01*
X15636800Y-7708045D01*
X15636800Y-7606445D01*
X16094000Y-7606445D01*
X16094000Y-6742845D01*
X16906800Y-6742845D01*
X16906800Y-7606445D01*
G36*
X16906800Y-7606445D02*
G01*
X17389400Y-7606445D01*
X17389400Y-7708045D01*
X16805200Y-7708045D01*
X16805200Y-6844445D01*
X16195600Y-6844445D01*
X16195600Y-7708045D01*
X15636800Y-7708045D01*
X15636800Y-7606445D01*
X16094000Y-7606445D01*
X16094000Y-6742845D01*
X16906800Y-6742845D01*
X16906800Y-7606445D01*
G37*
X14874800Y-7606445D02*
X15357400Y-7606445D01*
X15357400Y-7708045D01*
X14773200Y-7708045D01*
X14773200Y-6844445D01*
X14163600Y-6844445D01*
X14163600Y-7708045D01*
X13604800Y-7708045D01*
X13604800Y-7606445D01*
X14062000Y-7606445D01*
X14062000Y-6742845D01*
X14874800Y-6742845D01*
X14874800Y-7606445D01*
G36*
X14874800Y-7606445D02*
G01*
X15357400Y-7606445D01*
X15357400Y-7708045D01*
X14773200Y-7708045D01*
X14773200Y-6844445D01*
X14163600Y-6844445D01*
X14163600Y-7708045D01*
X13604800Y-7708045D01*
X13604800Y-7606445D01*
X14062000Y-7606445D01*
X14062000Y-6742845D01*
X14874800Y-6742845D01*
X14874800Y-7606445D01*
G37*
X18938800Y-7606445D02*
X19421400Y-7606445D01*
X19421400Y-7708045D01*
X18837200Y-7708045D01*
X18837200Y-6844445D01*
X18227600Y-6844445D01*
X18227600Y-7708045D01*
X17668800Y-7708045D01*
X17668800Y-7606445D01*
X18126000Y-7606445D01*
X18126000Y-6742845D01*
X18938800Y-6742845D01*
X18938800Y-7606445D01*
G36*
X18938800Y-7606445D02*
G01*
X19421400Y-7606445D01*
X19421400Y-7708045D01*
X18837200Y-7708045D01*
X18837200Y-6844445D01*
X18227600Y-6844445D01*
X18227600Y-7708045D01*
X17668800Y-7708045D01*
X17668800Y-7606445D01*
X18126000Y-7606445D01*
X18126000Y-6742845D01*
X18938800Y-6742845D01*
X18938800Y-7606445D01*
G37*
X8778800Y-7606445D02*
X9261400Y-7606445D01*
X9261400Y-7708045D01*
X8677200Y-7708045D01*
X8677200Y-6844445D01*
X8067600Y-6844445D01*
X8067600Y-7708045D01*
X7508800Y-7708045D01*
X7508800Y-7606445D01*
X7966000Y-7606445D01*
X7966000Y-6742845D01*
X8778800Y-6742845D01*
X8778800Y-7606445D01*
G36*
X8778800Y-7606445D02*
G01*
X9261400Y-7606445D01*
X9261400Y-7708045D01*
X8677200Y-7708045D01*
X8677200Y-6844445D01*
X8067600Y-6844445D01*
X8067600Y-7708045D01*
X7508800Y-7708045D01*
X7508800Y-7606445D01*
X7966000Y-7606445D01*
X7966000Y-6742845D01*
X8778800Y-6742845D01*
X8778800Y-7606445D01*
G37*
X10810800Y-7606445D02*
X11293400Y-7606445D01*
X11293400Y-7708045D01*
X10709200Y-7708045D01*
X10709200Y-6844445D01*
X10099600Y-6844445D01*
X10099600Y-7708045D01*
X9540800Y-7708045D01*
X9540800Y-7606445D01*
X9998000Y-7606445D01*
X9998000Y-6742845D01*
X10810800Y-6742845D01*
X10810800Y-7606445D01*
G36*
X10810800Y-7606445D02*
G01*
X11293400Y-7606445D01*
X11293400Y-7708045D01*
X10709200Y-7708045D01*
X10709200Y-6844445D01*
X10099600Y-6844445D01*
X10099600Y-7708045D01*
X9540800Y-7708045D01*
X9540800Y-7606445D01*
X9998000Y-7606445D01*
X9998000Y-6742845D01*
X10810800Y-6742845D01*
X10810800Y-7606445D01*
G37*
D10*
D11*
X5827000Y-4811000D02*
X5857000Y-4841000D01*
X5857000Y-4811000D02*
X5827000Y-4841000D01*
X5827000Y-5065000D02*
X5857000Y-5095000D01*
X5857000Y-5065000D02*
X5827000Y-5095000D01*
X6335000Y-4811000D02*
X6365000Y-4841000D01*
X6365000Y-4811000D02*
X6335000Y-4841000D01*
X6335000Y-5065000D02*
X6365000Y-5095000D01*
X6365000Y-5065000D02*
X6335000Y-5095000D01*
X7097000Y-6652500D02*
X7127000Y-6682500D01*
X7127000Y-6652500D02*
X7097000Y-6682500D01*
X8113000Y-6589000D02*
X8143000Y-6619000D01*
X8143000Y-6589000D02*
X8113000Y-6619000D01*
X9002000Y-5319000D02*
X9032000Y-5349000D01*
X9032000Y-5319000D02*
X9002000Y-5349000D01*
X9002000Y-5827000D02*
X9032000Y-5857000D01*
X9032000Y-5827000D02*
X9002000Y-5857000D01*
X9573500Y-6716000D02*
X9603500Y-6746000D01*
X9603500Y-6716000D02*
X9573500Y-6746000D01*
X9891000Y-4938000D02*
X9921000Y-4968000D01*
X9921000Y-4938000D02*
X9891000Y-4968000D01*
X9954500Y-5827000D02*
X9984500Y-5857000D01*
X9984500Y-5827000D02*
X9954500Y-5857000D01*
X10018000Y-5192000D02*
X10048000Y-5222000D01*
X10048000Y-5192000D02*
X10018000Y-5222000D01*
X10145000Y-6589000D02*
X10175000Y-6619000D01*
X10175000Y-6589000D02*
X10145000Y-6619000D01*
X10272000Y-5065000D02*
X10302000Y-5095000D01*
X10302000Y-5065000D02*
X10272000Y-5095000D01*
X10780000Y-5636500D02*
X10810000Y-5666500D01*
X10810000Y-5636500D02*
X10780000Y-5666500D01*
X11478500Y-5573000D02*
X11508500Y-5603000D01*
X11508500Y-5573000D02*
X11478500Y-5603000D01*
X12240500Y-5446000D02*
X12270500Y-5476000D01*
X12270500Y-5446000D02*
X12240500Y-5476000D01*
X12431000Y-5192000D02*
X12461000Y-5222000D01*
X12461000Y-5192000D02*
X12431000Y-5222000D01*
X12685000Y-5404950D02*
X12715000Y-5434950D01*
X12715000Y-5404950D02*
X12685000Y-5434950D01*
X12939000Y-6589000D02*
X12969000Y-6619000D01*
X12969000Y-6589000D02*
X12939000Y-6619000D01*
X13320000Y-5255500D02*
X13350000Y-5285500D01*
X13350000Y-5255500D02*
X13320000Y-5285500D01*
X13383500Y-5319000D02*
X13413500Y-5349000D01*
X13413500Y-5319000D02*
X13383500Y-5349000D01*
X13447000Y-5382500D02*
X13477000Y-5412500D01*
X13477000Y-5382500D02*
X13447000Y-5412500D01*
X13510500Y-5763500D02*
X13540500Y-5793500D01*
X13540500Y-5763500D02*
X13510500Y-5793500D01*
X13980400Y-4836400D02*
X14010400Y-4866400D01*
X14010400Y-4836400D02*
X13980400Y-4866400D01*
X14082000Y-4903902D02*
X14112000Y-4933902D01*
X14112000Y-4903902D02*
X14082000Y-4933902D01*
X14145500Y-5382500D02*
X14175500Y-5412500D01*
X14175500Y-5382500D02*
X14145500Y-5412500D01*
X14209000Y-5192000D02*
X14239000Y-5222000D01*
X14239000Y-5192000D02*
X14209000Y-5222000D01*
X14209000Y-6589000D02*
X14239000Y-6619000D01*
X14239000Y-6589000D02*
X14209000Y-6619000D01*
X14590000Y-4277600D02*
X14620000Y-4307600D01*
X14620000Y-4277600D02*
X14590000Y-4307600D01*
X14742400Y-4480800D02*
X14772400Y-4510800D01*
X14772400Y-4480800D02*
X14742400Y-4510800D01*
X14780500Y-5573000D02*
X14810500Y-5603000D01*
X14810500Y-5573000D02*
X14780500Y-5603000D01*
X14844000Y-6271500D02*
X14874000Y-6301500D01*
X14874000Y-6271500D02*
X14844000Y-6301500D01*
X14920200Y-4734800D02*
X14950200Y-4764800D01*
X14950200Y-4734800D02*
X14920200Y-4764800D01*
X15102340Y-5707413D02*
X15132340Y-5737413D01*
X15132340Y-5707413D02*
X15102340Y-5737413D01*
X15135500Y-4436500D02*
X15165500Y-4466500D01*
X15165500Y-4436500D02*
X15135500Y-4466500D01*
X15135500Y-4861800D02*
X15165500Y-4891800D01*
X15165500Y-4861800D02*
X15135500Y-4891800D01*
X15275800Y-4277600D02*
X15305800Y-4307600D01*
X15305800Y-4277600D02*
X15275800Y-4307600D01*
X15275800Y-4506200D02*
X15305800Y-4536200D01*
X15305800Y-4506200D02*
X15275800Y-4536200D01*
X15275800Y-4709400D02*
X15305800Y-4739400D01*
X15305800Y-4709400D02*
X15275800Y-4739400D01*
X15580600Y-4074400D02*
X15610600Y-4104400D01*
X15610600Y-4074400D02*
X15580600Y-4104400D01*
X15606000Y-5509500D02*
X15636000Y-5539500D01*
X15636000Y-5509500D02*
X15606000Y-5539500D01*
X15669500Y-6716000D02*
X15699500Y-6746000D01*
X15699500Y-6716000D02*
X15669500Y-6746000D01*
X15860000Y-4277600D02*
X15890000Y-4307600D01*
X15890000Y-4277600D02*
X15860000Y-4307600D01*
X15860000Y-4430000D02*
X15890000Y-4460000D01*
X15890000Y-4430000D02*
X15860000Y-4460000D01*
X15860000Y-4709400D02*
X15890000Y-4739400D01*
X15890000Y-4709400D02*
X15860000Y-4739400D01*
X15860000Y-5065000D02*
X15890000Y-5095000D01*
X15890000Y-5065000D02*
X15860000Y-5095000D01*
X16024500Y-4430000D02*
X16054500Y-4460000D01*
X16054500Y-4430000D02*
X16024500Y-4460000D01*
X16024500Y-4861800D02*
X16054500Y-4891800D01*
X16054500Y-4861800D02*
X16024500Y-4891800D01*
X16037800Y-4049000D02*
X16067800Y-4079000D01*
X16067800Y-4049000D02*
X16037800Y-4079000D01*
X16114000Y-4493500D02*
X16144000Y-4523500D01*
X16144000Y-4493500D02*
X16114000Y-4523500D01*
X16685500Y-5382500D02*
X16715500Y-5412500D01*
X16715500Y-5382500D02*
X16685500Y-5412500D01*
X16876000Y-5128500D02*
X16906000Y-5158500D01*
X16906000Y-5128500D02*
X16876000Y-5158500D01*
X16876000Y-6589000D02*
X16906000Y-6619000D01*
X16906000Y-6589000D02*
X16876000Y-6619000D01*
X16939500Y-5636500D02*
X16969500Y-5666500D01*
X16969500Y-5636500D02*
X16939500Y-5666500D01*
X17257000Y-4366500D02*
X17287000Y-4396500D01*
X17287000Y-4366500D02*
X17257000Y-4396500D01*
X17257000Y-5319000D02*
X17287000Y-5349000D01*
X17287000Y-5319000D02*
X17257000Y-5349000D01*
X17511000Y-4366500D02*
X17541000Y-4396500D01*
X17541000Y-4366500D02*
X17511000Y-4396500D01*
X17574500Y-4874500D02*
X17604500Y-4904500D01*
X17604500Y-4874500D02*
X17574500Y-4904500D01*
X17638000Y-6716000D02*
X17668000Y-6746000D01*
X17668000Y-6716000D02*
X17638000Y-6746000D01*
X17765000Y-4366500D02*
X17795000Y-4396500D01*
X17795000Y-4366500D02*
X17765000Y-4396500D01*
X18019000Y-4366500D02*
X18049000Y-4396500D01*
X18049000Y-4366500D02*
X18019000Y-4396500D01*
X18209500Y-4811000D02*
X18239500Y-4841000D01*
X18239500Y-4811000D02*
X18209500Y-4841000D01*
X18273000Y-4366500D02*
X18303000Y-4396500D01*
X18303000Y-4366500D02*
X18273000Y-4396500D01*
X18273000Y-5827000D02*
X18303000Y-5857000D01*
X18303000Y-5827000D02*
X18273000Y-5857000D01*
X18908000Y-6525500D02*
X18938000Y-6555500D01*
X18938000Y-6525500D02*
X18908000Y-6555500D01*
X20305000Y-4557000D02*
X20335000Y-4587000D01*
X20335000Y-4557000D02*
X20305000Y-4587000D01*
X20305000Y-5065000D02*
X20335000Y-5095000D01*
X20335000Y-5065000D02*
X20305000Y-5095000D01*
X20813000Y-6525500D02*
X20843000Y-6555500D01*
X20843000Y-6525500D02*
X20813000Y-6555500D01*
X21067000Y-4557000D02*
X21097000Y-4587000D01*
X21097000Y-4557000D02*
X21067000Y-4587000D01*
X21067000Y-5065000D02*
X21097000Y-5095000D01*
X21097000Y-5065000D02*
X21067000Y-5095000D01*
X11216640Y-5080000D02*
G75*
G02*
X11135360Y-5080000I-40640J0D01*
G01*
X11135360Y-5080000D02*
G75*
G02*
X11216640Y-5080000I40640J0D01*
G01*
X11216640Y-5334000D02*
G75*
G02*
X11135360Y-5334000I-40640J0D01*
G01*
X11135360Y-5334000D02*
G75*
G02*
X11216640Y-5334000I40640J0D01*
G01*
X11216640Y-5588000D02*
G75*
G02*
X11135360Y-5588000I-40640J0D01*
G01*
X11135360Y-5588000D02*
G75*
G02*
X11216640Y-5588000I40640J0D01*
G01*
X11978640Y-5080000D02*
G75*
G02*
X11897360Y-5080000I-40640J0D01*
G01*
X11897360Y-5080000D02*
G75*
G02*
X11978640Y-5080000I40640J0D01*
G01*
X11978640Y-5334000D02*
G75*
G02*
X11897360Y-5334000I-40640J0D01*
G01*
X11897360Y-5334000D02*
G75*
G02*
X11978640Y-5334000I40640J0D01*
G01*
X11978640Y-5588000D02*
G75*
G02*
X11897360Y-5588000I-40640J0D01*
G01*
X11897360Y-5588000D02*
G75*
G02*
X11978640Y-5588000I40640J0D01*
G01*
X6188000Y-6334355D02*
X6188000Y-6424355D01*
X6143000Y-6379355D02*
X6233000Y-6379355D01*
X6442000Y-6334355D02*
X6442000Y-6424355D01*
X6397000Y-6379355D02*
X6487000Y-6379355D01*
X8220000Y-6334355D02*
X8220000Y-6424355D01*
X8175000Y-6379355D02*
X8265000Y-6379355D01*
X8474000Y-6334355D02*
X8474000Y-6424355D01*
X8429000Y-6379355D02*
X8519000Y-6379355D01*
X10252000Y-6334355D02*
X10252000Y-6424355D01*
X10207000Y-6379355D02*
X10297000Y-6379355D01*
X10506000Y-6334355D02*
X10506000Y-6424355D01*
X10461000Y-6379355D02*
X10551000Y-6379355D01*
X12284000Y-6334355D02*
X12284000Y-6424355D01*
X12239000Y-6379355D02*
X12329000Y-6379355D01*
X12538000Y-6334355D02*
X12538000Y-6424355D01*
X12493000Y-6379355D02*
X12583000Y-6379355D01*
X14316000Y-6334355D02*
X14316000Y-6424355D01*
X14271000Y-6379355D02*
X14361000Y-6379355D01*
X14570000Y-6334355D02*
X14570000Y-6424355D01*
X14525000Y-6379355D02*
X14615000Y-6379355D01*
X14725000Y-5289000D02*
X14725000Y-5379000D01*
X14680000Y-5334000D02*
X14770000Y-5334000D01*
X14979000Y-5289000D02*
X14979000Y-5379000D01*
X14934000Y-5334000D02*
X15024000Y-5334000D01*
X16348000Y-6334355D02*
X16348000Y-6424355D01*
X16303000Y-6379355D02*
X16393000Y-6379355D01*
X16602000Y-6334355D02*
X16602000Y-6424355D01*
X16557000Y-6379355D02*
X16647000Y-6379355D01*
X18380000Y-6334355D02*
X18380000Y-6424355D01*
X18335000Y-6379355D02*
X18425000Y-6379355D01*
X18634000Y-6334355D02*
X18634000Y-6424355D01*
X18589000Y-6379355D02*
X18679000Y-6379355D01*
X20320000Y-6334355D02*
X20320000Y-6424355D01*
X20275000Y-6379355D02*
X20365000Y-6379355D01*
X20574000Y-6334355D02*
X20574000Y-6424355D01*
X20529000Y-6379355D02*
X20619000Y-6379355D01*
X20701000Y-4400000D02*
X20701000Y-4490000D01*
X20656000Y-4445000D02*
X20746000Y-4445000D01*
X20701000Y-5670000D02*
X20701000Y-5760000D01*
X20656000Y-5715000D02*
X20746000Y-5715000D01*
X5785024Y-7335868D02*
X5785024Y-7265822D01*
X5714977Y-7265822D01*
X5714977Y-7335868D01*
X5785024Y-7335868D01*
X5785024Y-8555868D02*
X5785024Y-8485822D01*
X5714977Y-8485822D01*
X5714977Y-8555868D01*
X5785024Y-8555868D01*
X6385023Y-7145868D02*
X6385023Y-7075822D01*
X6314977Y-7075822D01*
X6314977Y-7145868D01*
X6385023Y-7145868D01*
X6985023Y-7335868D02*
X6985023Y-7265822D01*
X6914977Y-7265822D01*
X6914977Y-7335868D01*
X6985023Y-7335868D01*
X6985023Y-8555868D02*
X6985023Y-8485822D01*
X6914977Y-8485822D01*
X6914977Y-8555868D01*
X6985023Y-8555868D01*
X7817024Y-7335868D02*
X7817024Y-7265822D01*
X7746977Y-7265822D01*
X7746977Y-7335868D01*
X7817024Y-7335868D01*
X7817024Y-8555868D02*
X7817024Y-8485822D01*
X7746977Y-8485822D01*
X7746977Y-8555868D01*
X7817024Y-8555868D01*
X8417024Y-7145868D02*
X8417024Y-7075822D01*
X8346977Y-7075822D01*
X8346977Y-7145868D01*
X8417024Y-7145868D01*
X9017023Y-7335868D02*
X9017023Y-7265822D01*
X8946977Y-7265822D01*
X8946977Y-7335868D01*
X9017023Y-7335868D01*
X9017023Y-8555868D02*
X9017023Y-8485822D01*
X8946977Y-8485822D01*
X8946977Y-8555868D01*
X9017023Y-8555868D01*
X9849024Y-7335868D02*
X9849024Y-7265822D01*
X9778977Y-7265822D01*
X9778977Y-7335868D01*
X9849024Y-7335868D01*
X9849024Y-8555868D02*
X9849024Y-8485822D01*
X9778977Y-8485822D01*
X9778977Y-8555868D01*
X9849024Y-8555868D01*
X10449024Y-7145868D02*
X10449024Y-7075822D01*
X10378977Y-7075822D01*
X10378977Y-7145868D01*
X10449024Y-7145868D01*
X11049023Y-7335868D02*
X11049023Y-7265822D01*
X10978977Y-7265822D01*
X10978977Y-7335868D01*
X11049023Y-7335868D01*
X11049023Y-8555868D02*
X11049023Y-8485822D01*
X10978977Y-8485822D01*
X10978977Y-8555868D01*
X11049023Y-8555868D01*
X11881024Y-7335868D02*
X11881024Y-7265822D01*
X11810977Y-7265822D01*
X11810977Y-7335868D01*
X11881024Y-7335868D01*
X11881024Y-8555868D02*
X11881024Y-8485822D01*
X11810977Y-8485822D01*
X11810977Y-8555868D01*
X11881024Y-8555868D01*
X12481023Y-7145868D02*
X12481023Y-7075822D01*
X12410977Y-7075822D01*
X12410977Y-7145868D01*
X12481023Y-7145868D01*
X13081023Y-7335868D02*
X13081023Y-7265822D01*
X13010977Y-7265822D01*
X13010977Y-7335868D01*
X13081023Y-7335868D01*
X13081023Y-8555868D02*
X13081023Y-8485822D01*
X13010977Y-8485822D01*
X13010977Y-8555868D01*
X13081023Y-8555868D01*
X13913023Y-7335868D02*
X13913023Y-7265822D01*
X13842977Y-7265822D01*
X13842977Y-7335868D01*
X13913023Y-7335868D01*
X13913023Y-8555868D02*
X13913023Y-8485822D01*
X13842977Y-8485822D01*
X13842977Y-8555868D01*
X13913023Y-8555868D01*
X14513023Y-7145868D02*
X14513023Y-7075822D01*
X14442977Y-7075822D01*
X14442977Y-7145868D01*
X14513023Y-7145868D01*
X15113023Y-7335868D02*
X15113023Y-7265822D01*
X15042976Y-7265822D01*
X15042976Y-7335868D01*
X15113023Y-7335868D01*
X15113023Y-8555868D02*
X15113023Y-8485822D01*
X15042976Y-8485822D01*
X15042976Y-8555868D01*
X15113023Y-8555868D01*
X15945024Y-7335868D02*
X15945024Y-7265822D01*
X15874977Y-7265822D01*
X15874977Y-7335868D01*
X15945024Y-7335868D01*
X15945024Y-8555868D02*
X15945024Y-8485822D01*
X15874977Y-8485822D01*
X15874977Y-8555868D01*
X15945024Y-8555868D01*
X16545023Y-7145868D02*
X16545023Y-7075822D01*
X16474977Y-7075822D01*
X16474977Y-7145868D01*
X16545023Y-7145868D01*
X17145023Y-7335868D02*
X17145023Y-7265822D01*
X17074977Y-7265822D01*
X17074977Y-7335868D01*
X17145023Y-7335868D01*
X17145023Y-8555868D02*
X17145023Y-8485822D01*
X17074977Y-8485822D01*
X17074977Y-8555868D01*
X17145023Y-8555868D01*
X17977024Y-7335868D02*
X17977024Y-7265822D01*
X17906977Y-7265822D01*
X17906977Y-7335868D01*
X17977024Y-7335868D01*
X17977024Y-8555868D02*
X17977024Y-8485822D01*
X17906977Y-8485822D01*
X17906977Y-8555868D01*
X17977024Y-8555868D01*
X18577023Y-7145868D02*
X18577023Y-7075822D01*
X18506977Y-7075822D01*
X18506977Y-7145868D01*
X18577023Y-7145868D01*
X19177023Y-7335868D02*
X19177023Y-7265822D01*
X19106977Y-7265822D01*
X19106977Y-7335868D01*
X19177023Y-7335868D01*
X19177023Y-8555868D02*
X19177023Y-8485822D01*
X19106977Y-8485822D01*
X19106977Y-8555868D01*
X19177023Y-8555868D01*
X19917024Y-7335868D02*
X19917024Y-7265822D01*
X19846977Y-7265822D01*
X19846977Y-7335868D01*
X19917024Y-7335868D01*
X19917024Y-8555868D02*
X19917024Y-8485822D01*
X19846977Y-8485822D01*
X19846977Y-8555868D01*
X19917024Y-8555868D01*
X20517024Y-7145868D02*
X20517024Y-7075822D01*
X20446977Y-7075822D01*
X20446977Y-7145868D01*
X20517024Y-7145868D01*
X21117023Y-7335868D02*
X21117023Y-7265822D01*
X21046977Y-7265822D01*
X21046977Y-7335868D01*
X21117023Y-7335868D01*
X21117023Y-8555868D02*
X21117023Y-8485822D01*
X21046977Y-8485822D01*
X21046977Y-8555868D01*
X21117023Y-8555868D01*
D12*
X5842000Y-11976950D02*
X5911850Y-11907100D01*
X5842000Y-11837250D01*
X5772150Y-11907100D01*
X5842000Y-11976950D01*
X6350000Y-11976950D02*
X6419850Y-11907100D01*
X6350000Y-11837250D01*
X6280150Y-11907100D01*
X6350000Y-11976950D01*
X6858000Y-11976950D02*
X6927850Y-11907100D01*
X6858000Y-11837250D01*
X6788150Y-11907100D01*
X6858000Y-11976950D01*
X7874000Y-11976950D02*
X7943850Y-11907100D01*
X7874000Y-11837250D01*
X7804150Y-11907100D01*
X7874000Y-11976950D01*
X8382000Y-11976950D02*
X8451850Y-11907100D01*
X8382000Y-11837250D01*
X8312150Y-11907100D01*
X8382000Y-11976950D01*
X8890000Y-11976950D02*
X8959850Y-11907100D01*
X8890000Y-11837250D01*
X8820150Y-11907100D01*
X8890000Y-11976950D01*
X9906000Y-11976950D02*
X9975850Y-11907100D01*
X9906000Y-11837250D01*
X9836150Y-11907100D01*
X9906000Y-11976950D01*
X10414000Y-11976950D02*
X10483850Y-11907100D01*
X10414000Y-11837250D01*
X10344150Y-11907100D01*
X10414000Y-11976950D01*
X10922000Y-11976950D02*
X10991850Y-11907100D01*
X10922000Y-11837250D01*
X10852150Y-11907100D01*
X10922000Y-11976950D01*
X11938000Y-11976950D02*
X12007850Y-11907100D01*
X11938000Y-11837250D01*
X11868150Y-11907100D01*
X11938000Y-11976950D01*
X12446000Y-11976950D02*
X12515850Y-11907100D01*
X12446000Y-11837250D01*
X12376150Y-11907100D01*
X12446000Y-11976950D01*
X12954000Y-11976950D02*
X13023850Y-11907100D01*
X12954000Y-11837250D01*
X12884150Y-11907100D01*
X12954000Y-11976950D01*
X13970000Y-11976950D02*
X14039850Y-11907100D01*
X13970000Y-11837250D01*
X13900150Y-11907100D01*
X13970000Y-11976950D01*
X14478000Y-11976950D02*
X14547850Y-11907100D01*
X14478000Y-11837250D01*
X14408150Y-11907100D01*
X14478000Y-11976950D01*
X14986000Y-11976950D02*
X15055850Y-11907100D01*
X14986000Y-11837250D01*
X14916150Y-11907100D01*
X14986000Y-11976950D01*
X16002000Y-11976950D02*
X16071850Y-11907100D01*
X16002000Y-11837250D01*
X15932150Y-11907100D01*
X16002000Y-11976950D01*
X16510000Y-11976950D02*
X16579850Y-11907100D01*
X16510000Y-11837250D01*
X16440150Y-11907100D01*
X16510000Y-11976950D01*
X17018000Y-11976950D02*
X17087850Y-11907100D01*
X17018000Y-11837250D01*
X16948150Y-11907100D01*
X17018000Y-11976950D01*
X18034000Y-11976950D02*
X18103850Y-11907100D01*
X18034000Y-11837250D01*
X17964150Y-11907100D01*
X18034000Y-11976950D01*
X18542000Y-11976950D02*
X18611850Y-11907100D01*
X18542000Y-11837250D01*
X18472150Y-11907100D01*
X18542000Y-11976950D01*
X19050000Y-11976950D02*
X19119850Y-11907100D01*
X19050000Y-11837250D01*
X18980150Y-11907100D01*
X19050000Y-11976950D01*
X19974000Y-11976950D02*
X20043850Y-11907100D01*
X19974000Y-11837250D01*
X19904150Y-11907100D01*
X19974000Y-11976950D01*
X20482000Y-11976950D02*
X20551850Y-11907100D01*
X20482000Y-11837250D01*
X20412150Y-11907100D01*
X20482000Y-11976950D01*
X20990000Y-11976950D02*
X21059850Y-11907100D01*
X20990000Y-11837250D01*
X20920150Y-11907100D01*
X20990000Y-11976950D01*
D13*
X6275000Y-9570100D02*
X6425000Y-9720100D01*
X6425000Y-9570100D02*
X6275000Y-9720100D01*
X6425000Y-9645100D02*
G75*
G02*
X6275000Y-9645100I-75000J0D01*
G01*
X6275000Y-9645100D02*
G75*
G02*
X6425000Y-9645100I75000J0D01*
G01*
X6275000Y-11070100D02*
X6425000Y-11220100D01*
X6425000Y-11070100D02*
X6275000Y-11220100D01*
X6425000Y-11145100D02*
G75*
G02*
X6275000Y-11145100I-75000J0D01*
G01*
X6275000Y-11145100D02*
G75*
G02*
X6425000Y-11145100I75000J0D01*
G01*
X8307000Y-9570100D02*
X8457000Y-9720100D01*
X8457000Y-9570100D02*
X8307000Y-9720100D01*
X8457000Y-9645100D02*
G75*
G02*
X8307000Y-9645100I-75000J0D01*
G01*
X8307000Y-9645100D02*
G75*
G02*
X8457000Y-9645100I75000J0D01*
G01*
X8307000Y-11070100D02*
X8457000Y-11220100D01*
X8457000Y-11070100D02*
X8307000Y-11220100D01*
X8457000Y-11145100D02*
G75*
G02*
X8307000Y-11145100I-75000J0D01*
G01*
X8307000Y-11145100D02*
G75*
G02*
X8457000Y-11145100I75000J0D01*
G01*
X10339000Y-9570100D02*
X10489000Y-9720100D01*
X10489000Y-9570100D02*
X10339000Y-9720100D01*
X10489000Y-9645100D02*
G75*
G02*
X10339000Y-9645100I-75000J0D01*
G01*
X10339000Y-9645100D02*
G75*
G02*
X10489000Y-9645100I75000J0D01*
G01*
X10339000Y-11070100D02*
X10489000Y-11220100D01*
X10489000Y-11070100D02*
X10339000Y-11220100D01*
X10489000Y-11145100D02*
G75*
G02*
X10339000Y-11145100I-75000J0D01*
G01*
X10339000Y-11145100D02*
G75*
G02*
X10489000Y-11145100I75000J0D01*
G01*
X12371000Y-9570100D02*
X12521000Y-9720100D01*
X12521000Y-9570100D02*
X12371000Y-9720100D01*
X12521000Y-9645100D02*
G75*
G02*
X12371000Y-9645100I-75000J0D01*
G01*
X12371000Y-9645100D02*
G75*
G02*
X12521000Y-9645100I75000J0D01*
G01*
X12371000Y-11070100D02*
X12521000Y-11220100D01*
X12521000Y-11070100D02*
X12371000Y-11220100D01*
X12521000Y-11145100D02*
G75*
G02*
X12371000Y-11145100I-75000J0D01*
G01*
X12371000Y-11145100D02*
G75*
G02*
X12521000Y-11145100I75000J0D01*
G01*
X12700500Y-4421450D02*
X12850500Y-4571450D01*
X12850500Y-4421450D02*
X12700500Y-4571450D01*
X12850500Y-4496450D02*
G75*
G02*
X12700500Y-4496450I-75000J0D01*
G01*
X12700500Y-4496450D02*
G75*
G02*
X12850500Y-4496450I75000J0D01*
G01*
X14200500Y-4421450D02*
X14350500Y-4571450D01*
X14350500Y-4421450D02*
X14200500Y-4571450D01*
X14350500Y-4496450D02*
G75*
G02*
X14200500Y-4496450I-75000J0D01*
G01*
X14200500Y-4496450D02*
G75*
G02*
X14350500Y-4496450I75000J0D01*
G01*
X14403000Y-9570100D02*
X14553000Y-9720100D01*
X14553000Y-9570100D02*
X14403000Y-9720100D01*
X14553000Y-9645100D02*
G75*
G02*
X14403000Y-9645100I-75000J0D01*
G01*
X14403000Y-9645100D02*
G75*
G02*
X14553000Y-9645100I75000J0D01*
G01*
X14403000Y-11070100D02*
X14553000Y-11220100D01*
X14553000Y-11070100D02*
X14403000Y-11220100D01*
X14553000Y-11145100D02*
G75*
G02*
X14403000Y-11145100I-75000J0D01*
G01*
X14403000Y-11145100D02*
G75*
G02*
X14553000Y-11145100I75000J0D01*
G01*
X16435000Y-9570100D02*
X16585000Y-9720100D01*
X16585000Y-9570100D02*
X16435000Y-9720100D01*
X16585000Y-9645100D02*
G75*
G02*
X16435000Y-9645100I-75000J0D01*
G01*
X16435000Y-9645100D02*
G75*
G02*
X16585000Y-9645100I75000J0D01*
G01*
X16435000Y-11070100D02*
X16585000Y-11220100D01*
X16585000Y-11070100D02*
X16435000Y-11220100D01*
X16585000Y-11145100D02*
G75*
G02*
X16435000Y-11145100I-75000J0D01*
G01*
X16435000Y-11145100D02*
G75*
G02*
X16585000Y-11145100I75000J0D01*
G01*
X18467000Y-9570100D02*
X18617000Y-9720100D01*
X18617000Y-9570100D02*
X18467000Y-9720100D01*
X18617000Y-9645100D02*
G75*
G02*
X18467000Y-9645100I-75000J0D01*
G01*
X18467000Y-9645100D02*
G75*
G02*
X18617000Y-9645100I75000J0D01*
G01*
X18467000Y-11070100D02*
X18617000Y-11220100D01*
X18617000Y-11070100D02*
X18467000Y-11220100D01*
X18617000Y-11145100D02*
G75*
G02*
X18467000Y-11145100I-75000J0D01*
G01*
X18467000Y-11145100D02*
G75*
G02*
X18617000Y-11145100I75000J0D01*
G01*
X20407000Y-9570100D02*
X20557000Y-9720100D01*
X20557000Y-9570100D02*
X20407000Y-9720100D01*
X20557000Y-9645100D02*
G75*
G02*
X20407000Y-9645100I-75000J0D01*
G01*
X20407000Y-9645100D02*
G75*
G02*
X20557000Y-9645100I75000J0D01*
G01*
X20407000Y-11070100D02*
X20557000Y-11220100D01*
X20557000Y-11070100D02*
X20407000Y-11220100D01*
X20557000Y-11145100D02*
G75*
G02*
X20407000Y-11145100I-75000J0D01*
G01*
X20407000Y-11145100D02*
G75*
G02*
X20557000Y-11145100I75000J0D01*
G01*
D14*
X11036500Y-4293450D02*
X11188500Y-4445450D01*
X11188500Y-4293450D02*
X11036500Y-4445450D01*
X11112500Y-4293450D02*
X11112500Y-4445450D01*
X11036500Y-4369450D02*
X11188500Y-4369450D01*
X11544500Y-4293450D02*
X11696500Y-4445450D01*
X11696500Y-4293450D02*
X11544500Y-4445450D01*
X11620500Y-4293450D02*
X11620500Y-4445450D01*
X11544500Y-4369450D02*
X11696500Y-4369450D01*
D10*
X4822777Y-13275484D02*
X4822777Y-13075484D01*
X4822777Y-13075484D02*
X4870396Y-13075484D01*
X4870396Y-13075484D02*
X4898967Y-13085008D01*
X4898967Y-13085008D02*
X4918015Y-13104055D01*
X4918015Y-13104055D02*
X4927539Y-13123103D01*
X4927539Y-13123103D02*
X4937063Y-13161198D01*
X4937063Y-13161198D02*
X4937063Y-13189769D01*
X4937063Y-13189769D02*
X4927539Y-13227865D01*
X4927539Y-13227865D02*
X4918015Y-13246912D01*
X4918015Y-13246912D02*
X4898967Y-13265960D01*
X4898967Y-13265960D02*
X4870396Y-13275484D01*
X4870396Y-13275484D02*
X4822777Y-13275484D01*
X5022777Y-13275484D02*
X5022777Y-13142150D01*
X5022777Y-13180246D02*
X5032301Y-13161198D01*
X5032301Y-13161198D02*
X5041824Y-13151674D01*
X5041824Y-13151674D02*
X5060872Y-13142150D01*
X5060872Y-13142150D02*
X5079920Y-13142150D01*
X5146586Y-13275484D02*
X5146586Y-13142150D01*
X5146586Y-13075484D02*
X5137063Y-13085008D01*
X5137063Y-13085008D02*
X5146586Y-13094531D01*
X5146586Y-13094531D02*
X5156110Y-13085008D01*
X5156110Y-13085008D02*
X5146586Y-13075484D01*
X5146586Y-13075484D02*
X5146586Y-13094531D01*
X5270396Y-13275484D02*
X5251348Y-13265960D01*
X5251348Y-13265960D02*
X5241824Y-13246912D01*
X5241824Y-13246912D02*
X5241824Y-13075484D01*
X5375158Y-13275484D02*
X5356110Y-13265960D01*
X5356110Y-13265960D02*
X5346586Y-13246912D01*
X5346586Y-13246912D02*
X5346586Y-13075484D01*
X5603729Y-13275484D02*
X5603729Y-13075484D01*
X5603729Y-13075484D02*
X5670396Y-13218341D01*
X5670396Y-13218341D02*
X5737062Y-13075484D01*
X5737062Y-13075484D02*
X5737062Y-13275484D01*
X5918015Y-13275484D02*
X5918015Y-13170722D01*
X5918015Y-13170722D02*
X5908491Y-13151674D01*
X5908491Y-13151674D02*
X5889443Y-13142150D01*
X5889443Y-13142150D02*
X5851348Y-13142150D01*
X5851348Y-13142150D02*
X5832301Y-13151674D01*
X5918015Y-13265960D02*
X5898967Y-13275484D01*
X5898967Y-13275484D02*
X5851348Y-13275484D01*
X5851348Y-13275484D02*
X5832301Y-13265960D01*
X5832301Y-13265960D02*
X5822777Y-13246912D01*
X5822777Y-13246912D02*
X5822777Y-13227865D01*
X5822777Y-13227865D02*
X5832301Y-13208817D01*
X5832301Y-13208817D02*
X5851348Y-13199293D01*
X5851348Y-13199293D02*
X5898967Y-13199293D01*
X5898967Y-13199293D02*
X5918015Y-13189769D01*
X6013253Y-13142150D02*
X6013253Y-13342150D01*
X6013253Y-13151674D02*
X6032301Y-13142150D01*
X6032301Y-13142150D02*
X6070396Y-13142150D01*
X6070396Y-13142150D02*
X6089443Y-13151674D01*
X6089443Y-13151674D02*
X6098967Y-13161198D01*
X6098967Y-13161198D02*
X6108491Y-13180246D01*
X6108491Y-13180246D02*
X6108491Y-13237388D01*
X6108491Y-13237388D02*
X6098967Y-13256436D01*
X6098967Y-13256436D02*
X6089443Y-13265960D01*
X6089443Y-13265960D02*
X6070396Y-13275484D01*
X6070396Y-13275484D02*
X6032301Y-13275484D01*
X6032301Y-13275484D02*
X6013253Y-13265960D01*
X6194205Y-13256436D02*
X6203729Y-13265960D01*
X6203729Y-13265960D02*
X6194205Y-13275484D01*
X6194205Y-13275484D02*
X6184682Y-13265960D01*
X6184682Y-13265960D02*
X6194205Y-13256436D01*
X6194205Y-13256436D02*
X6194205Y-13275484D01*
X6194205Y-13151674D02*
X6203729Y-13161198D01*
X6203729Y-13161198D02*
X6194205Y-13170722D01*
X6194205Y-13170722D02*
X6184682Y-13161198D01*
X6184682Y-13161198D02*
X6194205Y-13151674D01*
X6194205Y-13151674D02*
X6194205Y-13170722D01*
D11*
X4532000Y-13589000D02*
X4562000Y-13619000D01*
X4562000Y-13589000D02*
X4532000Y-13619000D01*
D10*
X4860872Y-13495484D02*
X4879920Y-13495484D01*
X4879920Y-13495484D02*
X4898967Y-13505008D01*
X4898967Y-13505008D02*
X4908491Y-13514531D01*
X4908491Y-13514531D02*
X4918015Y-13533579D01*
X4918015Y-13533579D02*
X4927539Y-13571674D01*
X4927539Y-13571674D02*
X4927539Y-13619293D01*
X4927539Y-13619293D02*
X4918015Y-13657388D01*
X4918015Y-13657388D02*
X4908491Y-13676436D01*
X4908491Y-13676436D02*
X4898967Y-13685960D01*
X4898967Y-13685960D02*
X4879920Y-13695484D01*
X4879920Y-13695484D02*
X4860872Y-13695484D01*
X4860872Y-13695484D02*
X4841824Y-13685960D01*
X4841824Y-13685960D02*
X4832301Y-13676436D01*
X4832301Y-13676436D02*
X4822777Y-13657388D01*
X4822777Y-13657388D02*
X4813253Y-13619293D01*
X4813253Y-13619293D02*
X4813253Y-13571674D01*
X4813253Y-13571674D02*
X4822777Y-13533579D01*
X4822777Y-13533579D02*
X4832301Y-13514531D01*
X4832301Y-13514531D02*
X4841824Y-13505008D01*
X4841824Y-13505008D02*
X4860872Y-13495484D01*
X5013253Y-13676436D02*
X5022777Y-13685960D01*
X5022777Y-13685960D02*
X5013253Y-13695484D01*
X5013253Y-13695484D02*
X5003729Y-13685960D01*
X5003729Y-13685960D02*
X5013253Y-13676436D01*
X5013253Y-13676436D02*
X5013253Y-13695484D01*
X5089444Y-13495484D02*
X5213253Y-13495484D01*
X5213253Y-13495484D02*
X5146586Y-13571674D01*
X5146586Y-13571674D02*
X5175158Y-13571674D01*
X5175158Y-13571674D02*
X5194205Y-13581198D01*
X5194205Y-13581198D02*
X5203729Y-13590722D01*
X5203729Y-13590722D02*
X5213253Y-13609769D01*
X5213253Y-13609769D02*
X5213253Y-13657388D01*
X5213253Y-13657388D02*
X5203729Y-13676436D01*
X5203729Y-13676436D02*
X5194205Y-13685960D01*
X5194205Y-13685960D02*
X5175158Y-13695484D01*
X5175158Y-13695484D02*
X5118015Y-13695484D01*
X5118015Y-13695484D02*
X5098967Y-13685960D01*
X5098967Y-13685960D02*
X5089444Y-13676436D01*
X5337063Y-13495484D02*
X5356110Y-13495484D01*
X5356110Y-13495484D02*
X5375158Y-13505008D01*
X5375158Y-13505008D02*
X5384682Y-13514531D01*
X5384682Y-13514531D02*
X5394205Y-13533579D01*
X5394205Y-13533579D02*
X5403729Y-13571674D01*
X5403729Y-13571674D02*
X5403729Y-13619293D01*
X5403729Y-13619293D02*
X5394205Y-13657388D01*
X5394205Y-13657388D02*
X5384682Y-13676436D01*
X5384682Y-13676436D02*
X5375158Y-13685960D01*
X5375158Y-13685960D02*
X5356110Y-13695484D01*
X5356110Y-13695484D02*
X5337063Y-13695484D01*
X5337063Y-13695484D02*
X5318015Y-13685960D01*
X5318015Y-13685960D02*
X5308491Y-13676436D01*
X5308491Y-13676436D02*
X5298967Y-13657388D01*
X5298967Y-13657388D02*
X5289444Y-13619293D01*
X5289444Y-13619293D02*
X5289444Y-13571674D01*
X5289444Y-13571674D02*
X5298967Y-13533579D01*
X5298967Y-13533579D02*
X5308491Y-13514531D01*
X5308491Y-13514531D02*
X5318015Y-13505008D01*
X5318015Y-13505008D02*
X5337063Y-13495484D01*
X5527539Y-13495484D02*
X5546586Y-13495484D01*
X5546586Y-13495484D02*
X5565634Y-13505008D01*
X5565634Y-13505008D02*
X5575158Y-13514531D01*
X5575158Y-13514531D02*
X5584682Y-13533579D01*
X5584682Y-13533579D02*
X5594205Y-13571674D01*
X5594205Y-13571674D02*
X5594205Y-13619293D01*
X5594205Y-13619293D02*
X5584682Y-13657388D01*
X5584682Y-13657388D02*
X5575158Y-13676436D01*
X5575158Y-13676436D02*
X5565634Y-13685960D01*
X5565634Y-13685960D02*
X5546586Y-13695484D01*
X5546586Y-13695484D02*
X5527539Y-13695484D01*
X5527539Y-13695484D02*
X5508491Y-13685960D01*
X5508491Y-13685960D02*
X5498967Y-13676436D01*
X5498967Y-13676436D02*
X5489444Y-13657388D01*
X5489444Y-13657388D02*
X5479920Y-13619293D01*
X5479920Y-13619293D02*
X5479920Y-13571674D01*
X5479920Y-13571674D02*
X5489444Y-13533579D01*
X5489444Y-13533579D02*
X5498967Y-13514531D01*
X5498967Y-13514531D02*
X5508491Y-13505008D01*
X5508491Y-13505008D02*
X5527539Y-13495484D01*
X5679920Y-13695484D02*
X5679920Y-13562150D01*
X5679920Y-13581198D02*
X5689443Y-13571674D01*
X5689443Y-13571674D02*
X5708491Y-13562150D01*
X5708491Y-13562150D02*
X5737063Y-13562150D01*
X5737063Y-13562150D02*
X5756110Y-13571674D01*
X5756110Y-13571674D02*
X5765634Y-13590722D01*
X5765634Y-13590722D02*
X5765634Y-13695484D01*
X5765634Y-13590722D02*
X5775158Y-13571674D01*
X5775158Y-13571674D02*
X5794205Y-13562150D01*
X5794205Y-13562150D02*
X5822777Y-13562150D01*
X5822777Y-13562150D02*
X5841824Y-13571674D01*
X5841824Y-13571674D02*
X5851348Y-13590722D01*
X5851348Y-13590722D02*
X5851348Y-13695484D01*
X5946586Y-13695484D02*
X5946586Y-13562150D01*
X5946586Y-13581198D02*
X5956110Y-13571674D01*
X5956110Y-13571674D02*
X5975158Y-13562150D01*
X5975158Y-13562150D02*
X6003729Y-13562150D01*
X6003729Y-13562150D02*
X6022777Y-13571674D01*
X6022777Y-13571674D02*
X6032301Y-13590722D01*
X6032301Y-13590722D02*
X6032301Y-13695484D01*
X6032301Y-13590722D02*
X6041824Y-13571674D01*
X6041824Y-13571674D02*
X6060872Y-13562150D01*
X6060872Y-13562150D02*
X6089443Y-13562150D01*
X6089443Y-13562150D02*
X6108491Y-13571674D01*
X6108491Y-13571674D02*
X6118015Y-13590722D01*
X6118015Y-13590722D02*
X6118015Y-13695484D01*
X6508491Y-13485960D02*
X6337063Y-13743103D01*
X6765634Y-13495484D02*
X6784682Y-13495484D01*
X6784682Y-13495484D02*
X6803729Y-13505008D01*
X6803729Y-13505008D02*
X6813253Y-13514531D01*
X6813253Y-13514531D02*
X6822777Y-13533579D01*
X6822777Y-13533579D02*
X6832301Y-13571674D01*
X6832301Y-13571674D02*
X6832301Y-13619293D01*
X6832301Y-13619293D02*
X6822777Y-13657388D01*
X6822777Y-13657388D02*
X6813253Y-13676436D01*
X6813253Y-13676436D02*
X6803729Y-13685960D01*
X6803729Y-13685960D02*
X6784682Y-13695484D01*
X6784682Y-13695484D02*
X6765634Y-13695484D01*
X6765634Y-13695484D02*
X6746586Y-13685960D01*
X6746586Y-13685960D02*
X6737063Y-13676436D01*
X6737063Y-13676436D02*
X6727539Y-13657388D01*
X6727539Y-13657388D02*
X6718015Y-13619293D01*
X6718015Y-13619293D02*
X6718015Y-13571674D01*
X6718015Y-13571674D02*
X6727539Y-13533579D01*
X6727539Y-13533579D02*
X6737063Y-13514531D01*
X6737063Y-13514531D02*
X6746586Y-13505008D01*
X6746586Y-13505008D02*
X6765634Y-13495484D01*
X6918015Y-13676436D02*
X6927539Y-13685960D01*
X6927539Y-13685960D02*
X6918015Y-13695484D01*
X6918015Y-13695484D02*
X6908491Y-13685960D01*
X6908491Y-13685960D02*
X6918015Y-13676436D01*
X6918015Y-13676436D02*
X6918015Y-13695484D01*
X7051348Y-13495484D02*
X7070396Y-13495484D01*
X7070396Y-13495484D02*
X7089444Y-13505008D01*
X7089444Y-13505008D02*
X7098967Y-13514531D01*
X7098967Y-13514531D02*
X7108491Y-13533579D01*
X7108491Y-13533579D02*
X7118015Y-13571674D01*
X7118015Y-13571674D02*
X7118015Y-13619293D01*
X7118015Y-13619293D02*
X7108491Y-13657388D01*
X7108491Y-13657388D02*
X7098967Y-13676436D01*
X7098967Y-13676436D02*
X7089444Y-13685960D01*
X7089444Y-13685960D02*
X7070396Y-13695484D01*
X7070396Y-13695484D02*
X7051348Y-13695484D01*
X7051348Y-13695484D02*
X7032301Y-13685960D01*
X7032301Y-13685960D02*
X7022777Y-13676436D01*
X7022777Y-13676436D02*
X7013253Y-13657388D01*
X7013253Y-13657388D02*
X7003729Y-13619293D01*
X7003729Y-13619293D02*
X7003729Y-13571674D01*
X7003729Y-13571674D02*
X7013253Y-13533579D01*
X7013253Y-13533579D02*
X7022777Y-13514531D01*
X7022777Y-13514531D02*
X7032301Y-13505008D01*
X7032301Y-13505008D02*
X7051348Y-13495484D01*
X7308491Y-13695484D02*
X7194206Y-13695484D01*
X7251348Y-13695484D02*
X7251348Y-13495484D01*
X7251348Y-13495484D02*
X7232301Y-13524055D01*
X7232301Y-13524055D02*
X7213253Y-13543103D01*
X7213253Y-13543103D02*
X7194206Y-13552627D01*
X7498967Y-13695484D02*
X7384682Y-13695484D01*
X7441825Y-13695484D02*
X7441825Y-13495484D01*
X7441825Y-13495484D02*
X7422777Y-13524055D01*
X7422777Y-13524055D02*
X7403729Y-13543103D01*
X7403729Y-13543103D02*
X7384682Y-13552627D01*
X7613253Y-13581198D02*
X7594206Y-13571674D01*
X7594206Y-13571674D02*
X7584682Y-13562150D01*
X7584682Y-13562150D02*
X7575158Y-13543103D01*
X7575158Y-13543103D02*
X7575158Y-13533579D01*
X7575158Y-13533579D02*
X7584682Y-13514531D01*
X7584682Y-13514531D02*
X7594206Y-13505008D01*
X7594206Y-13505008D02*
X7613253Y-13495484D01*
X7613253Y-13495484D02*
X7651348Y-13495484D01*
X7651348Y-13495484D02*
X7670396Y-13505008D01*
X7670396Y-13505008D02*
X7679920Y-13514531D01*
X7679920Y-13514531D02*
X7689444Y-13533579D01*
X7689444Y-13533579D02*
X7689444Y-13543103D01*
X7689444Y-13543103D02*
X7679920Y-13562150D01*
X7679920Y-13562150D02*
X7670396Y-13571674D01*
X7670396Y-13571674D02*
X7651348Y-13581198D01*
X7651348Y-13581198D02*
X7613253Y-13581198D01*
X7613253Y-13581198D02*
X7594206Y-13590722D01*
X7594206Y-13590722D02*
X7584682Y-13600246D01*
X7584682Y-13600246D02*
X7575158Y-13619293D01*
X7575158Y-13619293D02*
X7575158Y-13657388D01*
X7575158Y-13657388D02*
X7584682Y-13676436D01*
X7584682Y-13676436D02*
X7594206Y-13685960D01*
X7594206Y-13685960D02*
X7613253Y-13695484D01*
X7613253Y-13695484D02*
X7651348Y-13695484D01*
X7651348Y-13695484D02*
X7670396Y-13685960D01*
X7670396Y-13685960D02*
X7679920Y-13676436D01*
X7679920Y-13676436D02*
X7689444Y-13657388D01*
X7689444Y-13657388D02*
X7689444Y-13619293D01*
X7689444Y-13619293D02*
X7679920Y-13600246D01*
X7679920Y-13600246D02*
X7670396Y-13590722D01*
X7670396Y-13590722D02*
X7651348Y-13581198D01*
X7765634Y-13495484D02*
X7765634Y-13533579D01*
X7841825Y-13495484D02*
X7841825Y-13533579D01*
X8137063Y-13771674D02*
X8127539Y-13762150D01*
X8127539Y-13762150D02*
X8108491Y-13733579D01*
X8108491Y-13733579D02*
X8098968Y-13714531D01*
X8098968Y-13714531D02*
X8089444Y-13685960D01*
X8089444Y-13685960D02*
X8079920Y-13638341D01*
X8079920Y-13638341D02*
X8079920Y-13600246D01*
X8079920Y-13600246D02*
X8089444Y-13552627D01*
X8089444Y-13552627D02*
X8098968Y-13524055D01*
X8098968Y-13524055D02*
X8108491Y-13505008D01*
X8108491Y-13505008D02*
X8127539Y-13476436D01*
X8127539Y-13476436D02*
X8137063Y-13466912D01*
X8194206Y-13495484D02*
X8327539Y-13495484D01*
X8327539Y-13495484D02*
X8241825Y-13695484D01*
X8508491Y-13695484D02*
X8394206Y-13695484D01*
X8451349Y-13695484D02*
X8451349Y-13495484D01*
X8451349Y-13495484D02*
X8432301Y-13524055D01*
X8432301Y-13524055D02*
X8413253Y-13543103D01*
X8413253Y-13543103D02*
X8394206Y-13552627D01*
X8746587Y-13695484D02*
X8746587Y-13495484D01*
X8832301Y-13695484D02*
X8832301Y-13590722D01*
X8832301Y-13590722D02*
X8822777Y-13571674D01*
X8822777Y-13571674D02*
X8803730Y-13562150D01*
X8803730Y-13562150D02*
X8775158Y-13562150D01*
X8775158Y-13562150D02*
X8756111Y-13571674D01*
X8756111Y-13571674D02*
X8746587Y-13581198D01*
X8956111Y-13695484D02*
X8937063Y-13685960D01*
X8937063Y-13685960D02*
X8927539Y-13676436D01*
X8927539Y-13676436D02*
X8918015Y-13657388D01*
X8918015Y-13657388D02*
X8918015Y-13600246D01*
X8918015Y-13600246D02*
X8927539Y-13581198D01*
X8927539Y-13581198D02*
X8937063Y-13571674D01*
X8937063Y-13571674D02*
X8956111Y-13562150D01*
X8956111Y-13562150D02*
X8984682Y-13562150D01*
X8984682Y-13562150D02*
X9003730Y-13571674D01*
X9003730Y-13571674D02*
X9013253Y-13581198D01*
X9013253Y-13581198D02*
X9022777Y-13600246D01*
X9022777Y-13600246D02*
X9022777Y-13657388D01*
X9022777Y-13657388D02*
X9013253Y-13676436D01*
X9013253Y-13676436D02*
X9003730Y-13685960D01*
X9003730Y-13685960D02*
X8984682Y-13695484D01*
X8984682Y-13695484D02*
X8956111Y-13695484D01*
X9137063Y-13695484D02*
X9118015Y-13685960D01*
X9118015Y-13685960D02*
X9108492Y-13666912D01*
X9108492Y-13666912D02*
X9108492Y-13495484D01*
X9289444Y-13685960D02*
X9270396Y-13695484D01*
X9270396Y-13695484D02*
X9232301Y-13695484D01*
X9232301Y-13695484D02*
X9213253Y-13685960D01*
X9213253Y-13685960D02*
X9203730Y-13666912D01*
X9203730Y-13666912D02*
X9203730Y-13590722D01*
X9203730Y-13590722D02*
X9213253Y-13571674D01*
X9213253Y-13571674D02*
X9232301Y-13562150D01*
X9232301Y-13562150D02*
X9270396Y-13562150D01*
X9270396Y-13562150D02*
X9289444Y-13571674D01*
X9289444Y-13571674D02*
X9298968Y-13590722D01*
X9298968Y-13590722D02*
X9298968Y-13609769D01*
X9298968Y-13609769D02*
X9203730Y-13628817D01*
X9375158Y-13685960D02*
X9394206Y-13695484D01*
X9394206Y-13695484D02*
X9432301Y-13695484D01*
X9432301Y-13695484D02*
X9451349Y-13685960D01*
X9451349Y-13685960D02*
X9460873Y-13666912D01*
X9460873Y-13666912D02*
X9460873Y-13657388D01*
X9460873Y-13657388D02*
X9451349Y-13638341D01*
X9451349Y-13638341D02*
X9432301Y-13628817D01*
X9432301Y-13628817D02*
X9403730Y-13628817D01*
X9403730Y-13628817D02*
X9384682Y-13619293D01*
X9384682Y-13619293D02*
X9375158Y-13600246D01*
X9375158Y-13600246D02*
X9375158Y-13590722D01*
X9375158Y-13590722D02*
X9384682Y-13571674D01*
X9384682Y-13571674D02*
X9403730Y-13562150D01*
X9403730Y-13562150D02*
X9432301Y-13562150D01*
X9432301Y-13562150D02*
X9451349Y-13571674D01*
X9527539Y-13771674D02*
X9537063Y-13762150D01*
X9537063Y-13762150D02*
X9556111Y-13733579D01*
X9556111Y-13733579D02*
X9565634Y-13714531D01*
X9565634Y-13714531D02*
X9575158Y-13685960D01*
X9575158Y-13685960D02*
X9584682Y-13638341D01*
X9584682Y-13638341D02*
X9584682Y-13600246D01*
X9584682Y-13600246D02*
X9575158Y-13552627D01*
X9575158Y-13552627D02*
X9565634Y-13524055D01*
X9565634Y-13524055D02*
X9556111Y-13505008D01*
X9556111Y-13505008D02*
X9537063Y-13476436D01*
X9537063Y-13476436D02*
X9527539Y-13466912D01*
D11*
X4562000Y-13868000D02*
G75*
G02*
X4480720Y-13868000I-40640J0D01*
G01*
X4480720Y-13868000D02*
G75*
G02*
X4562000Y-13868000I40640J0D01*
G01*
D10*
X4860872Y-13759484D02*
X4879920Y-13759484D01*
X4879920Y-13759484D02*
X4898967Y-13769008D01*
X4898967Y-13769008D02*
X4908491Y-13778531D01*
X4908491Y-13778531D02*
X4918015Y-13797579D01*
X4918015Y-13797579D02*
X4927539Y-13835674D01*
X4927539Y-13835674D02*
X4927539Y-13883293D01*
X4927539Y-13883293D02*
X4918015Y-13921388D01*
X4918015Y-13921388D02*
X4908491Y-13940436D01*
X4908491Y-13940436D02*
X4898967Y-13949960D01*
X4898967Y-13949960D02*
X4879920Y-13959484D01*
X4879920Y-13959484D02*
X4860872Y-13959484D01*
X4860872Y-13959484D02*
X4841824Y-13949960D01*
X4841824Y-13949960D02*
X4832301Y-13940436D01*
X4832301Y-13940436D02*
X4822777Y-13921388D01*
X4822777Y-13921388D02*
X4813253Y-13883293D01*
X4813253Y-13883293D02*
X4813253Y-13835674D01*
X4813253Y-13835674D02*
X4822777Y-13797579D01*
X4822777Y-13797579D02*
X4832301Y-13778531D01*
X4832301Y-13778531D02*
X4841824Y-13769008D01*
X4841824Y-13769008D02*
X4860872Y-13759484D01*
X5013253Y-13940436D02*
X5022777Y-13949960D01*
X5022777Y-13949960D02*
X5013253Y-13959484D01*
X5013253Y-13959484D02*
X5003729Y-13949960D01*
X5003729Y-13949960D02*
X5013253Y-13940436D01*
X5013253Y-13940436D02*
X5013253Y-13959484D01*
X5137063Y-13845198D02*
X5118015Y-13835674D01*
X5118015Y-13835674D02*
X5108491Y-13826150D01*
X5108491Y-13826150D02*
X5098967Y-13807103D01*
X5098967Y-13807103D02*
X5098967Y-13797579D01*
X5098967Y-13797579D02*
X5108491Y-13778531D01*
X5108491Y-13778531D02*
X5118015Y-13769008D01*
X5118015Y-13769008D02*
X5137063Y-13759484D01*
X5137063Y-13759484D02*
X5175158Y-13759484D01*
X5175158Y-13759484D02*
X5194205Y-13769008D01*
X5194205Y-13769008D02*
X5203729Y-13778531D01*
X5203729Y-13778531D02*
X5213253Y-13797579D01*
X5213253Y-13797579D02*
X5213253Y-13807103D01*
X5213253Y-13807103D02*
X5203729Y-13826150D01*
X5203729Y-13826150D02*
X5194205Y-13835674D01*
X5194205Y-13835674D02*
X5175158Y-13845198D01*
X5175158Y-13845198D02*
X5137063Y-13845198D01*
X5137063Y-13845198D02*
X5118015Y-13854722D01*
X5118015Y-13854722D02*
X5108491Y-13864246D01*
X5108491Y-13864246D02*
X5098967Y-13883293D01*
X5098967Y-13883293D02*
X5098967Y-13921388D01*
X5098967Y-13921388D02*
X5108491Y-13940436D01*
X5108491Y-13940436D02*
X5118015Y-13949960D01*
X5118015Y-13949960D02*
X5137063Y-13959484D01*
X5137063Y-13959484D02*
X5175158Y-13959484D01*
X5175158Y-13959484D02*
X5194205Y-13949960D01*
X5194205Y-13949960D02*
X5203729Y-13940436D01*
X5203729Y-13940436D02*
X5213253Y-13921388D01*
X5213253Y-13921388D02*
X5213253Y-13883293D01*
X5213253Y-13883293D02*
X5203729Y-13864246D01*
X5203729Y-13864246D02*
X5194205Y-13854722D01*
X5194205Y-13854722D02*
X5175158Y-13845198D01*
X5403729Y-13959484D02*
X5289444Y-13959484D01*
X5346586Y-13959484D02*
X5346586Y-13759484D01*
X5346586Y-13759484D02*
X5327539Y-13788055D01*
X5327539Y-13788055D02*
X5308491Y-13807103D01*
X5308491Y-13807103D02*
X5289444Y-13816627D01*
X5470396Y-13759484D02*
X5594205Y-13759484D01*
X5594205Y-13759484D02*
X5527539Y-13835674D01*
X5527539Y-13835674D02*
X5556110Y-13835674D01*
X5556110Y-13835674D02*
X5575158Y-13845198D01*
X5575158Y-13845198D02*
X5584682Y-13854722D01*
X5584682Y-13854722D02*
X5594205Y-13873769D01*
X5594205Y-13873769D02*
X5594205Y-13921388D01*
X5594205Y-13921388D02*
X5584682Y-13940436D01*
X5584682Y-13940436D02*
X5575158Y-13949960D01*
X5575158Y-13949960D02*
X5556110Y-13959484D01*
X5556110Y-13959484D02*
X5498967Y-13959484D01*
X5498967Y-13959484D02*
X5479920Y-13949960D01*
X5479920Y-13949960D02*
X5470396Y-13940436D01*
X5679920Y-13959484D02*
X5679920Y-13826150D01*
X5679920Y-13845198D02*
X5689443Y-13835674D01*
X5689443Y-13835674D02*
X5708491Y-13826150D01*
X5708491Y-13826150D02*
X5737063Y-13826150D01*
X5737063Y-13826150D02*
X5756110Y-13835674D01*
X5756110Y-13835674D02*
X5765634Y-13854722D01*
X5765634Y-13854722D02*
X5765634Y-13959484D01*
X5765634Y-13854722D02*
X5775158Y-13835674D01*
X5775158Y-13835674D02*
X5794205Y-13826150D01*
X5794205Y-13826150D02*
X5822777Y-13826150D01*
X5822777Y-13826150D02*
X5841824Y-13835674D01*
X5841824Y-13835674D02*
X5851348Y-13854722D01*
X5851348Y-13854722D02*
X5851348Y-13959484D01*
X5946586Y-13959484D02*
X5946586Y-13826150D01*
X5946586Y-13845198D02*
X5956110Y-13835674D01*
X5956110Y-13835674D02*
X5975158Y-13826150D01*
X5975158Y-13826150D02*
X6003729Y-13826150D01*
X6003729Y-13826150D02*
X6022777Y-13835674D01*
X6022777Y-13835674D02*
X6032301Y-13854722D01*
X6032301Y-13854722D02*
X6032301Y-13959484D01*
X6032301Y-13854722D02*
X6041824Y-13835674D01*
X6041824Y-13835674D02*
X6060872Y-13826150D01*
X6060872Y-13826150D02*
X6089443Y-13826150D01*
X6089443Y-13826150D02*
X6108491Y-13835674D01*
X6108491Y-13835674D02*
X6118015Y-13854722D01*
X6118015Y-13854722D02*
X6118015Y-13959484D01*
X6508491Y-13749960D02*
X6337063Y-14007103D01*
X6765634Y-13759484D02*
X6784682Y-13759484D01*
X6784682Y-13759484D02*
X6803729Y-13769008D01*
X6803729Y-13769008D02*
X6813253Y-13778531D01*
X6813253Y-13778531D02*
X6822777Y-13797579D01*
X6822777Y-13797579D02*
X6832301Y-13835674D01*
X6832301Y-13835674D02*
X6832301Y-13883293D01*
X6832301Y-13883293D02*
X6822777Y-13921388D01*
X6822777Y-13921388D02*
X6813253Y-13940436D01*
X6813253Y-13940436D02*
X6803729Y-13949960D01*
X6803729Y-13949960D02*
X6784682Y-13959484D01*
X6784682Y-13959484D02*
X6765634Y-13959484D01*
X6765634Y-13959484D02*
X6746586Y-13949960D01*
X6746586Y-13949960D02*
X6737063Y-13940436D01*
X6737063Y-13940436D02*
X6727539Y-13921388D01*
X6727539Y-13921388D02*
X6718015Y-13883293D01*
X6718015Y-13883293D02*
X6718015Y-13835674D01*
X6718015Y-13835674D02*
X6727539Y-13797579D01*
X6727539Y-13797579D02*
X6737063Y-13778531D01*
X6737063Y-13778531D02*
X6746586Y-13769008D01*
X6746586Y-13769008D02*
X6765634Y-13759484D01*
X6918015Y-13940436D02*
X6927539Y-13949960D01*
X6927539Y-13949960D02*
X6918015Y-13959484D01*
X6918015Y-13959484D02*
X6908491Y-13949960D01*
X6908491Y-13949960D02*
X6918015Y-13940436D01*
X6918015Y-13940436D02*
X6918015Y-13959484D01*
X7051348Y-13759484D02*
X7070396Y-13759484D01*
X7070396Y-13759484D02*
X7089444Y-13769008D01*
X7089444Y-13769008D02*
X7098967Y-13778531D01*
X7098967Y-13778531D02*
X7108491Y-13797579D01*
X7108491Y-13797579D02*
X7118015Y-13835674D01*
X7118015Y-13835674D02*
X7118015Y-13883293D01*
X7118015Y-13883293D02*
X7108491Y-13921388D01*
X7108491Y-13921388D02*
X7098967Y-13940436D01*
X7098967Y-13940436D02*
X7089444Y-13949960D01*
X7089444Y-13949960D02*
X7070396Y-13959484D01*
X7070396Y-13959484D02*
X7051348Y-13959484D01*
X7051348Y-13959484D02*
X7032301Y-13949960D01*
X7032301Y-13949960D02*
X7022777Y-13940436D01*
X7022777Y-13940436D02*
X7013253Y-13921388D01*
X7013253Y-13921388D02*
X7003729Y-13883293D01*
X7003729Y-13883293D02*
X7003729Y-13835674D01*
X7003729Y-13835674D02*
X7013253Y-13797579D01*
X7013253Y-13797579D02*
X7022777Y-13778531D01*
X7022777Y-13778531D02*
X7032301Y-13769008D01*
X7032301Y-13769008D02*
X7051348Y-13759484D01*
X7184682Y-13759484D02*
X7308491Y-13759484D01*
X7308491Y-13759484D02*
X7241825Y-13835674D01*
X7241825Y-13835674D02*
X7270396Y-13835674D01*
X7270396Y-13835674D02*
X7289444Y-13845198D01*
X7289444Y-13845198D02*
X7298967Y-13854722D01*
X7298967Y-13854722D02*
X7308491Y-13873769D01*
X7308491Y-13873769D02*
X7308491Y-13921388D01*
X7308491Y-13921388D02*
X7298967Y-13940436D01*
X7298967Y-13940436D02*
X7289444Y-13949960D01*
X7289444Y-13949960D02*
X7270396Y-13959484D01*
X7270396Y-13959484D02*
X7213253Y-13959484D01*
X7213253Y-13959484D02*
X7194206Y-13949960D01*
X7194206Y-13949960D02*
X7184682Y-13940436D01*
X7384682Y-13778531D02*
X7394206Y-13769008D01*
X7394206Y-13769008D02*
X7413253Y-13759484D01*
X7413253Y-13759484D02*
X7460872Y-13759484D01*
X7460872Y-13759484D02*
X7479920Y-13769008D01*
X7479920Y-13769008D02*
X7489444Y-13778531D01*
X7489444Y-13778531D02*
X7498967Y-13797579D01*
X7498967Y-13797579D02*
X7498967Y-13816627D01*
X7498967Y-13816627D02*
X7489444Y-13845198D01*
X7489444Y-13845198D02*
X7375158Y-13959484D01*
X7375158Y-13959484D02*
X7498967Y-13959484D01*
X7622777Y-13759484D02*
X7641825Y-13759484D01*
X7641825Y-13759484D02*
X7660872Y-13769008D01*
X7660872Y-13769008D02*
X7670396Y-13778531D01*
X7670396Y-13778531D02*
X7679920Y-13797579D01*
X7679920Y-13797579D02*
X7689444Y-13835674D01*
X7689444Y-13835674D02*
X7689444Y-13883293D01*
X7689444Y-13883293D02*
X7679920Y-13921388D01*
X7679920Y-13921388D02*
X7670396Y-13940436D01*
X7670396Y-13940436D02*
X7660872Y-13949960D01*
X7660872Y-13949960D02*
X7641825Y-13959484D01*
X7641825Y-13959484D02*
X7622777Y-13959484D01*
X7622777Y-13959484D02*
X7603729Y-13949960D01*
X7603729Y-13949960D02*
X7594206Y-13940436D01*
X7594206Y-13940436D02*
X7584682Y-13921388D01*
X7584682Y-13921388D02*
X7575158Y-13883293D01*
X7575158Y-13883293D02*
X7575158Y-13835674D01*
X7575158Y-13835674D02*
X7584682Y-13797579D01*
X7584682Y-13797579D02*
X7594206Y-13778531D01*
X7594206Y-13778531D02*
X7603729Y-13769008D01*
X7603729Y-13769008D02*
X7622777Y-13759484D01*
X7765634Y-13759484D02*
X7765634Y-13797579D01*
X7841825Y-13759484D02*
X7841825Y-13797579D01*
X8137063Y-14035674D02*
X8127539Y-14026150D01*
X8127539Y-14026150D02*
X8108491Y-13997579D01*
X8108491Y-13997579D02*
X8098968Y-13978531D01*
X8098968Y-13978531D02*
X8089444Y-13949960D01*
X8089444Y-13949960D02*
X8079920Y-13902341D01*
X8079920Y-13902341D02*
X8079920Y-13864246D01*
X8079920Y-13864246D02*
X8089444Y-13816627D01*
X8089444Y-13816627D02*
X8098968Y-13788055D01*
X8098968Y-13788055D02*
X8108491Y-13769008D01*
X8108491Y-13769008D02*
X8127539Y-13740436D01*
X8127539Y-13740436D02*
X8137063Y-13730912D01*
X8298968Y-13759484D02*
X8260872Y-13759484D01*
X8260872Y-13759484D02*
X8241825Y-13769008D01*
X8241825Y-13769008D02*
X8232301Y-13778531D01*
X8232301Y-13778531D02*
X8213253Y-13807103D01*
X8213253Y-13807103D02*
X8203729Y-13845198D01*
X8203729Y-13845198D02*
X8203729Y-13921388D01*
X8203729Y-13921388D02*
X8213253Y-13940436D01*
X8213253Y-13940436D02*
X8222777Y-13949960D01*
X8222777Y-13949960D02*
X8241825Y-13959484D01*
X8241825Y-13959484D02*
X8279920Y-13959484D01*
X8279920Y-13959484D02*
X8298968Y-13949960D01*
X8298968Y-13949960D02*
X8308491Y-13940436D01*
X8308491Y-13940436D02*
X8318015Y-13921388D01*
X8318015Y-13921388D02*
X8318015Y-13873769D01*
X8318015Y-13873769D02*
X8308491Y-13854722D01*
X8308491Y-13854722D02*
X8298968Y-13845198D01*
X8298968Y-13845198D02*
X8279920Y-13835674D01*
X8279920Y-13835674D02*
X8241825Y-13835674D01*
X8241825Y-13835674D02*
X8222777Y-13845198D01*
X8222777Y-13845198D02*
X8213253Y-13854722D01*
X8213253Y-13854722D02*
X8203729Y-13873769D01*
X8556111Y-13959484D02*
X8556111Y-13759484D01*
X8641825Y-13959484D02*
X8641825Y-13854722D01*
X8641825Y-13854722D02*
X8632301Y-13835674D01*
X8632301Y-13835674D02*
X8613253Y-13826150D01*
X8613253Y-13826150D02*
X8584682Y-13826150D01*
X8584682Y-13826150D02*
X8565634Y-13835674D01*
X8565634Y-13835674D02*
X8556111Y-13845198D01*
X8765634Y-13959484D02*
X8746587Y-13949960D01*
X8746587Y-13949960D02*
X8737063Y-13940436D01*
X8737063Y-13940436D02*
X8727539Y-13921388D01*
X8727539Y-13921388D02*
X8727539Y-13864246D01*
X8727539Y-13864246D02*
X8737063Y-13845198D01*
X8737063Y-13845198D02*
X8746587Y-13835674D01*
X8746587Y-13835674D02*
X8765634Y-13826150D01*
X8765634Y-13826150D02*
X8794206Y-13826150D01*
X8794206Y-13826150D02*
X8813253Y-13835674D01*
X8813253Y-13835674D02*
X8822777Y-13845198D01*
X8822777Y-13845198D02*
X8832301Y-13864246D01*
X8832301Y-13864246D02*
X8832301Y-13921388D01*
X8832301Y-13921388D02*
X8822777Y-13940436D01*
X8822777Y-13940436D02*
X8813253Y-13949960D01*
X8813253Y-13949960D02*
X8794206Y-13959484D01*
X8794206Y-13959484D02*
X8765634Y-13959484D01*
X8946587Y-13959484D02*
X8927539Y-13949960D01*
X8927539Y-13949960D02*
X8918015Y-13930912D01*
X8918015Y-13930912D02*
X8918015Y-13759484D01*
X9098968Y-13949960D02*
X9079920Y-13959484D01*
X9079920Y-13959484D02*
X9041825Y-13959484D01*
X9041825Y-13959484D02*
X9022777Y-13949960D01*
X9022777Y-13949960D02*
X9013253Y-13930912D01*
X9013253Y-13930912D02*
X9013253Y-13854722D01*
X9013253Y-13854722D02*
X9022777Y-13835674D01*
X9022777Y-13835674D02*
X9041825Y-13826150D01*
X9041825Y-13826150D02*
X9079920Y-13826150D01*
X9079920Y-13826150D02*
X9098968Y-13835674D01*
X9098968Y-13835674D02*
X9108492Y-13854722D01*
X9108492Y-13854722D02*
X9108492Y-13873769D01*
X9108492Y-13873769D02*
X9013253Y-13892817D01*
X9184682Y-13949960D02*
X9203730Y-13959484D01*
X9203730Y-13959484D02*
X9241825Y-13959484D01*
X9241825Y-13959484D02*
X9260873Y-13949960D01*
X9260873Y-13949960D02*
X9270396Y-13930912D01*
X9270396Y-13930912D02*
X9270396Y-13921388D01*
X9270396Y-13921388D02*
X9260873Y-13902341D01*
X9260873Y-13902341D02*
X9241825Y-13892817D01*
X9241825Y-13892817D02*
X9213253Y-13892817D01*
X9213253Y-13892817D02*
X9194206Y-13883293D01*
X9194206Y-13883293D02*
X9184682Y-13864246D01*
X9184682Y-13864246D02*
X9184682Y-13854722D01*
X9184682Y-13854722D02*
X9194206Y-13835674D01*
X9194206Y-13835674D02*
X9213253Y-13826150D01*
X9213253Y-13826150D02*
X9241825Y-13826150D01*
X9241825Y-13826150D02*
X9260873Y-13835674D01*
X9337063Y-14035674D02*
X9346587Y-14026150D01*
X9346587Y-14026150D02*
X9365634Y-13997579D01*
X9365634Y-13997579D02*
X9375158Y-13978531D01*
X9375158Y-13978531D02*
X9384682Y-13949960D01*
X9384682Y-13949960D02*
X9394206Y-13902341D01*
X9394206Y-13902341D02*
X9394206Y-13864246D01*
X9394206Y-13864246D02*
X9384682Y-13816627D01*
X9384682Y-13816627D02*
X9375158Y-13788055D01*
X9375158Y-13788055D02*
X9365634Y-13769008D01*
X9365634Y-13769008D02*
X9346587Y-13740436D01*
X9346587Y-13740436D02*
X9337063Y-13730912D01*
D11*
X4517000Y-14087000D02*
X4517000Y-14177000D01*
X4472000Y-14132000D02*
X4562000Y-14132000D01*
D10*
X4860872Y-14023484D02*
X4879920Y-14023484D01*
X4879920Y-14023484D02*
X4898967Y-14033008D01*
X4898967Y-14033008D02*
X4908491Y-14042531D01*
X4908491Y-14042531D02*
X4918015Y-14061579D01*
X4918015Y-14061579D02*
X4927539Y-14099674D01*
X4927539Y-14099674D02*
X4927539Y-14147293D01*
X4927539Y-14147293D02*
X4918015Y-14185388D01*
X4918015Y-14185388D02*
X4908491Y-14204436D01*
X4908491Y-14204436D02*
X4898967Y-14213960D01*
X4898967Y-14213960D02*
X4879920Y-14223484D01*
X4879920Y-14223484D02*
X4860872Y-14223484D01*
X4860872Y-14223484D02*
X4841824Y-14213960D01*
X4841824Y-14213960D02*
X4832301Y-14204436D01*
X4832301Y-14204436D02*
X4822777Y-14185388D01*
X4822777Y-14185388D02*
X4813253Y-14147293D01*
X4813253Y-14147293D02*
X4813253Y-14099674D01*
X4813253Y-14099674D02*
X4822777Y-14061579D01*
X4822777Y-14061579D02*
X4832301Y-14042531D01*
X4832301Y-14042531D02*
X4841824Y-14033008D01*
X4841824Y-14033008D02*
X4860872Y-14023484D01*
X5013253Y-14204436D02*
X5022777Y-14213960D01*
X5022777Y-14213960D02*
X5013253Y-14223484D01*
X5013253Y-14223484D02*
X5003729Y-14213960D01*
X5003729Y-14213960D02*
X5013253Y-14204436D01*
X5013253Y-14204436D02*
X5013253Y-14223484D01*
X5118015Y-14223484D02*
X5156110Y-14223484D01*
X5156110Y-14223484D02*
X5175158Y-14213960D01*
X5175158Y-14213960D02*
X5184682Y-14204436D01*
X5184682Y-14204436D02*
X5203729Y-14175865D01*
X5203729Y-14175865D02*
X5213253Y-14137769D01*
X5213253Y-14137769D02*
X5213253Y-14061579D01*
X5213253Y-14061579D02*
X5203729Y-14042531D01*
X5203729Y-14042531D02*
X5194205Y-14033008D01*
X5194205Y-14033008D02*
X5175158Y-14023484D01*
X5175158Y-14023484D02*
X5137063Y-14023484D01*
X5137063Y-14023484D02*
X5118015Y-14033008D01*
X5118015Y-14033008D02*
X5108491Y-14042531D01*
X5108491Y-14042531D02*
X5098967Y-14061579D01*
X5098967Y-14061579D02*
X5098967Y-14109198D01*
X5098967Y-14109198D02*
X5108491Y-14128246D01*
X5108491Y-14128246D02*
X5118015Y-14137769D01*
X5118015Y-14137769D02*
X5137063Y-14147293D01*
X5137063Y-14147293D02*
X5175158Y-14147293D01*
X5175158Y-14147293D02*
X5194205Y-14137769D01*
X5194205Y-14137769D02*
X5203729Y-14128246D01*
X5203729Y-14128246D02*
X5213253Y-14109198D01*
X5337063Y-14023484D02*
X5356110Y-14023484D01*
X5356110Y-14023484D02*
X5375158Y-14033008D01*
X5375158Y-14033008D02*
X5384682Y-14042531D01*
X5384682Y-14042531D02*
X5394205Y-14061579D01*
X5394205Y-14061579D02*
X5403729Y-14099674D01*
X5403729Y-14099674D02*
X5403729Y-14147293D01*
X5403729Y-14147293D02*
X5394205Y-14185388D01*
X5394205Y-14185388D02*
X5384682Y-14204436D01*
X5384682Y-14204436D02*
X5375158Y-14213960D01*
X5375158Y-14213960D02*
X5356110Y-14223484D01*
X5356110Y-14223484D02*
X5337063Y-14223484D01*
X5337063Y-14223484D02*
X5318015Y-14213960D01*
X5318015Y-14213960D02*
X5308491Y-14204436D01*
X5308491Y-14204436D02*
X5298967Y-14185388D01*
X5298967Y-14185388D02*
X5289444Y-14147293D01*
X5289444Y-14147293D02*
X5289444Y-14099674D01*
X5289444Y-14099674D02*
X5298967Y-14061579D01*
X5298967Y-14061579D02*
X5308491Y-14042531D01*
X5308491Y-14042531D02*
X5318015Y-14033008D01*
X5318015Y-14033008D02*
X5337063Y-14023484D01*
X5527539Y-14023484D02*
X5546586Y-14023484D01*
X5546586Y-14023484D02*
X5565634Y-14033008D01*
X5565634Y-14033008D02*
X5575158Y-14042531D01*
X5575158Y-14042531D02*
X5584682Y-14061579D01*
X5584682Y-14061579D02*
X5594205Y-14099674D01*
X5594205Y-14099674D02*
X5594205Y-14147293D01*
X5594205Y-14147293D02*
X5584682Y-14185388D01*
X5584682Y-14185388D02*
X5575158Y-14204436D01*
X5575158Y-14204436D02*
X5565634Y-14213960D01*
X5565634Y-14213960D02*
X5546586Y-14223484D01*
X5546586Y-14223484D02*
X5527539Y-14223484D01*
X5527539Y-14223484D02*
X5508491Y-14213960D01*
X5508491Y-14213960D02*
X5498967Y-14204436D01*
X5498967Y-14204436D02*
X5489444Y-14185388D01*
X5489444Y-14185388D02*
X5479920Y-14147293D01*
X5479920Y-14147293D02*
X5479920Y-14099674D01*
X5479920Y-14099674D02*
X5489444Y-14061579D01*
X5489444Y-14061579D02*
X5498967Y-14042531D01*
X5498967Y-14042531D02*
X5508491Y-14033008D01*
X5508491Y-14033008D02*
X5527539Y-14023484D01*
X5679920Y-14223484D02*
X5679920Y-14090150D01*
X5679920Y-14109198D02*
X5689443Y-14099674D01*
X5689443Y-14099674D02*
X5708491Y-14090150D01*
X5708491Y-14090150D02*
X5737063Y-14090150D01*
X5737063Y-14090150D02*
X5756110Y-14099674D01*
X5756110Y-14099674D02*
X5765634Y-14118722D01*
X5765634Y-14118722D02*
X5765634Y-14223484D01*
X5765634Y-14118722D02*
X5775158Y-14099674D01*
X5775158Y-14099674D02*
X5794205Y-14090150D01*
X5794205Y-14090150D02*
X5822777Y-14090150D01*
X5822777Y-14090150D02*
X5841824Y-14099674D01*
X5841824Y-14099674D02*
X5851348Y-14118722D01*
X5851348Y-14118722D02*
X5851348Y-14223484D01*
X5946586Y-14223484D02*
X5946586Y-14090150D01*
X5946586Y-14109198D02*
X5956110Y-14099674D01*
X5956110Y-14099674D02*
X5975158Y-14090150D01*
X5975158Y-14090150D02*
X6003729Y-14090150D01*
X6003729Y-14090150D02*
X6022777Y-14099674D01*
X6022777Y-14099674D02*
X6032301Y-14118722D01*
X6032301Y-14118722D02*
X6032301Y-14223484D01*
X6032301Y-14118722D02*
X6041824Y-14099674D01*
X6041824Y-14099674D02*
X6060872Y-14090150D01*
X6060872Y-14090150D02*
X6089443Y-14090150D01*
X6089443Y-14090150D02*
X6108491Y-14099674D01*
X6108491Y-14099674D02*
X6118015Y-14118722D01*
X6118015Y-14118722D02*
X6118015Y-14223484D01*
X6508491Y-14013960D02*
X6337063Y-14271103D01*
X6765634Y-14023484D02*
X6784682Y-14023484D01*
X6784682Y-14023484D02*
X6803729Y-14033008D01*
X6803729Y-14033008D02*
X6813253Y-14042531D01*
X6813253Y-14042531D02*
X6822777Y-14061579D01*
X6822777Y-14061579D02*
X6832301Y-14099674D01*
X6832301Y-14099674D02*
X6832301Y-14147293D01*
X6832301Y-14147293D02*
X6822777Y-14185388D01*
X6822777Y-14185388D02*
X6813253Y-14204436D01*
X6813253Y-14204436D02*
X6803729Y-14213960D01*
X6803729Y-14213960D02*
X6784682Y-14223484D01*
X6784682Y-14223484D02*
X6765634Y-14223484D01*
X6765634Y-14223484D02*
X6746586Y-14213960D01*
X6746586Y-14213960D02*
X6737063Y-14204436D01*
X6737063Y-14204436D02*
X6727539Y-14185388D01*
X6727539Y-14185388D02*
X6718015Y-14147293D01*
X6718015Y-14147293D02*
X6718015Y-14099674D01*
X6718015Y-14099674D02*
X6727539Y-14061579D01*
X6727539Y-14061579D02*
X6737063Y-14042531D01*
X6737063Y-14042531D02*
X6746586Y-14033008D01*
X6746586Y-14033008D02*
X6765634Y-14023484D01*
X6918015Y-14204436D02*
X6927539Y-14213960D01*
X6927539Y-14213960D02*
X6918015Y-14223484D01*
X6918015Y-14223484D02*
X6908491Y-14213960D01*
X6908491Y-14213960D02*
X6918015Y-14204436D01*
X6918015Y-14204436D02*
X6918015Y-14223484D01*
X7051348Y-14023484D02*
X7070396Y-14023484D01*
X7070396Y-14023484D02*
X7089444Y-14033008D01*
X7089444Y-14033008D02*
X7098967Y-14042531D01*
X7098967Y-14042531D02*
X7108491Y-14061579D01*
X7108491Y-14061579D02*
X7118015Y-14099674D01*
X7118015Y-14099674D02*
X7118015Y-14147293D01*
X7118015Y-14147293D02*
X7108491Y-14185388D01*
X7108491Y-14185388D02*
X7098967Y-14204436D01*
X7098967Y-14204436D02*
X7089444Y-14213960D01*
X7089444Y-14213960D02*
X7070396Y-14223484D01*
X7070396Y-14223484D02*
X7051348Y-14223484D01*
X7051348Y-14223484D02*
X7032301Y-14213960D01*
X7032301Y-14213960D02*
X7022777Y-14204436D01*
X7022777Y-14204436D02*
X7013253Y-14185388D01*
X7013253Y-14185388D02*
X7003729Y-14147293D01*
X7003729Y-14147293D02*
X7003729Y-14099674D01*
X7003729Y-14099674D02*
X7013253Y-14061579D01*
X7013253Y-14061579D02*
X7022777Y-14042531D01*
X7022777Y-14042531D02*
X7032301Y-14033008D01*
X7032301Y-14033008D02*
X7051348Y-14023484D01*
X7184682Y-14023484D02*
X7308491Y-14023484D01*
X7308491Y-14023484D02*
X7241825Y-14099674D01*
X7241825Y-14099674D02*
X7270396Y-14099674D01*
X7270396Y-14099674D02*
X7289444Y-14109198D01*
X7289444Y-14109198D02*
X7298967Y-14118722D01*
X7298967Y-14118722D02*
X7308491Y-14137769D01*
X7308491Y-14137769D02*
X7308491Y-14185388D01*
X7308491Y-14185388D02*
X7298967Y-14204436D01*
X7298967Y-14204436D02*
X7289444Y-14213960D01*
X7289444Y-14213960D02*
X7270396Y-14223484D01*
X7270396Y-14223484D02*
X7213253Y-14223484D01*
X7213253Y-14223484D02*
X7194206Y-14213960D01*
X7194206Y-14213960D02*
X7184682Y-14204436D01*
X7489444Y-14023484D02*
X7394206Y-14023484D01*
X7394206Y-14023484D02*
X7384682Y-14118722D01*
X7384682Y-14118722D02*
X7394206Y-14109198D01*
X7394206Y-14109198D02*
X7413253Y-14099674D01*
X7413253Y-14099674D02*
X7460872Y-14099674D01*
X7460872Y-14099674D02*
X7479920Y-14109198D01*
X7479920Y-14109198D02*
X7489444Y-14118722D01*
X7489444Y-14118722D02*
X7498967Y-14137769D01*
X7498967Y-14137769D02*
X7498967Y-14185388D01*
X7498967Y-14185388D02*
X7489444Y-14204436D01*
X7489444Y-14204436D02*
X7479920Y-14213960D01*
X7479920Y-14213960D02*
X7460872Y-14223484D01*
X7460872Y-14223484D02*
X7413253Y-14223484D01*
X7413253Y-14223484D02*
X7394206Y-14213960D01*
X7394206Y-14213960D02*
X7384682Y-14204436D01*
X7670396Y-14090150D02*
X7670396Y-14223484D01*
X7622777Y-14013960D02*
X7575158Y-14156817D01*
X7575158Y-14156817D02*
X7698967Y-14156817D01*
X7765634Y-14023484D02*
X7765634Y-14061579D01*
X7841825Y-14023484D02*
X7841825Y-14061579D01*
X8137063Y-14299674D02*
X8127539Y-14290150D01*
X8127539Y-14290150D02*
X8108491Y-14261579D01*
X8108491Y-14261579D02*
X8098968Y-14242531D01*
X8098968Y-14242531D02*
X8089444Y-14213960D01*
X8089444Y-14213960D02*
X8079920Y-14166341D01*
X8079920Y-14166341D02*
X8079920Y-14128246D01*
X8079920Y-14128246D02*
X8089444Y-14080627D01*
X8089444Y-14080627D02*
X8098968Y-14052055D01*
X8098968Y-14052055D02*
X8108491Y-14033008D01*
X8108491Y-14033008D02*
X8127539Y-14004436D01*
X8127539Y-14004436D02*
X8137063Y-13994912D01*
X8203729Y-14042531D02*
X8213253Y-14033008D01*
X8213253Y-14033008D02*
X8232301Y-14023484D01*
X8232301Y-14023484D02*
X8279920Y-14023484D01*
X8279920Y-14023484D02*
X8298968Y-14033008D01*
X8298968Y-14033008D02*
X8308491Y-14042531D01*
X8308491Y-14042531D02*
X8318015Y-14061579D01*
X8318015Y-14061579D02*
X8318015Y-14080627D01*
X8318015Y-14080627D02*
X8308491Y-14109198D01*
X8308491Y-14109198D02*
X8194206Y-14223484D01*
X8194206Y-14223484D02*
X8318015Y-14223484D01*
X8441825Y-14023484D02*
X8460872Y-14023484D01*
X8460872Y-14023484D02*
X8479920Y-14033008D01*
X8479920Y-14033008D02*
X8489444Y-14042531D01*
X8489444Y-14042531D02*
X8498968Y-14061579D01*
X8498968Y-14061579D02*
X8508491Y-14099674D01*
X8508491Y-14099674D02*
X8508491Y-14147293D01*
X8508491Y-14147293D02*
X8498968Y-14185388D01*
X8498968Y-14185388D02*
X8489444Y-14204436D01*
X8489444Y-14204436D02*
X8479920Y-14213960D01*
X8479920Y-14213960D02*
X8460872Y-14223484D01*
X8460872Y-14223484D02*
X8441825Y-14223484D01*
X8441825Y-14223484D02*
X8422777Y-14213960D01*
X8422777Y-14213960D02*
X8413253Y-14204436D01*
X8413253Y-14204436D02*
X8403730Y-14185388D01*
X8403730Y-14185388D02*
X8394206Y-14147293D01*
X8394206Y-14147293D02*
X8394206Y-14099674D01*
X8394206Y-14099674D02*
X8403730Y-14061579D01*
X8403730Y-14061579D02*
X8413253Y-14042531D01*
X8413253Y-14042531D02*
X8422777Y-14033008D01*
X8422777Y-14033008D02*
X8441825Y-14023484D01*
X8746587Y-14223484D02*
X8746587Y-14023484D01*
X8832301Y-14223484D02*
X8832301Y-14118722D01*
X8832301Y-14118722D02*
X8822777Y-14099674D01*
X8822777Y-14099674D02*
X8803730Y-14090150D01*
X8803730Y-14090150D02*
X8775158Y-14090150D01*
X8775158Y-14090150D02*
X8756111Y-14099674D01*
X8756111Y-14099674D02*
X8746587Y-14109198D01*
X8956111Y-14223484D02*
X8937063Y-14213960D01*
X8937063Y-14213960D02*
X8927539Y-14204436D01*
X8927539Y-14204436D02*
X8918015Y-14185388D01*
X8918015Y-14185388D02*
X8918015Y-14128246D01*
X8918015Y-14128246D02*
X8927539Y-14109198D01*
X8927539Y-14109198D02*
X8937063Y-14099674D01*
X8937063Y-14099674D02*
X8956111Y-14090150D01*
X8956111Y-14090150D02*
X8984682Y-14090150D01*
X8984682Y-14090150D02*
X9003730Y-14099674D01*
X9003730Y-14099674D02*
X9013253Y-14109198D01*
X9013253Y-14109198D02*
X9022777Y-14128246D01*
X9022777Y-14128246D02*
X9022777Y-14185388D01*
X9022777Y-14185388D02*
X9013253Y-14204436D01*
X9013253Y-14204436D02*
X9003730Y-14213960D01*
X9003730Y-14213960D02*
X8984682Y-14223484D01*
X8984682Y-14223484D02*
X8956111Y-14223484D01*
X9137063Y-14223484D02*
X9118015Y-14213960D01*
X9118015Y-14213960D02*
X9108492Y-14194912D01*
X9108492Y-14194912D02*
X9108492Y-14023484D01*
X9289444Y-14213960D02*
X9270396Y-14223484D01*
X9270396Y-14223484D02*
X9232301Y-14223484D01*
X9232301Y-14223484D02*
X9213253Y-14213960D01*
X9213253Y-14213960D02*
X9203730Y-14194912D01*
X9203730Y-14194912D02*
X9203730Y-14118722D01*
X9203730Y-14118722D02*
X9213253Y-14099674D01*
X9213253Y-14099674D02*
X9232301Y-14090150D01*
X9232301Y-14090150D02*
X9270396Y-14090150D01*
X9270396Y-14090150D02*
X9289444Y-14099674D01*
X9289444Y-14099674D02*
X9298968Y-14118722D01*
X9298968Y-14118722D02*
X9298968Y-14137769D01*
X9298968Y-14137769D02*
X9203730Y-14156817D01*
X9375158Y-14213960D02*
X9394206Y-14223484D01*
X9394206Y-14223484D02*
X9432301Y-14223484D01*
X9432301Y-14223484D02*
X9451349Y-14213960D01*
X9451349Y-14213960D02*
X9460873Y-14194912D01*
X9460873Y-14194912D02*
X9460873Y-14185388D01*
X9460873Y-14185388D02*
X9451349Y-14166341D01*
X9451349Y-14166341D02*
X9432301Y-14156817D01*
X9432301Y-14156817D02*
X9403730Y-14156817D01*
X9403730Y-14156817D02*
X9384682Y-14147293D01*
X9384682Y-14147293D02*
X9375158Y-14128246D01*
X9375158Y-14128246D02*
X9375158Y-14118722D01*
X9375158Y-14118722D02*
X9384682Y-14099674D01*
X9384682Y-14099674D02*
X9403730Y-14090150D01*
X9403730Y-14090150D02*
X9432301Y-14090150D01*
X9432301Y-14090150D02*
X9451349Y-14099674D01*
X9527539Y-14299674D02*
X9537063Y-14290150D01*
X9537063Y-14290150D02*
X9556111Y-14261579D01*
X9556111Y-14261579D02*
X9565634Y-14242531D01*
X9565634Y-14242531D02*
X9575158Y-14213960D01*
X9575158Y-14213960D02*
X9584682Y-14166341D01*
X9584682Y-14166341D02*
X9584682Y-14128246D01*
X9584682Y-14128246D02*
X9575158Y-14080627D01*
X9575158Y-14080627D02*
X9565634Y-14052055D01*
X9565634Y-14052055D02*
X9556111Y-14033008D01*
X9556111Y-14033008D02*
X9537063Y-14004436D01*
X9537063Y-14004436D02*
X9527539Y-13994912D01*
D11*
X4547493Y-14431023D02*
X4547493Y-14360977D01*
X4477447Y-14360977D01*
X4477447Y-14431023D01*
X4547493Y-14431023D01*
D10*
X4860872Y-14287484D02*
X4879920Y-14287484D01*
X4879920Y-14287484D02*
X4898967Y-14297008D01*
X4898967Y-14297008D02*
X4908491Y-14306531D01*
X4908491Y-14306531D02*
X4918015Y-14325579D01*
X4918015Y-14325579D02*
X4927539Y-14363674D01*
X4927539Y-14363674D02*
X4927539Y-14411293D01*
X4927539Y-14411293D02*
X4918015Y-14449388D01*
X4918015Y-14449388D02*
X4908491Y-14468436D01*
X4908491Y-14468436D02*
X4898967Y-14477960D01*
X4898967Y-14477960D02*
X4879920Y-14487484D01*
X4879920Y-14487484D02*
X4860872Y-14487484D01*
X4860872Y-14487484D02*
X4841824Y-14477960D01*
X4841824Y-14477960D02*
X4832301Y-14468436D01*
X4832301Y-14468436D02*
X4822777Y-14449388D01*
X4822777Y-14449388D02*
X4813253Y-14411293D01*
X4813253Y-14411293D02*
X4813253Y-14363674D01*
X4813253Y-14363674D02*
X4822777Y-14325579D01*
X4822777Y-14325579D02*
X4832301Y-14306531D01*
X4832301Y-14306531D02*
X4841824Y-14297008D01*
X4841824Y-14297008D02*
X4860872Y-14287484D01*
X5013253Y-14468436D02*
X5022777Y-14477960D01*
X5022777Y-14477960D02*
X5013253Y-14487484D01*
X5013253Y-14487484D02*
X5003729Y-14477960D01*
X5003729Y-14477960D02*
X5013253Y-14468436D01*
X5013253Y-14468436D02*
X5013253Y-14487484D01*
X5118015Y-14487484D02*
X5156110Y-14487484D01*
X5156110Y-14487484D02*
X5175158Y-14477960D01*
X5175158Y-14477960D02*
X5184682Y-14468436D01*
X5184682Y-14468436D02*
X5203729Y-14439865D01*
X5203729Y-14439865D02*
X5213253Y-14401769D01*
X5213253Y-14401769D02*
X5213253Y-14325579D01*
X5213253Y-14325579D02*
X5203729Y-14306531D01*
X5203729Y-14306531D02*
X5194205Y-14297008D01*
X5194205Y-14297008D02*
X5175158Y-14287484D01*
X5175158Y-14287484D02*
X5137063Y-14287484D01*
X5137063Y-14287484D02*
X5118015Y-14297008D01*
X5118015Y-14297008D02*
X5108491Y-14306531D01*
X5108491Y-14306531D02*
X5098967Y-14325579D01*
X5098967Y-14325579D02*
X5098967Y-14373198D01*
X5098967Y-14373198D02*
X5108491Y-14392246D01*
X5108491Y-14392246D02*
X5118015Y-14401769D01*
X5118015Y-14401769D02*
X5137063Y-14411293D01*
X5137063Y-14411293D02*
X5175158Y-14411293D01*
X5175158Y-14411293D02*
X5194205Y-14401769D01*
X5194205Y-14401769D02*
X5203729Y-14392246D01*
X5203729Y-14392246D02*
X5213253Y-14373198D01*
X5308491Y-14487484D02*
X5346586Y-14487484D01*
X5346586Y-14487484D02*
X5365634Y-14477960D01*
X5365634Y-14477960D02*
X5375158Y-14468436D01*
X5375158Y-14468436D02*
X5394205Y-14439865D01*
X5394205Y-14439865D02*
X5403729Y-14401769D01*
X5403729Y-14401769D02*
X5403729Y-14325579D01*
X5403729Y-14325579D02*
X5394205Y-14306531D01*
X5394205Y-14306531D02*
X5384682Y-14297008D01*
X5384682Y-14297008D02*
X5365634Y-14287484D01*
X5365634Y-14287484D02*
X5327539Y-14287484D01*
X5327539Y-14287484D02*
X5308491Y-14297008D01*
X5308491Y-14297008D02*
X5298967Y-14306531D01*
X5298967Y-14306531D02*
X5289444Y-14325579D01*
X5289444Y-14325579D02*
X5289444Y-14373198D01*
X5289444Y-14373198D02*
X5298967Y-14392246D01*
X5298967Y-14392246D02*
X5308491Y-14401769D01*
X5308491Y-14401769D02*
X5327539Y-14411293D01*
X5327539Y-14411293D02*
X5365634Y-14411293D01*
X5365634Y-14411293D02*
X5384682Y-14401769D01*
X5384682Y-14401769D02*
X5394205Y-14392246D01*
X5394205Y-14392246D02*
X5403729Y-14373198D01*
X5594205Y-14487484D02*
X5479920Y-14487484D01*
X5537063Y-14487484D02*
X5537063Y-14287484D01*
X5537063Y-14287484D02*
X5518015Y-14316055D01*
X5518015Y-14316055D02*
X5498967Y-14335103D01*
X5498967Y-14335103D02*
X5479920Y-14344627D01*
X5679920Y-14487484D02*
X5679920Y-14354150D01*
X5679920Y-14373198D02*
X5689443Y-14363674D01*
X5689443Y-14363674D02*
X5708491Y-14354150D01*
X5708491Y-14354150D02*
X5737063Y-14354150D01*
X5737063Y-14354150D02*
X5756110Y-14363674D01*
X5756110Y-14363674D02*
X5765634Y-14382722D01*
X5765634Y-14382722D02*
X5765634Y-14487484D01*
X5765634Y-14382722D02*
X5775158Y-14363674D01*
X5775158Y-14363674D02*
X5794205Y-14354150D01*
X5794205Y-14354150D02*
X5822777Y-14354150D01*
X5822777Y-14354150D02*
X5841824Y-14363674D01*
X5841824Y-14363674D02*
X5851348Y-14382722D01*
X5851348Y-14382722D02*
X5851348Y-14487484D01*
X5946586Y-14487484D02*
X5946586Y-14354150D01*
X5946586Y-14373198D02*
X5956110Y-14363674D01*
X5956110Y-14363674D02*
X5975158Y-14354150D01*
X5975158Y-14354150D02*
X6003729Y-14354150D01*
X6003729Y-14354150D02*
X6022777Y-14363674D01*
X6022777Y-14363674D02*
X6032301Y-14382722D01*
X6032301Y-14382722D02*
X6032301Y-14487484D01*
X6032301Y-14382722D02*
X6041824Y-14363674D01*
X6041824Y-14363674D02*
X6060872Y-14354150D01*
X6060872Y-14354150D02*
X6089443Y-14354150D01*
X6089443Y-14354150D02*
X6108491Y-14363674D01*
X6108491Y-14363674D02*
X6118015Y-14382722D01*
X6118015Y-14382722D02*
X6118015Y-14487484D01*
X6508491Y-14277960D02*
X6337063Y-14535103D01*
X6765634Y-14287484D02*
X6784682Y-14287484D01*
X6784682Y-14287484D02*
X6803729Y-14297008D01*
X6803729Y-14297008D02*
X6813253Y-14306531D01*
X6813253Y-14306531D02*
X6822777Y-14325579D01*
X6822777Y-14325579D02*
X6832301Y-14363674D01*
X6832301Y-14363674D02*
X6832301Y-14411293D01*
X6832301Y-14411293D02*
X6822777Y-14449388D01*
X6822777Y-14449388D02*
X6813253Y-14468436D01*
X6813253Y-14468436D02*
X6803729Y-14477960D01*
X6803729Y-14477960D02*
X6784682Y-14487484D01*
X6784682Y-14487484D02*
X6765634Y-14487484D01*
X6765634Y-14487484D02*
X6746586Y-14477960D01*
X6746586Y-14477960D02*
X6737063Y-14468436D01*
X6737063Y-14468436D02*
X6727539Y-14449388D01*
X6727539Y-14449388D02*
X6718015Y-14411293D01*
X6718015Y-14411293D02*
X6718015Y-14363674D01*
X6718015Y-14363674D02*
X6727539Y-14325579D01*
X6727539Y-14325579D02*
X6737063Y-14306531D01*
X6737063Y-14306531D02*
X6746586Y-14297008D01*
X6746586Y-14297008D02*
X6765634Y-14287484D01*
X6918015Y-14468436D02*
X6927539Y-14477960D01*
X6927539Y-14477960D02*
X6918015Y-14487484D01*
X6918015Y-14487484D02*
X6908491Y-14477960D01*
X6908491Y-14477960D02*
X6918015Y-14468436D01*
X6918015Y-14468436D02*
X6918015Y-14487484D01*
X7051348Y-14287484D02*
X7070396Y-14287484D01*
X7070396Y-14287484D02*
X7089444Y-14297008D01*
X7089444Y-14297008D02*
X7098967Y-14306531D01*
X7098967Y-14306531D02*
X7108491Y-14325579D01*
X7108491Y-14325579D02*
X7118015Y-14363674D01*
X7118015Y-14363674D02*
X7118015Y-14411293D01*
X7118015Y-14411293D02*
X7108491Y-14449388D01*
X7108491Y-14449388D02*
X7098967Y-14468436D01*
X7098967Y-14468436D02*
X7089444Y-14477960D01*
X7089444Y-14477960D02*
X7070396Y-14487484D01*
X7070396Y-14487484D02*
X7051348Y-14487484D01*
X7051348Y-14487484D02*
X7032301Y-14477960D01*
X7032301Y-14477960D02*
X7022777Y-14468436D01*
X7022777Y-14468436D02*
X7013253Y-14449388D01*
X7013253Y-14449388D02*
X7003729Y-14411293D01*
X7003729Y-14411293D02*
X7003729Y-14363674D01*
X7003729Y-14363674D02*
X7013253Y-14325579D01*
X7013253Y-14325579D02*
X7022777Y-14306531D01*
X7022777Y-14306531D02*
X7032301Y-14297008D01*
X7032301Y-14297008D02*
X7051348Y-14287484D01*
X7184682Y-14287484D02*
X7308491Y-14287484D01*
X7308491Y-14287484D02*
X7241825Y-14363674D01*
X7241825Y-14363674D02*
X7270396Y-14363674D01*
X7270396Y-14363674D02*
X7289444Y-14373198D01*
X7289444Y-14373198D02*
X7298967Y-14382722D01*
X7298967Y-14382722D02*
X7308491Y-14401769D01*
X7308491Y-14401769D02*
X7308491Y-14449388D01*
X7308491Y-14449388D02*
X7298967Y-14468436D01*
X7298967Y-14468436D02*
X7289444Y-14477960D01*
X7289444Y-14477960D02*
X7270396Y-14487484D01*
X7270396Y-14487484D02*
X7213253Y-14487484D01*
X7213253Y-14487484D02*
X7194206Y-14477960D01*
X7194206Y-14477960D02*
X7184682Y-14468436D01*
X7403729Y-14487484D02*
X7441825Y-14487484D01*
X7441825Y-14487484D02*
X7460872Y-14477960D01*
X7460872Y-14477960D02*
X7470396Y-14468436D01*
X7470396Y-14468436D02*
X7489444Y-14439865D01*
X7489444Y-14439865D02*
X7498967Y-14401769D01*
X7498967Y-14401769D02*
X7498967Y-14325579D01*
X7498967Y-14325579D02*
X7489444Y-14306531D01*
X7489444Y-14306531D02*
X7479920Y-14297008D01*
X7479920Y-14297008D02*
X7460872Y-14287484D01*
X7460872Y-14287484D02*
X7422777Y-14287484D01*
X7422777Y-14287484D02*
X7403729Y-14297008D01*
X7403729Y-14297008D02*
X7394206Y-14306531D01*
X7394206Y-14306531D02*
X7384682Y-14325579D01*
X7384682Y-14325579D02*
X7384682Y-14373198D01*
X7384682Y-14373198D02*
X7394206Y-14392246D01*
X7394206Y-14392246D02*
X7403729Y-14401769D01*
X7403729Y-14401769D02*
X7422777Y-14411293D01*
X7422777Y-14411293D02*
X7460872Y-14411293D01*
X7460872Y-14411293D02*
X7479920Y-14401769D01*
X7479920Y-14401769D02*
X7489444Y-14392246D01*
X7489444Y-14392246D02*
X7498967Y-14373198D01*
X7622777Y-14287484D02*
X7641825Y-14287484D01*
X7641825Y-14287484D02*
X7660872Y-14297008D01*
X7660872Y-14297008D02*
X7670396Y-14306531D01*
X7670396Y-14306531D02*
X7679920Y-14325579D01*
X7679920Y-14325579D02*
X7689444Y-14363674D01*
X7689444Y-14363674D02*
X7689444Y-14411293D01*
X7689444Y-14411293D02*
X7679920Y-14449388D01*
X7679920Y-14449388D02*
X7670396Y-14468436D01*
X7670396Y-14468436D02*
X7660872Y-14477960D01*
X7660872Y-14477960D02*
X7641825Y-14487484D01*
X7641825Y-14487484D02*
X7622777Y-14487484D01*
X7622777Y-14487484D02*
X7603729Y-14477960D01*
X7603729Y-14477960D02*
X7594206Y-14468436D01*
X7594206Y-14468436D02*
X7584682Y-14449388D01*
X7584682Y-14449388D02*
X7575158Y-14411293D01*
X7575158Y-14411293D02*
X7575158Y-14363674D01*
X7575158Y-14363674D02*
X7584682Y-14325579D01*
X7584682Y-14325579D02*
X7594206Y-14306531D01*
X7594206Y-14306531D02*
X7603729Y-14297008D01*
X7603729Y-14297008D02*
X7622777Y-14287484D01*
X7765634Y-14287484D02*
X7765634Y-14325579D01*
X7841825Y-14287484D02*
X7841825Y-14325579D01*
X8137063Y-14563674D02*
X8127539Y-14554150D01*
X8127539Y-14554150D02*
X8108491Y-14525579D01*
X8108491Y-14525579D02*
X8098968Y-14506531D01*
X8098968Y-14506531D02*
X8089444Y-14477960D01*
X8089444Y-14477960D02*
X8079920Y-14430341D01*
X8079920Y-14430341D02*
X8079920Y-14392246D01*
X8079920Y-14392246D02*
X8089444Y-14344627D01*
X8089444Y-14344627D02*
X8098968Y-14316055D01*
X8098968Y-14316055D02*
X8108491Y-14297008D01*
X8108491Y-14297008D02*
X8127539Y-14268436D01*
X8127539Y-14268436D02*
X8137063Y-14258912D01*
X8298968Y-14354150D02*
X8298968Y-14487484D01*
X8251348Y-14277960D02*
X8203729Y-14420817D01*
X8203729Y-14420817D02*
X8327539Y-14420817D01*
X8441825Y-14287484D02*
X8460872Y-14287484D01*
X8460872Y-14287484D02*
X8479920Y-14297008D01*
X8479920Y-14297008D02*
X8489444Y-14306531D01*
X8489444Y-14306531D02*
X8498968Y-14325579D01*
X8498968Y-14325579D02*
X8508491Y-14363674D01*
X8508491Y-14363674D02*
X8508491Y-14411293D01*
X8508491Y-14411293D02*
X8498968Y-14449388D01*
X8498968Y-14449388D02*
X8489444Y-14468436D01*
X8489444Y-14468436D02*
X8479920Y-14477960D01*
X8479920Y-14477960D02*
X8460872Y-14487484D01*
X8460872Y-14487484D02*
X8441825Y-14487484D01*
X8441825Y-14487484D02*
X8422777Y-14477960D01*
X8422777Y-14477960D02*
X8413253Y-14468436D01*
X8413253Y-14468436D02*
X8403730Y-14449388D01*
X8403730Y-14449388D02*
X8394206Y-14411293D01*
X8394206Y-14411293D02*
X8394206Y-14363674D01*
X8394206Y-14363674D02*
X8403730Y-14325579D01*
X8403730Y-14325579D02*
X8413253Y-14306531D01*
X8413253Y-14306531D02*
X8422777Y-14297008D01*
X8422777Y-14297008D02*
X8441825Y-14287484D01*
X8746587Y-14487484D02*
X8746587Y-14287484D01*
X8832301Y-14487484D02*
X8832301Y-14382722D01*
X8832301Y-14382722D02*
X8822777Y-14363674D01*
X8822777Y-14363674D02*
X8803730Y-14354150D01*
X8803730Y-14354150D02*
X8775158Y-14354150D01*
X8775158Y-14354150D02*
X8756111Y-14363674D01*
X8756111Y-14363674D02*
X8746587Y-14373198D01*
X8956111Y-14487484D02*
X8937063Y-14477960D01*
X8937063Y-14477960D02*
X8927539Y-14468436D01*
X8927539Y-14468436D02*
X8918015Y-14449388D01*
X8918015Y-14449388D02*
X8918015Y-14392246D01*
X8918015Y-14392246D02*
X8927539Y-14373198D01*
X8927539Y-14373198D02*
X8937063Y-14363674D01*
X8937063Y-14363674D02*
X8956111Y-14354150D01*
X8956111Y-14354150D02*
X8984682Y-14354150D01*
X8984682Y-14354150D02*
X9003730Y-14363674D01*
X9003730Y-14363674D02*
X9013253Y-14373198D01*
X9013253Y-14373198D02*
X9022777Y-14392246D01*
X9022777Y-14392246D02*
X9022777Y-14449388D01*
X9022777Y-14449388D02*
X9013253Y-14468436D01*
X9013253Y-14468436D02*
X9003730Y-14477960D01*
X9003730Y-14477960D02*
X8984682Y-14487484D01*
X8984682Y-14487484D02*
X8956111Y-14487484D01*
X9137063Y-14487484D02*
X9118015Y-14477960D01*
X9118015Y-14477960D02*
X9108492Y-14458912D01*
X9108492Y-14458912D02*
X9108492Y-14287484D01*
X9289444Y-14477960D02*
X9270396Y-14487484D01*
X9270396Y-14487484D02*
X9232301Y-14487484D01*
X9232301Y-14487484D02*
X9213253Y-14477960D01*
X9213253Y-14477960D02*
X9203730Y-14458912D01*
X9203730Y-14458912D02*
X9203730Y-14382722D01*
X9203730Y-14382722D02*
X9213253Y-14363674D01*
X9213253Y-14363674D02*
X9232301Y-14354150D01*
X9232301Y-14354150D02*
X9270396Y-14354150D01*
X9270396Y-14354150D02*
X9289444Y-14363674D01*
X9289444Y-14363674D02*
X9298968Y-14382722D01*
X9298968Y-14382722D02*
X9298968Y-14401769D01*
X9298968Y-14401769D02*
X9203730Y-14420817D01*
X9375158Y-14477960D02*
X9394206Y-14487484D01*
X9394206Y-14487484D02*
X9432301Y-14487484D01*
X9432301Y-14487484D02*
X9451349Y-14477960D01*
X9451349Y-14477960D02*
X9460873Y-14458912D01*
X9460873Y-14458912D02*
X9460873Y-14449388D01*
X9460873Y-14449388D02*
X9451349Y-14430341D01*
X9451349Y-14430341D02*
X9432301Y-14420817D01*
X9432301Y-14420817D02*
X9403730Y-14420817D01*
X9403730Y-14420817D02*
X9384682Y-14411293D01*
X9384682Y-14411293D02*
X9375158Y-14392246D01*
X9375158Y-14392246D02*
X9375158Y-14382722D01*
X9375158Y-14382722D02*
X9384682Y-14363674D01*
X9384682Y-14363674D02*
X9403730Y-14354150D01*
X9403730Y-14354150D02*
X9432301Y-14354150D01*
X9432301Y-14354150D02*
X9451349Y-14363674D01*
X9527539Y-14563674D02*
X9537063Y-14554150D01*
X9537063Y-14554150D02*
X9556111Y-14525579D01*
X9556111Y-14525579D02*
X9565634Y-14506531D01*
X9565634Y-14506531D02*
X9575158Y-14477960D01*
X9575158Y-14477960D02*
X9584682Y-14430341D01*
X9584682Y-14430341D02*
X9584682Y-14392246D01*
X9584682Y-14392246D02*
X9575158Y-14344627D01*
X9575158Y-14344627D02*
X9565634Y-14316055D01*
X9565634Y-14316055D02*
X9556111Y-14297008D01*
X9556111Y-14297008D02*
X9537063Y-14268436D01*
X9537063Y-14268436D02*
X9527539Y-14258912D01*
D12*
X4492150Y-14729850D02*
X4562000Y-14660000D01*
X4492150Y-14590150D01*
X4422300Y-14660000D01*
X4492150Y-14729850D01*
D10*
X4927539Y-14751484D02*
X4813253Y-14751484D01*
X4870396Y-14751484D02*
X4870396Y-14551484D01*
X4870396Y-14551484D02*
X4851348Y-14580055D01*
X4851348Y-14580055D02*
X4832301Y-14599103D01*
X4832301Y-14599103D02*
X4813253Y-14608627D01*
X5013253Y-14732436D02*
X5022777Y-14741960D01*
X5022777Y-14741960D02*
X5013253Y-14751484D01*
X5013253Y-14751484D02*
X5003729Y-14741960D01*
X5003729Y-14741960D02*
X5013253Y-14732436D01*
X5013253Y-14732436D02*
X5013253Y-14751484D01*
X5089444Y-14551484D02*
X5213253Y-14551484D01*
X5213253Y-14551484D02*
X5146586Y-14627674D01*
X5146586Y-14627674D02*
X5175158Y-14627674D01*
X5175158Y-14627674D02*
X5194205Y-14637198D01*
X5194205Y-14637198D02*
X5203729Y-14646722D01*
X5203729Y-14646722D02*
X5213253Y-14665769D01*
X5213253Y-14665769D02*
X5213253Y-14713388D01*
X5213253Y-14713388D02*
X5203729Y-14732436D01*
X5203729Y-14732436D02*
X5194205Y-14741960D01*
X5194205Y-14741960D02*
X5175158Y-14751484D01*
X5175158Y-14751484D02*
X5118015Y-14751484D01*
X5118015Y-14751484D02*
X5098967Y-14741960D01*
X5098967Y-14741960D02*
X5089444Y-14732436D01*
X5308491Y-14751484D02*
X5346586Y-14751484D01*
X5346586Y-14751484D02*
X5365634Y-14741960D01*
X5365634Y-14741960D02*
X5375158Y-14732436D01*
X5375158Y-14732436D02*
X5394205Y-14703865D01*
X5394205Y-14703865D02*
X5403729Y-14665769D01*
X5403729Y-14665769D02*
X5403729Y-14589579D01*
X5403729Y-14589579D02*
X5394205Y-14570531D01*
X5394205Y-14570531D02*
X5384682Y-14561008D01*
X5384682Y-14561008D02*
X5365634Y-14551484D01*
X5365634Y-14551484D02*
X5327539Y-14551484D01*
X5327539Y-14551484D02*
X5308491Y-14561008D01*
X5308491Y-14561008D02*
X5298967Y-14570531D01*
X5298967Y-14570531D02*
X5289444Y-14589579D01*
X5289444Y-14589579D02*
X5289444Y-14637198D01*
X5289444Y-14637198D02*
X5298967Y-14656246D01*
X5298967Y-14656246D02*
X5308491Y-14665769D01*
X5308491Y-14665769D02*
X5327539Y-14675293D01*
X5327539Y-14675293D02*
X5365634Y-14675293D01*
X5365634Y-14675293D02*
X5384682Y-14665769D01*
X5384682Y-14665769D02*
X5394205Y-14656246D01*
X5394205Y-14656246D02*
X5403729Y-14637198D01*
X5470396Y-14551484D02*
X5603729Y-14551484D01*
X5603729Y-14551484D02*
X5518015Y-14751484D01*
X5679920Y-14751484D02*
X5679920Y-14618150D01*
X5679920Y-14637198D02*
X5689443Y-14627674D01*
X5689443Y-14627674D02*
X5708491Y-14618150D01*
X5708491Y-14618150D02*
X5737063Y-14618150D01*
X5737063Y-14618150D02*
X5756110Y-14627674D01*
X5756110Y-14627674D02*
X5765634Y-14646722D01*
X5765634Y-14646722D02*
X5765634Y-14751484D01*
X5765634Y-14646722D02*
X5775158Y-14627674D01*
X5775158Y-14627674D02*
X5794205Y-14618150D01*
X5794205Y-14618150D02*
X5822777Y-14618150D01*
X5822777Y-14618150D02*
X5841824Y-14627674D01*
X5841824Y-14627674D02*
X5851348Y-14646722D01*
X5851348Y-14646722D02*
X5851348Y-14751484D01*
X5946586Y-14751484D02*
X5946586Y-14618150D01*
X5946586Y-14637198D02*
X5956110Y-14627674D01*
X5956110Y-14627674D02*
X5975158Y-14618150D01*
X5975158Y-14618150D02*
X6003729Y-14618150D01*
X6003729Y-14618150D02*
X6022777Y-14627674D01*
X6022777Y-14627674D02*
X6032301Y-14646722D01*
X6032301Y-14646722D02*
X6032301Y-14751484D01*
X6032301Y-14646722D02*
X6041824Y-14627674D01*
X6041824Y-14627674D02*
X6060872Y-14618150D01*
X6060872Y-14618150D02*
X6089443Y-14618150D01*
X6089443Y-14618150D02*
X6108491Y-14627674D01*
X6108491Y-14627674D02*
X6118015Y-14646722D01*
X6118015Y-14646722D02*
X6118015Y-14751484D01*
X6508491Y-14541960D02*
X6337063Y-14799103D01*
X6765634Y-14551484D02*
X6784682Y-14551484D01*
X6784682Y-14551484D02*
X6803729Y-14561008D01*
X6803729Y-14561008D02*
X6813253Y-14570531D01*
X6813253Y-14570531D02*
X6822777Y-14589579D01*
X6822777Y-14589579D02*
X6832301Y-14627674D01*
X6832301Y-14627674D02*
X6832301Y-14675293D01*
X6832301Y-14675293D02*
X6822777Y-14713388D01*
X6822777Y-14713388D02*
X6813253Y-14732436D01*
X6813253Y-14732436D02*
X6803729Y-14741960D01*
X6803729Y-14741960D02*
X6784682Y-14751484D01*
X6784682Y-14751484D02*
X6765634Y-14751484D01*
X6765634Y-14751484D02*
X6746586Y-14741960D01*
X6746586Y-14741960D02*
X6737063Y-14732436D01*
X6737063Y-14732436D02*
X6727539Y-14713388D01*
X6727539Y-14713388D02*
X6718015Y-14675293D01*
X6718015Y-14675293D02*
X6718015Y-14627674D01*
X6718015Y-14627674D02*
X6727539Y-14589579D01*
X6727539Y-14589579D02*
X6737063Y-14570531D01*
X6737063Y-14570531D02*
X6746586Y-14561008D01*
X6746586Y-14561008D02*
X6765634Y-14551484D01*
X6918015Y-14732436D02*
X6927539Y-14741960D01*
X6927539Y-14741960D02*
X6918015Y-14751484D01*
X6918015Y-14751484D02*
X6908491Y-14741960D01*
X6908491Y-14741960D02*
X6918015Y-14732436D01*
X6918015Y-14732436D02*
X6918015Y-14751484D01*
X7051348Y-14551484D02*
X7070396Y-14551484D01*
X7070396Y-14551484D02*
X7089444Y-14561008D01*
X7089444Y-14561008D02*
X7098967Y-14570531D01*
X7098967Y-14570531D02*
X7108491Y-14589579D01*
X7108491Y-14589579D02*
X7118015Y-14627674D01*
X7118015Y-14627674D02*
X7118015Y-14675293D01*
X7118015Y-14675293D02*
X7108491Y-14713388D01*
X7108491Y-14713388D02*
X7098967Y-14732436D01*
X7098967Y-14732436D02*
X7089444Y-14741960D01*
X7089444Y-14741960D02*
X7070396Y-14751484D01*
X7070396Y-14751484D02*
X7051348Y-14751484D01*
X7051348Y-14751484D02*
X7032301Y-14741960D01*
X7032301Y-14741960D02*
X7022777Y-14732436D01*
X7022777Y-14732436D02*
X7013253Y-14713388D01*
X7013253Y-14713388D02*
X7003729Y-14675293D01*
X7003729Y-14675293D02*
X7003729Y-14627674D01*
X7003729Y-14627674D02*
X7013253Y-14589579D01*
X7013253Y-14589579D02*
X7022777Y-14570531D01*
X7022777Y-14570531D02*
X7032301Y-14561008D01*
X7032301Y-14561008D02*
X7051348Y-14551484D01*
X7298967Y-14551484D02*
X7203729Y-14551484D01*
X7203729Y-14551484D02*
X7194206Y-14646722D01*
X7194206Y-14646722D02*
X7203729Y-14637198D01*
X7203729Y-14637198D02*
X7222777Y-14627674D01*
X7222777Y-14627674D02*
X7270396Y-14627674D01*
X7270396Y-14627674D02*
X7289444Y-14637198D01*
X7289444Y-14637198D02*
X7298967Y-14646722D01*
X7298967Y-14646722D02*
X7308491Y-14665769D01*
X7308491Y-14665769D02*
X7308491Y-14713388D01*
X7308491Y-14713388D02*
X7298967Y-14732436D01*
X7298967Y-14732436D02*
X7289444Y-14741960D01*
X7289444Y-14741960D02*
X7270396Y-14751484D01*
X7270396Y-14751484D02*
X7222777Y-14751484D01*
X7222777Y-14751484D02*
X7203729Y-14741960D01*
X7203729Y-14741960D02*
X7194206Y-14732436D01*
X7489444Y-14551484D02*
X7394206Y-14551484D01*
X7394206Y-14551484D02*
X7384682Y-14646722D01*
X7384682Y-14646722D02*
X7394206Y-14637198D01*
X7394206Y-14637198D02*
X7413253Y-14627674D01*
X7413253Y-14627674D02*
X7460872Y-14627674D01*
X7460872Y-14627674D02*
X7479920Y-14637198D01*
X7479920Y-14637198D02*
X7489444Y-14646722D01*
X7489444Y-14646722D02*
X7498967Y-14665769D01*
X7498967Y-14665769D02*
X7498967Y-14713388D01*
X7498967Y-14713388D02*
X7489444Y-14732436D01*
X7489444Y-14732436D02*
X7479920Y-14741960D01*
X7479920Y-14741960D02*
X7460872Y-14751484D01*
X7460872Y-14751484D02*
X7413253Y-14751484D01*
X7413253Y-14751484D02*
X7394206Y-14741960D01*
X7394206Y-14741960D02*
X7384682Y-14732436D01*
X7622777Y-14551484D02*
X7641825Y-14551484D01*
X7641825Y-14551484D02*
X7660872Y-14561008D01*
X7660872Y-14561008D02*
X7670396Y-14570531D01*
X7670396Y-14570531D02*
X7679920Y-14589579D01*
X7679920Y-14589579D02*
X7689444Y-14627674D01*
X7689444Y-14627674D02*
X7689444Y-14675293D01*
X7689444Y-14675293D02*
X7679920Y-14713388D01*
X7679920Y-14713388D02*
X7670396Y-14732436D01*
X7670396Y-14732436D02*
X7660872Y-14741960D01*
X7660872Y-14741960D02*
X7641825Y-14751484D01*
X7641825Y-14751484D02*
X7622777Y-14751484D01*
X7622777Y-14751484D02*
X7603729Y-14741960D01*
X7603729Y-14741960D02*
X7594206Y-14732436D01*
X7594206Y-14732436D02*
X7584682Y-14713388D01*
X7584682Y-14713388D02*
X7575158Y-14675293D01*
X7575158Y-14675293D02*
X7575158Y-14627674D01*
X7575158Y-14627674D02*
X7584682Y-14589579D01*
X7584682Y-14589579D02*
X7594206Y-14570531D01*
X7594206Y-14570531D02*
X7603729Y-14561008D01*
X7603729Y-14561008D02*
X7622777Y-14551484D01*
X7765634Y-14551484D02*
X7765634Y-14589579D01*
X7841825Y-14551484D02*
X7841825Y-14589579D01*
X8137063Y-14827674D02*
X8127539Y-14818150D01*
X8127539Y-14818150D02*
X8108491Y-14789579D01*
X8108491Y-14789579D02*
X8098968Y-14770531D01*
X8098968Y-14770531D02*
X8089444Y-14741960D01*
X8089444Y-14741960D02*
X8079920Y-14694341D01*
X8079920Y-14694341D02*
X8079920Y-14656246D01*
X8079920Y-14656246D02*
X8089444Y-14608627D01*
X8089444Y-14608627D02*
X8098968Y-14580055D01*
X8098968Y-14580055D02*
X8108491Y-14561008D01*
X8108491Y-14561008D02*
X8127539Y-14532436D01*
X8127539Y-14532436D02*
X8137063Y-14522912D01*
X8203729Y-14570531D02*
X8213253Y-14561008D01*
X8213253Y-14561008D02*
X8232301Y-14551484D01*
X8232301Y-14551484D02*
X8279920Y-14551484D01*
X8279920Y-14551484D02*
X8298968Y-14561008D01*
X8298968Y-14561008D02*
X8308491Y-14570531D01*
X8308491Y-14570531D02*
X8318015Y-14589579D01*
X8318015Y-14589579D02*
X8318015Y-14608627D01*
X8318015Y-14608627D02*
X8308491Y-14637198D01*
X8308491Y-14637198D02*
X8194206Y-14751484D01*
X8194206Y-14751484D02*
X8318015Y-14751484D01*
X8489444Y-14618150D02*
X8489444Y-14751484D01*
X8441825Y-14541960D02*
X8394206Y-14684817D01*
X8394206Y-14684817D02*
X8518015Y-14684817D01*
X8746587Y-14751484D02*
X8746587Y-14551484D01*
X8832301Y-14751484D02*
X8832301Y-14646722D01*
X8832301Y-14646722D02*
X8822777Y-14627674D01*
X8822777Y-14627674D02*
X8803730Y-14618150D01*
X8803730Y-14618150D02*
X8775158Y-14618150D01*
X8775158Y-14618150D02*
X8756111Y-14627674D01*
X8756111Y-14627674D02*
X8746587Y-14637198D01*
X8956111Y-14751484D02*
X8937063Y-14741960D01*
X8937063Y-14741960D02*
X8927539Y-14732436D01*
X8927539Y-14732436D02*
X8918015Y-14713388D01*
X8918015Y-14713388D02*
X8918015Y-14656246D01*
X8918015Y-14656246D02*
X8927539Y-14637198D01*
X8927539Y-14637198D02*
X8937063Y-14627674D01*
X8937063Y-14627674D02*
X8956111Y-14618150D01*
X8956111Y-14618150D02*
X8984682Y-14618150D01*
X8984682Y-14618150D02*
X9003730Y-14627674D01*
X9003730Y-14627674D02*
X9013253Y-14637198D01*
X9013253Y-14637198D02*
X9022777Y-14656246D01*
X9022777Y-14656246D02*
X9022777Y-14713388D01*
X9022777Y-14713388D02*
X9013253Y-14732436D01*
X9013253Y-14732436D02*
X9003730Y-14741960D01*
X9003730Y-14741960D02*
X8984682Y-14751484D01*
X8984682Y-14751484D02*
X8956111Y-14751484D01*
X9137063Y-14751484D02*
X9118015Y-14741960D01*
X9118015Y-14741960D02*
X9108492Y-14722912D01*
X9108492Y-14722912D02*
X9108492Y-14551484D01*
X9289444Y-14741960D02*
X9270396Y-14751484D01*
X9270396Y-14751484D02*
X9232301Y-14751484D01*
X9232301Y-14751484D02*
X9213253Y-14741960D01*
X9213253Y-14741960D02*
X9203730Y-14722912D01*
X9203730Y-14722912D02*
X9203730Y-14646722D01*
X9203730Y-14646722D02*
X9213253Y-14627674D01*
X9213253Y-14627674D02*
X9232301Y-14618150D01*
X9232301Y-14618150D02*
X9270396Y-14618150D01*
X9270396Y-14618150D02*
X9289444Y-14627674D01*
X9289444Y-14627674D02*
X9298968Y-14646722D01*
X9298968Y-14646722D02*
X9298968Y-14665769D01*
X9298968Y-14665769D02*
X9203730Y-14684817D01*
X9375158Y-14741960D02*
X9394206Y-14751484D01*
X9394206Y-14751484D02*
X9432301Y-14751484D01*
X9432301Y-14751484D02*
X9451349Y-14741960D01*
X9451349Y-14741960D02*
X9460873Y-14722912D01*
X9460873Y-14722912D02*
X9460873Y-14713388D01*
X9460873Y-14713388D02*
X9451349Y-14694341D01*
X9451349Y-14694341D02*
X9432301Y-14684817D01*
X9432301Y-14684817D02*
X9403730Y-14684817D01*
X9403730Y-14684817D02*
X9384682Y-14675293D01*
X9384682Y-14675293D02*
X9375158Y-14656246D01*
X9375158Y-14656246D02*
X9375158Y-14646722D01*
X9375158Y-14646722D02*
X9384682Y-14627674D01*
X9384682Y-14627674D02*
X9403730Y-14618150D01*
X9403730Y-14618150D02*
X9432301Y-14618150D01*
X9432301Y-14618150D02*
X9451349Y-14627674D01*
X9527539Y-14827674D02*
X9537063Y-14818150D01*
X9537063Y-14818150D02*
X9556111Y-14789579D01*
X9556111Y-14789579D02*
X9565634Y-14770531D01*
X9565634Y-14770531D02*
X9575158Y-14741960D01*
X9575158Y-14741960D02*
X9584682Y-14694341D01*
X9584682Y-14694341D02*
X9584682Y-14656246D01*
X9584682Y-14656246D02*
X9575158Y-14608627D01*
X9575158Y-14608627D02*
X9565634Y-14580055D01*
X9565634Y-14580055D02*
X9556111Y-14561008D01*
X9556111Y-14561008D02*
X9537063Y-14532436D01*
X9537063Y-14532436D02*
X9527539Y-14522912D01*
D13*
X4412000Y-14849000D02*
X4562000Y-14999000D01*
X4562000Y-14849000D02*
X4412000Y-14999000D01*
X4562000Y-14924000D02*
G75*
G02*
X4412000Y-14924000I-75000J0D01*
G01*
X4412000Y-14924000D02*
G75*
G02*
X4562000Y-14924000I75000J0D01*
G01*
D10*
X4927539Y-15015484D02*
X4813253Y-15015484D01*
X4870396Y-15015484D02*
X4870396Y-14815484D01*
X4870396Y-14815484D02*
X4851348Y-14844055D01*
X4851348Y-14844055D02*
X4832301Y-14863103D01*
X4832301Y-14863103D02*
X4813253Y-14872627D01*
X5013253Y-14996436D02*
X5022777Y-15005960D01*
X5022777Y-15005960D02*
X5013253Y-15015484D01*
X5013253Y-15015484D02*
X5003729Y-15005960D01*
X5003729Y-15005960D02*
X5013253Y-14996436D01*
X5013253Y-14996436D02*
X5013253Y-15015484D01*
X5203729Y-14815484D02*
X5108491Y-14815484D01*
X5108491Y-14815484D02*
X5098967Y-14910722D01*
X5098967Y-14910722D02*
X5108491Y-14901198D01*
X5108491Y-14901198D02*
X5127539Y-14891674D01*
X5127539Y-14891674D02*
X5175158Y-14891674D01*
X5175158Y-14891674D02*
X5194205Y-14901198D01*
X5194205Y-14901198D02*
X5203729Y-14910722D01*
X5203729Y-14910722D02*
X5213253Y-14929769D01*
X5213253Y-14929769D02*
X5213253Y-14977388D01*
X5213253Y-14977388D02*
X5203729Y-14996436D01*
X5203729Y-14996436D02*
X5194205Y-15005960D01*
X5194205Y-15005960D02*
X5175158Y-15015484D01*
X5175158Y-15015484D02*
X5127539Y-15015484D01*
X5127539Y-15015484D02*
X5108491Y-15005960D01*
X5108491Y-15005960D02*
X5098967Y-14996436D01*
X5337063Y-14815484D02*
X5356110Y-14815484D01*
X5356110Y-14815484D02*
X5375158Y-14825008D01*
X5375158Y-14825008D02*
X5384682Y-14834531D01*
X5384682Y-14834531D02*
X5394205Y-14853579D01*
X5394205Y-14853579D02*
X5403729Y-14891674D01*
X5403729Y-14891674D02*
X5403729Y-14939293D01*
X5403729Y-14939293D02*
X5394205Y-14977388D01*
X5394205Y-14977388D02*
X5384682Y-14996436D01*
X5384682Y-14996436D02*
X5375158Y-15005960D01*
X5375158Y-15005960D02*
X5356110Y-15015484D01*
X5356110Y-15015484D02*
X5337063Y-15015484D01*
X5337063Y-15015484D02*
X5318015Y-15005960D01*
X5318015Y-15005960D02*
X5308491Y-14996436D01*
X5308491Y-14996436D02*
X5298967Y-14977388D01*
X5298967Y-14977388D02*
X5289444Y-14939293D01*
X5289444Y-14939293D02*
X5289444Y-14891674D01*
X5289444Y-14891674D02*
X5298967Y-14853579D01*
X5298967Y-14853579D02*
X5308491Y-14834531D01*
X5308491Y-14834531D02*
X5318015Y-14825008D01*
X5318015Y-14825008D02*
X5337063Y-14815484D01*
X5527539Y-14815484D02*
X5546586Y-14815484D01*
X5546586Y-14815484D02*
X5565634Y-14825008D01*
X5565634Y-14825008D02*
X5575158Y-14834531D01*
X5575158Y-14834531D02*
X5584682Y-14853579D01*
X5584682Y-14853579D02*
X5594205Y-14891674D01*
X5594205Y-14891674D02*
X5594205Y-14939293D01*
X5594205Y-14939293D02*
X5584682Y-14977388D01*
X5584682Y-14977388D02*
X5575158Y-14996436D01*
X5575158Y-14996436D02*
X5565634Y-15005960D01*
X5565634Y-15005960D02*
X5546586Y-15015484D01*
X5546586Y-15015484D02*
X5527539Y-15015484D01*
X5527539Y-15015484D02*
X5508491Y-15005960D01*
X5508491Y-15005960D02*
X5498967Y-14996436D01*
X5498967Y-14996436D02*
X5489444Y-14977388D01*
X5489444Y-14977388D02*
X5479920Y-14939293D01*
X5479920Y-14939293D02*
X5479920Y-14891674D01*
X5479920Y-14891674D02*
X5489444Y-14853579D01*
X5489444Y-14853579D02*
X5498967Y-14834531D01*
X5498967Y-14834531D02*
X5508491Y-14825008D01*
X5508491Y-14825008D02*
X5527539Y-14815484D01*
X5679920Y-15015484D02*
X5679920Y-14882150D01*
X5679920Y-14901198D02*
X5689443Y-14891674D01*
X5689443Y-14891674D02*
X5708491Y-14882150D01*
X5708491Y-14882150D02*
X5737063Y-14882150D01*
X5737063Y-14882150D02*
X5756110Y-14891674D01*
X5756110Y-14891674D02*
X5765634Y-14910722D01*
X5765634Y-14910722D02*
X5765634Y-15015484D01*
X5765634Y-14910722D02*
X5775158Y-14891674D01*
X5775158Y-14891674D02*
X5794205Y-14882150D01*
X5794205Y-14882150D02*
X5822777Y-14882150D01*
X5822777Y-14882150D02*
X5841824Y-14891674D01*
X5841824Y-14891674D02*
X5851348Y-14910722D01*
X5851348Y-14910722D02*
X5851348Y-15015484D01*
X5946586Y-15015484D02*
X5946586Y-14882150D01*
X5946586Y-14901198D02*
X5956110Y-14891674D01*
X5956110Y-14891674D02*
X5975158Y-14882150D01*
X5975158Y-14882150D02*
X6003729Y-14882150D01*
X6003729Y-14882150D02*
X6022777Y-14891674D01*
X6022777Y-14891674D02*
X6032301Y-14910722D01*
X6032301Y-14910722D02*
X6032301Y-15015484D01*
X6032301Y-14910722D02*
X6041824Y-14891674D01*
X6041824Y-14891674D02*
X6060872Y-14882150D01*
X6060872Y-14882150D02*
X6089443Y-14882150D01*
X6089443Y-14882150D02*
X6108491Y-14891674D01*
X6108491Y-14891674D02*
X6118015Y-14910722D01*
X6118015Y-14910722D02*
X6118015Y-15015484D01*
X6508491Y-14805960D02*
X6337063Y-15063103D01*
X6765634Y-14815484D02*
X6784682Y-14815484D01*
X6784682Y-14815484D02*
X6803729Y-14825008D01*
X6803729Y-14825008D02*
X6813253Y-14834531D01*
X6813253Y-14834531D02*
X6822777Y-14853579D01*
X6822777Y-14853579D02*
X6832301Y-14891674D01*
X6832301Y-14891674D02*
X6832301Y-14939293D01*
X6832301Y-14939293D02*
X6822777Y-14977388D01*
X6822777Y-14977388D02*
X6813253Y-14996436D01*
X6813253Y-14996436D02*
X6803729Y-15005960D01*
X6803729Y-15005960D02*
X6784682Y-15015484D01*
X6784682Y-15015484D02*
X6765634Y-15015484D01*
X6765634Y-15015484D02*
X6746586Y-15005960D01*
X6746586Y-15005960D02*
X6737063Y-14996436D01*
X6737063Y-14996436D02*
X6727539Y-14977388D01*
X6727539Y-14977388D02*
X6718015Y-14939293D01*
X6718015Y-14939293D02*
X6718015Y-14891674D01*
X6718015Y-14891674D02*
X6727539Y-14853579D01*
X6727539Y-14853579D02*
X6737063Y-14834531D01*
X6737063Y-14834531D02*
X6746586Y-14825008D01*
X6746586Y-14825008D02*
X6765634Y-14815484D01*
X6918015Y-14996436D02*
X6927539Y-15005960D01*
X6927539Y-15005960D02*
X6918015Y-15015484D01*
X6918015Y-15015484D02*
X6908491Y-15005960D01*
X6908491Y-15005960D02*
X6918015Y-14996436D01*
X6918015Y-14996436D02*
X6918015Y-15015484D01*
X7051348Y-14815484D02*
X7070396Y-14815484D01*
X7070396Y-14815484D02*
X7089444Y-14825008D01*
X7089444Y-14825008D02*
X7098967Y-14834531D01*
X7098967Y-14834531D02*
X7108491Y-14853579D01*
X7108491Y-14853579D02*
X7118015Y-14891674D01*
X7118015Y-14891674D02*
X7118015Y-14939293D01*
X7118015Y-14939293D02*
X7108491Y-14977388D01*
X7108491Y-14977388D02*
X7098967Y-14996436D01*
X7098967Y-14996436D02*
X7089444Y-15005960D01*
X7089444Y-15005960D02*
X7070396Y-15015484D01*
X7070396Y-15015484D02*
X7051348Y-15015484D01*
X7051348Y-15015484D02*
X7032301Y-15005960D01*
X7032301Y-15005960D02*
X7022777Y-14996436D01*
X7022777Y-14996436D02*
X7013253Y-14977388D01*
X7013253Y-14977388D02*
X7003729Y-14939293D01*
X7003729Y-14939293D02*
X7003729Y-14891674D01*
X7003729Y-14891674D02*
X7013253Y-14853579D01*
X7013253Y-14853579D02*
X7022777Y-14834531D01*
X7022777Y-14834531D02*
X7032301Y-14825008D01*
X7032301Y-14825008D02*
X7051348Y-14815484D01*
X7298967Y-14815484D02*
X7203729Y-14815484D01*
X7203729Y-14815484D02*
X7194206Y-14910722D01*
X7194206Y-14910722D02*
X7203729Y-14901198D01*
X7203729Y-14901198D02*
X7222777Y-14891674D01*
X7222777Y-14891674D02*
X7270396Y-14891674D01*
X7270396Y-14891674D02*
X7289444Y-14901198D01*
X7289444Y-14901198D02*
X7298967Y-14910722D01*
X7298967Y-14910722D02*
X7308491Y-14929769D01*
X7308491Y-14929769D02*
X7308491Y-14977388D01*
X7308491Y-14977388D02*
X7298967Y-14996436D01*
X7298967Y-14996436D02*
X7289444Y-15005960D01*
X7289444Y-15005960D02*
X7270396Y-15015484D01*
X7270396Y-15015484D02*
X7222777Y-15015484D01*
X7222777Y-15015484D02*
X7203729Y-15005960D01*
X7203729Y-15005960D02*
X7194206Y-14996436D01*
X7403729Y-15015484D02*
X7441825Y-15015484D01*
X7441825Y-15015484D02*
X7460872Y-15005960D01*
X7460872Y-15005960D02*
X7470396Y-14996436D01*
X7470396Y-14996436D02*
X7489444Y-14967865D01*
X7489444Y-14967865D02*
X7498967Y-14929769D01*
X7498967Y-14929769D02*
X7498967Y-14853579D01*
X7498967Y-14853579D02*
X7489444Y-14834531D01*
X7489444Y-14834531D02*
X7479920Y-14825008D01*
X7479920Y-14825008D02*
X7460872Y-14815484D01*
X7460872Y-14815484D02*
X7422777Y-14815484D01*
X7422777Y-14815484D02*
X7403729Y-14825008D01*
X7403729Y-14825008D02*
X7394206Y-14834531D01*
X7394206Y-14834531D02*
X7384682Y-14853579D01*
X7384682Y-14853579D02*
X7384682Y-14901198D01*
X7384682Y-14901198D02*
X7394206Y-14920246D01*
X7394206Y-14920246D02*
X7403729Y-14929769D01*
X7403729Y-14929769D02*
X7422777Y-14939293D01*
X7422777Y-14939293D02*
X7460872Y-14939293D01*
X7460872Y-14939293D02*
X7479920Y-14929769D01*
X7479920Y-14929769D02*
X7489444Y-14920246D01*
X7489444Y-14920246D02*
X7498967Y-14901198D01*
X7689444Y-15015484D02*
X7575158Y-15015484D01*
X7632301Y-15015484D02*
X7632301Y-14815484D01*
X7632301Y-14815484D02*
X7613253Y-14844055D01*
X7613253Y-14844055D02*
X7594206Y-14863103D01*
X7594206Y-14863103D02*
X7575158Y-14872627D01*
X7765634Y-14815484D02*
X7765634Y-14853579D01*
X7841825Y-14815484D02*
X7841825Y-14853579D01*
X8137063Y-15091674D02*
X8127539Y-15082150D01*
X8127539Y-15082150D02*
X8108491Y-15053579D01*
X8108491Y-15053579D02*
X8098968Y-15034531D01*
X8098968Y-15034531D02*
X8089444Y-15005960D01*
X8089444Y-15005960D02*
X8079920Y-14958341D01*
X8079920Y-14958341D02*
X8079920Y-14920246D01*
X8079920Y-14920246D02*
X8089444Y-14872627D01*
X8089444Y-14872627D02*
X8098968Y-14844055D01*
X8098968Y-14844055D02*
X8108491Y-14825008D01*
X8108491Y-14825008D02*
X8127539Y-14796436D01*
X8127539Y-14796436D02*
X8137063Y-14786912D01*
X8318015Y-15015484D02*
X8203729Y-15015484D01*
X8260872Y-15015484D02*
X8260872Y-14815484D01*
X8260872Y-14815484D02*
X8241825Y-14844055D01*
X8241825Y-14844055D02*
X8222777Y-14863103D01*
X8222777Y-14863103D02*
X8203729Y-14872627D01*
X8432301Y-14901198D02*
X8413253Y-14891674D01*
X8413253Y-14891674D02*
X8403730Y-14882150D01*
X8403730Y-14882150D02*
X8394206Y-14863103D01*
X8394206Y-14863103D02*
X8394206Y-14853579D01*
X8394206Y-14853579D02*
X8403730Y-14834531D01*
X8403730Y-14834531D02*
X8413253Y-14825008D01*
X8413253Y-14825008D02*
X8432301Y-14815484D01*
X8432301Y-14815484D02*
X8470396Y-14815484D01*
X8470396Y-14815484D02*
X8489444Y-14825008D01*
X8489444Y-14825008D02*
X8498968Y-14834531D01*
X8498968Y-14834531D02*
X8508491Y-14853579D01*
X8508491Y-14853579D02*
X8508491Y-14863103D01*
X8508491Y-14863103D02*
X8498968Y-14882150D01*
X8498968Y-14882150D02*
X8489444Y-14891674D01*
X8489444Y-14891674D02*
X8470396Y-14901198D01*
X8470396Y-14901198D02*
X8432301Y-14901198D01*
X8432301Y-14901198D02*
X8413253Y-14910722D01*
X8413253Y-14910722D02*
X8403730Y-14920246D01*
X8403730Y-14920246D02*
X8394206Y-14939293D01*
X8394206Y-14939293D02*
X8394206Y-14977388D01*
X8394206Y-14977388D02*
X8403730Y-14996436D01*
X8403730Y-14996436D02*
X8413253Y-15005960D01*
X8413253Y-15005960D02*
X8432301Y-15015484D01*
X8432301Y-15015484D02*
X8470396Y-15015484D01*
X8470396Y-15015484D02*
X8489444Y-15005960D01*
X8489444Y-15005960D02*
X8498968Y-14996436D01*
X8498968Y-14996436D02*
X8508491Y-14977388D01*
X8508491Y-14977388D02*
X8508491Y-14939293D01*
X8508491Y-14939293D02*
X8498968Y-14920246D01*
X8498968Y-14920246D02*
X8489444Y-14910722D01*
X8489444Y-14910722D02*
X8470396Y-14901198D01*
X8746587Y-15015484D02*
X8746587Y-14815484D01*
X8832301Y-15015484D02*
X8832301Y-14910722D01*
X8832301Y-14910722D02*
X8822777Y-14891674D01*
X8822777Y-14891674D02*
X8803730Y-14882150D01*
X8803730Y-14882150D02*
X8775158Y-14882150D01*
X8775158Y-14882150D02*
X8756111Y-14891674D01*
X8756111Y-14891674D02*
X8746587Y-14901198D01*
X8956111Y-15015484D02*
X8937063Y-15005960D01*
X8937063Y-15005960D02*
X8927539Y-14996436D01*
X8927539Y-14996436D02*
X8918015Y-14977388D01*
X8918015Y-14977388D02*
X8918015Y-14920246D01*
X8918015Y-14920246D02*
X8927539Y-14901198D01*
X8927539Y-14901198D02*
X8937063Y-14891674D01*
X8937063Y-14891674D02*
X8956111Y-14882150D01*
X8956111Y-14882150D02*
X8984682Y-14882150D01*
X8984682Y-14882150D02*
X9003730Y-14891674D01*
X9003730Y-14891674D02*
X9013253Y-14901198D01*
X9013253Y-14901198D02*
X9022777Y-14920246D01*
X9022777Y-14920246D02*
X9022777Y-14977388D01*
X9022777Y-14977388D02*
X9013253Y-14996436D01*
X9013253Y-14996436D02*
X9003730Y-15005960D01*
X9003730Y-15005960D02*
X8984682Y-15015484D01*
X8984682Y-15015484D02*
X8956111Y-15015484D01*
X9137063Y-15015484D02*
X9118015Y-15005960D01*
X9118015Y-15005960D02*
X9108492Y-14986912D01*
X9108492Y-14986912D02*
X9108492Y-14815484D01*
X9289444Y-15005960D02*
X9270396Y-15015484D01*
X9270396Y-15015484D02*
X9232301Y-15015484D01*
X9232301Y-15015484D02*
X9213253Y-15005960D01*
X9213253Y-15005960D02*
X9203730Y-14986912D01*
X9203730Y-14986912D02*
X9203730Y-14910722D01*
X9203730Y-14910722D02*
X9213253Y-14891674D01*
X9213253Y-14891674D02*
X9232301Y-14882150D01*
X9232301Y-14882150D02*
X9270396Y-14882150D01*
X9270396Y-14882150D02*
X9289444Y-14891674D01*
X9289444Y-14891674D02*
X9298968Y-14910722D01*
X9298968Y-14910722D02*
X9298968Y-14929769D01*
X9298968Y-14929769D02*
X9203730Y-14948817D01*
X9375158Y-15005960D02*
X9394206Y-15015484D01*
X9394206Y-15015484D02*
X9432301Y-15015484D01*
X9432301Y-15015484D02*
X9451349Y-15005960D01*
X9451349Y-15005960D02*
X9460873Y-14986912D01*
X9460873Y-14986912D02*
X9460873Y-14977388D01*
X9460873Y-14977388D02*
X9451349Y-14958341D01*
X9451349Y-14958341D02*
X9432301Y-14948817D01*
X9432301Y-14948817D02*
X9403730Y-14948817D01*
X9403730Y-14948817D02*
X9384682Y-14939293D01*
X9384682Y-14939293D02*
X9375158Y-14920246D01*
X9375158Y-14920246D02*
X9375158Y-14910722D01*
X9375158Y-14910722D02*
X9384682Y-14891674D01*
X9384682Y-14891674D02*
X9403730Y-14882150D01*
X9403730Y-14882150D02*
X9432301Y-14882150D01*
X9432301Y-14882150D02*
X9451349Y-14891674D01*
X9527539Y-15091674D02*
X9537063Y-15082150D01*
X9537063Y-15082150D02*
X9556111Y-15053579D01*
X9556111Y-15053579D02*
X9565634Y-15034531D01*
X9565634Y-15034531D02*
X9575158Y-15005960D01*
X9575158Y-15005960D02*
X9584682Y-14958341D01*
X9584682Y-14958341D02*
X9584682Y-14920246D01*
X9584682Y-14920246D02*
X9575158Y-14872627D01*
X9575158Y-14872627D02*
X9565634Y-14844055D01*
X9565634Y-14844055D02*
X9556111Y-14825008D01*
X9556111Y-14825008D02*
X9537063Y-14796436D01*
X9537063Y-14796436D02*
X9527539Y-14786912D01*
D14*
X4410000Y-15118000D02*
X4562000Y-15270000D01*
X4562000Y-15118000D02*
X4410000Y-15270000D01*
X4486000Y-15118000D02*
X4486000Y-15270000D01*
X4410000Y-15194000D02*
X4562000Y-15194000D01*
D10*
X4927539Y-15285484D02*
X4813253Y-15285484D01*
X4870396Y-15285484D02*
X4870396Y-15085484D01*
X4870396Y-15085484D02*
X4851348Y-15114055D01*
X4851348Y-15114055D02*
X4832301Y-15133103D01*
X4832301Y-15133103D02*
X4813253Y-15142627D01*
X5013253Y-15266436D02*
X5022777Y-15275960D01*
X5022777Y-15275960D02*
X5013253Y-15285484D01*
X5013253Y-15285484D02*
X5003729Y-15275960D01*
X5003729Y-15275960D02*
X5013253Y-15266436D01*
X5013253Y-15266436D02*
X5013253Y-15285484D01*
X5203729Y-15085484D02*
X5108491Y-15085484D01*
X5108491Y-15085484D02*
X5098967Y-15180722D01*
X5098967Y-15180722D02*
X5108491Y-15171198D01*
X5108491Y-15171198D02*
X5127539Y-15161674D01*
X5127539Y-15161674D02*
X5175158Y-15161674D01*
X5175158Y-15161674D02*
X5194205Y-15171198D01*
X5194205Y-15171198D02*
X5203729Y-15180722D01*
X5203729Y-15180722D02*
X5213253Y-15199769D01*
X5213253Y-15199769D02*
X5213253Y-15247388D01*
X5213253Y-15247388D02*
X5203729Y-15266436D01*
X5203729Y-15266436D02*
X5194205Y-15275960D01*
X5194205Y-15275960D02*
X5175158Y-15285484D01*
X5175158Y-15285484D02*
X5127539Y-15285484D01*
X5127539Y-15285484D02*
X5108491Y-15275960D01*
X5108491Y-15275960D02*
X5098967Y-15266436D01*
X5289444Y-15104531D02*
X5298967Y-15095008D01*
X5298967Y-15095008D02*
X5318015Y-15085484D01*
X5318015Y-15085484D02*
X5365634Y-15085484D01*
X5365634Y-15085484D02*
X5384682Y-15095008D01*
X5384682Y-15095008D02*
X5394205Y-15104531D01*
X5394205Y-15104531D02*
X5403729Y-15123579D01*
X5403729Y-15123579D02*
X5403729Y-15142627D01*
X5403729Y-15142627D02*
X5394205Y-15171198D01*
X5394205Y-15171198D02*
X5279920Y-15285484D01*
X5279920Y-15285484D02*
X5403729Y-15285484D01*
X5527539Y-15085484D02*
X5546586Y-15085484D01*
X5546586Y-15085484D02*
X5565634Y-15095008D01*
X5565634Y-15095008D02*
X5575158Y-15104531D01*
X5575158Y-15104531D02*
X5584682Y-15123579D01*
X5584682Y-15123579D02*
X5594205Y-15161674D01*
X5594205Y-15161674D02*
X5594205Y-15209293D01*
X5594205Y-15209293D02*
X5584682Y-15247388D01*
X5584682Y-15247388D02*
X5575158Y-15266436D01*
X5575158Y-15266436D02*
X5565634Y-15275960D01*
X5565634Y-15275960D02*
X5546586Y-15285484D01*
X5546586Y-15285484D02*
X5527539Y-15285484D01*
X5527539Y-15285484D02*
X5508491Y-15275960D01*
X5508491Y-15275960D02*
X5498967Y-15266436D01*
X5498967Y-15266436D02*
X5489444Y-15247388D01*
X5489444Y-15247388D02*
X5479920Y-15209293D01*
X5479920Y-15209293D02*
X5479920Y-15161674D01*
X5479920Y-15161674D02*
X5489444Y-15123579D01*
X5489444Y-15123579D02*
X5498967Y-15104531D01*
X5498967Y-15104531D02*
X5508491Y-15095008D01*
X5508491Y-15095008D02*
X5527539Y-15085484D01*
X5679920Y-15285484D02*
X5679920Y-15152150D01*
X5679920Y-15171198D02*
X5689443Y-15161674D01*
X5689443Y-15161674D02*
X5708491Y-15152150D01*
X5708491Y-15152150D02*
X5737063Y-15152150D01*
X5737063Y-15152150D02*
X5756110Y-15161674D01*
X5756110Y-15161674D02*
X5765634Y-15180722D01*
X5765634Y-15180722D02*
X5765634Y-15285484D01*
X5765634Y-15180722D02*
X5775158Y-15161674D01*
X5775158Y-15161674D02*
X5794205Y-15152150D01*
X5794205Y-15152150D02*
X5822777Y-15152150D01*
X5822777Y-15152150D02*
X5841824Y-15161674D01*
X5841824Y-15161674D02*
X5851348Y-15180722D01*
X5851348Y-15180722D02*
X5851348Y-15285484D01*
X5946586Y-15285484D02*
X5946586Y-15152150D01*
X5946586Y-15171198D02*
X5956110Y-15161674D01*
X5956110Y-15161674D02*
X5975158Y-15152150D01*
X5975158Y-15152150D02*
X6003729Y-15152150D01*
X6003729Y-15152150D02*
X6022777Y-15161674D01*
X6022777Y-15161674D02*
X6032301Y-15180722D01*
X6032301Y-15180722D02*
X6032301Y-15285484D01*
X6032301Y-15180722D02*
X6041824Y-15161674D01*
X6041824Y-15161674D02*
X6060872Y-15152150D01*
X6060872Y-15152150D02*
X6089443Y-15152150D01*
X6089443Y-15152150D02*
X6108491Y-15161674D01*
X6108491Y-15161674D02*
X6118015Y-15180722D01*
X6118015Y-15180722D02*
X6118015Y-15285484D01*
X6508491Y-15075960D02*
X6337063Y-15333103D01*
X6765634Y-15085484D02*
X6784682Y-15085484D01*
X6784682Y-15085484D02*
X6803729Y-15095008D01*
X6803729Y-15095008D02*
X6813253Y-15104531D01*
X6813253Y-15104531D02*
X6822777Y-15123579D01*
X6822777Y-15123579D02*
X6832301Y-15161674D01*
X6832301Y-15161674D02*
X6832301Y-15209293D01*
X6832301Y-15209293D02*
X6822777Y-15247388D01*
X6822777Y-15247388D02*
X6813253Y-15266436D01*
X6813253Y-15266436D02*
X6803729Y-15275960D01*
X6803729Y-15275960D02*
X6784682Y-15285484D01*
X6784682Y-15285484D02*
X6765634Y-15285484D01*
X6765634Y-15285484D02*
X6746586Y-15275960D01*
X6746586Y-15275960D02*
X6737063Y-15266436D01*
X6737063Y-15266436D02*
X6727539Y-15247388D01*
X6727539Y-15247388D02*
X6718015Y-15209293D01*
X6718015Y-15209293D02*
X6718015Y-15161674D01*
X6718015Y-15161674D02*
X6727539Y-15123579D01*
X6727539Y-15123579D02*
X6737063Y-15104531D01*
X6737063Y-15104531D02*
X6746586Y-15095008D01*
X6746586Y-15095008D02*
X6765634Y-15085484D01*
X6918015Y-15266436D02*
X6927539Y-15275960D01*
X6927539Y-15275960D02*
X6918015Y-15285484D01*
X6918015Y-15285484D02*
X6908491Y-15275960D01*
X6908491Y-15275960D02*
X6918015Y-15266436D01*
X6918015Y-15266436D02*
X6918015Y-15285484D01*
X7051348Y-15085484D02*
X7070396Y-15085484D01*
X7070396Y-15085484D02*
X7089444Y-15095008D01*
X7089444Y-15095008D02*
X7098967Y-15104531D01*
X7098967Y-15104531D02*
X7108491Y-15123579D01*
X7108491Y-15123579D02*
X7118015Y-15161674D01*
X7118015Y-15161674D02*
X7118015Y-15209293D01*
X7118015Y-15209293D02*
X7108491Y-15247388D01*
X7108491Y-15247388D02*
X7098967Y-15266436D01*
X7098967Y-15266436D02*
X7089444Y-15275960D01*
X7089444Y-15275960D02*
X7070396Y-15285484D01*
X7070396Y-15285484D02*
X7051348Y-15285484D01*
X7051348Y-15285484D02*
X7032301Y-15275960D01*
X7032301Y-15275960D02*
X7022777Y-15266436D01*
X7022777Y-15266436D02*
X7013253Y-15247388D01*
X7013253Y-15247388D02*
X7003729Y-15209293D01*
X7003729Y-15209293D02*
X7003729Y-15161674D01*
X7003729Y-15161674D02*
X7013253Y-15123579D01*
X7013253Y-15123579D02*
X7022777Y-15104531D01*
X7022777Y-15104531D02*
X7032301Y-15095008D01*
X7032301Y-15095008D02*
X7051348Y-15085484D01*
X7298967Y-15085484D02*
X7203729Y-15085484D01*
X7203729Y-15085484D02*
X7194206Y-15180722D01*
X7194206Y-15180722D02*
X7203729Y-15171198D01*
X7203729Y-15171198D02*
X7222777Y-15161674D01*
X7222777Y-15161674D02*
X7270396Y-15161674D01*
X7270396Y-15161674D02*
X7289444Y-15171198D01*
X7289444Y-15171198D02*
X7298967Y-15180722D01*
X7298967Y-15180722D02*
X7308491Y-15199769D01*
X7308491Y-15199769D02*
X7308491Y-15247388D01*
X7308491Y-15247388D02*
X7298967Y-15266436D01*
X7298967Y-15266436D02*
X7289444Y-15275960D01*
X7289444Y-15275960D02*
X7270396Y-15285484D01*
X7270396Y-15285484D02*
X7222777Y-15285484D01*
X7222777Y-15285484D02*
X7203729Y-15275960D01*
X7203729Y-15275960D02*
X7194206Y-15266436D01*
X7403729Y-15285484D02*
X7441825Y-15285484D01*
X7441825Y-15285484D02*
X7460872Y-15275960D01*
X7460872Y-15275960D02*
X7470396Y-15266436D01*
X7470396Y-15266436D02*
X7489444Y-15237865D01*
X7489444Y-15237865D02*
X7498967Y-15199769D01*
X7498967Y-15199769D02*
X7498967Y-15123579D01*
X7498967Y-15123579D02*
X7489444Y-15104531D01*
X7489444Y-15104531D02*
X7479920Y-15095008D01*
X7479920Y-15095008D02*
X7460872Y-15085484D01*
X7460872Y-15085484D02*
X7422777Y-15085484D01*
X7422777Y-15085484D02*
X7403729Y-15095008D01*
X7403729Y-15095008D02*
X7394206Y-15104531D01*
X7394206Y-15104531D02*
X7384682Y-15123579D01*
X7384682Y-15123579D02*
X7384682Y-15171198D01*
X7384682Y-15171198D02*
X7394206Y-15190246D01*
X7394206Y-15190246D02*
X7403729Y-15199769D01*
X7403729Y-15199769D02*
X7422777Y-15209293D01*
X7422777Y-15209293D02*
X7460872Y-15209293D01*
X7460872Y-15209293D02*
X7479920Y-15199769D01*
X7479920Y-15199769D02*
X7489444Y-15190246D01*
X7489444Y-15190246D02*
X7498967Y-15171198D01*
X7613253Y-15171198D02*
X7594206Y-15161674D01*
X7594206Y-15161674D02*
X7584682Y-15152150D01*
X7584682Y-15152150D02*
X7575158Y-15133103D01*
X7575158Y-15133103D02*
X7575158Y-15123579D01*
X7575158Y-15123579D02*
X7584682Y-15104531D01*
X7584682Y-15104531D02*
X7594206Y-15095008D01*
X7594206Y-15095008D02*
X7613253Y-15085484D01*
X7613253Y-15085484D02*
X7651348Y-15085484D01*
X7651348Y-15085484D02*
X7670396Y-15095008D01*
X7670396Y-15095008D02*
X7679920Y-15104531D01*
X7679920Y-15104531D02*
X7689444Y-15123579D01*
X7689444Y-15123579D02*
X7689444Y-15133103D01*
X7689444Y-15133103D02*
X7679920Y-15152150D01*
X7679920Y-15152150D02*
X7670396Y-15161674D01*
X7670396Y-15161674D02*
X7651348Y-15171198D01*
X7651348Y-15171198D02*
X7613253Y-15171198D01*
X7613253Y-15171198D02*
X7594206Y-15180722D01*
X7594206Y-15180722D02*
X7584682Y-15190246D01*
X7584682Y-15190246D02*
X7575158Y-15209293D01*
X7575158Y-15209293D02*
X7575158Y-15247388D01*
X7575158Y-15247388D02*
X7584682Y-15266436D01*
X7584682Y-15266436D02*
X7594206Y-15275960D01*
X7594206Y-15275960D02*
X7613253Y-15285484D01*
X7613253Y-15285484D02*
X7651348Y-15285484D01*
X7651348Y-15285484D02*
X7670396Y-15275960D01*
X7670396Y-15275960D02*
X7679920Y-15266436D01*
X7679920Y-15266436D02*
X7689444Y-15247388D01*
X7689444Y-15247388D02*
X7689444Y-15209293D01*
X7689444Y-15209293D02*
X7679920Y-15190246D01*
X7679920Y-15190246D02*
X7670396Y-15180722D01*
X7670396Y-15180722D02*
X7651348Y-15171198D01*
X7765634Y-15085484D02*
X7765634Y-15123579D01*
X7841825Y-15085484D02*
X7841825Y-15123579D01*
X8137063Y-15361674D02*
X8127539Y-15352150D01*
X8127539Y-15352150D02*
X8108491Y-15323579D01*
X8108491Y-15323579D02*
X8098968Y-15304531D01*
X8098968Y-15304531D02*
X8089444Y-15275960D01*
X8089444Y-15275960D02*
X8079920Y-15228341D01*
X8079920Y-15228341D02*
X8079920Y-15190246D01*
X8079920Y-15190246D02*
X8089444Y-15142627D01*
X8089444Y-15142627D02*
X8098968Y-15114055D01*
X8098968Y-15114055D02*
X8108491Y-15095008D01*
X8108491Y-15095008D02*
X8127539Y-15066436D01*
X8127539Y-15066436D02*
X8137063Y-15056912D01*
X8203729Y-15104531D02*
X8213253Y-15095008D01*
X8213253Y-15095008D02*
X8232301Y-15085484D01*
X8232301Y-15085484D02*
X8279920Y-15085484D01*
X8279920Y-15085484D02*
X8298968Y-15095008D01*
X8298968Y-15095008D02*
X8308491Y-15104531D01*
X8308491Y-15104531D02*
X8318015Y-15123579D01*
X8318015Y-15123579D02*
X8318015Y-15142627D01*
X8318015Y-15142627D02*
X8308491Y-15171198D01*
X8308491Y-15171198D02*
X8194206Y-15285484D01*
X8194206Y-15285484D02*
X8318015Y-15285484D01*
X8556111Y-15285484D02*
X8556111Y-15085484D01*
X8641825Y-15285484D02*
X8641825Y-15180722D01*
X8641825Y-15180722D02*
X8632301Y-15161674D01*
X8632301Y-15161674D02*
X8613253Y-15152150D01*
X8613253Y-15152150D02*
X8584682Y-15152150D01*
X8584682Y-15152150D02*
X8565634Y-15161674D01*
X8565634Y-15161674D02*
X8556111Y-15171198D01*
X8765634Y-15285484D02*
X8746587Y-15275960D01*
X8746587Y-15275960D02*
X8737063Y-15266436D01*
X8737063Y-15266436D02*
X8727539Y-15247388D01*
X8727539Y-15247388D02*
X8727539Y-15190246D01*
X8727539Y-15190246D02*
X8737063Y-15171198D01*
X8737063Y-15171198D02*
X8746587Y-15161674D01*
X8746587Y-15161674D02*
X8765634Y-15152150D01*
X8765634Y-15152150D02*
X8794206Y-15152150D01*
X8794206Y-15152150D02*
X8813253Y-15161674D01*
X8813253Y-15161674D02*
X8822777Y-15171198D01*
X8822777Y-15171198D02*
X8832301Y-15190246D01*
X8832301Y-15190246D02*
X8832301Y-15247388D01*
X8832301Y-15247388D02*
X8822777Y-15266436D01*
X8822777Y-15266436D02*
X8813253Y-15275960D01*
X8813253Y-15275960D02*
X8794206Y-15285484D01*
X8794206Y-15285484D02*
X8765634Y-15285484D01*
X8946587Y-15285484D02*
X8927539Y-15275960D01*
X8927539Y-15275960D02*
X8918015Y-15256912D01*
X8918015Y-15256912D02*
X8918015Y-15085484D01*
X9098968Y-15275960D02*
X9079920Y-15285484D01*
X9079920Y-15285484D02*
X9041825Y-15285484D01*
X9041825Y-15285484D02*
X9022777Y-15275960D01*
X9022777Y-15275960D02*
X9013253Y-15256912D01*
X9013253Y-15256912D02*
X9013253Y-15180722D01*
X9013253Y-15180722D02*
X9022777Y-15161674D01*
X9022777Y-15161674D02*
X9041825Y-15152150D01*
X9041825Y-15152150D02*
X9079920Y-15152150D01*
X9079920Y-15152150D02*
X9098968Y-15161674D01*
X9098968Y-15161674D02*
X9108492Y-15180722D01*
X9108492Y-15180722D02*
X9108492Y-15199769D01*
X9108492Y-15199769D02*
X9013253Y-15218817D01*
X9184682Y-15275960D02*
X9203730Y-15285484D01*
X9203730Y-15285484D02*
X9241825Y-15285484D01*
X9241825Y-15285484D02*
X9260873Y-15275960D01*
X9260873Y-15275960D02*
X9270396Y-15256912D01*
X9270396Y-15256912D02*
X9270396Y-15247388D01*
X9270396Y-15247388D02*
X9260873Y-15228341D01*
X9260873Y-15228341D02*
X9241825Y-15218817D01*
X9241825Y-15218817D02*
X9213253Y-15218817D01*
X9213253Y-15218817D02*
X9194206Y-15209293D01*
X9194206Y-15209293D02*
X9184682Y-15190246D01*
X9184682Y-15190246D02*
X9184682Y-15180722D01*
X9184682Y-15180722D02*
X9194206Y-15161674D01*
X9194206Y-15161674D02*
X9213253Y-15152150D01*
X9213253Y-15152150D02*
X9241825Y-15152150D01*
X9241825Y-15152150D02*
X9260873Y-15161674D01*
X9337063Y-15361674D02*
X9346587Y-15352150D01*
X9346587Y-15352150D02*
X9365634Y-15323579D01*
X9365634Y-15323579D02*
X9375158Y-15304531D01*
X9375158Y-15304531D02*
X9384682Y-15275960D01*
X9384682Y-15275960D02*
X9394206Y-15228341D01*
X9394206Y-15228341D02*
X9394206Y-15190246D01*
X9394206Y-15190246D02*
X9384682Y-15142627D01*
X9384682Y-15142627D02*
X9375158Y-15114055D01*
X9375158Y-15114055D02*
X9365634Y-15095008D01*
X9365634Y-15095008D02*
X9346587Y-15066436D01*
X9346587Y-15066436D02*
X9337063Y-15056912D01*
M02*
