%TF.GenerationSoftware,KiCad,Pcbnew,8.0.5*%
%TF.CreationDate,2024-09-24T14:12:51-04:00*%
%TF.ProjectId,MPD V1,4d504420-5631-42e6-9b69-6361645f7063,rev?*%
%TF.SameCoordinates,Original*%
%TF.FileFunction,Legend,Top*%
%TF.FilePolarity,Positive*%
%FSLAX46Y46*%
G04 Gerber Fmt 4.6, Leading zero omitted, Abs format (unit mm)*
G04 Created by KiCad (PCBNEW 8.0.5) date 2024-09-24 14:12:51*
%MOMM*%
%LPD*%
G01*
G04 APERTURE LIST*
%ADD10C,0.127000*%
%ADD11C,0.150000*%
%ADD12C,0.152400*%
%ADD13C,0.508000*%
%ADD14C,0.120000*%
%ADD15C,0.200000*%
%ADD16C,0.500000*%
%ADD17C,0.250000*%
G04 APERTURE END LIST*
D10*
X55519028Y-48623491D02*
X55519028Y-47823491D01*
X55519028Y-47823491D02*
X55785694Y-48394919D01*
X55785694Y-48394919D02*
X56052361Y-47823491D01*
X56052361Y-47823491D02*
X56052361Y-48623491D01*
X56585695Y-47823491D02*
X56738076Y-47823491D01*
X56738076Y-47823491D02*
X56814266Y-47861586D01*
X56814266Y-47861586D02*
X56890457Y-47937776D01*
X56890457Y-47937776D02*
X56928552Y-48090157D01*
X56928552Y-48090157D02*
X56928552Y-48356824D01*
X56928552Y-48356824D02*
X56890457Y-48509205D01*
X56890457Y-48509205D02*
X56814266Y-48585396D01*
X56814266Y-48585396D02*
X56738076Y-48623491D01*
X56738076Y-48623491D02*
X56585695Y-48623491D01*
X56585695Y-48623491D02*
X56509504Y-48585396D01*
X56509504Y-48585396D02*
X56433314Y-48509205D01*
X56433314Y-48509205D02*
X56395218Y-48356824D01*
X56395218Y-48356824D02*
X56395218Y-48090157D01*
X56395218Y-48090157D02*
X56433314Y-47937776D01*
X56433314Y-47937776D02*
X56509504Y-47861586D01*
X56509504Y-47861586D02*
X56585695Y-47823491D01*
X57271409Y-47823491D02*
X57271409Y-48471110D01*
X57271409Y-48471110D02*
X57309504Y-48547300D01*
X57309504Y-48547300D02*
X57347599Y-48585396D01*
X57347599Y-48585396D02*
X57423790Y-48623491D01*
X57423790Y-48623491D02*
X57576171Y-48623491D01*
X57576171Y-48623491D02*
X57652361Y-48585396D01*
X57652361Y-48585396D02*
X57690456Y-48547300D01*
X57690456Y-48547300D02*
X57728552Y-48471110D01*
X57728552Y-48471110D02*
X57728552Y-47823491D01*
X58109504Y-48623491D02*
X58109504Y-47823491D01*
X58109504Y-47823491D02*
X58566647Y-48623491D01*
X58566647Y-48623491D02*
X58566647Y-47823491D01*
X58833313Y-47823491D02*
X59290456Y-47823491D01*
X59061884Y-48623491D02*
X59061884Y-47823491D01*
X60166647Y-47823491D02*
X60166647Y-48471110D01*
X60166647Y-48471110D02*
X60204742Y-48547300D01*
X60204742Y-48547300D02*
X60242837Y-48585396D01*
X60242837Y-48585396D02*
X60319028Y-48623491D01*
X60319028Y-48623491D02*
X60471409Y-48623491D01*
X60471409Y-48623491D02*
X60547599Y-48585396D01*
X60547599Y-48585396D02*
X60585694Y-48547300D01*
X60585694Y-48547300D02*
X60623790Y-48471110D01*
X60623790Y-48471110D02*
X60623790Y-47823491D01*
X60966646Y-48585396D02*
X61080932Y-48623491D01*
X61080932Y-48623491D02*
X61271408Y-48623491D01*
X61271408Y-48623491D02*
X61347599Y-48585396D01*
X61347599Y-48585396D02*
X61385694Y-48547300D01*
X61385694Y-48547300D02*
X61423789Y-48471110D01*
X61423789Y-48471110D02*
X61423789Y-48394919D01*
X61423789Y-48394919D02*
X61385694Y-48318729D01*
X61385694Y-48318729D02*
X61347599Y-48280634D01*
X61347599Y-48280634D02*
X61271408Y-48242538D01*
X61271408Y-48242538D02*
X61119027Y-48204443D01*
X61119027Y-48204443D02*
X61042837Y-48166348D01*
X61042837Y-48166348D02*
X61004742Y-48128253D01*
X61004742Y-48128253D02*
X60966646Y-48052062D01*
X60966646Y-48052062D02*
X60966646Y-47975872D01*
X60966646Y-47975872D02*
X61004742Y-47899681D01*
X61004742Y-47899681D02*
X61042837Y-47861586D01*
X61042837Y-47861586D02*
X61119027Y-47823491D01*
X61119027Y-47823491D02*
X61309504Y-47823491D01*
X61309504Y-47823491D02*
X61423789Y-47861586D01*
X61766647Y-48623491D02*
X61766647Y-47823491D01*
X62147599Y-48623491D02*
X62147599Y-47823491D01*
X62147599Y-47823491D02*
X62604742Y-48623491D01*
X62604742Y-48623491D02*
X62604742Y-47823491D01*
X63404741Y-47861586D02*
X63328551Y-47823491D01*
X63328551Y-47823491D02*
X63214265Y-47823491D01*
X63214265Y-47823491D02*
X63099979Y-47861586D01*
X63099979Y-47861586D02*
X63023789Y-47937776D01*
X63023789Y-47937776D02*
X62985694Y-48013967D01*
X62985694Y-48013967D02*
X62947598Y-48166348D01*
X62947598Y-48166348D02*
X62947598Y-48280634D01*
X62947598Y-48280634D02*
X62985694Y-48433015D01*
X62985694Y-48433015D02*
X63023789Y-48509205D01*
X63023789Y-48509205D02*
X63099979Y-48585396D01*
X63099979Y-48585396D02*
X63214265Y-48623491D01*
X63214265Y-48623491D02*
X63290456Y-48623491D01*
X63290456Y-48623491D02*
X63404741Y-48585396D01*
X63404741Y-48585396D02*
X63442837Y-48547300D01*
X63442837Y-48547300D02*
X63442837Y-48280634D01*
X63442837Y-48280634D02*
X63290456Y-48280634D01*
X64395218Y-48623491D02*
X64395218Y-47823491D01*
X64395218Y-47823491D02*
X64661884Y-48394919D01*
X64661884Y-48394919D02*
X64928551Y-47823491D01*
X64928551Y-47823491D02*
X64928551Y-48623491D01*
X65233313Y-47823491D02*
X65728551Y-47823491D01*
X65728551Y-47823491D02*
X65461885Y-48128253D01*
X65461885Y-48128253D02*
X65576170Y-48128253D01*
X65576170Y-48128253D02*
X65652361Y-48166348D01*
X65652361Y-48166348D02*
X65690456Y-48204443D01*
X65690456Y-48204443D02*
X65728551Y-48280634D01*
X65728551Y-48280634D02*
X65728551Y-48471110D01*
X65728551Y-48471110D02*
X65690456Y-48547300D01*
X65690456Y-48547300D02*
X65652361Y-48585396D01*
X65652361Y-48585396D02*
X65576170Y-48623491D01*
X65576170Y-48623491D02*
X65347599Y-48623491D01*
X65347599Y-48623491D02*
X65271408Y-48585396D01*
X65271408Y-48585396D02*
X65233313Y-48547300D01*
X66642837Y-48585396D02*
X66757123Y-48623491D01*
X66757123Y-48623491D02*
X66947599Y-48623491D01*
X66947599Y-48623491D02*
X67023790Y-48585396D01*
X67023790Y-48585396D02*
X67061885Y-48547300D01*
X67061885Y-48547300D02*
X67099980Y-48471110D01*
X67099980Y-48471110D02*
X67099980Y-48394919D01*
X67099980Y-48394919D02*
X67061885Y-48318729D01*
X67061885Y-48318729D02*
X67023790Y-48280634D01*
X67023790Y-48280634D02*
X66947599Y-48242538D01*
X66947599Y-48242538D02*
X66795218Y-48204443D01*
X66795218Y-48204443D02*
X66719028Y-48166348D01*
X66719028Y-48166348D02*
X66680933Y-48128253D01*
X66680933Y-48128253D02*
X66642837Y-48052062D01*
X66642837Y-48052062D02*
X66642837Y-47975872D01*
X66642837Y-47975872D02*
X66680933Y-47899681D01*
X66680933Y-47899681D02*
X66719028Y-47861586D01*
X66719028Y-47861586D02*
X66795218Y-47823491D01*
X66795218Y-47823491D02*
X66985695Y-47823491D01*
X66985695Y-47823491D02*
X67099980Y-47861586D01*
X67899981Y-48547300D02*
X67861885Y-48585396D01*
X67861885Y-48585396D02*
X67747600Y-48623491D01*
X67747600Y-48623491D02*
X67671409Y-48623491D01*
X67671409Y-48623491D02*
X67557123Y-48585396D01*
X67557123Y-48585396D02*
X67480933Y-48509205D01*
X67480933Y-48509205D02*
X67442838Y-48433015D01*
X67442838Y-48433015D02*
X67404742Y-48280634D01*
X67404742Y-48280634D02*
X67404742Y-48166348D01*
X67404742Y-48166348D02*
X67442838Y-48013967D01*
X67442838Y-48013967D02*
X67480933Y-47937776D01*
X67480933Y-47937776D02*
X67557123Y-47861586D01*
X67557123Y-47861586D02*
X67671409Y-47823491D01*
X67671409Y-47823491D02*
X67747600Y-47823491D01*
X67747600Y-47823491D02*
X67861885Y-47861586D01*
X67861885Y-47861586D02*
X67899981Y-47899681D01*
X68699981Y-48623491D02*
X68433314Y-48242538D01*
X68242838Y-48623491D02*
X68242838Y-47823491D01*
X68242838Y-47823491D02*
X68547600Y-47823491D01*
X68547600Y-47823491D02*
X68623790Y-47861586D01*
X68623790Y-47861586D02*
X68661885Y-47899681D01*
X68661885Y-47899681D02*
X68699981Y-47975872D01*
X68699981Y-47975872D02*
X68699981Y-48090157D01*
X68699981Y-48090157D02*
X68661885Y-48166348D01*
X68661885Y-48166348D02*
X68623790Y-48204443D01*
X68623790Y-48204443D02*
X68547600Y-48242538D01*
X68547600Y-48242538D02*
X68242838Y-48242538D01*
X69042838Y-48204443D02*
X69309504Y-48204443D01*
X69423790Y-48623491D02*
X69042838Y-48623491D01*
X69042838Y-48623491D02*
X69042838Y-47823491D01*
X69042838Y-47823491D02*
X69423790Y-47823491D01*
X69690457Y-47823491D02*
X69880933Y-48623491D01*
X69880933Y-48623491D02*
X70033314Y-48052062D01*
X70033314Y-48052062D02*
X70185695Y-48623491D01*
X70185695Y-48623491D02*
X70376172Y-47823491D01*
X70642838Y-48585396D02*
X70757124Y-48623491D01*
X70757124Y-48623491D02*
X70947600Y-48623491D01*
X70947600Y-48623491D02*
X71023791Y-48585396D01*
X71023791Y-48585396D02*
X71061886Y-48547300D01*
X71061886Y-48547300D02*
X71099981Y-48471110D01*
X71099981Y-48471110D02*
X71099981Y-48394919D01*
X71099981Y-48394919D02*
X71061886Y-48318729D01*
X71061886Y-48318729D02*
X71023791Y-48280634D01*
X71023791Y-48280634D02*
X70947600Y-48242538D01*
X70947600Y-48242538D02*
X70795219Y-48204443D01*
X70795219Y-48204443D02*
X70719029Y-48166348D01*
X70719029Y-48166348D02*
X70680934Y-48128253D01*
X70680934Y-48128253D02*
X70642838Y-48052062D01*
X70642838Y-48052062D02*
X70642838Y-47975872D01*
X70642838Y-47975872D02*
X70680934Y-47899681D01*
X70680934Y-47899681D02*
X70719029Y-47861586D01*
X70719029Y-47861586D02*
X70795219Y-47823491D01*
X70795219Y-47823491D02*
X70985696Y-47823491D01*
X70985696Y-47823491D02*
X71099981Y-47861586D01*
X47739761Y-50363491D02*
X47739761Y-50934919D01*
X47739761Y-50934919D02*
X47701666Y-51049205D01*
X47701666Y-51049205D02*
X47625475Y-51125396D01*
X47625475Y-51125396D02*
X47511190Y-51163491D01*
X47511190Y-51163491D02*
X47434999Y-51163491D01*
X48501666Y-51163491D02*
X48120714Y-51163491D01*
X48120714Y-51163491D02*
X48120714Y-50363491D01*
X49225476Y-51087300D02*
X49187380Y-51125396D01*
X49187380Y-51125396D02*
X49073095Y-51163491D01*
X49073095Y-51163491D02*
X48996904Y-51163491D01*
X48996904Y-51163491D02*
X48882618Y-51125396D01*
X48882618Y-51125396D02*
X48806428Y-51049205D01*
X48806428Y-51049205D02*
X48768333Y-50973015D01*
X48768333Y-50973015D02*
X48730237Y-50820634D01*
X48730237Y-50820634D02*
X48730237Y-50706348D01*
X48730237Y-50706348D02*
X48768333Y-50553967D01*
X48768333Y-50553967D02*
X48806428Y-50477776D01*
X48806428Y-50477776D02*
X48882618Y-50401586D01*
X48882618Y-50401586D02*
X48996904Y-50363491D01*
X48996904Y-50363491D02*
X49073095Y-50363491D01*
X49073095Y-50363491D02*
X49187380Y-50401586D01*
X49187380Y-50401586D02*
X49225476Y-50439681D01*
X49796904Y-50363491D02*
X49796904Y-50934919D01*
X49796904Y-50934919D02*
X49758809Y-51049205D01*
X49758809Y-51049205D02*
X49682618Y-51125396D01*
X49682618Y-51125396D02*
X49568333Y-51163491D01*
X49568333Y-51163491D02*
X49492142Y-51163491D01*
X50558809Y-51163491D02*
X50177857Y-51163491D01*
X50177857Y-51163491D02*
X50177857Y-50363491D01*
X51282619Y-51087300D02*
X51244523Y-51125396D01*
X51244523Y-51125396D02*
X51130238Y-51163491D01*
X51130238Y-51163491D02*
X51054047Y-51163491D01*
X51054047Y-51163491D02*
X50939761Y-51125396D01*
X50939761Y-51125396D02*
X50863571Y-51049205D01*
X50863571Y-51049205D02*
X50825476Y-50973015D01*
X50825476Y-50973015D02*
X50787380Y-50820634D01*
X50787380Y-50820634D02*
X50787380Y-50706348D01*
X50787380Y-50706348D02*
X50825476Y-50553967D01*
X50825476Y-50553967D02*
X50863571Y-50477776D01*
X50863571Y-50477776D02*
X50939761Y-50401586D01*
X50939761Y-50401586D02*
X51054047Y-50363491D01*
X51054047Y-50363491D02*
X51130238Y-50363491D01*
X51130238Y-50363491D02*
X51244523Y-50401586D01*
X51244523Y-50401586D02*
X51282619Y-50439681D01*
X51854047Y-50363491D02*
X51854047Y-50934919D01*
X51854047Y-50934919D02*
X51815952Y-51049205D01*
X51815952Y-51049205D02*
X51739761Y-51125396D01*
X51739761Y-51125396D02*
X51625476Y-51163491D01*
X51625476Y-51163491D02*
X51549285Y-51163491D01*
X52615952Y-51163491D02*
X52235000Y-51163491D01*
X52235000Y-51163491D02*
X52235000Y-50363491D01*
X53339762Y-51087300D02*
X53301666Y-51125396D01*
X53301666Y-51125396D02*
X53187381Y-51163491D01*
X53187381Y-51163491D02*
X53111190Y-51163491D01*
X53111190Y-51163491D02*
X52996904Y-51125396D01*
X52996904Y-51125396D02*
X52920714Y-51049205D01*
X52920714Y-51049205D02*
X52882619Y-50973015D01*
X52882619Y-50973015D02*
X52844523Y-50820634D01*
X52844523Y-50820634D02*
X52844523Y-50706348D01*
X52844523Y-50706348D02*
X52882619Y-50553967D01*
X52882619Y-50553967D02*
X52920714Y-50477776D01*
X52920714Y-50477776D02*
X52996904Y-50401586D01*
X52996904Y-50401586D02*
X53111190Y-50363491D01*
X53111190Y-50363491D02*
X53187381Y-50363491D01*
X53187381Y-50363491D02*
X53301666Y-50401586D01*
X53301666Y-50401586D02*
X53339762Y-50439681D01*
X53911190Y-50363491D02*
X53911190Y-50934919D01*
X53911190Y-50934919D02*
X53873095Y-51049205D01*
X53873095Y-51049205D02*
X53796904Y-51125396D01*
X53796904Y-51125396D02*
X53682619Y-51163491D01*
X53682619Y-51163491D02*
X53606428Y-51163491D01*
X54673095Y-51163491D02*
X54292143Y-51163491D01*
X54292143Y-51163491D02*
X54292143Y-50363491D01*
X55396905Y-51087300D02*
X55358809Y-51125396D01*
X55358809Y-51125396D02*
X55244524Y-51163491D01*
X55244524Y-51163491D02*
X55168333Y-51163491D01*
X55168333Y-51163491D02*
X55054047Y-51125396D01*
X55054047Y-51125396D02*
X54977857Y-51049205D01*
X54977857Y-51049205D02*
X54939762Y-50973015D01*
X54939762Y-50973015D02*
X54901666Y-50820634D01*
X54901666Y-50820634D02*
X54901666Y-50706348D01*
X54901666Y-50706348D02*
X54939762Y-50553967D01*
X54939762Y-50553967D02*
X54977857Y-50477776D01*
X54977857Y-50477776D02*
X55054047Y-50401586D01*
X55054047Y-50401586D02*
X55168333Y-50363491D01*
X55168333Y-50363491D02*
X55244524Y-50363491D01*
X55244524Y-50363491D02*
X55358809Y-50401586D01*
X55358809Y-50401586D02*
X55396905Y-50439681D01*
X55709028Y-44375536D02*
X55709028Y-43575536D01*
X55709028Y-43575536D02*
X55975694Y-44146964D01*
X55975694Y-44146964D02*
X56242361Y-43575536D01*
X56242361Y-43575536D02*
X56242361Y-44375536D01*
X56966171Y-44375536D02*
X56966171Y-43956488D01*
X56966171Y-43956488D02*
X56928076Y-43880298D01*
X56928076Y-43880298D02*
X56851885Y-43842202D01*
X56851885Y-43842202D02*
X56699504Y-43842202D01*
X56699504Y-43842202D02*
X56623314Y-43880298D01*
X56966171Y-44337441D02*
X56889980Y-44375536D01*
X56889980Y-44375536D02*
X56699504Y-44375536D01*
X56699504Y-44375536D02*
X56623314Y-44337441D01*
X56623314Y-44337441D02*
X56585218Y-44261250D01*
X56585218Y-44261250D02*
X56585218Y-44185060D01*
X56585218Y-44185060D02*
X56623314Y-44108869D01*
X56623314Y-44108869D02*
X56699504Y-44070774D01*
X56699504Y-44070774D02*
X56889980Y-44070774D01*
X56889980Y-44070774D02*
X56966171Y-44032679D01*
X57347124Y-44375536D02*
X57347124Y-43842202D01*
X57347124Y-43575536D02*
X57309028Y-43613631D01*
X57309028Y-43613631D02*
X57347124Y-43651726D01*
X57347124Y-43651726D02*
X57385219Y-43613631D01*
X57385219Y-43613631D02*
X57347124Y-43575536D01*
X57347124Y-43575536D02*
X57347124Y-43651726D01*
X57728076Y-43842202D02*
X57728076Y-44375536D01*
X57728076Y-43918393D02*
X57766171Y-43880298D01*
X57766171Y-43880298D02*
X57842361Y-43842202D01*
X57842361Y-43842202D02*
X57956647Y-43842202D01*
X57956647Y-43842202D02*
X58032838Y-43880298D01*
X58032838Y-43880298D02*
X58070933Y-43956488D01*
X58070933Y-43956488D02*
X58070933Y-44375536D01*
X59061410Y-44375536D02*
X59061410Y-43575536D01*
X59061410Y-43575536D02*
X59366172Y-43575536D01*
X59366172Y-43575536D02*
X59442362Y-43613631D01*
X59442362Y-43613631D02*
X59480457Y-43651726D01*
X59480457Y-43651726D02*
X59518553Y-43727917D01*
X59518553Y-43727917D02*
X59518553Y-43842202D01*
X59518553Y-43842202D02*
X59480457Y-43918393D01*
X59480457Y-43918393D02*
X59442362Y-43956488D01*
X59442362Y-43956488D02*
X59366172Y-43994583D01*
X59366172Y-43994583D02*
X59061410Y-43994583D01*
X59975695Y-44375536D02*
X59899505Y-44337441D01*
X59899505Y-44337441D02*
X59861410Y-44299345D01*
X59861410Y-44299345D02*
X59823314Y-44223155D01*
X59823314Y-44223155D02*
X59823314Y-43994583D01*
X59823314Y-43994583D02*
X59861410Y-43918393D01*
X59861410Y-43918393D02*
X59899505Y-43880298D01*
X59899505Y-43880298D02*
X59975695Y-43842202D01*
X59975695Y-43842202D02*
X60089981Y-43842202D01*
X60089981Y-43842202D02*
X60166172Y-43880298D01*
X60166172Y-43880298D02*
X60204267Y-43918393D01*
X60204267Y-43918393D02*
X60242362Y-43994583D01*
X60242362Y-43994583D02*
X60242362Y-44223155D01*
X60242362Y-44223155D02*
X60204267Y-44299345D01*
X60204267Y-44299345D02*
X60166172Y-44337441D01*
X60166172Y-44337441D02*
X60089981Y-44375536D01*
X60089981Y-44375536D02*
X59975695Y-44375536D01*
X60509029Y-43842202D02*
X60661410Y-44375536D01*
X60661410Y-44375536D02*
X60813791Y-43994583D01*
X60813791Y-43994583D02*
X60966172Y-44375536D01*
X60966172Y-44375536D02*
X61118553Y-43842202D01*
X61728077Y-44337441D02*
X61651886Y-44375536D01*
X61651886Y-44375536D02*
X61499505Y-44375536D01*
X61499505Y-44375536D02*
X61423315Y-44337441D01*
X61423315Y-44337441D02*
X61385219Y-44261250D01*
X61385219Y-44261250D02*
X61385219Y-43956488D01*
X61385219Y-43956488D02*
X61423315Y-43880298D01*
X61423315Y-43880298D02*
X61499505Y-43842202D01*
X61499505Y-43842202D02*
X61651886Y-43842202D01*
X61651886Y-43842202D02*
X61728077Y-43880298D01*
X61728077Y-43880298D02*
X61766172Y-43956488D01*
X61766172Y-43956488D02*
X61766172Y-44032679D01*
X61766172Y-44032679D02*
X61385219Y-44108869D01*
X62109029Y-44375536D02*
X62109029Y-43842202D01*
X62109029Y-43994583D02*
X62147124Y-43918393D01*
X62147124Y-43918393D02*
X62185219Y-43880298D01*
X62185219Y-43880298D02*
X62261410Y-43842202D01*
X62261410Y-43842202D02*
X62337600Y-43842202D01*
X63213791Y-44375536D02*
X63213791Y-43575536D01*
X63213791Y-43575536D02*
X63404267Y-43575536D01*
X63404267Y-43575536D02*
X63518553Y-43613631D01*
X63518553Y-43613631D02*
X63594743Y-43689821D01*
X63594743Y-43689821D02*
X63632838Y-43766012D01*
X63632838Y-43766012D02*
X63670934Y-43918393D01*
X63670934Y-43918393D02*
X63670934Y-44032679D01*
X63670934Y-44032679D02*
X63632838Y-44185060D01*
X63632838Y-44185060D02*
X63594743Y-44261250D01*
X63594743Y-44261250D02*
X63518553Y-44337441D01*
X63518553Y-44337441D02*
X63404267Y-44375536D01*
X63404267Y-44375536D02*
X63213791Y-44375536D01*
X64013791Y-44375536D02*
X64013791Y-43842202D01*
X64013791Y-43575536D02*
X63975695Y-43613631D01*
X63975695Y-43613631D02*
X64013791Y-43651726D01*
X64013791Y-43651726D02*
X64051886Y-43613631D01*
X64051886Y-43613631D02*
X64013791Y-43575536D01*
X64013791Y-43575536D02*
X64013791Y-43651726D01*
X64356647Y-44337441D02*
X64432838Y-44375536D01*
X64432838Y-44375536D02*
X64585219Y-44375536D01*
X64585219Y-44375536D02*
X64661409Y-44337441D01*
X64661409Y-44337441D02*
X64699505Y-44261250D01*
X64699505Y-44261250D02*
X64699505Y-44223155D01*
X64699505Y-44223155D02*
X64661409Y-44146964D01*
X64661409Y-44146964D02*
X64585219Y-44108869D01*
X64585219Y-44108869D02*
X64470933Y-44108869D01*
X64470933Y-44108869D02*
X64394743Y-44070774D01*
X64394743Y-44070774D02*
X64356647Y-43994583D01*
X64356647Y-43994583D02*
X64356647Y-43956488D01*
X64356647Y-43956488D02*
X64394743Y-43880298D01*
X64394743Y-43880298D02*
X64470933Y-43842202D01*
X64470933Y-43842202D02*
X64585219Y-43842202D01*
X64585219Y-43842202D02*
X64661409Y-43880298D01*
X64928076Y-43842202D02*
X65232838Y-43842202D01*
X65042362Y-43575536D02*
X65042362Y-44261250D01*
X65042362Y-44261250D02*
X65080457Y-44337441D01*
X65080457Y-44337441D02*
X65156647Y-44375536D01*
X65156647Y-44375536D02*
X65232838Y-44375536D01*
X65499505Y-44375536D02*
X65499505Y-43842202D01*
X65499505Y-43994583D02*
X65537600Y-43918393D01*
X65537600Y-43918393D02*
X65575695Y-43880298D01*
X65575695Y-43880298D02*
X65651886Y-43842202D01*
X65651886Y-43842202D02*
X65728076Y-43842202D01*
X65994743Y-44375536D02*
X65994743Y-43842202D01*
X65994743Y-43575536D02*
X65956647Y-43613631D01*
X65956647Y-43613631D02*
X65994743Y-43651726D01*
X65994743Y-43651726D02*
X66032838Y-43613631D01*
X66032838Y-43613631D02*
X65994743Y-43575536D01*
X65994743Y-43575536D02*
X65994743Y-43651726D01*
X66375695Y-44375536D02*
X66375695Y-43575536D01*
X66375695Y-43880298D02*
X66451885Y-43842202D01*
X66451885Y-43842202D02*
X66604266Y-43842202D01*
X66604266Y-43842202D02*
X66680457Y-43880298D01*
X66680457Y-43880298D02*
X66718552Y-43918393D01*
X66718552Y-43918393D02*
X66756647Y-43994583D01*
X66756647Y-43994583D02*
X66756647Y-44223155D01*
X66756647Y-44223155D02*
X66718552Y-44299345D01*
X66718552Y-44299345D02*
X66680457Y-44337441D01*
X66680457Y-44337441D02*
X66604266Y-44375536D01*
X66604266Y-44375536D02*
X66451885Y-44375536D01*
X66451885Y-44375536D02*
X66375695Y-44337441D01*
X67442362Y-43842202D02*
X67442362Y-44375536D01*
X67099505Y-43842202D02*
X67099505Y-44261250D01*
X67099505Y-44261250D02*
X67137600Y-44337441D01*
X67137600Y-44337441D02*
X67213790Y-44375536D01*
X67213790Y-44375536D02*
X67328076Y-44375536D01*
X67328076Y-44375536D02*
X67404267Y-44337441D01*
X67404267Y-44337441D02*
X67442362Y-44299345D01*
X67709029Y-43842202D02*
X68013791Y-43842202D01*
X67823315Y-43575536D02*
X67823315Y-44261250D01*
X67823315Y-44261250D02*
X67861410Y-44337441D01*
X67861410Y-44337441D02*
X67937600Y-44375536D01*
X67937600Y-44375536D02*
X68013791Y-44375536D01*
X68394743Y-44375536D02*
X68318553Y-44337441D01*
X68318553Y-44337441D02*
X68280458Y-44299345D01*
X68280458Y-44299345D02*
X68242362Y-44223155D01*
X68242362Y-44223155D02*
X68242362Y-43994583D01*
X68242362Y-43994583D02*
X68280458Y-43918393D01*
X68280458Y-43918393D02*
X68318553Y-43880298D01*
X68318553Y-43880298D02*
X68394743Y-43842202D01*
X68394743Y-43842202D02*
X68509029Y-43842202D01*
X68509029Y-43842202D02*
X68585220Y-43880298D01*
X68585220Y-43880298D02*
X68623315Y-43918393D01*
X68623315Y-43918393D02*
X68661410Y-43994583D01*
X68661410Y-43994583D02*
X68661410Y-44223155D01*
X68661410Y-44223155D02*
X68623315Y-44299345D01*
X68623315Y-44299345D02*
X68585220Y-44337441D01*
X68585220Y-44337441D02*
X68509029Y-44375536D01*
X68509029Y-44375536D02*
X68394743Y-44375536D01*
X69004268Y-44375536D02*
X69004268Y-43842202D01*
X69004268Y-43994583D02*
X69042363Y-43918393D01*
X69042363Y-43918393D02*
X69080458Y-43880298D01*
X69080458Y-43880298D02*
X69156649Y-43842202D01*
X69156649Y-43842202D02*
X69232839Y-43842202D01*
X69994744Y-43575536D02*
X70261411Y-44375536D01*
X70261411Y-44375536D02*
X70528077Y-43575536D01*
X71213791Y-44375536D02*
X70756648Y-44375536D01*
X70985220Y-44375536D02*
X70985220Y-43575536D01*
X70985220Y-43575536D02*
X70909029Y-43689821D01*
X70909029Y-43689821D02*
X70832839Y-43766012D01*
X70832839Y-43766012D02*
X70756648Y-43804107D01*
X71556649Y-44299345D02*
X71594744Y-44337441D01*
X71594744Y-44337441D02*
X71556649Y-44375536D01*
X71556649Y-44375536D02*
X71518553Y-44337441D01*
X71518553Y-44337441D02*
X71556649Y-44299345D01*
X71556649Y-44299345D02*
X71556649Y-44375536D01*
X72089982Y-43575536D02*
X72166172Y-43575536D01*
X72166172Y-43575536D02*
X72242363Y-43613631D01*
X72242363Y-43613631D02*
X72280458Y-43651726D01*
X72280458Y-43651726D02*
X72318553Y-43727917D01*
X72318553Y-43727917D02*
X72356648Y-43880298D01*
X72356648Y-43880298D02*
X72356648Y-44070774D01*
X72356648Y-44070774D02*
X72318553Y-44223155D01*
X72318553Y-44223155D02*
X72280458Y-44299345D01*
X72280458Y-44299345D02*
X72242363Y-44337441D01*
X72242363Y-44337441D02*
X72166172Y-44375536D01*
X72166172Y-44375536D02*
X72089982Y-44375536D01*
X72089982Y-44375536D02*
X72013791Y-44337441D01*
X72013791Y-44337441D02*
X71975696Y-44299345D01*
X71975696Y-44299345D02*
X71937601Y-44223155D01*
X71937601Y-44223155D02*
X71899505Y-44070774D01*
X71899505Y-44070774D02*
X71899505Y-43880298D01*
X71899505Y-43880298D02*
X71937601Y-43727917D01*
X71937601Y-43727917D02*
X71975696Y-43651726D01*
X71975696Y-43651726D02*
X72013791Y-43613631D01*
X72013791Y-43613631D02*
X72089982Y-43575536D01*
X55747123Y-45663491D02*
X55899504Y-45663491D01*
X55899504Y-45663491D02*
X55975694Y-45625396D01*
X55975694Y-45625396D02*
X56013790Y-45587300D01*
X56013790Y-45587300D02*
X56089980Y-45473015D01*
X56089980Y-45473015D02*
X56128075Y-45320634D01*
X56128075Y-45320634D02*
X56128075Y-45015872D01*
X56128075Y-45015872D02*
X56089980Y-44939681D01*
X56089980Y-44939681D02*
X56051885Y-44901586D01*
X56051885Y-44901586D02*
X55975694Y-44863491D01*
X55975694Y-44863491D02*
X55823313Y-44863491D01*
X55823313Y-44863491D02*
X55747123Y-44901586D01*
X55747123Y-44901586D02*
X55709028Y-44939681D01*
X55709028Y-44939681D02*
X55670932Y-45015872D01*
X55670932Y-45015872D02*
X55670932Y-45206348D01*
X55670932Y-45206348D02*
X55709028Y-45282538D01*
X55709028Y-45282538D02*
X55747123Y-45320634D01*
X55747123Y-45320634D02*
X55823313Y-45358729D01*
X55823313Y-45358729D02*
X55975694Y-45358729D01*
X55975694Y-45358729D02*
X56051885Y-45320634D01*
X56051885Y-45320634D02*
X56089980Y-45282538D01*
X56089980Y-45282538D02*
X56128075Y-45206348D01*
X56394742Y-44863491D02*
X56928076Y-44863491D01*
X56928076Y-44863491D02*
X56585218Y-45663491D01*
X57689981Y-45587300D02*
X57651885Y-45625396D01*
X57651885Y-45625396D02*
X57537600Y-45663491D01*
X57537600Y-45663491D02*
X57461409Y-45663491D01*
X57461409Y-45663491D02*
X57347123Y-45625396D01*
X57347123Y-45625396D02*
X57270933Y-45549205D01*
X57270933Y-45549205D02*
X57232838Y-45473015D01*
X57232838Y-45473015D02*
X57194742Y-45320634D01*
X57194742Y-45320634D02*
X57194742Y-45206348D01*
X57194742Y-45206348D02*
X57232838Y-45053967D01*
X57232838Y-45053967D02*
X57270933Y-44977776D01*
X57270933Y-44977776D02*
X57347123Y-44901586D01*
X57347123Y-44901586D02*
X57461409Y-44863491D01*
X57461409Y-44863491D02*
X57537600Y-44863491D01*
X57537600Y-44863491D02*
X57651885Y-44901586D01*
X57651885Y-44901586D02*
X57689981Y-44939681D01*
X57956647Y-44863491D02*
X58147123Y-45663491D01*
X58147123Y-45663491D02*
X58299504Y-45092062D01*
X58299504Y-45092062D02*
X58451885Y-45663491D01*
X58451885Y-45663491D02*
X58642362Y-44863491D01*
X58947124Y-45244443D02*
X59213790Y-45244443D01*
X59328076Y-45663491D02*
X58947124Y-45663491D01*
X58947124Y-45663491D02*
X58947124Y-44863491D01*
X58947124Y-44863491D02*
X59328076Y-44863491D01*
X59937600Y-45244443D02*
X60051886Y-45282538D01*
X60051886Y-45282538D02*
X60089981Y-45320634D01*
X60089981Y-45320634D02*
X60128077Y-45396824D01*
X60128077Y-45396824D02*
X60128077Y-45511110D01*
X60128077Y-45511110D02*
X60089981Y-45587300D01*
X60089981Y-45587300D02*
X60051886Y-45625396D01*
X60051886Y-45625396D02*
X59975696Y-45663491D01*
X59975696Y-45663491D02*
X59670934Y-45663491D01*
X59670934Y-45663491D02*
X59670934Y-44863491D01*
X59670934Y-44863491D02*
X59937600Y-44863491D01*
X59937600Y-44863491D02*
X60013791Y-44901586D01*
X60013791Y-44901586D02*
X60051886Y-44939681D01*
X60051886Y-44939681D02*
X60089981Y-45015872D01*
X60089981Y-45015872D02*
X60089981Y-45092062D01*
X60089981Y-45092062D02*
X60051886Y-45168253D01*
X60051886Y-45168253D02*
X60013791Y-45206348D01*
X60013791Y-45206348D02*
X59937600Y-45244443D01*
X59937600Y-45244443D02*
X59670934Y-45244443D01*
X61042362Y-44825396D02*
X60356648Y-45853967D01*
X61461410Y-45282538D02*
X61461410Y-45663491D01*
X61194743Y-44863491D02*
X61461410Y-45282538D01*
X61461410Y-45282538D02*
X61728076Y-44863491D01*
X62451886Y-45663491D02*
X62185219Y-45282538D01*
X61994743Y-45663491D02*
X61994743Y-44863491D01*
X61994743Y-44863491D02*
X62299505Y-44863491D01*
X62299505Y-44863491D02*
X62375695Y-44901586D01*
X62375695Y-44901586D02*
X62413790Y-44939681D01*
X62413790Y-44939681D02*
X62451886Y-45015872D01*
X62451886Y-45015872D02*
X62451886Y-45130157D01*
X62451886Y-45130157D02*
X62413790Y-45206348D01*
X62413790Y-45206348D02*
X62375695Y-45244443D01*
X62375695Y-45244443D02*
X62299505Y-45282538D01*
X62299505Y-45282538D02*
X61994743Y-45282538D01*
X62794743Y-45663491D02*
X62794743Y-44863491D01*
X55670932Y-46227636D02*
X55709028Y-46189541D01*
X55709028Y-46189541D02*
X55785218Y-46151446D01*
X55785218Y-46151446D02*
X55975694Y-46151446D01*
X55975694Y-46151446D02*
X56051885Y-46189541D01*
X56051885Y-46189541D02*
X56089980Y-46227636D01*
X56089980Y-46227636D02*
X56128075Y-46303827D01*
X56128075Y-46303827D02*
X56128075Y-46380017D01*
X56128075Y-46380017D02*
X56089980Y-46494303D01*
X56089980Y-46494303D02*
X55632837Y-46951446D01*
X55632837Y-46951446D02*
X56128075Y-46951446D01*
X56623314Y-46151446D02*
X56699504Y-46151446D01*
X56699504Y-46151446D02*
X56775695Y-46189541D01*
X56775695Y-46189541D02*
X56813790Y-46227636D01*
X56813790Y-46227636D02*
X56851885Y-46303827D01*
X56851885Y-46303827D02*
X56889980Y-46456208D01*
X56889980Y-46456208D02*
X56889980Y-46646684D01*
X56889980Y-46646684D02*
X56851885Y-46799065D01*
X56851885Y-46799065D02*
X56813790Y-46875255D01*
X56813790Y-46875255D02*
X56775695Y-46913351D01*
X56775695Y-46913351D02*
X56699504Y-46951446D01*
X56699504Y-46951446D02*
X56623314Y-46951446D01*
X56623314Y-46951446D02*
X56547123Y-46913351D01*
X56547123Y-46913351D02*
X56509028Y-46875255D01*
X56509028Y-46875255D02*
X56470933Y-46799065D01*
X56470933Y-46799065D02*
X56432837Y-46646684D01*
X56432837Y-46646684D02*
X56432837Y-46456208D01*
X56432837Y-46456208D02*
X56470933Y-46303827D01*
X56470933Y-46303827D02*
X56509028Y-46227636D01*
X56509028Y-46227636D02*
X56547123Y-46189541D01*
X56547123Y-46189541D02*
X56623314Y-46151446D01*
X57194742Y-46227636D02*
X57232838Y-46189541D01*
X57232838Y-46189541D02*
X57309028Y-46151446D01*
X57309028Y-46151446D02*
X57499504Y-46151446D01*
X57499504Y-46151446D02*
X57575695Y-46189541D01*
X57575695Y-46189541D02*
X57613790Y-46227636D01*
X57613790Y-46227636D02*
X57651885Y-46303827D01*
X57651885Y-46303827D02*
X57651885Y-46380017D01*
X57651885Y-46380017D02*
X57613790Y-46494303D01*
X57613790Y-46494303D02*
X57156647Y-46951446D01*
X57156647Y-46951446D02*
X57651885Y-46951446D01*
X58337600Y-46418112D02*
X58337600Y-46951446D01*
X58147124Y-46113351D02*
X57956647Y-46684779D01*
X57956647Y-46684779D02*
X58451886Y-46684779D01*
X58756648Y-46646684D02*
X59366172Y-46646684D01*
X59899505Y-46151446D02*
X59975695Y-46151446D01*
X59975695Y-46151446D02*
X60051886Y-46189541D01*
X60051886Y-46189541D02*
X60089981Y-46227636D01*
X60089981Y-46227636D02*
X60128076Y-46303827D01*
X60128076Y-46303827D02*
X60166171Y-46456208D01*
X60166171Y-46456208D02*
X60166171Y-46646684D01*
X60166171Y-46646684D02*
X60128076Y-46799065D01*
X60128076Y-46799065D02*
X60089981Y-46875255D01*
X60089981Y-46875255D02*
X60051886Y-46913351D01*
X60051886Y-46913351D02*
X59975695Y-46951446D01*
X59975695Y-46951446D02*
X59899505Y-46951446D01*
X59899505Y-46951446D02*
X59823314Y-46913351D01*
X59823314Y-46913351D02*
X59785219Y-46875255D01*
X59785219Y-46875255D02*
X59747124Y-46799065D01*
X59747124Y-46799065D02*
X59709028Y-46646684D01*
X59709028Y-46646684D02*
X59709028Y-46456208D01*
X59709028Y-46456208D02*
X59747124Y-46303827D01*
X59747124Y-46303827D02*
X59785219Y-46227636D01*
X59785219Y-46227636D02*
X59823314Y-46189541D01*
X59823314Y-46189541D02*
X59899505Y-46151446D01*
X60547124Y-46951446D02*
X60699505Y-46951446D01*
X60699505Y-46951446D02*
X60775695Y-46913351D01*
X60775695Y-46913351D02*
X60813791Y-46875255D01*
X60813791Y-46875255D02*
X60889981Y-46760970D01*
X60889981Y-46760970D02*
X60928076Y-46608589D01*
X60928076Y-46608589D02*
X60928076Y-46303827D01*
X60928076Y-46303827D02*
X60889981Y-46227636D01*
X60889981Y-46227636D02*
X60851886Y-46189541D01*
X60851886Y-46189541D02*
X60775695Y-46151446D01*
X60775695Y-46151446D02*
X60623314Y-46151446D01*
X60623314Y-46151446D02*
X60547124Y-46189541D01*
X60547124Y-46189541D02*
X60509029Y-46227636D01*
X60509029Y-46227636D02*
X60470933Y-46303827D01*
X60470933Y-46303827D02*
X60470933Y-46494303D01*
X60470933Y-46494303D02*
X60509029Y-46570493D01*
X60509029Y-46570493D02*
X60547124Y-46608589D01*
X60547124Y-46608589D02*
X60623314Y-46646684D01*
X60623314Y-46646684D02*
X60775695Y-46646684D01*
X60775695Y-46646684D02*
X60851886Y-46608589D01*
X60851886Y-46608589D02*
X60889981Y-46570493D01*
X60889981Y-46570493D02*
X60928076Y-46494303D01*
X61270934Y-46646684D02*
X61880458Y-46646684D01*
X62223314Y-46227636D02*
X62261410Y-46189541D01*
X62261410Y-46189541D02*
X62337600Y-46151446D01*
X62337600Y-46151446D02*
X62528076Y-46151446D01*
X62528076Y-46151446D02*
X62604267Y-46189541D01*
X62604267Y-46189541D02*
X62642362Y-46227636D01*
X62642362Y-46227636D02*
X62680457Y-46303827D01*
X62680457Y-46303827D02*
X62680457Y-46380017D01*
X62680457Y-46380017D02*
X62642362Y-46494303D01*
X62642362Y-46494303D02*
X62185219Y-46951446D01*
X62185219Y-46951446D02*
X62680457Y-46951446D01*
X63366172Y-46418112D02*
X63366172Y-46951446D01*
X63175696Y-46113351D02*
X62985219Y-46684779D01*
X62985219Y-46684779D02*
X63480458Y-46684779D01*
D11*
X50038095Y-120714819D02*
X50038095Y-119714819D01*
X50038095Y-120191009D02*
X50609523Y-120191009D01*
X50609523Y-120714819D02*
X50609523Y-119714819D01*
X50990476Y-119714819D02*
X51609523Y-119714819D01*
X51609523Y-119714819D02*
X51276190Y-120095771D01*
X51276190Y-120095771D02*
X51419047Y-120095771D01*
X51419047Y-120095771D02*
X51514285Y-120143390D01*
X51514285Y-120143390D02*
X51561904Y-120191009D01*
X51561904Y-120191009D02*
X51609523Y-120286247D01*
X51609523Y-120286247D02*
X51609523Y-120524342D01*
X51609523Y-120524342D02*
X51561904Y-120619580D01*
X51561904Y-120619580D02*
X51514285Y-120667200D01*
X51514285Y-120667200D02*
X51419047Y-120714819D01*
X51419047Y-120714819D02*
X51133333Y-120714819D01*
X51133333Y-120714819D02*
X51038095Y-120667200D01*
X51038095Y-120667200D02*
X50990476Y-120619580D01*
X125198096Y-78653632D02*
X125198096Y-79653632D01*
X124626668Y-78653632D02*
X125055239Y-79225061D01*
X124626668Y-79653632D02*
X125198096Y-79082204D01*
X123721906Y-79653632D02*
X124198096Y-79653632D01*
X124198096Y-79653632D02*
X124245715Y-79177442D01*
X124245715Y-79177442D02*
X124198096Y-79225061D01*
X124198096Y-79225061D02*
X124102858Y-79272680D01*
X124102858Y-79272680D02*
X123864763Y-79272680D01*
X123864763Y-79272680D02*
X123769525Y-79225061D01*
X123769525Y-79225061D02*
X123721906Y-79177442D01*
X123721906Y-79177442D02*
X123674287Y-79082204D01*
X123674287Y-79082204D02*
X123674287Y-78844109D01*
X123674287Y-78844109D02*
X123721906Y-78748871D01*
X123721906Y-78748871D02*
X123769525Y-78701252D01*
X123769525Y-78701252D02*
X123864763Y-78653632D01*
X123864763Y-78653632D02*
X124102858Y-78653632D01*
X124102858Y-78653632D02*
X124198096Y-78701252D01*
X124198096Y-78701252D02*
X124245715Y-78748871D01*
X64238096Y-78653632D02*
X64238096Y-79653632D01*
X63666668Y-78653632D02*
X64095239Y-79225061D01*
X63666668Y-79653632D02*
X64238096Y-79082204D01*
X63095239Y-79225061D02*
X63190477Y-79272680D01*
X63190477Y-79272680D02*
X63238096Y-79320299D01*
X63238096Y-79320299D02*
X63285715Y-79415537D01*
X63285715Y-79415537D02*
X63285715Y-79463156D01*
X63285715Y-79463156D02*
X63238096Y-79558394D01*
X63238096Y-79558394D02*
X63190477Y-79606013D01*
X63190477Y-79606013D02*
X63095239Y-79653632D01*
X63095239Y-79653632D02*
X62904763Y-79653632D01*
X62904763Y-79653632D02*
X62809525Y-79606013D01*
X62809525Y-79606013D02*
X62761906Y-79558394D01*
X62761906Y-79558394D02*
X62714287Y-79463156D01*
X62714287Y-79463156D02*
X62714287Y-79415537D01*
X62714287Y-79415537D02*
X62761906Y-79320299D01*
X62761906Y-79320299D02*
X62809525Y-79272680D01*
X62809525Y-79272680D02*
X62904763Y-79225061D01*
X62904763Y-79225061D02*
X63095239Y-79225061D01*
X63095239Y-79225061D02*
X63190477Y-79177442D01*
X63190477Y-79177442D02*
X63238096Y-79129823D01*
X63238096Y-79129823D02*
X63285715Y-79034585D01*
X63285715Y-79034585D02*
X63285715Y-78844109D01*
X63285715Y-78844109D02*
X63238096Y-78748871D01*
X63238096Y-78748871D02*
X63190477Y-78701252D01*
X63190477Y-78701252D02*
X63095239Y-78653632D01*
X63095239Y-78653632D02*
X62904763Y-78653632D01*
X62904763Y-78653632D02*
X62809525Y-78701252D01*
X62809525Y-78701252D02*
X62761906Y-78748871D01*
X62761906Y-78748871D02*
X62714287Y-78844109D01*
X62714287Y-78844109D02*
X62714287Y-79034585D01*
X62714287Y-79034585D02*
X62761906Y-79129823D01*
X62761906Y-79129823D02*
X62809525Y-79177442D01*
X62809525Y-79177442D02*
X62904763Y-79225061D01*
X102512952Y-60144819D02*
X102036762Y-60144819D01*
X102036762Y-60144819D02*
X102036762Y-59144819D01*
X102846286Y-59621009D02*
X103179619Y-59621009D01*
X103322476Y-60144819D02*
X102846286Y-60144819D01*
X102846286Y-60144819D02*
X102846286Y-59144819D01*
X102846286Y-59144819D02*
X103322476Y-59144819D01*
X103751048Y-60144819D02*
X103751048Y-59144819D01*
X103751048Y-59144819D02*
X103989143Y-59144819D01*
X103989143Y-59144819D02*
X104132000Y-59192438D01*
X104132000Y-59192438D02*
X104227238Y-59287676D01*
X104227238Y-59287676D02*
X104274857Y-59382914D01*
X104274857Y-59382914D02*
X104322476Y-59573390D01*
X104322476Y-59573390D02*
X104322476Y-59716247D01*
X104322476Y-59716247D02*
X104274857Y-59906723D01*
X104274857Y-59906723D02*
X104227238Y-60001961D01*
X104227238Y-60001961D02*
X104132000Y-60097200D01*
X104132000Y-60097200D02*
X103989143Y-60144819D01*
X103989143Y-60144819D02*
X103751048Y-60144819D01*
X105179619Y-59144819D02*
X104989143Y-59144819D01*
X104989143Y-59144819D02*
X104893905Y-59192438D01*
X104893905Y-59192438D02*
X104846286Y-59240057D01*
X104846286Y-59240057D02*
X104751048Y-59382914D01*
X104751048Y-59382914D02*
X104703429Y-59573390D01*
X104703429Y-59573390D02*
X104703429Y-59954342D01*
X104703429Y-59954342D02*
X104751048Y-60049580D01*
X104751048Y-60049580D02*
X104798667Y-60097200D01*
X104798667Y-60097200D02*
X104893905Y-60144819D01*
X104893905Y-60144819D02*
X105084381Y-60144819D01*
X105084381Y-60144819D02*
X105179619Y-60097200D01*
X105179619Y-60097200D02*
X105227238Y-60049580D01*
X105227238Y-60049580D02*
X105274857Y-59954342D01*
X105274857Y-59954342D02*
X105274857Y-59716247D01*
X105274857Y-59716247D02*
X105227238Y-59621009D01*
X105227238Y-59621009D02*
X105179619Y-59573390D01*
X105179619Y-59573390D02*
X105084381Y-59525771D01*
X105084381Y-59525771D02*
X104893905Y-59525771D01*
X104893905Y-59525771D02*
X104798667Y-59573390D01*
X104798667Y-59573390D02*
X104751048Y-59621009D01*
X104751048Y-59621009D02*
X104703429Y-59716247D01*
X143708571Y-119430581D02*
X143660952Y-119478201D01*
X143660952Y-119478201D02*
X143518095Y-119525820D01*
X143518095Y-119525820D02*
X143422857Y-119525820D01*
X143422857Y-119525820D02*
X143280000Y-119478201D01*
X143280000Y-119478201D02*
X143184762Y-119382962D01*
X143184762Y-119382962D02*
X143137143Y-119287724D01*
X143137143Y-119287724D02*
X143089524Y-119097248D01*
X143089524Y-119097248D02*
X143089524Y-118954391D01*
X143089524Y-118954391D02*
X143137143Y-118763915D01*
X143137143Y-118763915D02*
X143184762Y-118668677D01*
X143184762Y-118668677D02*
X143280000Y-118573439D01*
X143280000Y-118573439D02*
X143422857Y-118525820D01*
X143422857Y-118525820D02*
X143518095Y-118525820D01*
X143518095Y-118525820D02*
X143660952Y-118573439D01*
X143660952Y-118573439D02*
X143708571Y-118621058D01*
X144280000Y-119525820D02*
X144184762Y-119478201D01*
X144184762Y-119478201D02*
X144137143Y-119430581D01*
X144137143Y-119430581D02*
X144089524Y-119335343D01*
X144089524Y-119335343D02*
X144089524Y-119049629D01*
X144089524Y-119049629D02*
X144137143Y-118954391D01*
X144137143Y-118954391D02*
X144184762Y-118906772D01*
X144184762Y-118906772D02*
X144280000Y-118859153D01*
X144280000Y-118859153D02*
X144422857Y-118859153D01*
X144422857Y-118859153D02*
X144518095Y-118906772D01*
X144518095Y-118906772D02*
X144565714Y-118954391D01*
X144565714Y-118954391D02*
X144613333Y-119049629D01*
X144613333Y-119049629D02*
X144613333Y-119335343D01*
X144613333Y-119335343D02*
X144565714Y-119430581D01*
X144565714Y-119430581D02*
X144518095Y-119478201D01*
X144518095Y-119478201D02*
X144422857Y-119525820D01*
X144422857Y-119525820D02*
X144280000Y-119525820D01*
X145041905Y-118859153D02*
X145041905Y-119525820D01*
X145041905Y-118954391D02*
X145089524Y-118906772D01*
X145089524Y-118906772D02*
X145184762Y-118859153D01*
X145184762Y-118859153D02*
X145327619Y-118859153D01*
X145327619Y-118859153D02*
X145422857Y-118906772D01*
X145422857Y-118906772D02*
X145470476Y-119002010D01*
X145470476Y-119002010D02*
X145470476Y-119525820D01*
X146375238Y-118859153D02*
X146375238Y-119525820D01*
X146137143Y-118478201D02*
X145899048Y-119192486D01*
X145899048Y-119192486D02*
X146518095Y-119192486D01*
X182811009Y-104164336D02*
X182811009Y-104497669D01*
X183334819Y-104497669D02*
X182334819Y-104497669D01*
X182334819Y-104497669D02*
X182334819Y-104021479D01*
X182430057Y-103688145D02*
X182382438Y-103640526D01*
X182382438Y-103640526D02*
X182334819Y-103545288D01*
X182334819Y-103545288D02*
X182334819Y-103307193D01*
X182334819Y-103307193D02*
X182382438Y-103211955D01*
X182382438Y-103211955D02*
X182430057Y-103164336D01*
X182430057Y-103164336D02*
X182525295Y-103116717D01*
X182525295Y-103116717D02*
X182620533Y-103116717D01*
X182620533Y-103116717D02*
X182763390Y-103164336D01*
X182763390Y-103164336D02*
X183334819Y-103735764D01*
X183334819Y-103735764D02*
X183334819Y-103116717D01*
X164506666Y-45949819D02*
X164506666Y-46664104D01*
X164506666Y-46664104D02*
X164459047Y-46806961D01*
X164459047Y-46806961D02*
X164363809Y-46902200D01*
X164363809Y-46902200D02*
X164220952Y-46949819D01*
X164220952Y-46949819D02*
X164125714Y-46949819D01*
X164935238Y-46045057D02*
X164982857Y-45997438D01*
X164982857Y-45997438D02*
X165078095Y-45949819D01*
X165078095Y-45949819D02*
X165316190Y-45949819D01*
X165316190Y-45949819D02*
X165411428Y-45997438D01*
X165411428Y-45997438D02*
X165459047Y-46045057D01*
X165459047Y-46045057D02*
X165506666Y-46140295D01*
X165506666Y-46140295D02*
X165506666Y-46235533D01*
X165506666Y-46235533D02*
X165459047Y-46378390D01*
X165459047Y-46378390D02*
X164887619Y-46949819D01*
X164887619Y-46949819D02*
X165506666Y-46949819D01*
X143152952Y-60144819D02*
X142676762Y-60144819D01*
X142676762Y-60144819D02*
X142676762Y-59144819D01*
X143486286Y-59621009D02*
X143819619Y-59621009D01*
X143962476Y-60144819D02*
X143486286Y-60144819D01*
X143486286Y-60144819D02*
X143486286Y-59144819D01*
X143486286Y-59144819D02*
X143962476Y-59144819D01*
X144391048Y-60144819D02*
X144391048Y-59144819D01*
X144391048Y-59144819D02*
X144629143Y-59144819D01*
X144629143Y-59144819D02*
X144772000Y-59192438D01*
X144772000Y-59192438D02*
X144867238Y-59287676D01*
X144867238Y-59287676D02*
X144914857Y-59382914D01*
X144914857Y-59382914D02*
X144962476Y-59573390D01*
X144962476Y-59573390D02*
X144962476Y-59716247D01*
X144962476Y-59716247D02*
X144914857Y-59906723D01*
X144914857Y-59906723D02*
X144867238Y-60001961D01*
X144867238Y-60001961D02*
X144772000Y-60097200D01*
X144772000Y-60097200D02*
X144629143Y-60144819D01*
X144629143Y-60144819D02*
X144391048Y-60144819D01*
X145819619Y-59478152D02*
X145819619Y-60144819D01*
X145581524Y-59097200D02*
X145343429Y-59811485D01*
X145343429Y-59811485D02*
X145962476Y-59811485D01*
X152163331Y-62428371D02*
X151829998Y-61952180D01*
X151591903Y-62428371D02*
X151591903Y-61428371D01*
X151591903Y-61428371D02*
X151972855Y-61428371D01*
X151972855Y-61428371D02*
X152068093Y-61475990D01*
X152068093Y-61475990D02*
X152115712Y-61523609D01*
X152115712Y-61523609D02*
X152163331Y-61618847D01*
X152163331Y-61618847D02*
X152163331Y-61761704D01*
X152163331Y-61761704D02*
X152115712Y-61856942D01*
X152115712Y-61856942D02*
X152068093Y-61904561D01*
X152068093Y-61904561D02*
X151972855Y-61952180D01*
X151972855Y-61952180D02*
X151591903Y-61952180D01*
X153020474Y-61761704D02*
X153020474Y-62428371D01*
X152782379Y-61380752D02*
X152544284Y-62095037D01*
X152544284Y-62095037D02*
X153163331Y-62095037D01*
X162491011Y-104164336D02*
X162491011Y-104497669D01*
X163014821Y-104497669D02*
X162014821Y-104497669D01*
X162014821Y-104497669D02*
X162014821Y-104021479D01*
X162014821Y-103735764D02*
X162014821Y-103116717D01*
X162014821Y-103116717D02*
X162395773Y-103450050D01*
X162395773Y-103450050D02*
X162395773Y-103307193D01*
X162395773Y-103307193D02*
X162443392Y-103211955D01*
X162443392Y-103211955D02*
X162491011Y-103164336D01*
X162491011Y-103164336D02*
X162586249Y-103116717D01*
X162586249Y-103116717D02*
X162824344Y-103116717D01*
X162824344Y-103116717D02*
X162919582Y-103164336D01*
X162919582Y-103164336D02*
X162967202Y-103211955D01*
X162967202Y-103211955D02*
X163014821Y-103307193D01*
X163014821Y-103307193D02*
X163014821Y-103592907D01*
X163014821Y-103592907D02*
X162967202Y-103688145D01*
X162967202Y-103688145D02*
X162919582Y-103735764D01*
X204994819Y-51538094D02*
X203994819Y-51538094D01*
X203994819Y-51538094D02*
X203994819Y-51299999D01*
X203994819Y-51299999D02*
X204042438Y-51157142D01*
X204042438Y-51157142D02*
X204137676Y-51061904D01*
X204137676Y-51061904D02*
X204232914Y-51014285D01*
X204232914Y-51014285D02*
X204423390Y-50966666D01*
X204423390Y-50966666D02*
X204566247Y-50966666D01*
X204566247Y-50966666D02*
X204756723Y-51014285D01*
X204756723Y-51014285D02*
X204851961Y-51061904D01*
X204851961Y-51061904D02*
X204947200Y-51157142D01*
X204947200Y-51157142D02*
X204994819Y-51299999D01*
X204994819Y-51299999D02*
X204994819Y-51538094D01*
X204994819Y-50014285D02*
X204994819Y-50585713D01*
X204994819Y-50299999D02*
X203994819Y-50299999D01*
X203994819Y-50299999D02*
X204137676Y-50395237D01*
X204137676Y-50395237D02*
X204232914Y-50490475D01*
X204232914Y-50490475D02*
X204280533Y-50585713D01*
X205564819Y-57411904D02*
X204564819Y-57411904D01*
X205564819Y-56840476D02*
X204993390Y-57269047D01*
X204564819Y-56840476D02*
X205136247Y-57411904D01*
X70883333Y-62428371D02*
X70550000Y-61952180D01*
X70311905Y-62428371D02*
X70311905Y-61428371D01*
X70311905Y-61428371D02*
X70692857Y-61428371D01*
X70692857Y-61428371D02*
X70788095Y-61475990D01*
X70788095Y-61475990D02*
X70835714Y-61523609D01*
X70835714Y-61523609D02*
X70883333Y-61618847D01*
X70883333Y-61618847D02*
X70883333Y-61761704D01*
X70883333Y-61761704D02*
X70835714Y-61856942D01*
X70835714Y-61856942D02*
X70788095Y-61904561D01*
X70788095Y-61904561D02*
X70692857Y-61952180D01*
X70692857Y-61952180D02*
X70311905Y-61952180D01*
X71454762Y-61856942D02*
X71359524Y-61809323D01*
X71359524Y-61809323D02*
X71311905Y-61761704D01*
X71311905Y-61761704D02*
X71264286Y-61666466D01*
X71264286Y-61666466D02*
X71264286Y-61618847D01*
X71264286Y-61618847D02*
X71311905Y-61523609D01*
X71311905Y-61523609D02*
X71359524Y-61475990D01*
X71359524Y-61475990D02*
X71454762Y-61428371D01*
X71454762Y-61428371D02*
X71645238Y-61428371D01*
X71645238Y-61428371D02*
X71740476Y-61475990D01*
X71740476Y-61475990D02*
X71788095Y-61523609D01*
X71788095Y-61523609D02*
X71835714Y-61618847D01*
X71835714Y-61618847D02*
X71835714Y-61666466D01*
X71835714Y-61666466D02*
X71788095Y-61761704D01*
X71788095Y-61761704D02*
X71740476Y-61809323D01*
X71740476Y-61809323D02*
X71645238Y-61856942D01*
X71645238Y-61856942D02*
X71454762Y-61856942D01*
X71454762Y-61856942D02*
X71359524Y-61904561D01*
X71359524Y-61904561D02*
X71311905Y-61952180D01*
X71311905Y-61952180D02*
X71264286Y-62047418D01*
X71264286Y-62047418D02*
X71264286Y-62237894D01*
X71264286Y-62237894D02*
X71311905Y-62333132D01*
X71311905Y-62333132D02*
X71359524Y-62380752D01*
X71359524Y-62380752D02*
X71454762Y-62428371D01*
X71454762Y-62428371D02*
X71645238Y-62428371D01*
X71645238Y-62428371D02*
X71740476Y-62380752D01*
X71740476Y-62380752D02*
X71788095Y-62333132D01*
X71788095Y-62333132D02*
X71835714Y-62237894D01*
X71835714Y-62237894D02*
X71835714Y-62047418D01*
X71835714Y-62047418D02*
X71788095Y-61952180D01*
X71788095Y-61952180D02*
X71740476Y-61904561D01*
X71740476Y-61904561D02*
X71645238Y-61856942D01*
X50038095Y-41974819D02*
X50038095Y-40974819D01*
X50038095Y-41451009D02*
X50609523Y-41451009D01*
X50609523Y-41974819D02*
X50609523Y-40974819D01*
X51609523Y-41974819D02*
X51038095Y-41974819D01*
X51323809Y-41974819D02*
X51323809Y-40974819D01*
X51323809Y-40974819D02*
X51228571Y-41117676D01*
X51228571Y-41117676D02*
X51133333Y-41212914D01*
X51133333Y-41212914D02*
X51038095Y-41260533D01*
X123388573Y-119430581D02*
X123340954Y-119478201D01*
X123340954Y-119478201D02*
X123198097Y-119525820D01*
X123198097Y-119525820D02*
X123102859Y-119525820D01*
X123102859Y-119525820D02*
X122960002Y-119478201D01*
X122960002Y-119478201D02*
X122864764Y-119382962D01*
X122864764Y-119382962D02*
X122817145Y-119287724D01*
X122817145Y-119287724D02*
X122769526Y-119097248D01*
X122769526Y-119097248D02*
X122769526Y-118954391D01*
X122769526Y-118954391D02*
X122817145Y-118763915D01*
X122817145Y-118763915D02*
X122864764Y-118668677D01*
X122864764Y-118668677D02*
X122960002Y-118573439D01*
X122960002Y-118573439D02*
X123102859Y-118525820D01*
X123102859Y-118525820D02*
X123198097Y-118525820D01*
X123198097Y-118525820D02*
X123340954Y-118573439D01*
X123340954Y-118573439D02*
X123388573Y-118621058D01*
X123960002Y-119525820D02*
X123864764Y-119478201D01*
X123864764Y-119478201D02*
X123817145Y-119430581D01*
X123817145Y-119430581D02*
X123769526Y-119335343D01*
X123769526Y-119335343D02*
X123769526Y-119049629D01*
X123769526Y-119049629D02*
X123817145Y-118954391D01*
X123817145Y-118954391D02*
X123864764Y-118906772D01*
X123864764Y-118906772D02*
X123960002Y-118859153D01*
X123960002Y-118859153D02*
X124102859Y-118859153D01*
X124102859Y-118859153D02*
X124198097Y-118906772D01*
X124198097Y-118906772D02*
X124245716Y-118954391D01*
X124245716Y-118954391D02*
X124293335Y-119049629D01*
X124293335Y-119049629D02*
X124293335Y-119335343D01*
X124293335Y-119335343D02*
X124245716Y-119430581D01*
X124245716Y-119430581D02*
X124198097Y-119478201D01*
X124198097Y-119478201D02*
X124102859Y-119525820D01*
X124102859Y-119525820D02*
X123960002Y-119525820D01*
X124721907Y-118859153D02*
X124721907Y-119525820D01*
X124721907Y-118954391D02*
X124769526Y-118906772D01*
X124769526Y-118906772D02*
X124864764Y-118859153D01*
X124864764Y-118859153D02*
X125007621Y-118859153D01*
X125007621Y-118859153D02*
X125102859Y-118906772D01*
X125102859Y-118906772D02*
X125150478Y-119002010D01*
X125150478Y-119002010D02*
X125150478Y-119525820D01*
X126102859Y-118525820D02*
X125626669Y-118525820D01*
X125626669Y-118525820D02*
X125579050Y-119002010D01*
X125579050Y-119002010D02*
X125626669Y-118954391D01*
X125626669Y-118954391D02*
X125721907Y-118906772D01*
X125721907Y-118906772D02*
X125960002Y-118906772D01*
X125960002Y-118906772D02*
X126055240Y-118954391D01*
X126055240Y-118954391D02*
X126102859Y-119002010D01*
X126102859Y-119002010D02*
X126150478Y-119097248D01*
X126150478Y-119097248D02*
X126150478Y-119335343D01*
X126150478Y-119335343D02*
X126102859Y-119430581D01*
X126102859Y-119430581D02*
X126055240Y-119478201D01*
X126055240Y-119478201D02*
X125960002Y-119525820D01*
X125960002Y-119525820D02*
X125721907Y-119525820D01*
X125721907Y-119525820D02*
X125626669Y-119478201D01*
X125626669Y-119478201D02*
X125579050Y-119430581D01*
X101531011Y-104164336D02*
X101531011Y-104497669D01*
X102054821Y-104497669D02*
X101054821Y-104497669D01*
X101054821Y-104497669D02*
X101054821Y-104021479D01*
X101054821Y-103211955D02*
X101054821Y-103402431D01*
X101054821Y-103402431D02*
X101102440Y-103497669D01*
X101102440Y-103497669D02*
X101150059Y-103545288D01*
X101150059Y-103545288D02*
X101292916Y-103640526D01*
X101292916Y-103640526D02*
X101483392Y-103688145D01*
X101483392Y-103688145D02*
X101864344Y-103688145D01*
X101864344Y-103688145D02*
X101959582Y-103640526D01*
X101959582Y-103640526D02*
X102007202Y-103592907D01*
X102007202Y-103592907D02*
X102054821Y-103497669D01*
X102054821Y-103497669D02*
X102054821Y-103307193D01*
X102054821Y-103307193D02*
X102007202Y-103211955D01*
X102007202Y-103211955D02*
X101959582Y-103164336D01*
X101959582Y-103164336D02*
X101864344Y-103116717D01*
X101864344Y-103116717D02*
X101626249Y-103116717D01*
X101626249Y-103116717D02*
X101531011Y-103164336D01*
X101531011Y-103164336D02*
X101483392Y-103211955D01*
X101483392Y-103211955D02*
X101435773Y-103307193D01*
X101435773Y-103307193D02*
X101435773Y-103497669D01*
X101435773Y-103497669D02*
X101483392Y-103592907D01*
X101483392Y-103592907D02*
X101531011Y-103640526D01*
X101531011Y-103640526D02*
X101626249Y-103688145D01*
X150314819Y-48426666D02*
X149838628Y-48759999D01*
X150314819Y-48998094D02*
X149314819Y-48998094D01*
X149314819Y-48998094D02*
X149314819Y-48617142D01*
X149314819Y-48617142D02*
X149362438Y-48521904D01*
X149362438Y-48521904D02*
X149410057Y-48474285D01*
X149410057Y-48474285D02*
X149505295Y-48426666D01*
X149505295Y-48426666D02*
X149648152Y-48426666D01*
X149648152Y-48426666D02*
X149743390Y-48474285D01*
X149743390Y-48474285D02*
X149791009Y-48521904D01*
X149791009Y-48521904D02*
X149838628Y-48617142D01*
X149838628Y-48617142D02*
X149838628Y-48998094D01*
X150314819Y-47950475D02*
X150314819Y-47759999D01*
X150314819Y-47759999D02*
X150267200Y-47664761D01*
X150267200Y-47664761D02*
X150219580Y-47617142D01*
X150219580Y-47617142D02*
X150076723Y-47521904D01*
X150076723Y-47521904D02*
X149886247Y-47474285D01*
X149886247Y-47474285D02*
X149505295Y-47474285D01*
X149505295Y-47474285D02*
X149410057Y-47521904D01*
X149410057Y-47521904D02*
X149362438Y-47569523D01*
X149362438Y-47569523D02*
X149314819Y-47664761D01*
X149314819Y-47664761D02*
X149314819Y-47855237D01*
X149314819Y-47855237D02*
X149362438Y-47950475D01*
X149362438Y-47950475D02*
X149410057Y-47998094D01*
X149410057Y-47998094D02*
X149505295Y-48045713D01*
X149505295Y-48045713D02*
X149743390Y-48045713D01*
X149743390Y-48045713D02*
X149838628Y-47998094D01*
X149838628Y-47998094D02*
X149886247Y-47950475D01*
X149886247Y-47950475D02*
X149933866Y-47855237D01*
X149933866Y-47855237D02*
X149933866Y-47664761D01*
X149933866Y-47664761D02*
X149886247Y-47569523D01*
X149886247Y-47569523D02*
X149838628Y-47521904D01*
X149838628Y-47521904D02*
X149743390Y-47474285D01*
X147400952Y-57754819D02*
X146924762Y-57754819D01*
X146924762Y-57754819D02*
X146924762Y-56754819D01*
X147734286Y-57231009D02*
X148067619Y-57231009D01*
X148210476Y-57754819D02*
X147734286Y-57754819D01*
X147734286Y-57754819D02*
X147734286Y-56754819D01*
X147734286Y-56754819D02*
X148210476Y-56754819D01*
X148639048Y-57754819D02*
X148639048Y-56754819D01*
X148639048Y-56754819D02*
X148877143Y-56754819D01*
X148877143Y-56754819D02*
X149020000Y-56802438D01*
X149020000Y-56802438D02*
X149115238Y-56897676D01*
X149115238Y-56897676D02*
X149162857Y-56992914D01*
X149162857Y-56992914D02*
X149210476Y-57183390D01*
X149210476Y-57183390D02*
X149210476Y-57326247D01*
X149210476Y-57326247D02*
X149162857Y-57516723D01*
X149162857Y-57516723D02*
X149115238Y-57611961D01*
X149115238Y-57611961D02*
X149020000Y-57707200D01*
X149020000Y-57707200D02*
X148877143Y-57754819D01*
X148877143Y-57754819D02*
X148639048Y-57754819D01*
X149829524Y-56754819D02*
X149924762Y-56754819D01*
X149924762Y-56754819D02*
X150020000Y-56802438D01*
X150020000Y-56802438D02*
X150067619Y-56850057D01*
X150067619Y-56850057D02*
X150115238Y-56945295D01*
X150115238Y-56945295D02*
X150162857Y-57135771D01*
X150162857Y-57135771D02*
X150162857Y-57373866D01*
X150162857Y-57373866D02*
X150115238Y-57564342D01*
X150115238Y-57564342D02*
X150067619Y-57659580D01*
X150067619Y-57659580D02*
X150020000Y-57707200D01*
X150020000Y-57707200D02*
X149924762Y-57754819D01*
X149924762Y-57754819D02*
X149829524Y-57754819D01*
X149829524Y-57754819D02*
X149734286Y-57707200D01*
X149734286Y-57707200D02*
X149686667Y-57659580D01*
X149686667Y-57659580D02*
X149639048Y-57564342D01*
X149639048Y-57564342D02*
X149591429Y-57373866D01*
X149591429Y-57373866D02*
X149591429Y-57135771D01*
X149591429Y-57135771D02*
X149639048Y-56945295D01*
X149639048Y-56945295D02*
X149686667Y-56850057D01*
X149686667Y-56850057D02*
X149734286Y-56802438D01*
X149734286Y-56802438D02*
X149829524Y-56754819D01*
X91203333Y-62428371D02*
X90870000Y-61952180D01*
X90631905Y-62428371D02*
X90631905Y-61428371D01*
X90631905Y-61428371D02*
X91012857Y-61428371D01*
X91012857Y-61428371D02*
X91108095Y-61475990D01*
X91108095Y-61475990D02*
X91155714Y-61523609D01*
X91155714Y-61523609D02*
X91203333Y-61618847D01*
X91203333Y-61618847D02*
X91203333Y-61761704D01*
X91203333Y-61761704D02*
X91155714Y-61856942D01*
X91155714Y-61856942D02*
X91108095Y-61904561D01*
X91108095Y-61904561D02*
X91012857Y-61952180D01*
X91012857Y-61952180D02*
X90631905Y-61952180D01*
X91536667Y-61428371D02*
X92203333Y-61428371D01*
X92203333Y-61428371D02*
X91774762Y-62428371D01*
X60891011Y-104164336D02*
X60891011Y-104497669D01*
X61414821Y-104497669D02*
X60414821Y-104497669D01*
X60414821Y-104497669D02*
X60414821Y-104021479D01*
X60843392Y-103497669D02*
X60795773Y-103592907D01*
X60795773Y-103592907D02*
X60748154Y-103640526D01*
X60748154Y-103640526D02*
X60652916Y-103688145D01*
X60652916Y-103688145D02*
X60605297Y-103688145D01*
X60605297Y-103688145D02*
X60510059Y-103640526D01*
X60510059Y-103640526D02*
X60462440Y-103592907D01*
X60462440Y-103592907D02*
X60414821Y-103497669D01*
X60414821Y-103497669D02*
X60414821Y-103307193D01*
X60414821Y-103307193D02*
X60462440Y-103211955D01*
X60462440Y-103211955D02*
X60510059Y-103164336D01*
X60510059Y-103164336D02*
X60605297Y-103116717D01*
X60605297Y-103116717D02*
X60652916Y-103116717D01*
X60652916Y-103116717D02*
X60748154Y-103164336D01*
X60748154Y-103164336D02*
X60795773Y-103211955D01*
X60795773Y-103211955D02*
X60843392Y-103307193D01*
X60843392Y-103307193D02*
X60843392Y-103497669D01*
X60843392Y-103497669D02*
X60891011Y-103592907D01*
X60891011Y-103592907D02*
X60938630Y-103640526D01*
X60938630Y-103640526D02*
X61033868Y-103688145D01*
X61033868Y-103688145D02*
X61224344Y-103688145D01*
X61224344Y-103688145D02*
X61319582Y-103640526D01*
X61319582Y-103640526D02*
X61367202Y-103592907D01*
X61367202Y-103592907D02*
X61414821Y-103497669D01*
X61414821Y-103497669D02*
X61414821Y-103307193D01*
X61414821Y-103307193D02*
X61367202Y-103211955D01*
X61367202Y-103211955D02*
X61319582Y-103164336D01*
X61319582Y-103164336D02*
X61224344Y-103116717D01*
X61224344Y-103116717D02*
X61033868Y-103116717D01*
X61033868Y-103116717D02*
X60938630Y-103164336D01*
X60938630Y-103164336D02*
X60891011Y-103211955D01*
X60891011Y-103211955D02*
X60843392Y-103307193D01*
X103068573Y-119430581D02*
X103020954Y-119478201D01*
X103020954Y-119478201D02*
X102878097Y-119525820D01*
X102878097Y-119525820D02*
X102782859Y-119525820D01*
X102782859Y-119525820D02*
X102640002Y-119478201D01*
X102640002Y-119478201D02*
X102544764Y-119382962D01*
X102544764Y-119382962D02*
X102497145Y-119287724D01*
X102497145Y-119287724D02*
X102449526Y-119097248D01*
X102449526Y-119097248D02*
X102449526Y-118954391D01*
X102449526Y-118954391D02*
X102497145Y-118763915D01*
X102497145Y-118763915D02*
X102544764Y-118668677D01*
X102544764Y-118668677D02*
X102640002Y-118573439D01*
X102640002Y-118573439D02*
X102782859Y-118525820D01*
X102782859Y-118525820D02*
X102878097Y-118525820D01*
X102878097Y-118525820D02*
X103020954Y-118573439D01*
X103020954Y-118573439D02*
X103068573Y-118621058D01*
X103640002Y-119525820D02*
X103544764Y-119478201D01*
X103544764Y-119478201D02*
X103497145Y-119430581D01*
X103497145Y-119430581D02*
X103449526Y-119335343D01*
X103449526Y-119335343D02*
X103449526Y-119049629D01*
X103449526Y-119049629D02*
X103497145Y-118954391D01*
X103497145Y-118954391D02*
X103544764Y-118906772D01*
X103544764Y-118906772D02*
X103640002Y-118859153D01*
X103640002Y-118859153D02*
X103782859Y-118859153D01*
X103782859Y-118859153D02*
X103878097Y-118906772D01*
X103878097Y-118906772D02*
X103925716Y-118954391D01*
X103925716Y-118954391D02*
X103973335Y-119049629D01*
X103973335Y-119049629D02*
X103973335Y-119335343D01*
X103973335Y-119335343D02*
X103925716Y-119430581D01*
X103925716Y-119430581D02*
X103878097Y-119478201D01*
X103878097Y-119478201D02*
X103782859Y-119525820D01*
X103782859Y-119525820D02*
X103640002Y-119525820D01*
X104401907Y-118859153D02*
X104401907Y-119525820D01*
X104401907Y-118954391D02*
X104449526Y-118906772D01*
X104449526Y-118906772D02*
X104544764Y-118859153D01*
X104544764Y-118859153D02*
X104687621Y-118859153D01*
X104687621Y-118859153D02*
X104782859Y-118906772D01*
X104782859Y-118906772D02*
X104830478Y-119002010D01*
X104830478Y-119002010D02*
X104830478Y-119525820D01*
X105735240Y-118525820D02*
X105544764Y-118525820D01*
X105544764Y-118525820D02*
X105449526Y-118573439D01*
X105449526Y-118573439D02*
X105401907Y-118621058D01*
X105401907Y-118621058D02*
X105306669Y-118763915D01*
X105306669Y-118763915D02*
X105259050Y-118954391D01*
X105259050Y-118954391D02*
X105259050Y-119335343D01*
X105259050Y-119335343D02*
X105306669Y-119430581D01*
X105306669Y-119430581D02*
X105354288Y-119478201D01*
X105354288Y-119478201D02*
X105449526Y-119525820D01*
X105449526Y-119525820D02*
X105640002Y-119525820D01*
X105640002Y-119525820D02*
X105735240Y-119478201D01*
X105735240Y-119478201D02*
X105782859Y-119430581D01*
X105782859Y-119430581D02*
X105830478Y-119335343D01*
X105830478Y-119335343D02*
X105830478Y-119097248D01*
X105830478Y-119097248D02*
X105782859Y-119002010D01*
X105782859Y-119002010D02*
X105735240Y-118954391D01*
X105735240Y-118954391D02*
X105640002Y-118906772D01*
X105640002Y-118906772D02*
X105449526Y-118906772D01*
X105449526Y-118906772D02*
X105354288Y-118954391D01*
X105354288Y-118954391D02*
X105306669Y-119002010D01*
X105306669Y-119002010D02*
X105259050Y-119097248D01*
X164028573Y-119430581D02*
X163980954Y-119478201D01*
X163980954Y-119478201D02*
X163838097Y-119525820D01*
X163838097Y-119525820D02*
X163742859Y-119525820D01*
X163742859Y-119525820D02*
X163600002Y-119478201D01*
X163600002Y-119478201D02*
X163504764Y-119382962D01*
X163504764Y-119382962D02*
X163457145Y-119287724D01*
X163457145Y-119287724D02*
X163409526Y-119097248D01*
X163409526Y-119097248D02*
X163409526Y-118954391D01*
X163409526Y-118954391D02*
X163457145Y-118763915D01*
X163457145Y-118763915D02*
X163504764Y-118668677D01*
X163504764Y-118668677D02*
X163600002Y-118573439D01*
X163600002Y-118573439D02*
X163742859Y-118525820D01*
X163742859Y-118525820D02*
X163838097Y-118525820D01*
X163838097Y-118525820D02*
X163980954Y-118573439D01*
X163980954Y-118573439D02*
X164028573Y-118621058D01*
X164600002Y-119525820D02*
X164504764Y-119478201D01*
X164504764Y-119478201D02*
X164457145Y-119430581D01*
X164457145Y-119430581D02*
X164409526Y-119335343D01*
X164409526Y-119335343D02*
X164409526Y-119049629D01*
X164409526Y-119049629D02*
X164457145Y-118954391D01*
X164457145Y-118954391D02*
X164504764Y-118906772D01*
X164504764Y-118906772D02*
X164600002Y-118859153D01*
X164600002Y-118859153D02*
X164742859Y-118859153D01*
X164742859Y-118859153D02*
X164838097Y-118906772D01*
X164838097Y-118906772D02*
X164885716Y-118954391D01*
X164885716Y-118954391D02*
X164933335Y-119049629D01*
X164933335Y-119049629D02*
X164933335Y-119335343D01*
X164933335Y-119335343D02*
X164885716Y-119430581D01*
X164885716Y-119430581D02*
X164838097Y-119478201D01*
X164838097Y-119478201D02*
X164742859Y-119525820D01*
X164742859Y-119525820D02*
X164600002Y-119525820D01*
X165361907Y-118859153D02*
X165361907Y-119525820D01*
X165361907Y-118954391D02*
X165409526Y-118906772D01*
X165409526Y-118906772D02*
X165504764Y-118859153D01*
X165504764Y-118859153D02*
X165647621Y-118859153D01*
X165647621Y-118859153D02*
X165742859Y-118906772D01*
X165742859Y-118906772D02*
X165790478Y-119002010D01*
X165790478Y-119002010D02*
X165790478Y-119525820D01*
X166171431Y-118525820D02*
X166790478Y-118525820D01*
X166790478Y-118525820D02*
X166457145Y-118906772D01*
X166457145Y-118906772D02*
X166600002Y-118906772D01*
X166600002Y-118906772D02*
X166695240Y-118954391D01*
X166695240Y-118954391D02*
X166742859Y-119002010D01*
X166742859Y-119002010D02*
X166790478Y-119097248D01*
X166790478Y-119097248D02*
X166790478Y-119335343D01*
X166790478Y-119335343D02*
X166742859Y-119430581D01*
X166742859Y-119430581D02*
X166695240Y-119478201D01*
X166695240Y-119478201D02*
X166600002Y-119525820D01*
X166600002Y-119525820D02*
X166314288Y-119525820D01*
X166314288Y-119525820D02*
X166219050Y-119478201D01*
X166219050Y-119478201D02*
X166171431Y-119430581D01*
X205558096Y-78653632D02*
X205558096Y-79653632D01*
X204986668Y-78653632D02*
X205415239Y-79225061D01*
X204986668Y-79653632D02*
X205558096Y-79082204D01*
X204034287Y-78653632D02*
X204605715Y-78653632D01*
X204320001Y-78653632D02*
X204320001Y-79653632D01*
X204320001Y-79653632D02*
X204415239Y-79510775D01*
X204415239Y-79510775D02*
X204510477Y-79415537D01*
X204510477Y-79415537D02*
X204605715Y-79367918D01*
X202211011Y-104164336D02*
X202211011Y-104497669D01*
X202734821Y-104497669D02*
X201734821Y-104497669D01*
X201734821Y-104497669D02*
X201734821Y-104021479D01*
X202734821Y-103116717D02*
X202734821Y-103688145D01*
X202734821Y-103402431D02*
X201734821Y-103402431D01*
X201734821Y-103402431D02*
X201877678Y-103497669D01*
X201877678Y-103497669D02*
X201972916Y-103592907D01*
X201972916Y-103592907D02*
X202020535Y-103688145D01*
X145139580Y-52871666D02*
X145187200Y-52919285D01*
X145187200Y-52919285D02*
X145234819Y-53062142D01*
X145234819Y-53062142D02*
X145234819Y-53157380D01*
X145234819Y-53157380D02*
X145187200Y-53300237D01*
X145187200Y-53300237D02*
X145091961Y-53395475D01*
X145091961Y-53395475D02*
X144996723Y-53443094D01*
X144996723Y-53443094D02*
X144806247Y-53490713D01*
X144806247Y-53490713D02*
X144663390Y-53490713D01*
X144663390Y-53490713D02*
X144472914Y-53443094D01*
X144472914Y-53443094D02*
X144377676Y-53395475D01*
X144377676Y-53395475D02*
X144282438Y-53300237D01*
X144282438Y-53300237D02*
X144234819Y-53157380D01*
X144234819Y-53157380D02*
X144234819Y-53062142D01*
X144234819Y-53062142D02*
X144282438Y-52919285D01*
X144282438Y-52919285D02*
X144330057Y-52871666D01*
X145234819Y-51919285D02*
X145234819Y-52490713D01*
X145234819Y-52204999D02*
X144234819Y-52204999D01*
X144234819Y-52204999D02*
X144377676Y-52300237D01*
X144377676Y-52300237D02*
X144472914Y-52395475D01*
X144472914Y-52395475D02*
X144520533Y-52490713D01*
X165838096Y-78653632D02*
X165838096Y-79653632D01*
X165266668Y-78653632D02*
X165695239Y-79225061D01*
X165266668Y-79653632D02*
X165838096Y-79082204D01*
X164933334Y-79653632D02*
X164314287Y-79653632D01*
X164314287Y-79653632D02*
X164647620Y-79272680D01*
X164647620Y-79272680D02*
X164504763Y-79272680D01*
X164504763Y-79272680D02*
X164409525Y-79225061D01*
X164409525Y-79225061D02*
X164361906Y-79177442D01*
X164361906Y-79177442D02*
X164314287Y-79082204D01*
X164314287Y-79082204D02*
X164314287Y-78844109D01*
X164314287Y-78844109D02*
X164361906Y-78748871D01*
X164361906Y-78748871D02*
X164409525Y-78701252D01*
X164409525Y-78701252D02*
X164504763Y-78653632D01*
X164504763Y-78653632D02*
X164790477Y-78653632D01*
X164790477Y-78653632D02*
X164885715Y-78701252D01*
X164885715Y-78701252D02*
X164933334Y-78748871D01*
X155616666Y-45949819D02*
X155616666Y-46664104D01*
X155616666Y-46664104D02*
X155569047Y-46806961D01*
X155569047Y-46806961D02*
X155473809Y-46902200D01*
X155473809Y-46902200D02*
X155330952Y-46949819D01*
X155330952Y-46949819D02*
X155235714Y-46949819D01*
X156616666Y-46949819D02*
X156045238Y-46949819D01*
X156330952Y-46949819D02*
X156330952Y-45949819D01*
X156330952Y-45949819D02*
X156235714Y-46092676D01*
X156235714Y-46092676D02*
X156140476Y-46187914D01*
X156140476Y-46187914D02*
X156045238Y-46235533D01*
X134493095Y-50529321D02*
X134493095Y-51338844D01*
X134493095Y-51338844D02*
X134540714Y-51434082D01*
X134540714Y-51434082D02*
X134588333Y-51481702D01*
X134588333Y-51481702D02*
X134683571Y-51529321D01*
X134683571Y-51529321D02*
X134874047Y-51529321D01*
X134874047Y-51529321D02*
X134969285Y-51481702D01*
X134969285Y-51481702D02*
X135016904Y-51434082D01*
X135016904Y-51434082D02*
X135064523Y-51338844D01*
X135064523Y-51338844D02*
X135064523Y-50529321D01*
X136064523Y-51529321D02*
X135493095Y-51529321D01*
X135778809Y-51529321D02*
X135778809Y-50529321D01*
X135778809Y-50529321D02*
X135683571Y-50672178D01*
X135683571Y-50672178D02*
X135588333Y-50767416D01*
X135588333Y-50767416D02*
X135493095Y-50815035D01*
X164737142Y-54344819D02*
X164403809Y-53868628D01*
X164165714Y-54344819D02*
X164165714Y-53344819D01*
X164165714Y-53344819D02*
X164546666Y-53344819D01*
X164546666Y-53344819D02*
X164641904Y-53392438D01*
X164641904Y-53392438D02*
X164689523Y-53440057D01*
X164689523Y-53440057D02*
X164737142Y-53535295D01*
X164737142Y-53535295D02*
X164737142Y-53678152D01*
X164737142Y-53678152D02*
X164689523Y-53773390D01*
X164689523Y-53773390D02*
X164641904Y-53821009D01*
X164641904Y-53821009D02*
X164546666Y-53868628D01*
X164546666Y-53868628D02*
X164165714Y-53868628D01*
X165689523Y-54344819D02*
X165118095Y-54344819D01*
X165403809Y-54344819D02*
X165403809Y-53344819D01*
X165403809Y-53344819D02*
X165308571Y-53487676D01*
X165308571Y-53487676D02*
X165213333Y-53582914D01*
X165213333Y-53582914D02*
X165118095Y-53630533D01*
X166641904Y-54344819D02*
X166070476Y-54344819D01*
X166356190Y-54344819D02*
X166356190Y-53344819D01*
X166356190Y-53344819D02*
X166260952Y-53487676D01*
X166260952Y-53487676D02*
X166165714Y-53582914D01*
X166165714Y-53582914D02*
X166070476Y-53630533D01*
X157333333Y-49434819D02*
X157000000Y-48958628D01*
X156761905Y-49434819D02*
X156761905Y-48434819D01*
X156761905Y-48434819D02*
X157142857Y-48434819D01*
X157142857Y-48434819D02*
X157238095Y-48482438D01*
X157238095Y-48482438D02*
X157285714Y-48530057D01*
X157285714Y-48530057D02*
X157333333Y-48625295D01*
X157333333Y-48625295D02*
X157333333Y-48768152D01*
X157333333Y-48768152D02*
X157285714Y-48863390D01*
X157285714Y-48863390D02*
X157238095Y-48911009D01*
X157238095Y-48911009D02*
X157142857Y-48958628D01*
X157142857Y-48958628D02*
X156761905Y-48958628D01*
X157952381Y-48434819D02*
X158047619Y-48434819D01*
X158047619Y-48434819D02*
X158142857Y-48482438D01*
X158142857Y-48482438D02*
X158190476Y-48530057D01*
X158190476Y-48530057D02*
X158238095Y-48625295D01*
X158238095Y-48625295D02*
X158285714Y-48815771D01*
X158285714Y-48815771D02*
X158285714Y-49053866D01*
X158285714Y-49053866D02*
X158238095Y-49244342D01*
X158238095Y-49244342D02*
X158190476Y-49339580D01*
X158190476Y-49339580D02*
X158142857Y-49387200D01*
X158142857Y-49387200D02*
X158047619Y-49434819D01*
X158047619Y-49434819D02*
X157952381Y-49434819D01*
X157952381Y-49434819D02*
X157857143Y-49387200D01*
X157857143Y-49387200D02*
X157809524Y-49339580D01*
X157809524Y-49339580D02*
X157761905Y-49244342D01*
X157761905Y-49244342D02*
X157714286Y-49053866D01*
X157714286Y-49053866D02*
X157714286Y-48815771D01*
X157714286Y-48815771D02*
X157761905Y-48625295D01*
X157761905Y-48625295D02*
X157809524Y-48530057D01*
X157809524Y-48530057D02*
X157857143Y-48482438D01*
X157857143Y-48482438D02*
X157952381Y-48434819D01*
X121851011Y-104164336D02*
X121851011Y-104497669D01*
X122374821Y-104497669D02*
X121374821Y-104497669D01*
X121374821Y-104497669D02*
X121374821Y-104021479D01*
X121374821Y-103164336D02*
X121374821Y-103640526D01*
X121374821Y-103640526D02*
X121851011Y-103688145D01*
X121851011Y-103688145D02*
X121803392Y-103640526D01*
X121803392Y-103640526D02*
X121755773Y-103545288D01*
X121755773Y-103545288D02*
X121755773Y-103307193D01*
X121755773Y-103307193D02*
X121803392Y-103211955D01*
X121803392Y-103211955D02*
X121851011Y-103164336D01*
X121851011Y-103164336D02*
X121946249Y-103116717D01*
X121946249Y-103116717D02*
X122184344Y-103116717D01*
X122184344Y-103116717D02*
X122279582Y-103164336D01*
X122279582Y-103164336D02*
X122327202Y-103211955D01*
X122327202Y-103211955D02*
X122374821Y-103307193D01*
X122374821Y-103307193D02*
X122374821Y-103545288D01*
X122374821Y-103545288D02*
X122327202Y-103640526D01*
X122327202Y-103640526D02*
X122279582Y-103688145D01*
X203748573Y-119430581D02*
X203700954Y-119478201D01*
X203700954Y-119478201D02*
X203558097Y-119525820D01*
X203558097Y-119525820D02*
X203462859Y-119525820D01*
X203462859Y-119525820D02*
X203320002Y-119478201D01*
X203320002Y-119478201D02*
X203224764Y-119382962D01*
X203224764Y-119382962D02*
X203177145Y-119287724D01*
X203177145Y-119287724D02*
X203129526Y-119097248D01*
X203129526Y-119097248D02*
X203129526Y-118954391D01*
X203129526Y-118954391D02*
X203177145Y-118763915D01*
X203177145Y-118763915D02*
X203224764Y-118668677D01*
X203224764Y-118668677D02*
X203320002Y-118573439D01*
X203320002Y-118573439D02*
X203462859Y-118525820D01*
X203462859Y-118525820D02*
X203558097Y-118525820D01*
X203558097Y-118525820D02*
X203700954Y-118573439D01*
X203700954Y-118573439D02*
X203748573Y-118621058D01*
X204320002Y-119525820D02*
X204224764Y-119478201D01*
X204224764Y-119478201D02*
X204177145Y-119430581D01*
X204177145Y-119430581D02*
X204129526Y-119335343D01*
X204129526Y-119335343D02*
X204129526Y-119049629D01*
X204129526Y-119049629D02*
X204177145Y-118954391D01*
X204177145Y-118954391D02*
X204224764Y-118906772D01*
X204224764Y-118906772D02*
X204320002Y-118859153D01*
X204320002Y-118859153D02*
X204462859Y-118859153D01*
X204462859Y-118859153D02*
X204558097Y-118906772D01*
X204558097Y-118906772D02*
X204605716Y-118954391D01*
X204605716Y-118954391D02*
X204653335Y-119049629D01*
X204653335Y-119049629D02*
X204653335Y-119335343D01*
X204653335Y-119335343D02*
X204605716Y-119430581D01*
X204605716Y-119430581D02*
X204558097Y-119478201D01*
X204558097Y-119478201D02*
X204462859Y-119525820D01*
X204462859Y-119525820D02*
X204320002Y-119525820D01*
X205081907Y-118859153D02*
X205081907Y-119525820D01*
X205081907Y-118954391D02*
X205129526Y-118906772D01*
X205129526Y-118906772D02*
X205224764Y-118859153D01*
X205224764Y-118859153D02*
X205367621Y-118859153D01*
X205367621Y-118859153D02*
X205462859Y-118906772D01*
X205462859Y-118906772D02*
X205510478Y-119002010D01*
X205510478Y-119002010D02*
X205510478Y-119525820D01*
X206510478Y-119525820D02*
X205939050Y-119525820D01*
X206224764Y-119525820D02*
X206224764Y-118525820D01*
X206224764Y-118525820D02*
X206129526Y-118668677D01*
X206129526Y-118668677D02*
X206034288Y-118763915D01*
X206034288Y-118763915D02*
X205939050Y-118811534D01*
X62126952Y-60398819D02*
X61650762Y-60398819D01*
X61650762Y-60398819D02*
X61650762Y-59398819D01*
X62460286Y-59875009D02*
X62793619Y-59875009D01*
X62936476Y-60398819D02*
X62460286Y-60398819D01*
X62460286Y-60398819D02*
X62460286Y-59398819D01*
X62460286Y-59398819D02*
X62936476Y-59398819D01*
X63365048Y-60398819D02*
X63365048Y-59398819D01*
X63365048Y-59398819D02*
X63603143Y-59398819D01*
X63603143Y-59398819D02*
X63746000Y-59446438D01*
X63746000Y-59446438D02*
X63841238Y-59541676D01*
X63841238Y-59541676D02*
X63888857Y-59636914D01*
X63888857Y-59636914D02*
X63936476Y-59827390D01*
X63936476Y-59827390D02*
X63936476Y-59970247D01*
X63936476Y-59970247D02*
X63888857Y-60160723D01*
X63888857Y-60160723D02*
X63841238Y-60255961D01*
X63841238Y-60255961D02*
X63746000Y-60351200D01*
X63746000Y-60351200D02*
X63603143Y-60398819D01*
X63603143Y-60398819D02*
X63365048Y-60398819D01*
X64507905Y-59827390D02*
X64412667Y-59779771D01*
X64412667Y-59779771D02*
X64365048Y-59732152D01*
X64365048Y-59732152D02*
X64317429Y-59636914D01*
X64317429Y-59636914D02*
X64317429Y-59589295D01*
X64317429Y-59589295D02*
X64365048Y-59494057D01*
X64365048Y-59494057D02*
X64412667Y-59446438D01*
X64412667Y-59446438D02*
X64507905Y-59398819D01*
X64507905Y-59398819D02*
X64698381Y-59398819D01*
X64698381Y-59398819D02*
X64793619Y-59446438D01*
X64793619Y-59446438D02*
X64841238Y-59494057D01*
X64841238Y-59494057D02*
X64888857Y-59589295D01*
X64888857Y-59589295D02*
X64888857Y-59636914D01*
X64888857Y-59636914D02*
X64841238Y-59732152D01*
X64841238Y-59732152D02*
X64793619Y-59779771D01*
X64793619Y-59779771D02*
X64698381Y-59827390D01*
X64698381Y-59827390D02*
X64507905Y-59827390D01*
X64507905Y-59827390D02*
X64412667Y-59875009D01*
X64412667Y-59875009D02*
X64365048Y-59922628D01*
X64365048Y-59922628D02*
X64317429Y-60017866D01*
X64317429Y-60017866D02*
X64317429Y-60208342D01*
X64317429Y-60208342D02*
X64365048Y-60303580D01*
X64365048Y-60303580D02*
X64412667Y-60351200D01*
X64412667Y-60351200D02*
X64507905Y-60398819D01*
X64507905Y-60398819D02*
X64698381Y-60398819D01*
X64698381Y-60398819D02*
X64793619Y-60351200D01*
X64793619Y-60351200D02*
X64841238Y-60303580D01*
X64841238Y-60303580D02*
X64888857Y-60208342D01*
X64888857Y-60208342D02*
X64888857Y-60017866D01*
X64888857Y-60017866D02*
X64841238Y-59922628D01*
X64841238Y-59922628D02*
X64793619Y-59875009D01*
X64793619Y-59875009D02*
X64698381Y-59827390D01*
X95795180Y-50552597D02*
X94985657Y-50552597D01*
X94985657Y-50552597D02*
X94890419Y-50600216D01*
X94890419Y-50600216D02*
X94842800Y-50647835D01*
X94842800Y-50647835D02*
X94795180Y-50743073D01*
X94795180Y-50743073D02*
X94795180Y-50933549D01*
X94795180Y-50933549D02*
X94842800Y-51028787D01*
X94842800Y-51028787D02*
X94890419Y-51076406D01*
X94890419Y-51076406D02*
X94985657Y-51124025D01*
X94985657Y-51124025D02*
X95795180Y-51124025D01*
X95699942Y-51552597D02*
X95747561Y-51600216D01*
X95747561Y-51600216D02*
X95795180Y-51695454D01*
X95795180Y-51695454D02*
X95795180Y-51933549D01*
X95795180Y-51933549D02*
X95747561Y-52028787D01*
X95747561Y-52028787D02*
X95699942Y-52076406D01*
X95699942Y-52076406D02*
X95604704Y-52124025D01*
X95604704Y-52124025D02*
X95509466Y-52124025D01*
X95509466Y-52124025D02*
X95366609Y-52076406D01*
X95366609Y-52076406D02*
X94795180Y-51504978D01*
X94795180Y-51504978D02*
X94795180Y-52124025D01*
X102973980Y-39721635D02*
X103973980Y-39721635D01*
X103973980Y-39721635D02*
X103973980Y-39959730D01*
X103973980Y-39959730D02*
X103926361Y-40102587D01*
X103926361Y-40102587D02*
X103831123Y-40197825D01*
X103831123Y-40197825D02*
X103735885Y-40245444D01*
X103735885Y-40245444D02*
X103545409Y-40293063D01*
X103545409Y-40293063D02*
X103402552Y-40293063D01*
X103402552Y-40293063D02*
X103212076Y-40245444D01*
X103212076Y-40245444D02*
X103116838Y-40197825D01*
X103116838Y-40197825D02*
X103021600Y-40102587D01*
X103021600Y-40102587D02*
X102973980Y-39959730D01*
X102973980Y-39959730D02*
X102973980Y-39721635D01*
X103021600Y-41102587D02*
X102973980Y-41007349D01*
X102973980Y-41007349D02*
X102973980Y-40816873D01*
X102973980Y-40816873D02*
X103021600Y-40721635D01*
X103021600Y-40721635D02*
X103116838Y-40674016D01*
X103116838Y-40674016D02*
X103497790Y-40674016D01*
X103497790Y-40674016D02*
X103593028Y-40721635D01*
X103593028Y-40721635D02*
X103640647Y-40816873D01*
X103640647Y-40816873D02*
X103640647Y-41007349D01*
X103640647Y-41007349D02*
X103593028Y-41102587D01*
X103593028Y-41102587D02*
X103497790Y-41150206D01*
X103497790Y-41150206D02*
X103402552Y-41150206D01*
X103402552Y-41150206D02*
X103307314Y-40674016D01*
X103021600Y-41531159D02*
X102973980Y-41626397D01*
X102973980Y-41626397D02*
X102973980Y-41816873D01*
X102973980Y-41816873D02*
X103021600Y-41912111D01*
X103021600Y-41912111D02*
X103116838Y-41959730D01*
X103116838Y-41959730D02*
X103164457Y-41959730D01*
X103164457Y-41959730D02*
X103259695Y-41912111D01*
X103259695Y-41912111D02*
X103307314Y-41816873D01*
X103307314Y-41816873D02*
X103307314Y-41674016D01*
X103307314Y-41674016D02*
X103354933Y-41578778D01*
X103354933Y-41578778D02*
X103450171Y-41531159D01*
X103450171Y-41531159D02*
X103497790Y-41531159D01*
X103497790Y-41531159D02*
X103593028Y-41578778D01*
X103593028Y-41578778D02*
X103640647Y-41674016D01*
X103640647Y-41674016D02*
X103640647Y-41816873D01*
X103640647Y-41816873D02*
X103593028Y-41912111D01*
X102973980Y-42388302D02*
X103640647Y-42388302D01*
X103973980Y-42388302D02*
X103926361Y-42340683D01*
X103926361Y-42340683D02*
X103878742Y-42388302D01*
X103878742Y-42388302D02*
X103926361Y-42435921D01*
X103926361Y-42435921D02*
X103973980Y-42388302D01*
X103973980Y-42388302D02*
X103878742Y-42388302D01*
X103640647Y-43293063D02*
X102831123Y-43293063D01*
X102831123Y-43293063D02*
X102735885Y-43245444D01*
X102735885Y-43245444D02*
X102688266Y-43197825D01*
X102688266Y-43197825D02*
X102640647Y-43102587D01*
X102640647Y-43102587D02*
X102640647Y-42959730D01*
X102640647Y-42959730D02*
X102688266Y-42864492D01*
X103021600Y-43293063D02*
X102973980Y-43197825D01*
X102973980Y-43197825D02*
X102973980Y-43007349D01*
X102973980Y-43007349D02*
X103021600Y-42912111D01*
X103021600Y-42912111D02*
X103069219Y-42864492D01*
X103069219Y-42864492D02*
X103164457Y-42816873D01*
X103164457Y-42816873D02*
X103450171Y-42816873D01*
X103450171Y-42816873D02*
X103545409Y-42864492D01*
X103545409Y-42864492D02*
X103593028Y-42912111D01*
X103593028Y-42912111D02*
X103640647Y-43007349D01*
X103640647Y-43007349D02*
X103640647Y-43197825D01*
X103640647Y-43197825D02*
X103593028Y-43293063D01*
X103640647Y-43769254D02*
X102973980Y-43769254D01*
X103545409Y-43769254D02*
X103593028Y-43816873D01*
X103593028Y-43816873D02*
X103640647Y-43912111D01*
X103640647Y-43912111D02*
X103640647Y-44054968D01*
X103640647Y-44054968D02*
X103593028Y-44150206D01*
X103593028Y-44150206D02*
X103497790Y-44197825D01*
X103497790Y-44197825D02*
X102973980Y-44197825D01*
X102973980Y-45102587D02*
X103497790Y-45102587D01*
X103497790Y-45102587D02*
X103593028Y-45054968D01*
X103593028Y-45054968D02*
X103640647Y-44959730D01*
X103640647Y-44959730D02*
X103640647Y-44769254D01*
X103640647Y-44769254D02*
X103593028Y-44674016D01*
X103021600Y-45102587D02*
X102973980Y-45007349D01*
X102973980Y-45007349D02*
X102973980Y-44769254D01*
X102973980Y-44769254D02*
X103021600Y-44674016D01*
X103021600Y-44674016D02*
X103116838Y-44626397D01*
X103116838Y-44626397D02*
X103212076Y-44626397D01*
X103212076Y-44626397D02*
X103307314Y-44674016D01*
X103307314Y-44674016D02*
X103354933Y-44769254D01*
X103354933Y-44769254D02*
X103354933Y-45007349D01*
X103354933Y-45007349D02*
X103402552Y-45102587D01*
X103640647Y-45435921D02*
X103640647Y-45816873D01*
X103973980Y-45578778D02*
X103116838Y-45578778D01*
X103116838Y-45578778D02*
X103021600Y-45626397D01*
X103021600Y-45626397D02*
X102973980Y-45721635D01*
X102973980Y-45721635D02*
X102973980Y-45816873D01*
X102973980Y-46293064D02*
X103021600Y-46197826D01*
X103021600Y-46197826D02*
X103069219Y-46150207D01*
X103069219Y-46150207D02*
X103164457Y-46102588D01*
X103164457Y-46102588D02*
X103450171Y-46102588D01*
X103450171Y-46102588D02*
X103545409Y-46150207D01*
X103545409Y-46150207D02*
X103593028Y-46197826D01*
X103593028Y-46197826D02*
X103640647Y-46293064D01*
X103640647Y-46293064D02*
X103640647Y-46435921D01*
X103640647Y-46435921D02*
X103593028Y-46531159D01*
X103593028Y-46531159D02*
X103545409Y-46578778D01*
X103545409Y-46578778D02*
X103450171Y-46626397D01*
X103450171Y-46626397D02*
X103164457Y-46626397D01*
X103164457Y-46626397D02*
X103069219Y-46578778D01*
X103069219Y-46578778D02*
X103021600Y-46531159D01*
X103021600Y-46531159D02*
X102973980Y-46435921D01*
X102973980Y-46435921D02*
X102973980Y-46293064D01*
X102973980Y-47054969D02*
X103640647Y-47054969D01*
X103450171Y-47054969D02*
X103545409Y-47102588D01*
X103545409Y-47102588D02*
X103593028Y-47150207D01*
X103593028Y-47150207D02*
X103640647Y-47245445D01*
X103640647Y-47245445D02*
X103640647Y-47340683D01*
X103973980Y-48150207D02*
X103973980Y-47674017D01*
X103973980Y-47674017D02*
X103497790Y-47626398D01*
X103497790Y-47626398D02*
X103545409Y-47674017D01*
X103545409Y-47674017D02*
X103593028Y-47769255D01*
X103593028Y-47769255D02*
X103593028Y-48007350D01*
X103593028Y-48007350D02*
X103545409Y-48102588D01*
X103545409Y-48102588D02*
X103497790Y-48150207D01*
X103497790Y-48150207D02*
X103402552Y-48197826D01*
X103402552Y-48197826D02*
X103164457Y-48197826D01*
X103164457Y-48197826D02*
X103069219Y-48150207D01*
X103069219Y-48150207D02*
X103021600Y-48102588D01*
X103021600Y-48102588D02*
X102973980Y-48007350D01*
X102973980Y-48007350D02*
X102973980Y-47769255D01*
X102973980Y-47769255D02*
X103021600Y-47674017D01*
X103021600Y-47674017D02*
X103069219Y-47626398D01*
X103640647Y-49054969D02*
X102973980Y-49054969D01*
X104021600Y-48816874D02*
X103307314Y-48578779D01*
X103307314Y-48578779D02*
X103307314Y-49197826D01*
X103973980Y-49483541D02*
X103973980Y-50102588D01*
X103973980Y-50102588D02*
X103593028Y-49769255D01*
X103593028Y-49769255D02*
X103593028Y-49912112D01*
X103593028Y-49912112D02*
X103545409Y-50007350D01*
X103545409Y-50007350D02*
X103497790Y-50054969D01*
X103497790Y-50054969D02*
X103402552Y-50102588D01*
X103402552Y-50102588D02*
X103164457Y-50102588D01*
X103164457Y-50102588D02*
X103069219Y-50054969D01*
X103069219Y-50054969D02*
X103021600Y-50007350D01*
X103021600Y-50007350D02*
X102973980Y-49912112D01*
X102973980Y-49912112D02*
X102973980Y-49626398D01*
X102973980Y-49626398D02*
X103021600Y-49531160D01*
X103021600Y-49531160D02*
X103069219Y-49483541D01*
X131843333Y-62428371D02*
X131510000Y-61952180D01*
X131271905Y-62428371D02*
X131271905Y-61428371D01*
X131271905Y-61428371D02*
X131652857Y-61428371D01*
X131652857Y-61428371D02*
X131748095Y-61475990D01*
X131748095Y-61475990D02*
X131795714Y-61523609D01*
X131795714Y-61523609D02*
X131843333Y-61618847D01*
X131843333Y-61618847D02*
X131843333Y-61761704D01*
X131843333Y-61761704D02*
X131795714Y-61856942D01*
X131795714Y-61856942D02*
X131748095Y-61904561D01*
X131748095Y-61904561D02*
X131652857Y-61952180D01*
X131652857Y-61952180D02*
X131271905Y-61952180D01*
X132748095Y-61428371D02*
X132271905Y-61428371D01*
X132271905Y-61428371D02*
X132224286Y-61904561D01*
X132224286Y-61904561D02*
X132271905Y-61856942D01*
X132271905Y-61856942D02*
X132367143Y-61809323D01*
X132367143Y-61809323D02*
X132605238Y-61809323D01*
X132605238Y-61809323D02*
X132700476Y-61856942D01*
X132700476Y-61856942D02*
X132748095Y-61904561D01*
X132748095Y-61904561D02*
X132795714Y-61999799D01*
X132795714Y-61999799D02*
X132795714Y-62237894D01*
X132795714Y-62237894D02*
X132748095Y-62333132D01*
X132748095Y-62333132D02*
X132700476Y-62380752D01*
X132700476Y-62380752D02*
X132605238Y-62428371D01*
X132605238Y-62428371D02*
X132367143Y-62428371D01*
X132367143Y-62428371D02*
X132271905Y-62380752D01*
X132271905Y-62380752D02*
X132224286Y-62333132D01*
X212203333Y-62428371D02*
X211870000Y-61952180D01*
X211631905Y-62428371D02*
X211631905Y-61428371D01*
X211631905Y-61428371D02*
X212012857Y-61428371D01*
X212012857Y-61428371D02*
X212108095Y-61475990D01*
X212108095Y-61475990D02*
X212155714Y-61523609D01*
X212155714Y-61523609D02*
X212203333Y-61618847D01*
X212203333Y-61618847D02*
X212203333Y-61761704D01*
X212203333Y-61761704D02*
X212155714Y-61856942D01*
X212155714Y-61856942D02*
X212108095Y-61904561D01*
X212108095Y-61904561D02*
X212012857Y-61952180D01*
X212012857Y-61952180D02*
X211631905Y-61952180D01*
X213155714Y-62428371D02*
X212584286Y-62428371D01*
X212870000Y-62428371D02*
X212870000Y-61428371D01*
X212870000Y-61428371D02*
X212774762Y-61571228D01*
X212774762Y-61571228D02*
X212679524Y-61666466D01*
X212679524Y-61666466D02*
X212584286Y-61714085D01*
X114236667Y-53747200D02*
X114379524Y-53794819D01*
X114379524Y-53794819D02*
X114617619Y-53794819D01*
X114617619Y-53794819D02*
X114712857Y-53747200D01*
X114712857Y-53747200D02*
X114760476Y-53699580D01*
X114760476Y-53699580D02*
X114808095Y-53604342D01*
X114808095Y-53604342D02*
X114808095Y-53509104D01*
X114808095Y-53509104D02*
X114760476Y-53413866D01*
X114760476Y-53413866D02*
X114712857Y-53366247D01*
X114712857Y-53366247D02*
X114617619Y-53318628D01*
X114617619Y-53318628D02*
X114427143Y-53271009D01*
X114427143Y-53271009D02*
X114331905Y-53223390D01*
X114331905Y-53223390D02*
X114284286Y-53175771D01*
X114284286Y-53175771D02*
X114236667Y-53080533D01*
X114236667Y-53080533D02*
X114236667Y-52985295D01*
X114236667Y-52985295D02*
X114284286Y-52890057D01*
X114284286Y-52890057D02*
X114331905Y-52842438D01*
X114331905Y-52842438D02*
X114427143Y-52794819D01*
X114427143Y-52794819D02*
X114665238Y-52794819D01*
X114665238Y-52794819D02*
X114808095Y-52842438D01*
X115141429Y-52794819D02*
X115379524Y-53794819D01*
X115379524Y-53794819D02*
X115570000Y-53080533D01*
X115570000Y-53080533D02*
X115760476Y-53794819D01*
X115760476Y-53794819D02*
X115998572Y-52794819D01*
X116903333Y-53794819D02*
X116331905Y-53794819D01*
X116617619Y-53794819D02*
X116617619Y-52794819D01*
X116617619Y-52794819D02*
X116522381Y-52937676D01*
X116522381Y-52937676D02*
X116427143Y-53032914D01*
X116427143Y-53032914D02*
X116331905Y-53080533D01*
X111760000Y-48832419D02*
X111760000Y-49070514D01*
X111521905Y-48975276D02*
X111760000Y-49070514D01*
X111760000Y-49070514D02*
X111998095Y-48975276D01*
X111617143Y-49260990D02*
X111760000Y-49070514D01*
X111760000Y-49070514D02*
X111902857Y-49260990D01*
X111760000Y-48832419D02*
X111760000Y-49070514D01*
X111521905Y-48975276D02*
X111760000Y-49070514D01*
X111760000Y-49070514D02*
X111998095Y-48975276D01*
X111617143Y-49260990D02*
X111760000Y-49070514D01*
X111760000Y-49070514D02*
X111902857Y-49260990D01*
X145518094Y-78653632D02*
X145518094Y-79653632D01*
X144946666Y-78653632D02*
X145375237Y-79225061D01*
X144946666Y-79653632D02*
X145518094Y-79082204D01*
X144089523Y-79320299D02*
X144089523Y-78653632D01*
X144327618Y-79701252D02*
X144565713Y-78986966D01*
X144565713Y-78986966D02*
X143946666Y-78986966D01*
X82748573Y-119430581D02*
X82700954Y-119478201D01*
X82700954Y-119478201D02*
X82558097Y-119525820D01*
X82558097Y-119525820D02*
X82462859Y-119525820D01*
X82462859Y-119525820D02*
X82320002Y-119478201D01*
X82320002Y-119478201D02*
X82224764Y-119382962D01*
X82224764Y-119382962D02*
X82177145Y-119287724D01*
X82177145Y-119287724D02*
X82129526Y-119097248D01*
X82129526Y-119097248D02*
X82129526Y-118954391D01*
X82129526Y-118954391D02*
X82177145Y-118763915D01*
X82177145Y-118763915D02*
X82224764Y-118668677D01*
X82224764Y-118668677D02*
X82320002Y-118573439D01*
X82320002Y-118573439D02*
X82462859Y-118525820D01*
X82462859Y-118525820D02*
X82558097Y-118525820D01*
X82558097Y-118525820D02*
X82700954Y-118573439D01*
X82700954Y-118573439D02*
X82748573Y-118621058D01*
X83320002Y-119525820D02*
X83224764Y-119478201D01*
X83224764Y-119478201D02*
X83177145Y-119430581D01*
X83177145Y-119430581D02*
X83129526Y-119335343D01*
X83129526Y-119335343D02*
X83129526Y-119049629D01*
X83129526Y-119049629D02*
X83177145Y-118954391D01*
X83177145Y-118954391D02*
X83224764Y-118906772D01*
X83224764Y-118906772D02*
X83320002Y-118859153D01*
X83320002Y-118859153D02*
X83462859Y-118859153D01*
X83462859Y-118859153D02*
X83558097Y-118906772D01*
X83558097Y-118906772D02*
X83605716Y-118954391D01*
X83605716Y-118954391D02*
X83653335Y-119049629D01*
X83653335Y-119049629D02*
X83653335Y-119335343D01*
X83653335Y-119335343D02*
X83605716Y-119430581D01*
X83605716Y-119430581D02*
X83558097Y-119478201D01*
X83558097Y-119478201D02*
X83462859Y-119525820D01*
X83462859Y-119525820D02*
X83320002Y-119525820D01*
X84081907Y-118859153D02*
X84081907Y-119525820D01*
X84081907Y-118954391D02*
X84129526Y-118906772D01*
X84129526Y-118906772D02*
X84224764Y-118859153D01*
X84224764Y-118859153D02*
X84367621Y-118859153D01*
X84367621Y-118859153D02*
X84462859Y-118906772D01*
X84462859Y-118906772D02*
X84510478Y-119002010D01*
X84510478Y-119002010D02*
X84510478Y-119525820D01*
X84891431Y-118525820D02*
X85558097Y-118525820D01*
X85558097Y-118525820D02*
X85129526Y-119525820D01*
X172198333Y-63404819D02*
X171865000Y-62928628D01*
X171626905Y-63404819D02*
X171626905Y-62404819D01*
X171626905Y-62404819D02*
X172007857Y-62404819D01*
X172007857Y-62404819D02*
X172103095Y-62452438D01*
X172103095Y-62452438D02*
X172150714Y-62500057D01*
X172150714Y-62500057D02*
X172198333Y-62595295D01*
X172198333Y-62595295D02*
X172198333Y-62738152D01*
X172198333Y-62738152D02*
X172150714Y-62833390D01*
X172150714Y-62833390D02*
X172103095Y-62881009D01*
X172103095Y-62881009D02*
X172007857Y-62928628D01*
X172007857Y-62928628D02*
X171626905Y-62928628D01*
X172531667Y-62404819D02*
X173150714Y-62404819D01*
X173150714Y-62404819D02*
X172817381Y-62785771D01*
X172817381Y-62785771D02*
X172960238Y-62785771D01*
X172960238Y-62785771D02*
X173055476Y-62833390D01*
X173055476Y-62833390D02*
X173103095Y-62881009D01*
X173103095Y-62881009D02*
X173150714Y-62976247D01*
X173150714Y-62976247D02*
X173150714Y-63214342D01*
X173150714Y-63214342D02*
X173103095Y-63309580D01*
X173103095Y-63309580D02*
X173055476Y-63357200D01*
X173055476Y-63357200D02*
X172960238Y-63404819D01*
X172960238Y-63404819D02*
X172674524Y-63404819D01*
X172674524Y-63404819D02*
X172579286Y-63357200D01*
X172579286Y-63357200D02*
X172531667Y-63309580D01*
X186158094Y-78653632D02*
X186158094Y-79653632D01*
X185586666Y-78653632D02*
X186015237Y-79225061D01*
X185586666Y-79653632D02*
X186158094Y-79082204D01*
X185205713Y-79558394D02*
X185158094Y-79606013D01*
X185158094Y-79606013D02*
X185062856Y-79653632D01*
X185062856Y-79653632D02*
X184824761Y-79653632D01*
X184824761Y-79653632D02*
X184729523Y-79606013D01*
X184729523Y-79606013D02*
X184681904Y-79558394D01*
X184681904Y-79558394D02*
X184634285Y-79463156D01*
X184634285Y-79463156D02*
X184634285Y-79367918D01*
X184634285Y-79367918D02*
X184681904Y-79225061D01*
X184681904Y-79225061D02*
X185253332Y-78653632D01*
X185253332Y-78653632D02*
X184634285Y-78653632D01*
X192803331Y-62428371D02*
X192469998Y-61952180D01*
X192231903Y-62428371D02*
X192231903Y-61428371D01*
X192231903Y-61428371D02*
X192612855Y-61428371D01*
X192612855Y-61428371D02*
X192708093Y-61475990D01*
X192708093Y-61475990D02*
X192755712Y-61523609D01*
X192755712Y-61523609D02*
X192803331Y-61618847D01*
X192803331Y-61618847D02*
X192803331Y-61761704D01*
X192803331Y-61761704D02*
X192755712Y-61856942D01*
X192755712Y-61856942D02*
X192708093Y-61904561D01*
X192708093Y-61904561D02*
X192612855Y-61952180D01*
X192612855Y-61952180D02*
X192231903Y-61952180D01*
X193184284Y-61523609D02*
X193231903Y-61475990D01*
X193231903Y-61475990D02*
X193327141Y-61428371D01*
X193327141Y-61428371D02*
X193565236Y-61428371D01*
X193565236Y-61428371D02*
X193660474Y-61475990D01*
X193660474Y-61475990D02*
X193708093Y-61523609D01*
X193708093Y-61523609D02*
X193755712Y-61618847D01*
X193755712Y-61618847D02*
X193755712Y-61714085D01*
X193755712Y-61714085D02*
X193708093Y-61856942D01*
X193708093Y-61856942D02*
X193136665Y-62428371D01*
X193136665Y-62428371D02*
X193755712Y-62428371D01*
X145139580Y-50966666D02*
X145187200Y-51014285D01*
X145187200Y-51014285D02*
X145234819Y-51157142D01*
X145234819Y-51157142D02*
X145234819Y-51252380D01*
X145234819Y-51252380D02*
X145187200Y-51395237D01*
X145187200Y-51395237D02*
X145091961Y-51490475D01*
X145091961Y-51490475D02*
X144996723Y-51538094D01*
X144996723Y-51538094D02*
X144806247Y-51585713D01*
X144806247Y-51585713D02*
X144663390Y-51585713D01*
X144663390Y-51585713D02*
X144472914Y-51538094D01*
X144472914Y-51538094D02*
X144377676Y-51490475D01*
X144377676Y-51490475D02*
X144282438Y-51395237D01*
X144282438Y-51395237D02*
X144234819Y-51252380D01*
X144234819Y-51252380D02*
X144234819Y-51157142D01*
X144234819Y-51157142D02*
X144282438Y-51014285D01*
X144282438Y-51014285D02*
X144330057Y-50966666D01*
X144330057Y-50585713D02*
X144282438Y-50538094D01*
X144282438Y-50538094D02*
X144234819Y-50442856D01*
X144234819Y-50442856D02*
X144234819Y-50204761D01*
X144234819Y-50204761D02*
X144282438Y-50109523D01*
X144282438Y-50109523D02*
X144330057Y-50061904D01*
X144330057Y-50061904D02*
X144425295Y-50014285D01*
X144425295Y-50014285D02*
X144520533Y-50014285D01*
X144520533Y-50014285D02*
X144663390Y-50061904D01*
X144663390Y-50061904D02*
X145234819Y-50633332D01*
X145234819Y-50633332D02*
X145234819Y-50014285D01*
X81211011Y-104164336D02*
X81211011Y-104497669D01*
X81734821Y-104497669D02*
X80734821Y-104497669D01*
X80734821Y-104497669D02*
X80734821Y-104021479D01*
X80734821Y-103735764D02*
X80734821Y-103069098D01*
X80734821Y-103069098D02*
X81734821Y-103497669D01*
X183538952Y-60144819D02*
X183062762Y-60144819D01*
X183062762Y-60144819D02*
X183062762Y-59144819D01*
X183872286Y-59621009D02*
X184205619Y-59621009D01*
X184348476Y-60144819D02*
X183872286Y-60144819D01*
X183872286Y-60144819D02*
X183872286Y-59144819D01*
X183872286Y-59144819D02*
X184348476Y-59144819D01*
X184777048Y-60144819D02*
X184777048Y-59144819D01*
X184777048Y-59144819D02*
X185015143Y-59144819D01*
X185015143Y-59144819D02*
X185158000Y-59192438D01*
X185158000Y-59192438D02*
X185253238Y-59287676D01*
X185253238Y-59287676D02*
X185300857Y-59382914D01*
X185300857Y-59382914D02*
X185348476Y-59573390D01*
X185348476Y-59573390D02*
X185348476Y-59716247D01*
X185348476Y-59716247D02*
X185300857Y-59906723D01*
X185300857Y-59906723D02*
X185253238Y-60001961D01*
X185253238Y-60001961D02*
X185158000Y-60097200D01*
X185158000Y-60097200D02*
X185015143Y-60144819D01*
X185015143Y-60144819D02*
X184777048Y-60144819D01*
X185729429Y-59240057D02*
X185777048Y-59192438D01*
X185777048Y-59192438D02*
X185872286Y-59144819D01*
X185872286Y-59144819D02*
X186110381Y-59144819D01*
X186110381Y-59144819D02*
X186205619Y-59192438D01*
X186205619Y-59192438D02*
X186253238Y-59240057D01*
X186253238Y-59240057D02*
X186300857Y-59335295D01*
X186300857Y-59335295D02*
X186300857Y-59430533D01*
X186300857Y-59430533D02*
X186253238Y-59573390D01*
X186253238Y-59573390D02*
X185681810Y-60144819D01*
X185681810Y-60144819D02*
X186300857Y-60144819D01*
X142171009Y-104164336D02*
X142171009Y-104497669D01*
X142694819Y-104497669D02*
X141694819Y-104497669D01*
X141694819Y-104497669D02*
X141694819Y-104021479D01*
X142028152Y-103211955D02*
X142694819Y-103211955D01*
X141647200Y-103450050D02*
X142361485Y-103688145D01*
X142361485Y-103688145D02*
X142361485Y-103069098D01*
X106346666Y-45174819D02*
X106346666Y-45889104D01*
X106346666Y-45889104D02*
X106299047Y-46031961D01*
X106299047Y-46031961D02*
X106203809Y-46127200D01*
X106203809Y-46127200D02*
X106060952Y-46174819D01*
X106060952Y-46174819D02*
X105965714Y-46174819D01*
X107299047Y-45174819D02*
X106822857Y-45174819D01*
X106822857Y-45174819D02*
X106775238Y-45651009D01*
X106775238Y-45651009D02*
X106822857Y-45603390D01*
X106822857Y-45603390D02*
X106918095Y-45555771D01*
X106918095Y-45555771D02*
X107156190Y-45555771D01*
X107156190Y-45555771D02*
X107251428Y-45603390D01*
X107251428Y-45603390D02*
X107299047Y-45651009D01*
X107299047Y-45651009D02*
X107346666Y-45746247D01*
X107346666Y-45746247D02*
X107346666Y-45984342D01*
X107346666Y-45984342D02*
X107299047Y-46079580D01*
X107299047Y-46079580D02*
X107251428Y-46127200D01*
X107251428Y-46127200D02*
X107156190Y-46174819D01*
X107156190Y-46174819D02*
X106918095Y-46174819D01*
X106918095Y-46174819D02*
X106822857Y-46127200D01*
X106822857Y-46127200D02*
X106775238Y-46079580D01*
X184348571Y-119430581D02*
X184300952Y-119478201D01*
X184300952Y-119478201D02*
X184158095Y-119525820D01*
X184158095Y-119525820D02*
X184062857Y-119525820D01*
X184062857Y-119525820D02*
X183920000Y-119478201D01*
X183920000Y-119478201D02*
X183824762Y-119382962D01*
X183824762Y-119382962D02*
X183777143Y-119287724D01*
X183777143Y-119287724D02*
X183729524Y-119097248D01*
X183729524Y-119097248D02*
X183729524Y-118954391D01*
X183729524Y-118954391D02*
X183777143Y-118763915D01*
X183777143Y-118763915D02*
X183824762Y-118668677D01*
X183824762Y-118668677D02*
X183920000Y-118573439D01*
X183920000Y-118573439D02*
X184062857Y-118525820D01*
X184062857Y-118525820D02*
X184158095Y-118525820D01*
X184158095Y-118525820D02*
X184300952Y-118573439D01*
X184300952Y-118573439D02*
X184348571Y-118621058D01*
X184920000Y-119525820D02*
X184824762Y-119478201D01*
X184824762Y-119478201D02*
X184777143Y-119430581D01*
X184777143Y-119430581D02*
X184729524Y-119335343D01*
X184729524Y-119335343D02*
X184729524Y-119049629D01*
X184729524Y-119049629D02*
X184777143Y-118954391D01*
X184777143Y-118954391D02*
X184824762Y-118906772D01*
X184824762Y-118906772D02*
X184920000Y-118859153D01*
X184920000Y-118859153D02*
X185062857Y-118859153D01*
X185062857Y-118859153D02*
X185158095Y-118906772D01*
X185158095Y-118906772D02*
X185205714Y-118954391D01*
X185205714Y-118954391D02*
X185253333Y-119049629D01*
X185253333Y-119049629D02*
X185253333Y-119335343D01*
X185253333Y-119335343D02*
X185205714Y-119430581D01*
X185205714Y-119430581D02*
X185158095Y-119478201D01*
X185158095Y-119478201D02*
X185062857Y-119525820D01*
X185062857Y-119525820D02*
X184920000Y-119525820D01*
X185681905Y-118859153D02*
X185681905Y-119525820D01*
X185681905Y-118954391D02*
X185729524Y-118906772D01*
X185729524Y-118906772D02*
X185824762Y-118859153D01*
X185824762Y-118859153D02*
X185967619Y-118859153D01*
X185967619Y-118859153D02*
X186062857Y-118906772D01*
X186062857Y-118906772D02*
X186110476Y-119002010D01*
X186110476Y-119002010D02*
X186110476Y-119525820D01*
X186539048Y-118621058D02*
X186586667Y-118573439D01*
X186586667Y-118573439D02*
X186681905Y-118525820D01*
X186681905Y-118525820D02*
X186920000Y-118525820D01*
X186920000Y-118525820D02*
X187015238Y-118573439D01*
X187015238Y-118573439D02*
X187062857Y-118621058D01*
X187062857Y-118621058D02*
X187110476Y-118716296D01*
X187110476Y-118716296D02*
X187110476Y-118811534D01*
X187110476Y-118811534D02*
X187062857Y-118954391D01*
X187062857Y-118954391D02*
X186491429Y-119525820D01*
X186491429Y-119525820D02*
X187110476Y-119525820D01*
X111523333Y-62428371D02*
X111190000Y-61952180D01*
X110951905Y-62428371D02*
X110951905Y-61428371D01*
X110951905Y-61428371D02*
X111332857Y-61428371D01*
X111332857Y-61428371D02*
X111428095Y-61475990D01*
X111428095Y-61475990D02*
X111475714Y-61523609D01*
X111475714Y-61523609D02*
X111523333Y-61618847D01*
X111523333Y-61618847D02*
X111523333Y-61761704D01*
X111523333Y-61761704D02*
X111475714Y-61856942D01*
X111475714Y-61856942D02*
X111428095Y-61904561D01*
X111428095Y-61904561D02*
X111332857Y-61952180D01*
X111332857Y-61952180D02*
X110951905Y-61952180D01*
X112380476Y-61428371D02*
X112190000Y-61428371D01*
X112190000Y-61428371D02*
X112094762Y-61475990D01*
X112094762Y-61475990D02*
X112047143Y-61523609D01*
X112047143Y-61523609D02*
X111951905Y-61666466D01*
X111951905Y-61666466D02*
X111904286Y-61856942D01*
X111904286Y-61856942D02*
X111904286Y-62237894D01*
X111904286Y-62237894D02*
X111951905Y-62333132D01*
X111951905Y-62333132D02*
X111999524Y-62380752D01*
X111999524Y-62380752D02*
X112094762Y-62428371D01*
X112094762Y-62428371D02*
X112285238Y-62428371D01*
X112285238Y-62428371D02*
X112380476Y-62380752D01*
X112380476Y-62380752D02*
X112428095Y-62333132D01*
X112428095Y-62333132D02*
X112475714Y-62237894D01*
X112475714Y-62237894D02*
X112475714Y-61999799D01*
X112475714Y-61999799D02*
X112428095Y-61904561D01*
X112428095Y-61904561D02*
X112380476Y-61856942D01*
X112380476Y-61856942D02*
X112285238Y-61809323D01*
X112285238Y-61809323D02*
X112094762Y-61809323D01*
X112094762Y-61809323D02*
X111999524Y-61856942D01*
X111999524Y-61856942D02*
X111951905Y-61904561D01*
X111951905Y-61904561D02*
X111904286Y-61999799D01*
X164737142Y-50534819D02*
X164403809Y-50058628D01*
X164165714Y-50534819D02*
X164165714Y-49534819D01*
X164165714Y-49534819D02*
X164546666Y-49534819D01*
X164546666Y-49534819D02*
X164641904Y-49582438D01*
X164641904Y-49582438D02*
X164689523Y-49630057D01*
X164689523Y-49630057D02*
X164737142Y-49725295D01*
X164737142Y-49725295D02*
X164737142Y-49868152D01*
X164737142Y-49868152D02*
X164689523Y-49963390D01*
X164689523Y-49963390D02*
X164641904Y-50011009D01*
X164641904Y-50011009D02*
X164546666Y-50058628D01*
X164546666Y-50058628D02*
X164165714Y-50058628D01*
X165689523Y-50534819D02*
X165118095Y-50534819D01*
X165403809Y-50534819D02*
X165403809Y-49534819D01*
X165403809Y-49534819D02*
X165308571Y-49677676D01*
X165308571Y-49677676D02*
X165213333Y-49772914D01*
X165213333Y-49772914D02*
X165118095Y-49820533D01*
X166308571Y-49534819D02*
X166403809Y-49534819D01*
X166403809Y-49534819D02*
X166499047Y-49582438D01*
X166499047Y-49582438D02*
X166546666Y-49630057D01*
X166546666Y-49630057D02*
X166594285Y-49725295D01*
X166594285Y-49725295D02*
X166641904Y-49915771D01*
X166641904Y-49915771D02*
X166641904Y-50153866D01*
X166641904Y-50153866D02*
X166594285Y-50344342D01*
X166594285Y-50344342D02*
X166546666Y-50439580D01*
X166546666Y-50439580D02*
X166499047Y-50487200D01*
X166499047Y-50487200D02*
X166403809Y-50534819D01*
X166403809Y-50534819D02*
X166308571Y-50534819D01*
X166308571Y-50534819D02*
X166213333Y-50487200D01*
X166213333Y-50487200D02*
X166165714Y-50439580D01*
X166165714Y-50439580D02*
X166118095Y-50344342D01*
X166118095Y-50344342D02*
X166070476Y-50153866D01*
X166070476Y-50153866D02*
X166070476Y-49915771D01*
X166070476Y-49915771D02*
X166118095Y-49725295D01*
X166118095Y-49725295D02*
X166165714Y-49630057D01*
X166165714Y-49630057D02*
X166213333Y-49582438D01*
X166213333Y-49582438D02*
X166308571Y-49534819D01*
X82446952Y-60398819D02*
X81970762Y-60398819D01*
X81970762Y-60398819D02*
X81970762Y-59398819D01*
X82780286Y-59875009D02*
X83113619Y-59875009D01*
X83256476Y-60398819D02*
X82780286Y-60398819D01*
X82780286Y-60398819D02*
X82780286Y-59398819D01*
X82780286Y-59398819D02*
X83256476Y-59398819D01*
X83685048Y-60398819D02*
X83685048Y-59398819D01*
X83685048Y-59398819D02*
X83923143Y-59398819D01*
X83923143Y-59398819D02*
X84066000Y-59446438D01*
X84066000Y-59446438D02*
X84161238Y-59541676D01*
X84161238Y-59541676D02*
X84208857Y-59636914D01*
X84208857Y-59636914D02*
X84256476Y-59827390D01*
X84256476Y-59827390D02*
X84256476Y-59970247D01*
X84256476Y-59970247D02*
X84208857Y-60160723D01*
X84208857Y-60160723D02*
X84161238Y-60255961D01*
X84161238Y-60255961D02*
X84066000Y-60351200D01*
X84066000Y-60351200D02*
X83923143Y-60398819D01*
X83923143Y-60398819D02*
X83685048Y-60398819D01*
X84589810Y-59398819D02*
X85256476Y-59398819D01*
X85256476Y-59398819D02*
X84827905Y-60398819D01*
X162964952Y-60144819D02*
X162488762Y-60144819D01*
X162488762Y-60144819D02*
X162488762Y-59144819D01*
X163298286Y-59621009D02*
X163631619Y-59621009D01*
X163774476Y-60144819D02*
X163298286Y-60144819D01*
X163298286Y-60144819D02*
X163298286Y-59144819D01*
X163298286Y-59144819D02*
X163774476Y-59144819D01*
X164203048Y-60144819D02*
X164203048Y-59144819D01*
X164203048Y-59144819D02*
X164441143Y-59144819D01*
X164441143Y-59144819D02*
X164584000Y-59192438D01*
X164584000Y-59192438D02*
X164679238Y-59287676D01*
X164679238Y-59287676D02*
X164726857Y-59382914D01*
X164726857Y-59382914D02*
X164774476Y-59573390D01*
X164774476Y-59573390D02*
X164774476Y-59716247D01*
X164774476Y-59716247D02*
X164726857Y-59906723D01*
X164726857Y-59906723D02*
X164679238Y-60001961D01*
X164679238Y-60001961D02*
X164584000Y-60097200D01*
X164584000Y-60097200D02*
X164441143Y-60144819D01*
X164441143Y-60144819D02*
X164203048Y-60144819D01*
X165107810Y-59144819D02*
X165726857Y-59144819D01*
X165726857Y-59144819D02*
X165393524Y-59525771D01*
X165393524Y-59525771D02*
X165536381Y-59525771D01*
X165536381Y-59525771D02*
X165631619Y-59573390D01*
X165631619Y-59573390D02*
X165679238Y-59621009D01*
X165679238Y-59621009D02*
X165726857Y-59716247D01*
X165726857Y-59716247D02*
X165726857Y-59954342D01*
X165726857Y-59954342D02*
X165679238Y-60049580D01*
X165679238Y-60049580D02*
X165631619Y-60097200D01*
X165631619Y-60097200D02*
X165536381Y-60144819D01*
X165536381Y-60144819D02*
X165250667Y-60144819D01*
X165250667Y-60144819D02*
X165155429Y-60097200D01*
X165155429Y-60097200D02*
X165107810Y-60049580D01*
X84558096Y-78653632D02*
X84558096Y-79653632D01*
X83986668Y-78653632D02*
X84415239Y-79225061D01*
X83986668Y-79653632D02*
X84558096Y-79082204D01*
X83653334Y-79653632D02*
X82986668Y-79653632D01*
X82986668Y-79653632D02*
X83415239Y-78653632D01*
X203096952Y-60144819D02*
X202620762Y-60144819D01*
X202620762Y-60144819D02*
X202620762Y-59144819D01*
X203430286Y-59621009D02*
X203763619Y-59621009D01*
X203906476Y-60144819D02*
X203430286Y-60144819D01*
X203430286Y-60144819D02*
X203430286Y-59144819D01*
X203430286Y-59144819D02*
X203906476Y-59144819D01*
X204335048Y-60144819D02*
X204335048Y-59144819D01*
X204335048Y-59144819D02*
X204573143Y-59144819D01*
X204573143Y-59144819D02*
X204716000Y-59192438D01*
X204716000Y-59192438D02*
X204811238Y-59287676D01*
X204811238Y-59287676D02*
X204858857Y-59382914D01*
X204858857Y-59382914D02*
X204906476Y-59573390D01*
X204906476Y-59573390D02*
X204906476Y-59716247D01*
X204906476Y-59716247D02*
X204858857Y-59906723D01*
X204858857Y-59906723D02*
X204811238Y-60001961D01*
X204811238Y-60001961D02*
X204716000Y-60097200D01*
X204716000Y-60097200D02*
X204573143Y-60144819D01*
X204573143Y-60144819D02*
X204335048Y-60144819D01*
X205858857Y-60144819D02*
X205287429Y-60144819D01*
X205573143Y-60144819D02*
X205573143Y-59144819D01*
X205573143Y-59144819D02*
X205477905Y-59287676D01*
X205477905Y-59287676D02*
X205382667Y-59382914D01*
X205382667Y-59382914D02*
X205287429Y-59430533D01*
X134921666Y-44895511D02*
X134588333Y-44895511D01*
X134588333Y-45419321D02*
X134588333Y-44419321D01*
X134588333Y-44419321D02*
X135064523Y-44419321D01*
X135635952Y-44419321D02*
X135731190Y-44419321D01*
X135731190Y-44419321D02*
X135826428Y-44466940D01*
X135826428Y-44466940D02*
X135874047Y-44514559D01*
X135874047Y-44514559D02*
X135921666Y-44609797D01*
X135921666Y-44609797D02*
X135969285Y-44800273D01*
X135969285Y-44800273D02*
X135969285Y-45038368D01*
X135969285Y-45038368D02*
X135921666Y-45228844D01*
X135921666Y-45228844D02*
X135874047Y-45324082D01*
X135874047Y-45324082D02*
X135826428Y-45371702D01*
X135826428Y-45371702D02*
X135731190Y-45419321D01*
X135731190Y-45419321D02*
X135635952Y-45419321D01*
X135635952Y-45419321D02*
X135540714Y-45371702D01*
X135540714Y-45371702D02*
X135493095Y-45324082D01*
X135493095Y-45324082D02*
X135445476Y-45228844D01*
X135445476Y-45228844D02*
X135397857Y-45038368D01*
X135397857Y-45038368D02*
X135397857Y-44800273D01*
X135397857Y-44800273D02*
X135445476Y-44609797D01*
X135445476Y-44609797D02*
X135493095Y-44514559D01*
X135493095Y-44514559D02*
X135540714Y-44466940D01*
X135540714Y-44466940D02*
X135635952Y-44419321D01*
X177710180Y-50552597D02*
X176900657Y-50552597D01*
X176900657Y-50552597D02*
X176805419Y-50600216D01*
X176805419Y-50600216D02*
X176757800Y-50647835D01*
X176757800Y-50647835D02*
X176710180Y-50743073D01*
X176710180Y-50743073D02*
X176710180Y-50933549D01*
X176710180Y-50933549D02*
X176757800Y-51028787D01*
X176757800Y-51028787D02*
X176805419Y-51076406D01*
X176805419Y-51076406D02*
X176900657Y-51124025D01*
X176900657Y-51124025D02*
X177710180Y-51124025D01*
X177710180Y-51504978D02*
X177710180Y-52124025D01*
X177710180Y-52124025D02*
X177329228Y-51790692D01*
X177329228Y-51790692D02*
X177329228Y-51933549D01*
X177329228Y-51933549D02*
X177281609Y-52028787D01*
X177281609Y-52028787D02*
X177233990Y-52076406D01*
X177233990Y-52076406D02*
X177138752Y-52124025D01*
X177138752Y-52124025D02*
X176900657Y-52124025D01*
X176900657Y-52124025D02*
X176805419Y-52076406D01*
X176805419Y-52076406D02*
X176757800Y-52028787D01*
X176757800Y-52028787D02*
X176710180Y-51933549D01*
X176710180Y-51933549D02*
X176710180Y-51647835D01*
X176710180Y-51647835D02*
X176757800Y-51552597D01*
X176757800Y-51552597D02*
X176805419Y-51504978D01*
X184888980Y-39721635D02*
X185888980Y-39721635D01*
X185888980Y-39721635D02*
X185888980Y-39959730D01*
X185888980Y-39959730D02*
X185841361Y-40102587D01*
X185841361Y-40102587D02*
X185746123Y-40197825D01*
X185746123Y-40197825D02*
X185650885Y-40245444D01*
X185650885Y-40245444D02*
X185460409Y-40293063D01*
X185460409Y-40293063D02*
X185317552Y-40293063D01*
X185317552Y-40293063D02*
X185127076Y-40245444D01*
X185127076Y-40245444D02*
X185031838Y-40197825D01*
X185031838Y-40197825D02*
X184936600Y-40102587D01*
X184936600Y-40102587D02*
X184888980Y-39959730D01*
X184888980Y-39959730D02*
X184888980Y-39721635D01*
X184936600Y-41102587D02*
X184888980Y-41007349D01*
X184888980Y-41007349D02*
X184888980Y-40816873D01*
X184888980Y-40816873D02*
X184936600Y-40721635D01*
X184936600Y-40721635D02*
X185031838Y-40674016D01*
X185031838Y-40674016D02*
X185412790Y-40674016D01*
X185412790Y-40674016D02*
X185508028Y-40721635D01*
X185508028Y-40721635D02*
X185555647Y-40816873D01*
X185555647Y-40816873D02*
X185555647Y-41007349D01*
X185555647Y-41007349D02*
X185508028Y-41102587D01*
X185508028Y-41102587D02*
X185412790Y-41150206D01*
X185412790Y-41150206D02*
X185317552Y-41150206D01*
X185317552Y-41150206D02*
X185222314Y-40674016D01*
X184936600Y-41531159D02*
X184888980Y-41626397D01*
X184888980Y-41626397D02*
X184888980Y-41816873D01*
X184888980Y-41816873D02*
X184936600Y-41912111D01*
X184936600Y-41912111D02*
X185031838Y-41959730D01*
X185031838Y-41959730D02*
X185079457Y-41959730D01*
X185079457Y-41959730D02*
X185174695Y-41912111D01*
X185174695Y-41912111D02*
X185222314Y-41816873D01*
X185222314Y-41816873D02*
X185222314Y-41674016D01*
X185222314Y-41674016D02*
X185269933Y-41578778D01*
X185269933Y-41578778D02*
X185365171Y-41531159D01*
X185365171Y-41531159D02*
X185412790Y-41531159D01*
X185412790Y-41531159D02*
X185508028Y-41578778D01*
X185508028Y-41578778D02*
X185555647Y-41674016D01*
X185555647Y-41674016D02*
X185555647Y-41816873D01*
X185555647Y-41816873D02*
X185508028Y-41912111D01*
X184888980Y-42388302D02*
X185555647Y-42388302D01*
X185888980Y-42388302D02*
X185841361Y-42340683D01*
X185841361Y-42340683D02*
X185793742Y-42388302D01*
X185793742Y-42388302D02*
X185841361Y-42435921D01*
X185841361Y-42435921D02*
X185888980Y-42388302D01*
X185888980Y-42388302D02*
X185793742Y-42388302D01*
X185555647Y-43293063D02*
X184746123Y-43293063D01*
X184746123Y-43293063D02*
X184650885Y-43245444D01*
X184650885Y-43245444D02*
X184603266Y-43197825D01*
X184603266Y-43197825D02*
X184555647Y-43102587D01*
X184555647Y-43102587D02*
X184555647Y-42959730D01*
X184555647Y-42959730D02*
X184603266Y-42864492D01*
X184936600Y-43293063D02*
X184888980Y-43197825D01*
X184888980Y-43197825D02*
X184888980Y-43007349D01*
X184888980Y-43007349D02*
X184936600Y-42912111D01*
X184936600Y-42912111D02*
X184984219Y-42864492D01*
X184984219Y-42864492D02*
X185079457Y-42816873D01*
X185079457Y-42816873D02*
X185365171Y-42816873D01*
X185365171Y-42816873D02*
X185460409Y-42864492D01*
X185460409Y-42864492D02*
X185508028Y-42912111D01*
X185508028Y-42912111D02*
X185555647Y-43007349D01*
X185555647Y-43007349D02*
X185555647Y-43197825D01*
X185555647Y-43197825D02*
X185508028Y-43293063D01*
X185555647Y-43769254D02*
X184888980Y-43769254D01*
X185460409Y-43769254D02*
X185508028Y-43816873D01*
X185508028Y-43816873D02*
X185555647Y-43912111D01*
X185555647Y-43912111D02*
X185555647Y-44054968D01*
X185555647Y-44054968D02*
X185508028Y-44150206D01*
X185508028Y-44150206D02*
X185412790Y-44197825D01*
X185412790Y-44197825D02*
X184888980Y-44197825D01*
X184888980Y-45102587D02*
X185412790Y-45102587D01*
X185412790Y-45102587D02*
X185508028Y-45054968D01*
X185508028Y-45054968D02*
X185555647Y-44959730D01*
X185555647Y-44959730D02*
X185555647Y-44769254D01*
X185555647Y-44769254D02*
X185508028Y-44674016D01*
X184936600Y-45102587D02*
X184888980Y-45007349D01*
X184888980Y-45007349D02*
X184888980Y-44769254D01*
X184888980Y-44769254D02*
X184936600Y-44674016D01*
X184936600Y-44674016D02*
X185031838Y-44626397D01*
X185031838Y-44626397D02*
X185127076Y-44626397D01*
X185127076Y-44626397D02*
X185222314Y-44674016D01*
X185222314Y-44674016D02*
X185269933Y-44769254D01*
X185269933Y-44769254D02*
X185269933Y-45007349D01*
X185269933Y-45007349D02*
X185317552Y-45102587D01*
X185555647Y-45435921D02*
X185555647Y-45816873D01*
X185888980Y-45578778D02*
X185031838Y-45578778D01*
X185031838Y-45578778D02*
X184936600Y-45626397D01*
X184936600Y-45626397D02*
X184888980Y-45721635D01*
X184888980Y-45721635D02*
X184888980Y-45816873D01*
X184888980Y-46293064D02*
X184936600Y-46197826D01*
X184936600Y-46197826D02*
X184984219Y-46150207D01*
X184984219Y-46150207D02*
X185079457Y-46102588D01*
X185079457Y-46102588D02*
X185365171Y-46102588D01*
X185365171Y-46102588D02*
X185460409Y-46150207D01*
X185460409Y-46150207D02*
X185508028Y-46197826D01*
X185508028Y-46197826D02*
X185555647Y-46293064D01*
X185555647Y-46293064D02*
X185555647Y-46435921D01*
X185555647Y-46435921D02*
X185508028Y-46531159D01*
X185508028Y-46531159D02*
X185460409Y-46578778D01*
X185460409Y-46578778D02*
X185365171Y-46626397D01*
X185365171Y-46626397D02*
X185079457Y-46626397D01*
X185079457Y-46626397D02*
X184984219Y-46578778D01*
X184984219Y-46578778D02*
X184936600Y-46531159D01*
X184936600Y-46531159D02*
X184888980Y-46435921D01*
X184888980Y-46435921D02*
X184888980Y-46293064D01*
X184888980Y-47054969D02*
X185555647Y-47054969D01*
X185365171Y-47054969D02*
X185460409Y-47102588D01*
X185460409Y-47102588D02*
X185508028Y-47150207D01*
X185508028Y-47150207D02*
X185555647Y-47245445D01*
X185555647Y-47245445D02*
X185555647Y-47340683D01*
X185888980Y-48150207D02*
X185888980Y-47674017D01*
X185888980Y-47674017D02*
X185412790Y-47626398D01*
X185412790Y-47626398D02*
X185460409Y-47674017D01*
X185460409Y-47674017D02*
X185508028Y-47769255D01*
X185508028Y-47769255D02*
X185508028Y-48007350D01*
X185508028Y-48007350D02*
X185460409Y-48102588D01*
X185460409Y-48102588D02*
X185412790Y-48150207D01*
X185412790Y-48150207D02*
X185317552Y-48197826D01*
X185317552Y-48197826D02*
X185079457Y-48197826D01*
X185079457Y-48197826D02*
X184984219Y-48150207D01*
X184984219Y-48150207D02*
X184936600Y-48102588D01*
X184936600Y-48102588D02*
X184888980Y-48007350D01*
X184888980Y-48007350D02*
X184888980Y-47769255D01*
X184888980Y-47769255D02*
X184936600Y-47674017D01*
X184936600Y-47674017D02*
X184984219Y-47626398D01*
X185555647Y-49054969D02*
X184888980Y-49054969D01*
X185936600Y-48816874D02*
X185222314Y-48578779D01*
X185222314Y-48578779D02*
X185222314Y-49197826D01*
X185888980Y-49483541D02*
X185888980Y-50102588D01*
X185888980Y-50102588D02*
X185508028Y-49769255D01*
X185508028Y-49769255D02*
X185508028Y-49912112D01*
X185508028Y-49912112D02*
X185460409Y-50007350D01*
X185460409Y-50007350D02*
X185412790Y-50054969D01*
X185412790Y-50054969D02*
X185317552Y-50102588D01*
X185317552Y-50102588D02*
X185079457Y-50102588D01*
X185079457Y-50102588D02*
X184984219Y-50054969D01*
X184984219Y-50054969D02*
X184936600Y-50007350D01*
X184936600Y-50007350D02*
X184888980Y-49912112D01*
X184888980Y-49912112D02*
X184888980Y-49626398D01*
X184888980Y-49626398D02*
X184936600Y-49531160D01*
X184936600Y-49531160D02*
X184984219Y-49483541D01*
X62428573Y-119430581D02*
X62380954Y-119478201D01*
X62380954Y-119478201D02*
X62238097Y-119525820D01*
X62238097Y-119525820D02*
X62142859Y-119525820D01*
X62142859Y-119525820D02*
X62000002Y-119478201D01*
X62000002Y-119478201D02*
X61904764Y-119382962D01*
X61904764Y-119382962D02*
X61857145Y-119287724D01*
X61857145Y-119287724D02*
X61809526Y-119097248D01*
X61809526Y-119097248D02*
X61809526Y-118954391D01*
X61809526Y-118954391D02*
X61857145Y-118763915D01*
X61857145Y-118763915D02*
X61904764Y-118668677D01*
X61904764Y-118668677D02*
X62000002Y-118573439D01*
X62000002Y-118573439D02*
X62142859Y-118525820D01*
X62142859Y-118525820D02*
X62238097Y-118525820D01*
X62238097Y-118525820D02*
X62380954Y-118573439D01*
X62380954Y-118573439D02*
X62428573Y-118621058D01*
X63000002Y-119525820D02*
X62904764Y-119478201D01*
X62904764Y-119478201D02*
X62857145Y-119430581D01*
X62857145Y-119430581D02*
X62809526Y-119335343D01*
X62809526Y-119335343D02*
X62809526Y-119049629D01*
X62809526Y-119049629D02*
X62857145Y-118954391D01*
X62857145Y-118954391D02*
X62904764Y-118906772D01*
X62904764Y-118906772D02*
X63000002Y-118859153D01*
X63000002Y-118859153D02*
X63142859Y-118859153D01*
X63142859Y-118859153D02*
X63238097Y-118906772D01*
X63238097Y-118906772D02*
X63285716Y-118954391D01*
X63285716Y-118954391D02*
X63333335Y-119049629D01*
X63333335Y-119049629D02*
X63333335Y-119335343D01*
X63333335Y-119335343D02*
X63285716Y-119430581D01*
X63285716Y-119430581D02*
X63238097Y-119478201D01*
X63238097Y-119478201D02*
X63142859Y-119525820D01*
X63142859Y-119525820D02*
X63000002Y-119525820D01*
X63761907Y-118859153D02*
X63761907Y-119525820D01*
X63761907Y-118954391D02*
X63809526Y-118906772D01*
X63809526Y-118906772D02*
X63904764Y-118859153D01*
X63904764Y-118859153D02*
X64047621Y-118859153D01*
X64047621Y-118859153D02*
X64142859Y-118906772D01*
X64142859Y-118906772D02*
X64190478Y-119002010D01*
X64190478Y-119002010D02*
X64190478Y-119525820D01*
X64809526Y-118954391D02*
X64714288Y-118906772D01*
X64714288Y-118906772D02*
X64666669Y-118859153D01*
X64666669Y-118859153D02*
X64619050Y-118763915D01*
X64619050Y-118763915D02*
X64619050Y-118716296D01*
X64619050Y-118716296D02*
X64666669Y-118621058D01*
X64666669Y-118621058D02*
X64714288Y-118573439D01*
X64714288Y-118573439D02*
X64809526Y-118525820D01*
X64809526Y-118525820D02*
X65000002Y-118525820D01*
X65000002Y-118525820D02*
X65095240Y-118573439D01*
X65095240Y-118573439D02*
X65142859Y-118621058D01*
X65142859Y-118621058D02*
X65190478Y-118716296D01*
X65190478Y-118716296D02*
X65190478Y-118763915D01*
X65190478Y-118763915D02*
X65142859Y-118859153D01*
X65142859Y-118859153D02*
X65095240Y-118906772D01*
X65095240Y-118906772D02*
X65000002Y-118954391D01*
X65000002Y-118954391D02*
X64809526Y-118954391D01*
X64809526Y-118954391D02*
X64714288Y-119002010D01*
X64714288Y-119002010D02*
X64666669Y-119049629D01*
X64666669Y-119049629D02*
X64619050Y-119144867D01*
X64619050Y-119144867D02*
X64619050Y-119335343D01*
X64619050Y-119335343D02*
X64666669Y-119430581D01*
X64666669Y-119430581D02*
X64714288Y-119478201D01*
X64714288Y-119478201D02*
X64809526Y-119525820D01*
X64809526Y-119525820D02*
X65000002Y-119525820D01*
X65000002Y-119525820D02*
X65095240Y-119478201D01*
X65095240Y-119478201D02*
X65142859Y-119430581D01*
X65142859Y-119430581D02*
X65190478Y-119335343D01*
X65190478Y-119335343D02*
X65190478Y-119144867D01*
X65190478Y-119144867D02*
X65142859Y-119049629D01*
X65142859Y-119049629D02*
X65095240Y-119002010D01*
X65095240Y-119002010D02*
X65000002Y-118954391D01*
X122832952Y-60144819D02*
X122356762Y-60144819D01*
X122356762Y-60144819D02*
X122356762Y-59144819D01*
X123166286Y-59621009D02*
X123499619Y-59621009D01*
X123642476Y-60144819D02*
X123166286Y-60144819D01*
X123166286Y-60144819D02*
X123166286Y-59144819D01*
X123166286Y-59144819D02*
X123642476Y-59144819D01*
X124071048Y-60144819D02*
X124071048Y-59144819D01*
X124071048Y-59144819D02*
X124309143Y-59144819D01*
X124309143Y-59144819D02*
X124452000Y-59192438D01*
X124452000Y-59192438D02*
X124547238Y-59287676D01*
X124547238Y-59287676D02*
X124594857Y-59382914D01*
X124594857Y-59382914D02*
X124642476Y-59573390D01*
X124642476Y-59573390D02*
X124642476Y-59716247D01*
X124642476Y-59716247D02*
X124594857Y-59906723D01*
X124594857Y-59906723D02*
X124547238Y-60001961D01*
X124547238Y-60001961D02*
X124452000Y-60097200D01*
X124452000Y-60097200D02*
X124309143Y-60144819D01*
X124309143Y-60144819D02*
X124071048Y-60144819D01*
X125547238Y-59144819D02*
X125071048Y-59144819D01*
X125071048Y-59144819D02*
X125023429Y-59621009D01*
X125023429Y-59621009D02*
X125071048Y-59573390D01*
X125071048Y-59573390D02*
X125166286Y-59525771D01*
X125166286Y-59525771D02*
X125404381Y-59525771D01*
X125404381Y-59525771D02*
X125499619Y-59573390D01*
X125499619Y-59573390D02*
X125547238Y-59621009D01*
X125547238Y-59621009D02*
X125594857Y-59716247D01*
X125594857Y-59716247D02*
X125594857Y-59954342D01*
X125594857Y-59954342D02*
X125547238Y-60049580D01*
X125547238Y-60049580D02*
X125499619Y-60097200D01*
X125499619Y-60097200D02*
X125404381Y-60144819D01*
X125404381Y-60144819D02*
X125166286Y-60144819D01*
X125166286Y-60144819D02*
X125071048Y-60097200D01*
X125071048Y-60097200D02*
X125023429Y-60049580D01*
X104878096Y-78653632D02*
X104878096Y-79653632D01*
X104306668Y-78653632D02*
X104735239Y-79225061D01*
X104306668Y-79653632D02*
X104878096Y-79082204D01*
X103449525Y-79653632D02*
X103640001Y-79653632D01*
X103640001Y-79653632D02*
X103735239Y-79606013D01*
X103735239Y-79606013D02*
X103782858Y-79558394D01*
X103782858Y-79558394D02*
X103878096Y-79415537D01*
X103878096Y-79415537D02*
X103925715Y-79225061D01*
X103925715Y-79225061D02*
X103925715Y-78844109D01*
X103925715Y-78844109D02*
X103878096Y-78748871D01*
X103878096Y-78748871D02*
X103830477Y-78701252D01*
X103830477Y-78701252D02*
X103735239Y-78653632D01*
X103735239Y-78653632D02*
X103544763Y-78653632D01*
X103544763Y-78653632D02*
X103449525Y-78701252D01*
X103449525Y-78701252D02*
X103401906Y-78748871D01*
X103401906Y-78748871D02*
X103354287Y-78844109D01*
X103354287Y-78844109D02*
X103354287Y-79082204D01*
X103354287Y-79082204D02*
X103401906Y-79177442D01*
X103401906Y-79177442D02*
X103449525Y-79225061D01*
X103449525Y-79225061D02*
X103544763Y-79272680D01*
X103544763Y-79272680D02*
X103735239Y-79272680D01*
X103735239Y-79272680D02*
X103830477Y-79225061D01*
X103830477Y-79225061D02*
X103878096Y-79177442D01*
X103878096Y-79177442D02*
X103925715Y-79082204D01*
X217678095Y-120714819D02*
X217678095Y-119714819D01*
X217678095Y-120191009D02*
X218249523Y-120191009D01*
X218249523Y-120714819D02*
X218249523Y-119714819D01*
X219154285Y-120048152D02*
X219154285Y-120714819D01*
X218916190Y-119667200D02*
X218678095Y-120381485D01*
X218678095Y-120381485D02*
X219297142Y-120381485D01*
X217678095Y-41974819D02*
X217678095Y-40974819D01*
X217678095Y-41451009D02*
X218249523Y-41451009D01*
X218249523Y-41974819D02*
X218249523Y-40974819D01*
X218678095Y-41070057D02*
X218725714Y-41022438D01*
X218725714Y-41022438D02*
X218820952Y-40974819D01*
X218820952Y-40974819D02*
X219059047Y-40974819D01*
X219059047Y-40974819D02*
X219154285Y-41022438D01*
X219154285Y-41022438D02*
X219201904Y-41070057D01*
X219201904Y-41070057D02*
X219249523Y-41165295D01*
X219249523Y-41165295D02*
X219249523Y-41260533D01*
X219249523Y-41260533D02*
X219201904Y-41403390D01*
X219201904Y-41403390D02*
X218630476Y-41974819D01*
X218630476Y-41974819D02*
X219249523Y-41974819D01*
D12*
%TO.C,K5*%
X116281202Y-69281442D02*
X116281202Y-89042642D01*
X116281202Y-89042642D02*
X132638802Y-89042642D01*
X132638802Y-69281442D02*
X116281202Y-69281442D01*
X132638802Y-89042642D02*
X132638802Y-69281442D01*
D13*
X134797802Y-85208451D02*
G75*
G02*
X134035802Y-85208451I-381000J0D01*
G01*
X134035802Y-85208451D02*
G75*
G02*
X134797802Y-85208451I381000J0D01*
G01*
D12*
%TO.C,K8*%
X55321202Y-69281442D02*
X55321202Y-89042642D01*
X55321202Y-89042642D02*
X71678802Y-89042642D01*
X71678802Y-69281442D02*
X55321202Y-69281442D01*
X71678802Y-89042642D02*
X71678802Y-69281442D01*
D13*
X73837802Y-85208451D02*
G75*
G02*
X73075802Y-85208451I-381000J0D01*
G01*
X73075802Y-85208451D02*
G75*
G02*
X73837802Y-85208451I381000J0D01*
G01*
D14*
%TO.C,LED6*%
X106350000Y-65338552D02*
X106350000Y-62248552D01*
X100800000Y-63794014D02*
G75*
G02*
X106350000Y-62248722I2990000J462D01*
G01*
X106350000Y-65338382D02*
G75*
G02*
X100800000Y-63793090I-2560000J1544830D01*
G01*
X106290000Y-63793552D02*
G75*
G02*
X101290000Y-63793552I-2500000J0D01*
G01*
X101290000Y-63793552D02*
G75*
G02*
X106290000Y-63793552I2500000J0D01*
G01*
D12*
%TO.C,Con4*%
X136029700Y-116944001D02*
X136029700Y-129186800D01*
X136029700Y-129186800D02*
X153530300Y-129186800D01*
X153530300Y-116944001D02*
X136029700Y-116944001D01*
X153530300Y-129186800D02*
X153530300Y-116944001D01*
D13*
X134632700Y-119071001D02*
G75*
G02*
X133870700Y-119071001I-381000J0D01*
G01*
X133870700Y-119071001D02*
G75*
G02*
X134632700Y-119071001I381000J0D01*
G01*
D15*
%TO.C,F2*%
X180620000Y-91651001D02*
X190220000Y-91651001D01*
X180620000Y-116251001D02*
X180620000Y-91651001D01*
X190220000Y-91651001D02*
X190220000Y-116251001D01*
X190220000Y-116251001D02*
X180620000Y-116251001D01*
D14*
%TO.C,J2*%
X161730000Y-41800000D02*
X161730000Y-44300000D01*
X161730000Y-44300000D02*
X162780000Y-44300000D01*
X166780000Y-39830000D02*
X162900000Y-39830000D01*
X166900000Y-44300000D02*
X166900000Y-45290000D01*
X167950000Y-41800000D02*
X167950000Y-44300000D01*
X167950000Y-44300000D02*
X166900000Y-44300000D01*
%TO.C,LED4*%
X146989998Y-65338552D02*
X146989998Y-62248552D01*
X141439998Y-63794014D02*
G75*
G02*
X146989998Y-62248722I2990000J462D01*
G01*
X146989998Y-65338382D02*
G75*
G02*
X141439998Y-63793090I-2560000J1544830D01*
G01*
X146929998Y-63793552D02*
G75*
G02*
X141929998Y-63793552I-2500000J0D01*
G01*
X141929998Y-63793552D02*
G75*
G02*
X146929998Y-63793552I2500000J0D01*
G01*
%TO.C,R4*%
X151602934Y-62883552D02*
X153057062Y-62883552D01*
X151602934Y-64703552D02*
X153057062Y-64703552D01*
D15*
%TO.C,F3*%
X160300002Y-91651001D02*
X169900002Y-91651001D01*
X160300002Y-116251001D02*
X160300002Y-91651001D01*
X169900002Y-91651001D02*
X169900002Y-116251001D01*
X169900002Y-116251001D02*
X160300002Y-116251001D01*
D14*
%TO.C,D1*%
X205540000Y-48080000D02*
X205540000Y-53520000D01*
X205540000Y-52500000D02*
X208480000Y-52500000D01*
X205540000Y-52620000D02*
X208480000Y-52620000D01*
X205540000Y-52740000D02*
X208480000Y-52740000D01*
X205540000Y-53520000D02*
X208480000Y-53520000D01*
X207010000Y-45590000D02*
X207010000Y-48080000D01*
X207010000Y-56010000D02*
X207010000Y-53520000D01*
X208480000Y-48080000D02*
X205540000Y-48080000D01*
X208480000Y-53520000D02*
X208480000Y-48080000D01*
%TO.C,R8*%
X70322936Y-62883552D02*
X71777064Y-62883552D01*
X70322936Y-64703552D02*
X71777064Y-64703552D01*
D12*
%TO.C,Con5*%
X115709702Y-116944001D02*
X115709702Y-129186800D01*
X115709702Y-129186800D02*
X133210302Y-129186800D01*
X133210302Y-116944001D02*
X115709702Y-116944001D01*
X133210302Y-129186800D02*
X133210302Y-116944001D01*
D13*
X114312702Y-119071001D02*
G75*
G02*
X113550702Y-119071001I-381000J0D01*
G01*
X113550702Y-119071001D02*
G75*
G02*
X114312702Y-119071001I381000J0D01*
G01*
D15*
%TO.C,F6*%
X99340002Y-91651001D02*
X108940002Y-91651001D01*
X99340002Y-116251001D02*
X99340002Y-91651001D01*
X108940002Y-91651001D02*
X108940002Y-116251001D01*
X108940002Y-116251001D02*
X99340002Y-116251001D01*
D14*
%TO.C,R9*%
X148950000Y-43425064D02*
X148950000Y-41970936D01*
X150770000Y-43425064D02*
X150770000Y-41970936D01*
%TO.C,LED0*%
X151080000Y-54885000D02*
X151080000Y-51795000D01*
X145530000Y-53340462D02*
G75*
G02*
X151080000Y-51795170I2990000J462D01*
G01*
X151080000Y-54884830D02*
G75*
G02*
X145530000Y-53339538I-2560000J1544830D01*
G01*
X151020000Y-53340000D02*
G75*
G02*
X146020000Y-53340000I-2500000J0D01*
G01*
X146020000Y-53340000D02*
G75*
G02*
X151020000Y-53340000I2500000J0D01*
G01*
%TO.C,R7*%
X90642936Y-62883552D02*
X92097064Y-62883552D01*
X90642936Y-64703552D02*
X92097064Y-64703552D01*
D15*
%TO.C,F8*%
X58700002Y-91651001D02*
X68300002Y-91651001D01*
X58700002Y-116251001D02*
X58700002Y-91651001D01*
X68300002Y-91651001D02*
X68300002Y-116251001D01*
X68300002Y-116251001D02*
X58700002Y-116251001D01*
D12*
%TO.C,Con6*%
X95389702Y-116944001D02*
X95389702Y-129186800D01*
X95389702Y-129186800D02*
X112890302Y-129186800D01*
X112890302Y-116944001D02*
X95389702Y-116944001D01*
X112890302Y-129186800D02*
X112890302Y-116944001D01*
D13*
X93992702Y-119071001D02*
G75*
G02*
X93230702Y-119071001I-381000J0D01*
G01*
X93230702Y-119071001D02*
G75*
G02*
X93992702Y-119071001I381000J0D01*
G01*
D12*
%TO.C,Con3*%
X156349702Y-116944001D02*
X156349702Y-129186800D01*
X156349702Y-129186800D02*
X173850302Y-129186800D01*
X173850302Y-116944001D02*
X156349702Y-116944001D01*
X173850302Y-129186800D02*
X173850302Y-116944001D01*
D13*
X154952702Y-119071001D02*
G75*
G02*
X154190702Y-119071001I-381000J0D01*
G01*
X154190702Y-119071001D02*
G75*
G02*
X154952702Y-119071001I381000J0D01*
G01*
D12*
%TO.C,K1*%
X196641202Y-69281442D02*
X196641202Y-89042642D01*
X196641202Y-89042642D02*
X212998802Y-89042642D01*
X212998802Y-69281442D02*
X196641202Y-69281442D01*
X212998802Y-89042642D02*
X212998802Y-69281442D01*
D13*
X215157802Y-85208451D02*
G75*
G02*
X214395802Y-85208451I-381000J0D01*
G01*
X214395802Y-85208451D02*
G75*
G02*
X215157802Y-85208451I381000J0D01*
G01*
D15*
%TO.C,F1*%
X200020002Y-91651001D02*
X209620002Y-91651001D01*
X200020002Y-116251001D02*
X200020002Y-91651001D01*
X209620002Y-91651001D02*
X209620002Y-116251001D01*
X209620002Y-116251001D02*
X200020002Y-116251001D01*
D14*
%TO.C,C1*%
X141686233Y-52195000D02*
X141978767Y-52195000D01*
X141686233Y-53215000D02*
X141978767Y-53215000D01*
D12*
%TO.C,K3*%
X156921202Y-69281442D02*
X156921202Y-89042642D01*
X156921202Y-89042642D02*
X173278802Y-89042642D01*
X173278802Y-69281442D02*
X156921202Y-69281442D01*
X173278802Y-89042642D02*
X173278802Y-69281442D01*
D13*
X175437802Y-85208451D02*
G75*
G02*
X174675802Y-85208451I-381000J0D01*
G01*
X174675802Y-85208451D02*
G75*
G02*
X175437802Y-85208451I381000J0D01*
G01*
D14*
%TO.C,J1*%
X152840000Y-41800000D02*
X152840000Y-44300000D01*
X152840000Y-44300000D02*
X153890000Y-44300000D01*
X157890000Y-39830000D02*
X154010000Y-39830000D01*
X158010000Y-44300000D02*
X158010000Y-45290000D01*
X159060000Y-41800000D02*
X159060000Y-44300000D01*
X159060000Y-44300000D02*
X158010000Y-44300000D01*
%TO.C,U1*%
X132495000Y-51914502D02*
X132495000Y-52339502D01*
X132495000Y-58334502D02*
X132495000Y-57909502D01*
X135255000Y-51914502D02*
X132495000Y-51914502D01*
X135255000Y-51914502D02*
X138015000Y-51914502D01*
X135255000Y-58334502D02*
X132495000Y-58334502D01*
X135255000Y-58334502D02*
X138015000Y-58334502D01*
X138015000Y-51914502D02*
X138015000Y-52339502D01*
X138015000Y-58334502D02*
X138015000Y-57909502D01*
X131780000Y-52339502D02*
X131540000Y-52009502D01*
X132020000Y-52009502D01*
X131780000Y-52339502D01*
G36*
X131780000Y-52339502D02*
G01*
X131540000Y-52009502D01*
X132020000Y-52009502D01*
X131780000Y-52339502D01*
G37*
%TO.C,R11*%
X166107064Y-51160000D02*
X164652936Y-51160000D01*
X166107064Y-52980000D02*
X164652936Y-52980000D01*
%TO.C,R0*%
X153857936Y-49890000D02*
X155312064Y-49890000D01*
X153857936Y-51710000D02*
X155312064Y-51710000D01*
D15*
%TO.C,F5*%
X119660002Y-91651001D02*
X129260002Y-91651001D01*
X119660002Y-116251001D02*
X119660002Y-91651001D01*
X129260002Y-91651001D02*
X129260002Y-116251001D01*
X129260002Y-116251001D02*
X119660002Y-116251001D01*
D12*
%TO.C,Con1*%
X196069702Y-116944001D02*
X196069702Y-129186800D01*
X196069702Y-129186800D02*
X213570302Y-129186800D01*
X213570302Y-116944001D02*
X196069702Y-116944001D01*
X213570302Y-129186800D02*
X213570302Y-116944001D01*
D13*
X194672702Y-119071001D02*
G75*
G02*
X193910702Y-119071001I-381000J0D01*
G01*
X193910702Y-119071001D02*
G75*
G02*
X194672702Y-119071001I381000J0D01*
G01*
D14*
%TO.C,LED8*%
X65710000Y-65338552D02*
X65710000Y-62248552D01*
X60160000Y-63794014D02*
G75*
G02*
X65710000Y-62248722I2990000J462D01*
G01*
X65710000Y-65338382D02*
G75*
G02*
X60160000Y-63793090I-2560000J1544830D01*
G01*
X65650000Y-63793552D02*
G75*
G02*
X60650000Y-63793552I-2500000J0D01*
G01*
X60650000Y-63793552D02*
G75*
G02*
X65650000Y-63793552I2500000J0D01*
G01*
D11*
%TO.C,U2*%
X88850000Y-48550398D02*
X88850000Y-54078606D01*
X88850000Y-48550398D02*
X101650000Y-48550398D01*
X88850000Y-54078606D02*
X101650000Y-54078606D01*
X101650000Y-48550398D02*
X101650000Y-54078606D01*
D16*
X101149998Y-49300399D02*
G75*
G02*
X100650000Y-49300399I-249999J0D01*
G01*
X100650000Y-49300399D02*
G75*
G02*
X101149998Y-49300399I249999J0D01*
G01*
D17*
X101090001Y-44872615D02*
G75*
G02*
X100839999Y-44872615I-125001J0D01*
G01*
X100839999Y-44872615D02*
G75*
G02*
X101090001Y-44872615I125001J0D01*
G01*
D14*
%TO.C,R5*%
X131282936Y-62883552D02*
X132737064Y-62883552D01*
X131282936Y-64703552D02*
X132737064Y-64703552D01*
%TO.C,R1*%
X211642936Y-62883552D02*
X213097064Y-62883552D01*
X211642936Y-64703552D02*
X213097064Y-64703552D01*
D12*
%TO.C,SW1*%
X112141000Y-48755300D02*
X112141000Y-49961800D01*
X112141000Y-51638200D02*
X112141000Y-52593396D01*
X112141000Y-54086604D02*
X112141000Y-55133396D01*
X112141000Y-56626604D02*
X112141000Y-57924700D01*
X112141000Y-57924700D02*
X118999000Y-57924700D01*
X118999000Y-48755300D02*
X112141000Y-48755300D01*
X118999000Y-50053396D02*
X118999000Y-48755300D01*
X118999000Y-52593396D02*
X118999000Y-51546604D01*
X118999000Y-55133396D02*
X118999000Y-54086604D01*
X118999000Y-57924700D02*
X118999000Y-56626604D01*
%TO.C,K4*%
X136601200Y-69281442D02*
X136601200Y-89042642D01*
X136601200Y-89042642D02*
X152958800Y-89042642D01*
X152958800Y-69281442D02*
X136601200Y-69281442D01*
X152958800Y-89042642D02*
X152958800Y-69281442D01*
D13*
X155117800Y-85208451D02*
G75*
G02*
X154355800Y-85208451I-381000J0D01*
G01*
X154355800Y-85208451D02*
G75*
G02*
X155117800Y-85208451I381000J0D01*
G01*
D12*
%TO.C,Con7*%
X75069702Y-116944001D02*
X75069702Y-129186800D01*
X75069702Y-129186800D02*
X92570302Y-129186800D01*
X92570302Y-116944001D02*
X75069702Y-116944001D01*
X92570302Y-129186800D02*
X92570302Y-116944001D01*
D13*
X73672702Y-119071001D02*
G75*
G02*
X72910702Y-119071001I-381000J0D01*
G01*
X72910702Y-119071001D02*
G75*
G02*
X73672702Y-119071001I381000J0D01*
G01*
D14*
%TO.C,R3*%
X171637936Y-63860000D02*
X173092064Y-63860000D01*
X171637936Y-65680000D02*
X173092064Y-65680000D01*
D12*
%TO.C,K2*%
X177241200Y-69281442D02*
X177241200Y-89042642D01*
X177241200Y-89042642D02*
X193598800Y-89042642D01*
X193598800Y-69281442D02*
X177241200Y-69281442D01*
X193598800Y-89042642D02*
X193598800Y-69281442D01*
D13*
X195757800Y-85208451D02*
G75*
G02*
X194995800Y-85208451I-381000J0D01*
G01*
X194995800Y-85208451D02*
G75*
G02*
X195757800Y-85208451I381000J0D01*
G01*
D14*
%TO.C,R2*%
X192242934Y-62883552D02*
X193697062Y-62883552D01*
X192242934Y-64703552D02*
X193697062Y-64703552D01*
%TO.C,C2*%
X141686233Y-50290000D02*
X141978767Y-50290000D01*
X141686233Y-51310000D02*
X141978767Y-51310000D01*
D15*
%TO.C,F7*%
X79020002Y-91651001D02*
X88620002Y-91651001D01*
X79020002Y-116251001D02*
X79020002Y-91651001D01*
X88620002Y-91651001D02*
X88620002Y-116251001D01*
X88620002Y-116251001D02*
X79020002Y-116251001D01*
D14*
%TO.C,LED2*%
X187629998Y-65338552D02*
X187629998Y-62248552D01*
X182079998Y-63794014D02*
G75*
G02*
X187629998Y-62248722I2990000J462D01*
G01*
X187629998Y-65338382D02*
G75*
G02*
X182079998Y-63793090I-2560000J1544830D01*
G01*
X187569998Y-63793552D02*
G75*
G02*
X182569998Y-63793552I-2500000J0D01*
G01*
X182569998Y-63793552D02*
G75*
G02*
X187569998Y-63793552I2500000J0D01*
G01*
D15*
%TO.C,F4*%
X139980000Y-91651001D02*
X149580000Y-91651001D01*
X139980000Y-116251001D02*
X139980000Y-91651001D01*
X149580000Y-91651001D02*
X149580000Y-116251001D01*
X149580000Y-116251001D02*
X139980000Y-116251001D01*
D14*
%TO.C,J5*%
X108585000Y-39884502D02*
X108585000Y-47504502D01*
X108585000Y-41154502D02*
X118745000Y-41154502D01*
X108585000Y-47504502D02*
X118745000Y-47504502D01*
X118745000Y-39884502D02*
X108585000Y-39884502D01*
X118745000Y-47504502D02*
X118745000Y-39884502D01*
D12*
%TO.C,Con2*%
X176669700Y-116944001D02*
X176669700Y-129186800D01*
X176669700Y-129186800D02*
X194170300Y-129186800D01*
X194170300Y-116944001D02*
X176669700Y-116944001D01*
X194170300Y-129186800D02*
X194170300Y-116944001D01*
D13*
X175272700Y-119071001D02*
G75*
G02*
X174510700Y-119071001I-381000J0D01*
G01*
X174510700Y-119071001D02*
G75*
G02*
X175272700Y-119071001I381000J0D01*
G01*
D14*
%TO.C,R6*%
X110962936Y-62883552D02*
X112417064Y-62883552D01*
X110962936Y-64703552D02*
X112417064Y-64703552D01*
%TO.C,R10*%
X166107064Y-47350000D02*
X164652936Y-47350000D01*
X166107064Y-49170000D02*
X164652936Y-49170000D01*
%TO.C,LED7*%
X86030000Y-65338552D02*
X86030000Y-62248552D01*
X80480000Y-63794014D02*
G75*
G02*
X86030000Y-62248722I2990000J462D01*
G01*
X86030000Y-65338382D02*
G75*
G02*
X80480000Y-63793090I-2560000J1544830D01*
G01*
X85970000Y-63793552D02*
G75*
G02*
X80970000Y-63793552I-2500000J0D01*
G01*
X80970000Y-63793552D02*
G75*
G02*
X85970000Y-63793552I2500000J0D01*
G01*
%TO.C,LED3*%
X167310000Y-65338552D02*
X167310000Y-62248552D01*
X161760000Y-63794014D02*
G75*
G02*
X167310000Y-62248722I2990000J462D01*
G01*
X167310000Y-65338382D02*
G75*
G02*
X161760000Y-63793090I-2560000J1544830D01*
G01*
X167250000Y-63793552D02*
G75*
G02*
X162250000Y-63793552I-2500000J0D01*
G01*
X162250000Y-63793552D02*
G75*
G02*
X167250000Y-63793552I2500000J0D01*
G01*
D12*
%TO.C,K7*%
X75641202Y-69281442D02*
X75641202Y-89042642D01*
X75641202Y-89042642D02*
X91998802Y-89042642D01*
X91998802Y-69281442D02*
X75641202Y-69281442D01*
X91998802Y-89042642D02*
X91998802Y-69281442D01*
D13*
X94157802Y-85208451D02*
G75*
G02*
X93395802Y-85208451I-381000J0D01*
G01*
X93395802Y-85208451D02*
G75*
G02*
X94157802Y-85208451I381000J0D01*
G01*
D14*
%TO.C,LED1*%
X207030000Y-65338552D02*
X207030000Y-62248552D01*
X201480000Y-63794014D02*
G75*
G02*
X207030000Y-62248722I2990000J462D01*
G01*
X207030000Y-65338382D02*
G75*
G02*
X201480000Y-63793090I-2560000J1544830D01*
G01*
X206970000Y-63793552D02*
G75*
G02*
X201970000Y-63793552I-2500000J0D01*
G01*
X201970000Y-63793552D02*
G75*
G02*
X206970000Y-63793552I2500000J0D01*
G01*
D15*
%TO.C,F0*%
X122955000Y-40164502D02*
X147555000Y-40164502D01*
X122955000Y-49764502D02*
X122955000Y-40164502D01*
X147555000Y-40164502D02*
X147555000Y-49764502D01*
X147555000Y-49764502D02*
X122955000Y-49764502D01*
D11*
%TO.C,U3*%
X170765000Y-48550398D02*
X170765000Y-54078606D01*
X170765000Y-48550398D02*
X183565000Y-48550398D01*
X170765000Y-54078606D02*
X183565000Y-54078606D01*
X183565000Y-48550398D02*
X183565000Y-54078606D01*
D16*
X183064998Y-49300399D02*
G75*
G02*
X182565000Y-49300399I-249999J0D01*
G01*
X182565000Y-49300399D02*
G75*
G02*
X183064998Y-49300399I249999J0D01*
G01*
D17*
X183005001Y-44872615D02*
G75*
G02*
X182754999Y-44872615I-125001J0D01*
G01*
X182754999Y-44872615D02*
G75*
G02*
X183005001Y-44872615I125001J0D01*
G01*
D12*
%TO.C,Con8*%
X54749702Y-116944001D02*
X54749702Y-129186800D01*
X54749702Y-129186800D02*
X72250302Y-129186800D01*
X72250302Y-116944001D02*
X54749702Y-116944001D01*
X72250302Y-129186800D02*
X72250302Y-116944001D01*
D13*
X53352702Y-119071001D02*
G75*
G02*
X52590702Y-119071001I-381000J0D01*
G01*
X52590702Y-119071001D02*
G75*
G02*
X53352702Y-119071001I381000J0D01*
G01*
D14*
%TO.C,LED5*%
X126670000Y-65338552D02*
X126670000Y-62248552D01*
X121120000Y-63794014D02*
G75*
G02*
X126670000Y-62248722I2990000J462D01*
G01*
X126670000Y-65338382D02*
G75*
G02*
X121120000Y-63793090I-2560000J1544830D01*
G01*
X126610000Y-63793552D02*
G75*
G02*
X121610000Y-63793552I-2500000J0D01*
G01*
X121610000Y-63793552D02*
G75*
G02*
X126610000Y-63793552I2500000J0D01*
G01*
D12*
%TO.C,K6*%
X95961202Y-69281442D02*
X95961202Y-89042642D01*
X95961202Y-89042642D02*
X112318802Y-89042642D01*
X112318802Y-69281442D02*
X95961202Y-69281442D01*
X112318802Y-89042642D02*
X112318802Y-69281442D01*
D13*
X114477802Y-85208451D02*
G75*
G02*
X113715802Y-85208451I-381000J0D01*
G01*
X113715802Y-85208451D02*
G75*
G02*
X114477802Y-85208451I381000J0D01*
G01*
%TD*%
M02*
