M48
; DRILL file {KiCad 8.0.5} date 2024-09-24T14:12:53-0400
; FORMAT={-:-/ absolute / inch / decimal}
; #@! TF.CreationDate,2024-09-24T14:12:53-04:00
; #@! TF.GenerationSoftware,Kicad,Pcbnew,8.0.5
; #@! TF.FileFunction,Plated,1,2,PTH
FMAT,2
INCH
; #@! TA.AperFunction,Plated,PTH,ViaDrill
T1C0.0118
; #@! TA.AperFunction,Plated,PTH,ComponentDrill
T2C0.0320
; #@! TA.AperFunction,Plated,PTH,ComponentDrill
T3C0.0354
; #@! TA.AperFunction,Plated,PTH,ComponentDrill
T4C0.0390
; #@! TA.AperFunction,Plated,PTH,ComponentDrill
T5C0.0550
; #@! TA.AperFunction,Plated,PTH,ComponentDrill
T6C0.0591
; #@! TA.AperFunction,Plated,PTH,ComponentDrill
T7C0.0598
%
G90
G05
T1
X2.3Y-1.9
X2.3Y-2.0
X2.5Y-1.9
X2.5Y-2.0
X2.8Y-2.625
X3.2Y-2.6
X3.55Y-2.1
X3.55Y-2.3
X3.775Y-2.65
X3.9Y-1.95
X3.925Y-2.3
X3.95Y-2.05
X4.0Y-2.6
X4.05Y-2.0
X4.25Y-2.225
X4.525Y-2.2
X4.825Y-2.15
X4.9Y-2.05
X5.0Y-2.1338
X5.1Y-2.6
X5.25Y-2.075
X5.275Y-2.1
X5.3Y-2.125
X5.325Y-2.275
X5.51Y-1.91
X5.55Y-1.9366
X5.575Y-2.125
X5.6Y-2.05
X5.6Y-2.6
X5.75Y-1.69
X5.81Y-1.77
X5.825Y-2.2
X5.85Y-2.475
X5.88Y-1.87
X5.9517Y-2.2529
X5.9648Y-1.7526
X5.9648Y-1.92
X6.02Y-1.69
X6.02Y-1.78
X6.02Y-1.86
X6.14Y-1.61
X6.15Y-2.175
X6.175Y-2.65
X6.25Y-1.69
X6.25Y-1.75
X6.25Y-1.86
X6.25Y-2.0
X6.3148Y-1.75
X6.3148Y-1.92
X6.32Y-1.6
X6.35Y-1.775
X6.575Y-2.125
X6.65Y-2.025
X6.65Y-2.6
X6.675Y-2.225
X6.8Y-1.725
X6.8Y-2.1
X6.9Y-1.725
X6.925Y-1.925
X6.95Y-2.65
X7.0Y-1.725
X7.1Y-1.725
X7.175Y-1.9
X7.2Y-1.725
X7.2Y-2.3
X7.45Y-2.575
X8.0Y-1.8
X8.0Y-2.0
X8.2Y-2.575
X8.3Y-1.8
X8.3Y-2.0
T2
X4.4Y-2.0
X4.4Y-2.1
X4.4Y-2.2
X4.7Y-2.0
X4.7Y-2.1
X4.7Y-2.2
T3
X2.4362Y-2.5116
X2.5362Y-2.5116
X3.2362Y-2.5116
X3.3362Y-2.5116
X4.0362Y-2.5116
X4.1362Y-2.5116
X4.8362Y-2.5116
X4.9362Y-2.5116
X5.6362Y-2.5116
X5.7362Y-2.5116
X5.7972Y-2.1
X5.8972Y-2.1
X6.4362Y-2.5116
X6.5362Y-2.5116
X7.2362Y-2.5116
X7.3362Y-2.5116
X8.0Y-2.5116
X8.1Y-2.5116
X8.15Y-1.75
X8.15Y-2.25
T4
X2.2638Y-2.8743
X2.2638Y-3.3547
X2.5Y-2.7995
X2.7362Y-2.8743
X2.7362Y-3.3547
X3.0638Y-2.8743
X3.0638Y-3.3547
X3.3Y-2.7995
X3.5362Y-2.8743
X3.5362Y-3.3547
X3.8638Y-2.8743
X3.8638Y-3.3547
X4.1Y-2.7995
X4.3362Y-2.8743
X4.3362Y-3.3547
X4.6638Y-2.8743
X4.6638Y-3.3547
X4.9Y-2.7995
X5.1362Y-2.8743
X5.1362Y-3.3547
X5.4638Y-2.8743
X5.4638Y-3.3547
X5.7Y-2.7995
X5.9362Y-2.8743
X5.9362Y-3.3547
X6.2638Y-2.8743
X6.2638Y-3.3547
X6.5Y-2.7995
X6.7362Y-2.8743
X6.7362Y-3.3547
X7.0638Y-2.8743
X7.0638Y-3.3547
X7.3Y-2.7995
X7.5362Y-2.8743
X7.5362Y-3.3547
X7.8276Y-2.8743
X7.8276Y-3.3547
X8.0638Y-2.7995
X8.3Y-2.8743
X8.3Y-3.3547
T5
X2.3Y-4.6878
X2.5Y-4.6878
X2.7Y-4.6878
X3.1Y-4.6878
X3.3Y-4.6878
X3.5Y-4.6878
X3.9Y-4.6878
X4.1Y-4.6878
X4.3Y-4.6878
X4.7Y-4.6878
X4.9Y-4.6878
X5.1Y-4.6878
X5.5Y-4.6878
X5.7Y-4.6878
X5.9Y-4.6878
X6.3Y-4.6878
X6.5Y-4.6878
X6.7Y-4.6878
X7.1Y-4.6878
X7.3Y-4.6878
X7.5Y-4.6878
X7.8638Y-4.6878
X8.0638Y-4.6878
X8.2638Y-4.6878
T6
X2.5Y-3.7973
X2.5Y-4.3878
X3.3Y-3.7973
X3.3Y-4.3878
X4.1Y-3.7973
X4.1Y-4.3878
X4.9Y-3.7973
X4.9Y-4.3878
X5.0297Y-1.7703
X5.6203Y-1.7703
X5.7Y-3.7973
X5.7Y-4.3878
X6.5Y-3.7973
X6.5Y-4.3878
X7.3Y-3.7973
X7.3Y-4.3878
X8.0638Y-3.7973
X8.0638Y-4.3878
T7
X4.375Y-1.7203
X4.575Y-1.7203
M30
