%TF.GenerationSoftware,KiCad,Pcbnew,8.0.5*%
%TF.CreationDate,2024-09-24T14:12:51-04:00*%
%TF.ProjectId,MPD V1,4d504420-5631-42e6-9b69-6361645f7063,rev?*%
%TF.SameCoordinates,Original*%
%TF.FileFunction,Soldermask,Bot*%
%TF.FilePolarity,Negative*%
%FSLAX46Y46*%
G04 Gerber Fmt 4.6, Leading zero omitted, Abs format (unit mm)*
G04 Created by KiCad (PCBNEW 8.0.5) date 2024-09-24 14:12:51*
%MOMM*%
%LPD*%
G01*
G04 APERTURE LIST*
G04 Aperture macros list*
%AMRoundRect*
0 Rectangle with rounded corners*
0 $1 Rounding radius*
0 $2 $3 $4 $5 $6 $7 $8 $9 X,Y pos of 4 corners*
0 Add a 4 corners polygon primitive as box body*
4,1,4,$2,$3,$4,$5,$6,$7,$8,$9,$2,$3,0*
0 Add four circle primitives for the rounded corners*
1,1,$1+$1,$2,$3*
1,1,$1+$1,$4,$5*
1,1,$1+$1,$6,$7*
1,1,$1+$1,$8,$9*
0 Add four rect primitives between the rounded corners*
20,1,$1+$1,$2,$3,$4,$5,0*
20,1,$1+$1,$4,$5,$6,$7,0*
20,1,$1+$1,$6,$7,$8,$9,0*
20,1,$1+$1,$8,$9,$2,$3,0*%
G04 Aperture macros list end*
%ADD10C,3.200000*%
%ADD11C,1.498600*%
%ADD12R,1.800000X1.800000*%
%ADD13C,1.800000*%
%ADD14C,1.905000*%
%ADD15C,2.454000*%
%ADD16O,1.800000X1.800000*%
%ADD17R,1.320800X1.320800*%
%ADD18C,1.320800*%
%ADD19R,3.000000X3.000000*%
%ADD20C,3.000000*%
%ADD21RoundRect,0.250000X0.400000X0.625000X-0.400000X0.625000X-0.400000X-0.625000X0.400000X-0.625000X0*%
G04 APERTURE END LIST*
D10*
%TO.C,H3*%
X50800000Y-124460000D03*
%TD*%
D11*
%TO.C,K5*%
X130460000Y-85208451D03*
X130460000Y-73008450D03*
X124460002Y-71108451D03*
X118460004Y-73008450D03*
X118460004Y-85208451D03*
%TD*%
%TO.C,K8*%
X69500000Y-85208451D03*
X69500000Y-73008450D03*
X63500002Y-71108451D03*
X57500004Y-73008450D03*
X57500004Y-85208451D03*
%TD*%
D12*
%TO.C,LED6*%
X105060000Y-63793552D03*
D13*
X102520000Y-63793552D03*
%TD*%
D14*
%TO.C,Con4*%
X139700000Y-119071001D03*
X144780000Y-119071001D03*
X149860000Y-119071001D03*
%TD*%
D15*
%TO.C,F2*%
X185420000Y-111451001D03*
X185420000Y-96451001D03*
%TD*%
D12*
%TO.C,LED4*%
X145699998Y-63793552D03*
D13*
X143159998Y-63793552D03*
%TD*%
D15*
%TO.C,F3*%
X165100002Y-111451001D03*
X165100002Y-96451001D03*
%TD*%
D12*
%TO.C,D1*%
X207010000Y-57150000D03*
D16*
X207010000Y-44450000D03*
%TD*%
D10*
%TO.C,H1*%
X50800000Y-45720000D03*
%TD*%
D14*
%TO.C,Con5*%
X119380002Y-119071001D03*
X124460002Y-119071001D03*
X129540002Y-119071001D03*
%TD*%
D15*
%TO.C,F6*%
X104140002Y-111451001D03*
X104140002Y-96451001D03*
%TD*%
D12*
%TO.C,LED0*%
X149790000Y-53340000D03*
D13*
X147250000Y-53340000D03*
%TD*%
D15*
%TO.C,F8*%
X63500002Y-111451001D03*
X63500002Y-96451001D03*
%TD*%
D14*
%TO.C,Con6*%
X99060002Y-119071001D03*
X104140002Y-119071001D03*
X109220002Y-119071001D03*
%TD*%
%TO.C,Con3*%
X160020002Y-119071001D03*
X165100002Y-119071001D03*
X170180002Y-119071001D03*
%TD*%
D11*
%TO.C,K1*%
X210820000Y-85208451D03*
X210820000Y-73008450D03*
X204820002Y-71108451D03*
X198820004Y-73008450D03*
X198820004Y-85208451D03*
%TD*%
D15*
%TO.C,F1*%
X204820002Y-111451001D03*
X204820002Y-96451001D03*
%TD*%
D11*
%TO.C,K3*%
X171100000Y-85208451D03*
X171100000Y-73008450D03*
X165100002Y-71108451D03*
X159100004Y-73008450D03*
X159100004Y-85208451D03*
%TD*%
D15*
%TO.C,F5*%
X124460002Y-111451001D03*
X124460002Y-96451001D03*
%TD*%
D14*
%TO.C,Con1*%
X199740002Y-119071001D03*
X204820002Y-119071001D03*
X209900002Y-119071001D03*
%TD*%
D12*
%TO.C,LED8*%
X64420000Y-63793552D03*
D13*
X61880000Y-63793552D03*
%TD*%
D17*
%TO.C,SW1*%
X111760000Y-50800000D03*
D18*
X111760000Y-53340000D03*
X111760000Y-55880000D03*
X119380000Y-55880000D03*
X119380000Y-53340000D03*
X119380000Y-50800000D03*
%TD*%
D11*
%TO.C,K4*%
X150779998Y-85208451D03*
X150779998Y-73008450D03*
X144780000Y-71108451D03*
X138780002Y-73008450D03*
X138780002Y-85208451D03*
%TD*%
D14*
%TO.C,Con7*%
X78740002Y-119071001D03*
X83820002Y-119071001D03*
X88900002Y-119071001D03*
%TD*%
D11*
%TO.C,K2*%
X191419998Y-85208451D03*
X191419998Y-73008450D03*
X185420000Y-71108451D03*
X179420002Y-73008450D03*
X179420002Y-85208451D03*
%TD*%
D15*
%TO.C,F7*%
X83820002Y-111451001D03*
X83820002Y-96451001D03*
%TD*%
D12*
%TO.C,LED2*%
X186339998Y-63793552D03*
D13*
X183799998Y-63793552D03*
%TD*%
D15*
%TO.C,F4*%
X144780000Y-111451001D03*
X144780000Y-96451001D03*
%TD*%
D19*
%TO.C,J5*%
X116205000Y-43694502D03*
D20*
X111125000Y-43694502D03*
%TD*%
D14*
%TO.C,Con2*%
X180340000Y-119071001D03*
X185420000Y-119071001D03*
X190500000Y-119071001D03*
%TD*%
D12*
%TO.C,LED7*%
X84740000Y-63793552D03*
D13*
X82200000Y-63793552D03*
%TD*%
D12*
%TO.C,LED3*%
X166020000Y-63793552D03*
D13*
X163480000Y-63793552D03*
%TD*%
D11*
%TO.C,K7*%
X89820000Y-85208451D03*
X89820000Y-73008450D03*
X83820002Y-71108451D03*
X77820004Y-73008450D03*
X77820004Y-85208451D03*
%TD*%
D12*
%TO.C,LED1*%
X205740000Y-63793552D03*
D13*
X203200000Y-63793552D03*
%TD*%
D15*
%TO.C,F0*%
X127755000Y-44964502D03*
X142755000Y-44964502D03*
%TD*%
D14*
%TO.C,Con8*%
X58420002Y-119071001D03*
X63500002Y-119071001D03*
X68580002Y-119071001D03*
%TD*%
D12*
%TO.C,LED5*%
X125380000Y-63793552D03*
D13*
X122840000Y-63793552D03*
%TD*%
D11*
%TO.C,K6*%
X110140000Y-85208451D03*
X110140000Y-73008450D03*
X104140002Y-71108451D03*
X98140004Y-73008450D03*
X98140004Y-85208451D03*
%TD*%
D10*
%TO.C,H4*%
X218440000Y-124460000D03*
%TD*%
%TO.C,H2*%
X218440000Y-45720000D03*
%TD*%
D21*
%TO.C,R14*%
X134035000Y-41275000D03*
X130935000Y-41275000D03*
%TD*%
%TO.C,R12*%
X133985000Y-48260000D03*
X130885000Y-48260000D03*
%TD*%
%TO.C,R13*%
X133985000Y-45085000D03*
X130885000Y-45085000D03*
%TD*%
M02*
