%TF.GenerationSoftware,KiCad,Pcbnew,8.0.5*%
%TF.CreationDate,2024-09-24T14:12:54-04:00*%
%TF.ProjectId,MPD V1,4d504420-5631-42e6-9b69-6361645f7063,rev?*%
%TF.SameCoordinates,Original*%
%TF.FileFunction,Drillmap*%
%TF.FilePolarity,Positive*%
%FSLAX45Y45*%
G04 Gerber Fmt 4.5, Leading zero omitted, Abs format (unit mm)*
G04 Created by KiCad (PCBNEW 8.0.5) date 2024-09-24 14:12:54*
%MOMM*%
%LPD*%
G01*
G04 APERTURE LIST*
%ADD10C,0.200000*%
%ADD11C,0.100000*%
%ADD12C,0.320000*%
G04 APERTURE END LIST*
D10*
X4572000Y-3911600D02*
X22352000Y-3911600D01*
X22352000Y-12954000D01*
X4572000Y-12954000D01*
X4572000Y-3911600D01*
D11*
X12842800Y-7606445D02*
X13325400Y-7606445D01*
X13325400Y-7708045D01*
X12741200Y-7708045D01*
X12741200Y-6844445D01*
X12131600Y-6844445D01*
X12131600Y-7708045D01*
X11572800Y-7708045D01*
X11572800Y-7606445D01*
X12030000Y-7606445D01*
X12030000Y-6742845D01*
X12842800Y-6742845D01*
X12842800Y-7606445D01*
G36*
X12842800Y-7606445D02*
G01*
X13325400Y-7606445D01*
X13325400Y-7708045D01*
X12741200Y-7708045D01*
X12741200Y-6844445D01*
X12131600Y-6844445D01*
X12131600Y-7708045D01*
X11572800Y-7708045D01*
X11572800Y-7606445D01*
X12030000Y-7606445D01*
X12030000Y-6742845D01*
X12842800Y-6742845D01*
X12842800Y-7606445D01*
G37*
X6746800Y-7606445D02*
X7229400Y-7606445D01*
X7229400Y-7708045D01*
X6645200Y-7708045D01*
X6645200Y-6844445D01*
X6035600Y-6844445D01*
X6035600Y-7708045D01*
X5476800Y-7708045D01*
X5476800Y-7606445D01*
X5934000Y-7606445D01*
X5934000Y-6742845D01*
X6746800Y-6742845D01*
X6746800Y-7606445D01*
G36*
X6746800Y-7606445D02*
G01*
X7229400Y-7606445D01*
X7229400Y-7708045D01*
X6645200Y-7708045D01*
X6645200Y-6844445D01*
X6035600Y-6844445D01*
X6035600Y-7708045D01*
X5476800Y-7708045D01*
X5476800Y-7606445D01*
X5934000Y-7606445D01*
X5934000Y-6742845D01*
X6746800Y-6742845D01*
X6746800Y-7606445D01*
G37*
X20878800Y-7606445D02*
X21361400Y-7606445D01*
X21361400Y-7708045D01*
X20777200Y-7708045D01*
X20777200Y-6844445D01*
X20167600Y-6844445D01*
X20167600Y-7708045D01*
X19608800Y-7708045D01*
X19608800Y-7606445D01*
X20066000Y-7606445D01*
X20066000Y-6742845D01*
X20878800Y-6742845D01*
X20878800Y-7606445D01*
G36*
X20878800Y-7606445D02*
G01*
X21361400Y-7606445D01*
X21361400Y-7708045D01*
X20777200Y-7708045D01*
X20777200Y-6844445D01*
X20167600Y-6844445D01*
X20167600Y-7708045D01*
X19608800Y-7708045D01*
X19608800Y-7606445D01*
X20066000Y-7606445D01*
X20066000Y-6742845D01*
X20878800Y-6742845D01*
X20878800Y-7606445D01*
G37*
X16906800Y-7606445D02*
X17389400Y-7606445D01*
X17389400Y-7708045D01*
X16805200Y-7708045D01*
X16805200Y-6844445D01*
X16195600Y-6844445D01*
X16195600Y-7708045D01*
X15636800Y-7708045D01*
X15636800Y-7606445D01*
X16094000Y-7606445D01*
X16094000Y-6742845D01*
X16906800Y-6742845D01*
X16906800Y-7606445D01*
G36*
X16906800Y-7606445D02*
G01*
X17389400Y-7606445D01*
X17389400Y-7708045D01*
X16805200Y-7708045D01*
X16805200Y-6844445D01*
X16195600Y-6844445D01*
X16195600Y-7708045D01*
X15636800Y-7708045D01*
X15636800Y-7606445D01*
X16094000Y-7606445D01*
X16094000Y-6742845D01*
X16906800Y-6742845D01*
X16906800Y-7606445D01*
G37*
X14874800Y-7606445D02*
X15357400Y-7606445D01*
X15357400Y-7708045D01*
X14773200Y-7708045D01*
X14773200Y-6844445D01*
X14163600Y-6844445D01*
X14163600Y-7708045D01*
X13604800Y-7708045D01*
X13604800Y-7606445D01*
X14062000Y-7606445D01*
X14062000Y-6742845D01*
X14874800Y-6742845D01*
X14874800Y-7606445D01*
G36*
X14874800Y-7606445D02*
G01*
X15357400Y-7606445D01*
X15357400Y-7708045D01*
X14773200Y-7708045D01*
X14773200Y-6844445D01*
X14163600Y-6844445D01*
X14163600Y-7708045D01*
X13604800Y-7708045D01*
X13604800Y-7606445D01*
X14062000Y-7606445D01*
X14062000Y-6742845D01*
X14874800Y-6742845D01*
X14874800Y-7606445D01*
G37*
X18938800Y-7606445D02*
X19421400Y-7606445D01*
X19421400Y-7708045D01*
X18837200Y-7708045D01*
X18837200Y-6844445D01*
X18227600Y-6844445D01*
X18227600Y-7708045D01*
X17668800Y-7708045D01*
X17668800Y-7606445D01*
X18126000Y-7606445D01*
X18126000Y-6742845D01*
X18938800Y-6742845D01*
X18938800Y-7606445D01*
G36*
X18938800Y-7606445D02*
G01*
X19421400Y-7606445D01*
X19421400Y-7708045D01*
X18837200Y-7708045D01*
X18837200Y-6844445D01*
X18227600Y-6844445D01*
X18227600Y-7708045D01*
X17668800Y-7708045D01*
X17668800Y-7606445D01*
X18126000Y-7606445D01*
X18126000Y-6742845D01*
X18938800Y-6742845D01*
X18938800Y-7606445D01*
G37*
X8778800Y-7606445D02*
X9261400Y-7606445D01*
X9261400Y-7708045D01*
X8677200Y-7708045D01*
X8677200Y-6844445D01*
X8067600Y-6844445D01*
X8067600Y-7708045D01*
X7508800Y-7708045D01*
X7508800Y-7606445D01*
X7966000Y-7606445D01*
X7966000Y-6742845D01*
X8778800Y-6742845D01*
X8778800Y-7606445D01*
G36*
X8778800Y-7606445D02*
G01*
X9261400Y-7606445D01*
X9261400Y-7708045D01*
X8677200Y-7708045D01*
X8677200Y-6844445D01*
X8067600Y-6844445D01*
X8067600Y-7708045D01*
X7508800Y-7708045D01*
X7508800Y-7606445D01*
X7966000Y-7606445D01*
X7966000Y-6742845D01*
X8778800Y-6742845D01*
X8778800Y-7606445D01*
G37*
X10810800Y-7606445D02*
X11293400Y-7606445D01*
X11293400Y-7708045D01*
X10709200Y-7708045D01*
X10709200Y-6844445D01*
X10099600Y-6844445D01*
X10099600Y-7708045D01*
X9540800Y-7708045D01*
X9540800Y-7606445D01*
X9998000Y-7606445D01*
X9998000Y-6742845D01*
X10810800Y-6742845D01*
X10810800Y-7606445D01*
G36*
X10810800Y-7606445D02*
G01*
X11293400Y-7606445D01*
X11293400Y-7708045D01*
X10709200Y-7708045D01*
X10709200Y-6844445D01*
X10099600Y-6844445D01*
X10099600Y-7708045D01*
X9540800Y-7708045D01*
X9540800Y-7606445D01*
X9998000Y-7606445D01*
X9998000Y-6742845D01*
X10810800Y-6742845D01*
X10810800Y-7606445D01*
G37*
D10*
D12*
X4920000Y-4412000D02*
X5240000Y-4732000D01*
X5240000Y-4412000D02*
X4920000Y-4732000D01*
X4920000Y-12286000D02*
X5240000Y-12606000D01*
X5240000Y-12286000D02*
X4920000Y-12606000D01*
X21684000Y-4412000D02*
X22004000Y-4732000D01*
X22004000Y-4412000D02*
X21684000Y-4732000D01*
X21684000Y-12286000D02*
X22004000Y-12606000D01*
X22004000Y-12286000D02*
X21684000Y-12606000D01*
D10*
X4822777Y-13275484D02*
X4822777Y-13075484D01*
X4822777Y-13075484D02*
X4870396Y-13075484D01*
X4870396Y-13075484D02*
X4898967Y-13085008D01*
X4898967Y-13085008D02*
X4918015Y-13104055D01*
X4918015Y-13104055D02*
X4927539Y-13123103D01*
X4927539Y-13123103D02*
X4937063Y-13161198D01*
X4937063Y-13161198D02*
X4937063Y-13189769D01*
X4937063Y-13189769D02*
X4927539Y-13227865D01*
X4927539Y-13227865D02*
X4918015Y-13246912D01*
X4918015Y-13246912D02*
X4898967Y-13265960D01*
X4898967Y-13265960D02*
X4870396Y-13275484D01*
X4870396Y-13275484D02*
X4822777Y-13275484D01*
X5022777Y-13275484D02*
X5022777Y-13142150D01*
X5022777Y-13180246D02*
X5032301Y-13161198D01*
X5032301Y-13161198D02*
X5041824Y-13151674D01*
X5041824Y-13151674D02*
X5060872Y-13142150D01*
X5060872Y-13142150D02*
X5079920Y-13142150D01*
X5146586Y-13275484D02*
X5146586Y-13142150D01*
X5146586Y-13075484D02*
X5137063Y-13085008D01*
X5137063Y-13085008D02*
X5146586Y-13094531D01*
X5146586Y-13094531D02*
X5156110Y-13085008D01*
X5156110Y-13085008D02*
X5146586Y-13075484D01*
X5146586Y-13075484D02*
X5146586Y-13094531D01*
X5270396Y-13275484D02*
X5251348Y-13265960D01*
X5251348Y-13265960D02*
X5241824Y-13246912D01*
X5241824Y-13246912D02*
X5241824Y-13075484D01*
X5375158Y-13275484D02*
X5356110Y-13265960D01*
X5356110Y-13265960D02*
X5346586Y-13246912D01*
X5346586Y-13246912D02*
X5346586Y-13075484D01*
X5603729Y-13275484D02*
X5603729Y-13075484D01*
X5603729Y-13075484D02*
X5670396Y-13218341D01*
X5670396Y-13218341D02*
X5737062Y-13075484D01*
X5737062Y-13075484D02*
X5737062Y-13275484D01*
X5918015Y-13275484D02*
X5918015Y-13170722D01*
X5918015Y-13170722D02*
X5908491Y-13151674D01*
X5908491Y-13151674D02*
X5889443Y-13142150D01*
X5889443Y-13142150D02*
X5851348Y-13142150D01*
X5851348Y-13142150D02*
X5832301Y-13151674D01*
X5918015Y-13265960D02*
X5898967Y-13275484D01*
X5898967Y-13275484D02*
X5851348Y-13275484D01*
X5851348Y-13275484D02*
X5832301Y-13265960D01*
X5832301Y-13265960D02*
X5822777Y-13246912D01*
X5822777Y-13246912D02*
X5822777Y-13227865D01*
X5822777Y-13227865D02*
X5832301Y-13208817D01*
X5832301Y-13208817D02*
X5851348Y-13199293D01*
X5851348Y-13199293D02*
X5898967Y-13199293D01*
X5898967Y-13199293D02*
X5918015Y-13189769D01*
X6013253Y-13142150D02*
X6013253Y-13342150D01*
X6013253Y-13151674D02*
X6032301Y-13142150D01*
X6032301Y-13142150D02*
X6070396Y-13142150D01*
X6070396Y-13142150D02*
X6089443Y-13151674D01*
X6089443Y-13151674D02*
X6098967Y-13161198D01*
X6098967Y-13161198D02*
X6108491Y-13180246D01*
X6108491Y-13180246D02*
X6108491Y-13237388D01*
X6108491Y-13237388D02*
X6098967Y-13256436D01*
X6098967Y-13256436D02*
X6089443Y-13265960D01*
X6089443Y-13265960D02*
X6070396Y-13275484D01*
X6070396Y-13275484D02*
X6032301Y-13275484D01*
X6032301Y-13275484D02*
X6013253Y-13265960D01*
X6194205Y-13256436D02*
X6203729Y-13265960D01*
X6203729Y-13265960D02*
X6194205Y-13275484D01*
X6194205Y-13275484D02*
X6184682Y-13265960D01*
X6184682Y-13265960D02*
X6194205Y-13256436D01*
X6194205Y-13256436D02*
X6194205Y-13275484D01*
X6194205Y-13151674D02*
X6203729Y-13161198D01*
X6203729Y-13161198D02*
X6194205Y-13170722D01*
X6194205Y-13170722D02*
X6184682Y-13161198D01*
X6184682Y-13161198D02*
X6194205Y-13151674D01*
X6194205Y-13151674D02*
X6194205Y-13170722D01*
X4362000Y-13504000D02*
X4562000Y-13704000D01*
X4562000Y-13504000D02*
X4362000Y-13704000D01*
X4803729Y-13495484D02*
X4927539Y-13495484D01*
X4927539Y-13495484D02*
X4860872Y-13571674D01*
X4860872Y-13571674D02*
X4889444Y-13571674D01*
X4889444Y-13571674D02*
X4908491Y-13581198D01*
X4908491Y-13581198D02*
X4918015Y-13590722D01*
X4918015Y-13590722D02*
X4927539Y-13609769D01*
X4927539Y-13609769D02*
X4927539Y-13657388D01*
X4927539Y-13657388D02*
X4918015Y-13676436D01*
X4918015Y-13676436D02*
X4908491Y-13685960D01*
X4908491Y-13685960D02*
X4889444Y-13695484D01*
X4889444Y-13695484D02*
X4832301Y-13695484D01*
X4832301Y-13695484D02*
X4813253Y-13685960D01*
X4813253Y-13685960D02*
X4803729Y-13676436D01*
X5013253Y-13676436D02*
X5022777Y-13685960D01*
X5022777Y-13685960D02*
X5013253Y-13695484D01*
X5013253Y-13695484D02*
X5003729Y-13685960D01*
X5003729Y-13685960D02*
X5013253Y-13676436D01*
X5013253Y-13676436D02*
X5013253Y-13695484D01*
X5098967Y-13514531D02*
X5108491Y-13505008D01*
X5108491Y-13505008D02*
X5127539Y-13495484D01*
X5127539Y-13495484D02*
X5175158Y-13495484D01*
X5175158Y-13495484D02*
X5194205Y-13505008D01*
X5194205Y-13505008D02*
X5203729Y-13514531D01*
X5203729Y-13514531D02*
X5213253Y-13533579D01*
X5213253Y-13533579D02*
X5213253Y-13552627D01*
X5213253Y-13552627D02*
X5203729Y-13581198D01*
X5203729Y-13581198D02*
X5089444Y-13695484D01*
X5089444Y-13695484D02*
X5213253Y-13695484D01*
X5337063Y-13495484D02*
X5356110Y-13495484D01*
X5356110Y-13495484D02*
X5375158Y-13505008D01*
X5375158Y-13505008D02*
X5384682Y-13514531D01*
X5384682Y-13514531D02*
X5394205Y-13533579D01*
X5394205Y-13533579D02*
X5403729Y-13571674D01*
X5403729Y-13571674D02*
X5403729Y-13619293D01*
X5403729Y-13619293D02*
X5394205Y-13657388D01*
X5394205Y-13657388D02*
X5384682Y-13676436D01*
X5384682Y-13676436D02*
X5375158Y-13685960D01*
X5375158Y-13685960D02*
X5356110Y-13695484D01*
X5356110Y-13695484D02*
X5337063Y-13695484D01*
X5337063Y-13695484D02*
X5318015Y-13685960D01*
X5318015Y-13685960D02*
X5308491Y-13676436D01*
X5308491Y-13676436D02*
X5298967Y-13657388D01*
X5298967Y-13657388D02*
X5289444Y-13619293D01*
X5289444Y-13619293D02*
X5289444Y-13571674D01*
X5289444Y-13571674D02*
X5298967Y-13533579D01*
X5298967Y-13533579D02*
X5308491Y-13514531D01*
X5308491Y-13514531D02*
X5318015Y-13505008D01*
X5318015Y-13505008D02*
X5337063Y-13495484D01*
X5527539Y-13495484D02*
X5546586Y-13495484D01*
X5546586Y-13495484D02*
X5565634Y-13505008D01*
X5565634Y-13505008D02*
X5575158Y-13514531D01*
X5575158Y-13514531D02*
X5584682Y-13533579D01*
X5584682Y-13533579D02*
X5594205Y-13571674D01*
X5594205Y-13571674D02*
X5594205Y-13619293D01*
X5594205Y-13619293D02*
X5584682Y-13657388D01*
X5584682Y-13657388D02*
X5575158Y-13676436D01*
X5575158Y-13676436D02*
X5565634Y-13685960D01*
X5565634Y-13685960D02*
X5546586Y-13695484D01*
X5546586Y-13695484D02*
X5527539Y-13695484D01*
X5527539Y-13695484D02*
X5508491Y-13685960D01*
X5508491Y-13685960D02*
X5498967Y-13676436D01*
X5498967Y-13676436D02*
X5489444Y-13657388D01*
X5489444Y-13657388D02*
X5479920Y-13619293D01*
X5479920Y-13619293D02*
X5479920Y-13571674D01*
X5479920Y-13571674D02*
X5489444Y-13533579D01*
X5489444Y-13533579D02*
X5498967Y-13514531D01*
X5498967Y-13514531D02*
X5508491Y-13505008D01*
X5508491Y-13505008D02*
X5527539Y-13495484D01*
X5679920Y-13695484D02*
X5679920Y-13562150D01*
X5679920Y-13581198D02*
X5689443Y-13571674D01*
X5689443Y-13571674D02*
X5708491Y-13562150D01*
X5708491Y-13562150D02*
X5737063Y-13562150D01*
X5737063Y-13562150D02*
X5756110Y-13571674D01*
X5756110Y-13571674D02*
X5765634Y-13590722D01*
X5765634Y-13590722D02*
X5765634Y-13695484D01*
X5765634Y-13590722D02*
X5775158Y-13571674D01*
X5775158Y-13571674D02*
X5794205Y-13562150D01*
X5794205Y-13562150D02*
X5822777Y-13562150D01*
X5822777Y-13562150D02*
X5841824Y-13571674D01*
X5841824Y-13571674D02*
X5851348Y-13590722D01*
X5851348Y-13590722D02*
X5851348Y-13695484D01*
X5946586Y-13695484D02*
X5946586Y-13562150D01*
X5946586Y-13581198D02*
X5956110Y-13571674D01*
X5956110Y-13571674D02*
X5975158Y-13562150D01*
X5975158Y-13562150D02*
X6003729Y-13562150D01*
X6003729Y-13562150D02*
X6022777Y-13571674D01*
X6022777Y-13571674D02*
X6032301Y-13590722D01*
X6032301Y-13590722D02*
X6032301Y-13695484D01*
X6032301Y-13590722D02*
X6041824Y-13571674D01*
X6041824Y-13571674D02*
X6060872Y-13562150D01*
X6060872Y-13562150D02*
X6089443Y-13562150D01*
X6089443Y-13562150D02*
X6108491Y-13571674D01*
X6108491Y-13571674D02*
X6118015Y-13590722D01*
X6118015Y-13590722D02*
X6118015Y-13695484D01*
X6508491Y-13485960D02*
X6337063Y-13743103D01*
X6765634Y-13495484D02*
X6784682Y-13495484D01*
X6784682Y-13495484D02*
X6803729Y-13505008D01*
X6803729Y-13505008D02*
X6813253Y-13514531D01*
X6813253Y-13514531D02*
X6822777Y-13533579D01*
X6822777Y-13533579D02*
X6832301Y-13571674D01*
X6832301Y-13571674D02*
X6832301Y-13619293D01*
X6832301Y-13619293D02*
X6822777Y-13657388D01*
X6822777Y-13657388D02*
X6813253Y-13676436D01*
X6813253Y-13676436D02*
X6803729Y-13685960D01*
X6803729Y-13685960D02*
X6784682Y-13695484D01*
X6784682Y-13695484D02*
X6765634Y-13695484D01*
X6765634Y-13695484D02*
X6746586Y-13685960D01*
X6746586Y-13685960D02*
X6737063Y-13676436D01*
X6737063Y-13676436D02*
X6727539Y-13657388D01*
X6727539Y-13657388D02*
X6718015Y-13619293D01*
X6718015Y-13619293D02*
X6718015Y-13571674D01*
X6718015Y-13571674D02*
X6727539Y-13533579D01*
X6727539Y-13533579D02*
X6737063Y-13514531D01*
X6737063Y-13514531D02*
X6746586Y-13505008D01*
X6746586Y-13505008D02*
X6765634Y-13495484D01*
X6918015Y-13676436D02*
X6927539Y-13685960D01*
X6927539Y-13685960D02*
X6918015Y-13695484D01*
X6918015Y-13695484D02*
X6908491Y-13685960D01*
X6908491Y-13685960D02*
X6918015Y-13676436D01*
X6918015Y-13676436D02*
X6918015Y-13695484D01*
X7118015Y-13695484D02*
X7003729Y-13695484D01*
X7060872Y-13695484D02*
X7060872Y-13495484D01*
X7060872Y-13495484D02*
X7041825Y-13524055D01*
X7041825Y-13524055D02*
X7022777Y-13543103D01*
X7022777Y-13543103D02*
X7003729Y-13552627D01*
X7194206Y-13514531D02*
X7203729Y-13505008D01*
X7203729Y-13505008D02*
X7222777Y-13495484D01*
X7222777Y-13495484D02*
X7270396Y-13495484D01*
X7270396Y-13495484D02*
X7289444Y-13505008D01*
X7289444Y-13505008D02*
X7298967Y-13514531D01*
X7298967Y-13514531D02*
X7308491Y-13533579D01*
X7308491Y-13533579D02*
X7308491Y-13552627D01*
X7308491Y-13552627D02*
X7298967Y-13581198D01*
X7298967Y-13581198D02*
X7184682Y-13695484D01*
X7184682Y-13695484D02*
X7308491Y-13695484D01*
X7479920Y-13495484D02*
X7441825Y-13495484D01*
X7441825Y-13495484D02*
X7422777Y-13505008D01*
X7422777Y-13505008D02*
X7413253Y-13514531D01*
X7413253Y-13514531D02*
X7394206Y-13543103D01*
X7394206Y-13543103D02*
X7384682Y-13581198D01*
X7384682Y-13581198D02*
X7384682Y-13657388D01*
X7384682Y-13657388D02*
X7394206Y-13676436D01*
X7394206Y-13676436D02*
X7403729Y-13685960D01*
X7403729Y-13685960D02*
X7422777Y-13695484D01*
X7422777Y-13695484D02*
X7460872Y-13695484D01*
X7460872Y-13695484D02*
X7479920Y-13685960D01*
X7479920Y-13685960D02*
X7489444Y-13676436D01*
X7489444Y-13676436D02*
X7498967Y-13657388D01*
X7498967Y-13657388D02*
X7498967Y-13609769D01*
X7498967Y-13609769D02*
X7489444Y-13590722D01*
X7489444Y-13590722D02*
X7479920Y-13581198D01*
X7479920Y-13581198D02*
X7460872Y-13571674D01*
X7460872Y-13571674D02*
X7422777Y-13571674D01*
X7422777Y-13571674D02*
X7403729Y-13581198D01*
X7403729Y-13581198D02*
X7394206Y-13590722D01*
X7394206Y-13590722D02*
X7384682Y-13609769D01*
X7622777Y-13495484D02*
X7641825Y-13495484D01*
X7641825Y-13495484D02*
X7660872Y-13505008D01*
X7660872Y-13505008D02*
X7670396Y-13514531D01*
X7670396Y-13514531D02*
X7679920Y-13533579D01*
X7679920Y-13533579D02*
X7689444Y-13571674D01*
X7689444Y-13571674D02*
X7689444Y-13619293D01*
X7689444Y-13619293D02*
X7679920Y-13657388D01*
X7679920Y-13657388D02*
X7670396Y-13676436D01*
X7670396Y-13676436D02*
X7660872Y-13685960D01*
X7660872Y-13685960D02*
X7641825Y-13695484D01*
X7641825Y-13695484D02*
X7622777Y-13695484D01*
X7622777Y-13695484D02*
X7603729Y-13685960D01*
X7603729Y-13685960D02*
X7594206Y-13676436D01*
X7594206Y-13676436D02*
X7584682Y-13657388D01*
X7584682Y-13657388D02*
X7575158Y-13619293D01*
X7575158Y-13619293D02*
X7575158Y-13571674D01*
X7575158Y-13571674D02*
X7584682Y-13533579D01*
X7584682Y-13533579D02*
X7594206Y-13514531D01*
X7594206Y-13514531D02*
X7603729Y-13505008D01*
X7603729Y-13505008D02*
X7622777Y-13495484D01*
X7765634Y-13495484D02*
X7765634Y-13533579D01*
X7841825Y-13495484D02*
X7841825Y-13533579D01*
X8137063Y-13771674D02*
X8127539Y-13762150D01*
X8127539Y-13762150D02*
X8108491Y-13733579D01*
X8108491Y-13733579D02*
X8098968Y-13714531D01*
X8098968Y-13714531D02*
X8089444Y-13685960D01*
X8089444Y-13685960D02*
X8079920Y-13638341D01*
X8079920Y-13638341D02*
X8079920Y-13600246D01*
X8079920Y-13600246D02*
X8089444Y-13552627D01*
X8089444Y-13552627D02*
X8098968Y-13524055D01*
X8098968Y-13524055D02*
X8108491Y-13505008D01*
X8108491Y-13505008D02*
X8127539Y-13476436D01*
X8127539Y-13476436D02*
X8137063Y-13466912D01*
X8298968Y-13562150D02*
X8298968Y-13695484D01*
X8251348Y-13485960D02*
X8203729Y-13628817D01*
X8203729Y-13628817D02*
X8327539Y-13628817D01*
X8556111Y-13695484D02*
X8556111Y-13495484D01*
X8641825Y-13695484D02*
X8641825Y-13590722D01*
X8641825Y-13590722D02*
X8632301Y-13571674D01*
X8632301Y-13571674D02*
X8613253Y-13562150D01*
X8613253Y-13562150D02*
X8584682Y-13562150D01*
X8584682Y-13562150D02*
X8565634Y-13571674D01*
X8565634Y-13571674D02*
X8556111Y-13581198D01*
X8765634Y-13695484D02*
X8746587Y-13685960D01*
X8746587Y-13685960D02*
X8737063Y-13676436D01*
X8737063Y-13676436D02*
X8727539Y-13657388D01*
X8727539Y-13657388D02*
X8727539Y-13600246D01*
X8727539Y-13600246D02*
X8737063Y-13581198D01*
X8737063Y-13581198D02*
X8746587Y-13571674D01*
X8746587Y-13571674D02*
X8765634Y-13562150D01*
X8765634Y-13562150D02*
X8794206Y-13562150D01*
X8794206Y-13562150D02*
X8813253Y-13571674D01*
X8813253Y-13571674D02*
X8822777Y-13581198D01*
X8822777Y-13581198D02*
X8832301Y-13600246D01*
X8832301Y-13600246D02*
X8832301Y-13657388D01*
X8832301Y-13657388D02*
X8822777Y-13676436D01*
X8822777Y-13676436D02*
X8813253Y-13685960D01*
X8813253Y-13685960D02*
X8794206Y-13695484D01*
X8794206Y-13695484D02*
X8765634Y-13695484D01*
X8946587Y-13695484D02*
X8927539Y-13685960D01*
X8927539Y-13685960D02*
X8918015Y-13666912D01*
X8918015Y-13666912D02*
X8918015Y-13495484D01*
X9098968Y-13685960D02*
X9079920Y-13695484D01*
X9079920Y-13695484D02*
X9041825Y-13695484D01*
X9041825Y-13695484D02*
X9022777Y-13685960D01*
X9022777Y-13685960D02*
X9013253Y-13666912D01*
X9013253Y-13666912D02*
X9013253Y-13590722D01*
X9013253Y-13590722D02*
X9022777Y-13571674D01*
X9022777Y-13571674D02*
X9041825Y-13562150D01*
X9041825Y-13562150D02*
X9079920Y-13562150D01*
X9079920Y-13562150D02*
X9098968Y-13571674D01*
X9098968Y-13571674D02*
X9108492Y-13590722D01*
X9108492Y-13590722D02*
X9108492Y-13609769D01*
X9108492Y-13609769D02*
X9013253Y-13628817D01*
X9184682Y-13685960D02*
X9203730Y-13695484D01*
X9203730Y-13695484D02*
X9241825Y-13695484D01*
X9241825Y-13695484D02*
X9260873Y-13685960D01*
X9260873Y-13685960D02*
X9270396Y-13666912D01*
X9270396Y-13666912D02*
X9270396Y-13657388D01*
X9270396Y-13657388D02*
X9260873Y-13638341D01*
X9260873Y-13638341D02*
X9241825Y-13628817D01*
X9241825Y-13628817D02*
X9213253Y-13628817D01*
X9213253Y-13628817D02*
X9194206Y-13619293D01*
X9194206Y-13619293D02*
X9184682Y-13600246D01*
X9184682Y-13600246D02*
X9184682Y-13590722D01*
X9184682Y-13590722D02*
X9194206Y-13571674D01*
X9194206Y-13571674D02*
X9213253Y-13562150D01*
X9213253Y-13562150D02*
X9241825Y-13562150D01*
X9241825Y-13562150D02*
X9260873Y-13571674D01*
X9337063Y-13771674D02*
X9346587Y-13762150D01*
X9346587Y-13762150D02*
X9365634Y-13733579D01*
X9365634Y-13733579D02*
X9375158Y-13714531D01*
X9375158Y-13714531D02*
X9384682Y-13685960D01*
X9384682Y-13685960D02*
X9394206Y-13638341D01*
X9394206Y-13638341D02*
X9394206Y-13600246D01*
X9394206Y-13600246D02*
X9384682Y-13552627D01*
X9384682Y-13552627D02*
X9375158Y-13524055D01*
X9375158Y-13524055D02*
X9365634Y-13505008D01*
X9365634Y-13505008D02*
X9346587Y-13476436D01*
X9346587Y-13476436D02*
X9337063Y-13466912D01*
X9698968Y-13771674D02*
X9689444Y-13762150D01*
X9689444Y-13762150D02*
X9670396Y-13733579D01*
X9670396Y-13733579D02*
X9660873Y-13714531D01*
X9660873Y-13714531D02*
X9651349Y-13685960D01*
X9651349Y-13685960D02*
X9641825Y-13638341D01*
X9641825Y-13638341D02*
X9641825Y-13600246D01*
X9641825Y-13600246D02*
X9651349Y-13552627D01*
X9651349Y-13552627D02*
X9660873Y-13524055D01*
X9660873Y-13524055D02*
X9670396Y-13505008D01*
X9670396Y-13505008D02*
X9689444Y-13476436D01*
X9689444Y-13476436D02*
X9698968Y-13466912D01*
X9775158Y-13562150D02*
X9775158Y-13695484D01*
X9775158Y-13581198D02*
X9784682Y-13571674D01*
X9784682Y-13571674D02*
X9803730Y-13562150D01*
X9803730Y-13562150D02*
X9832301Y-13562150D01*
X9832301Y-13562150D02*
X9851349Y-13571674D01*
X9851349Y-13571674D02*
X9860873Y-13590722D01*
X9860873Y-13590722D02*
X9860873Y-13695484D01*
X9984682Y-13695484D02*
X9965634Y-13685960D01*
X9965634Y-13685960D02*
X9956111Y-13676436D01*
X9956111Y-13676436D02*
X9946587Y-13657388D01*
X9946587Y-13657388D02*
X9946587Y-13600246D01*
X9946587Y-13600246D02*
X9956111Y-13581198D01*
X9956111Y-13581198D02*
X9965634Y-13571674D01*
X9965634Y-13571674D02*
X9984682Y-13562150D01*
X9984682Y-13562150D02*
X10013254Y-13562150D01*
X10013254Y-13562150D02*
X10032301Y-13571674D01*
X10032301Y-13571674D02*
X10041825Y-13581198D01*
X10041825Y-13581198D02*
X10051349Y-13600246D01*
X10051349Y-13600246D02*
X10051349Y-13657388D01*
X10051349Y-13657388D02*
X10041825Y-13676436D01*
X10041825Y-13676436D02*
X10032301Y-13685960D01*
X10032301Y-13685960D02*
X10013254Y-13695484D01*
X10013254Y-13695484D02*
X9984682Y-13695484D01*
X10108492Y-13562150D02*
X10184682Y-13562150D01*
X10137063Y-13495484D02*
X10137063Y-13666912D01*
X10137063Y-13666912D02*
X10146587Y-13685960D01*
X10146587Y-13685960D02*
X10165634Y-13695484D01*
X10165634Y-13695484D02*
X10184682Y-13695484D01*
X10403730Y-13562150D02*
X10403730Y-13762150D01*
X10403730Y-13571674D02*
X10422777Y-13562150D01*
X10422777Y-13562150D02*
X10460873Y-13562150D01*
X10460873Y-13562150D02*
X10479920Y-13571674D01*
X10479920Y-13571674D02*
X10489444Y-13581198D01*
X10489444Y-13581198D02*
X10498968Y-13600246D01*
X10498968Y-13600246D02*
X10498968Y-13657388D01*
X10498968Y-13657388D02*
X10489444Y-13676436D01*
X10489444Y-13676436D02*
X10479920Y-13685960D01*
X10479920Y-13685960D02*
X10460873Y-13695484D01*
X10460873Y-13695484D02*
X10422777Y-13695484D01*
X10422777Y-13695484D02*
X10403730Y-13685960D01*
X10613254Y-13695484D02*
X10594206Y-13685960D01*
X10594206Y-13685960D02*
X10584682Y-13666912D01*
X10584682Y-13666912D02*
X10584682Y-13495484D01*
X10775158Y-13695484D02*
X10775158Y-13590722D01*
X10775158Y-13590722D02*
X10765635Y-13571674D01*
X10765635Y-13571674D02*
X10746587Y-13562150D01*
X10746587Y-13562150D02*
X10708492Y-13562150D01*
X10708492Y-13562150D02*
X10689444Y-13571674D01*
X10775158Y-13685960D02*
X10756111Y-13695484D01*
X10756111Y-13695484D02*
X10708492Y-13695484D01*
X10708492Y-13695484D02*
X10689444Y-13685960D01*
X10689444Y-13685960D02*
X10679920Y-13666912D01*
X10679920Y-13666912D02*
X10679920Y-13647865D01*
X10679920Y-13647865D02*
X10689444Y-13628817D01*
X10689444Y-13628817D02*
X10708492Y-13619293D01*
X10708492Y-13619293D02*
X10756111Y-13619293D01*
X10756111Y-13619293D02*
X10775158Y-13609769D01*
X10841825Y-13562150D02*
X10918015Y-13562150D01*
X10870396Y-13495484D02*
X10870396Y-13666912D01*
X10870396Y-13666912D02*
X10879920Y-13685960D01*
X10879920Y-13685960D02*
X10898968Y-13695484D01*
X10898968Y-13695484D02*
X10918015Y-13695484D01*
X11060873Y-13685960D02*
X11041825Y-13695484D01*
X11041825Y-13695484D02*
X11003730Y-13695484D01*
X11003730Y-13695484D02*
X10984682Y-13685960D01*
X10984682Y-13685960D02*
X10975158Y-13666912D01*
X10975158Y-13666912D02*
X10975158Y-13590722D01*
X10975158Y-13590722D02*
X10984682Y-13571674D01*
X10984682Y-13571674D02*
X11003730Y-13562150D01*
X11003730Y-13562150D02*
X11041825Y-13562150D01*
X11041825Y-13562150D02*
X11060873Y-13571674D01*
X11060873Y-13571674D02*
X11070396Y-13590722D01*
X11070396Y-13590722D02*
X11070396Y-13609769D01*
X11070396Y-13609769D02*
X10975158Y-13628817D01*
X11241825Y-13695484D02*
X11241825Y-13495484D01*
X11241825Y-13685960D02*
X11222777Y-13695484D01*
X11222777Y-13695484D02*
X11184682Y-13695484D01*
X11184682Y-13695484D02*
X11165635Y-13685960D01*
X11165635Y-13685960D02*
X11156111Y-13676436D01*
X11156111Y-13676436D02*
X11146587Y-13657388D01*
X11146587Y-13657388D02*
X11146587Y-13600246D01*
X11146587Y-13600246D02*
X11156111Y-13581198D01*
X11156111Y-13581198D02*
X11165635Y-13571674D01*
X11165635Y-13571674D02*
X11184682Y-13562150D01*
X11184682Y-13562150D02*
X11222777Y-13562150D01*
X11222777Y-13562150D02*
X11241825Y-13571674D01*
X11318015Y-13771674D02*
X11327539Y-13762150D01*
X11327539Y-13762150D02*
X11346587Y-13733579D01*
X11346587Y-13733579D02*
X11356111Y-13714531D01*
X11356111Y-13714531D02*
X11365634Y-13685960D01*
X11365634Y-13685960D02*
X11375158Y-13638341D01*
X11375158Y-13638341D02*
X11375158Y-13600246D01*
X11375158Y-13600246D02*
X11365634Y-13552627D01*
X11365634Y-13552627D02*
X11356111Y-13524055D01*
X11356111Y-13524055D02*
X11346587Y-13505008D01*
X11346587Y-13505008D02*
X11327539Y-13476436D01*
X11327539Y-13476436D02*
X11318015Y-13466912D01*
M02*
