%TF.GenerationSoftware,KiCad,Pcbnew,8.0.5*%
%TF.CreationDate,2024-09-24T14:10:05-04:00*%
%TF.ProjectId,MPD V1,4d504420-5631-42e6-9b69-6361645f7063,rev?*%
%TF.SameCoordinates,Original*%
%TF.FileFunction,Copper,L2,Bot*%
%TF.FilePolarity,Positive*%
%FSLAX46Y46*%
G04 Gerber Fmt 4.6, Leading zero omitted, Abs format (unit mm)*
G04 Created by KiCad (PCBNEW 8.0.5) date 2024-09-24 14:10:05*
%MOMM*%
%LPD*%
G01*
G04 APERTURE LIST*
G04 Aperture macros list*
%AMRoundRect*
0 Rectangle with rounded corners*
0 $1 Rounding radius*
0 $2 $3 $4 $5 $6 $7 $8 $9 X,Y pos of 4 corners*
0 Add a 4 corners polygon primitive as box body*
4,1,4,$2,$3,$4,$5,$6,$7,$8,$9,$2,$3,0*
0 Add four circle primitives for the rounded corners*
1,1,$1+$1,$2,$3*
1,1,$1+$1,$4,$5*
1,1,$1+$1,$6,$7*
1,1,$1+$1,$8,$9*
0 Add four rect primitives between the rounded corners*
20,1,$1+$1,$2,$3,$4,$5,0*
20,1,$1+$1,$4,$5,$6,$7,0*
20,1,$1+$1,$6,$7,$8,$9,0*
20,1,$1+$1,$8,$9,$2,$3,0*%
G04 Aperture macros list end*
%TA.AperFunction,ComponentPad*%
%ADD10C,1.498600*%
%TD*%
%TA.AperFunction,ComponentPad*%
%ADD11R,1.800000X1.800000*%
%TD*%
%TA.AperFunction,ComponentPad*%
%ADD12C,1.800000*%
%TD*%
%TA.AperFunction,ComponentPad*%
%ADD13C,1.905000*%
%TD*%
%TA.AperFunction,ComponentPad*%
%ADD14C,2.250000*%
%TD*%
%TA.AperFunction,ComponentPad*%
%ADD15O,1.800000X1.800000*%
%TD*%
%TA.AperFunction,ComponentPad*%
%ADD16R,1.320800X1.320800*%
%TD*%
%TA.AperFunction,ComponentPad*%
%ADD17C,1.320800*%
%TD*%
%TA.AperFunction,ComponentPad*%
%ADD18R,3.000000X3.000000*%
%TD*%
%TA.AperFunction,ComponentPad*%
%ADD19C,3.000000*%
%TD*%
%TA.AperFunction,SMDPad,CuDef*%
%ADD20RoundRect,0.250000X0.400000X0.625000X-0.400000X0.625000X-0.400000X-0.625000X0.400000X-0.625000X0*%
%TD*%
%TA.AperFunction,ViaPad*%
%ADD21C,0.600000*%
%TD*%
%TA.AperFunction,Conductor*%
%ADD22C,4.000000*%
%TD*%
%TA.AperFunction,Conductor*%
%ADD23C,2.000000*%
%TD*%
%TA.AperFunction,Conductor*%
%ADD24C,0.200000*%
%TD*%
G04 APERTURE END LIST*
D10*
%TO.P,K5,1,1*%
%TO.N,/Relay5/NO1*%
X130460000Y-85208451D03*
%TO.P,K5,2,2*%
%TO.N,+12V Fused*%
X130460000Y-73008450D03*
%TO.P,K5,3,3*%
%TO.N,/Relay5/FUSED_COM1*%
X124460002Y-71108451D03*
%TO.P,K5,4,4*%
%TO.N,/Relay5/Relay*%
X118460004Y-73008450D03*
%TO.P,K5,5,5*%
%TO.N,/Relay5/NC1*%
X118460004Y-85208451D03*
%TD*%
%TO.P,K8,1,1*%
%TO.N,/Relay8/NO1*%
X69500000Y-85208451D03*
%TO.P,K8,2,2*%
%TO.N,+12V Fused*%
X69500000Y-73008450D03*
%TO.P,K8,3,3*%
%TO.N,/Relay8/FUSED_COM1*%
X63500002Y-71108451D03*
%TO.P,K8,4,4*%
%TO.N,/Relay8/Relay*%
X57500004Y-73008450D03*
%TO.P,K8,5,5*%
%TO.N,/Relay8/NC1*%
X57500004Y-85208451D03*
%TD*%
D11*
%TO.P,LED6,1,K*%
%TO.N,Net-(LED6-K)*%
X105060000Y-63793552D03*
D12*
%TO.P,LED6,2,A*%
%TO.N,/Relay6/Relay*%
X102520000Y-63793552D03*
%TD*%
D13*
%TO.P,Con4,1,Pin_1*%
%TO.N,/Relay4/NC1*%
X139700000Y-119071001D03*
%TO.P,Con4,2,Pin_2*%
%TO.N,/Relay4/COM1*%
X144780000Y-119071001D03*
%TO.P,Con4,3,Pin_3*%
%TO.N,/Relay4/NO1*%
X149860000Y-119071001D03*
%TD*%
D14*
%TO.P,F2,1*%
%TO.N,/Relay2/COM1*%
X185420000Y-111451001D03*
%TO.P,F2,2*%
%TO.N,/Relay2/FUSED_COM1*%
X185420000Y-96451001D03*
%TD*%
D11*
%TO.P,LED4,1,K*%
%TO.N,Net-(LED4-K)*%
X145699998Y-63793552D03*
D12*
%TO.P,LED4,2,A*%
%TO.N,/Relay4/Relay*%
X143159998Y-63793552D03*
%TD*%
D14*
%TO.P,F3,1*%
%TO.N,/Relay3/COM1*%
X165100002Y-111451001D03*
%TO.P,F3,2*%
%TO.N,/Relay3/FUSED_COM1*%
X165100002Y-96451001D03*
%TD*%
D11*
%TO.P,D1,1,K*%
%TO.N,+12V Fused*%
X207010000Y-57150000D03*
D15*
%TO.P,D1,2,A*%
%TO.N,GND*%
X207010000Y-44450000D03*
%TD*%
D13*
%TO.P,Con5,1,Pin_1*%
%TO.N,/Relay5/NC1*%
X119380002Y-119071001D03*
%TO.P,Con5,2,Pin_2*%
%TO.N,/Relay5/COM1*%
X124460002Y-119071001D03*
%TO.P,Con5,3,Pin_3*%
%TO.N,/Relay5/NO1*%
X129540002Y-119071001D03*
%TD*%
D14*
%TO.P,F6,1*%
%TO.N,/Relay6/COM1*%
X104140002Y-111451001D03*
%TO.P,F6,2*%
%TO.N,/Relay6/FUSED_COM1*%
X104140002Y-96451001D03*
%TD*%
D11*
%TO.P,LED0,1,K*%
%TO.N,Net-(LED0-K)*%
X149790000Y-53340000D03*
D12*
%TO.P,LED0,2,A*%
%TO.N,+12V Fused*%
X147250000Y-53340000D03*
%TD*%
D14*
%TO.P,F8,1*%
%TO.N,/Relay8/COM1*%
X63500002Y-111451001D03*
%TO.P,F8,2*%
%TO.N,/Relay8/FUSED_COM1*%
X63500002Y-96451001D03*
%TD*%
D13*
%TO.P,Con6,1,Pin_1*%
%TO.N,/Relay6/NC1*%
X99060002Y-119071001D03*
%TO.P,Con6,2,Pin_2*%
%TO.N,/Relay6/COM1*%
X104140002Y-119071001D03*
%TO.P,Con6,3,Pin_3*%
%TO.N,/Relay6/NO1*%
X109220002Y-119071001D03*
%TD*%
%TO.P,Con3,1,Pin_1*%
%TO.N,/Relay3/NC1*%
X160020002Y-119071001D03*
%TO.P,Con3,2,Pin_2*%
%TO.N,/Relay3/COM1*%
X165100002Y-119071001D03*
%TO.P,Con3,3,Pin_3*%
%TO.N,/Relay3/NO1*%
X170180002Y-119071001D03*
%TD*%
D10*
%TO.P,K1,1,1*%
%TO.N,/Relay1/NO1*%
X210820000Y-85208451D03*
%TO.P,K1,2,2*%
%TO.N,+12V Fused*%
X210820000Y-73008450D03*
%TO.P,K1,3,3*%
%TO.N,/Relay1/FUSED_COM1*%
X204820002Y-71108451D03*
%TO.P,K1,4,4*%
%TO.N,/Relay1/Relay*%
X198820004Y-73008450D03*
%TO.P,K1,5,5*%
%TO.N,/Relay1/NC1*%
X198820004Y-85208451D03*
%TD*%
D14*
%TO.P,F1,1*%
%TO.N,/Relay1/COM1*%
X204820002Y-111451001D03*
%TO.P,F1,2*%
%TO.N,/Relay1/FUSED_COM1*%
X204820002Y-96451001D03*
%TD*%
D10*
%TO.P,K3,1,1*%
%TO.N,/Relay3/NO1*%
X171100000Y-85208451D03*
%TO.P,K3,2,2*%
%TO.N,+12V Fused*%
X171100000Y-73008450D03*
%TO.P,K3,3,3*%
%TO.N,/Relay3/FUSED_COM1*%
X165100002Y-71108451D03*
%TO.P,K3,4,4*%
%TO.N,/Relay3/Relay*%
X159100004Y-73008450D03*
%TO.P,K3,5,5*%
%TO.N,/Relay3/NC1*%
X159100004Y-85208451D03*
%TD*%
D14*
%TO.P,F5,1*%
%TO.N,/Relay5/COM1*%
X124460002Y-111451001D03*
%TO.P,F5,2*%
%TO.N,/Relay5/FUSED_COM1*%
X124460002Y-96451001D03*
%TD*%
D13*
%TO.P,Con1,1,Pin_1*%
%TO.N,/Relay1/NC1*%
X199740002Y-119071001D03*
%TO.P,Con1,2,Pin_2*%
%TO.N,/Relay1/COM1*%
X204820002Y-119071001D03*
%TO.P,Con1,3,Pin_3*%
%TO.N,/Relay1/NO1*%
X209900002Y-119071001D03*
%TD*%
D11*
%TO.P,LED8,1,K*%
%TO.N,Net-(LED8-K)*%
X64420000Y-63793552D03*
D12*
%TO.P,LED8,2,A*%
%TO.N,/Relay8/Relay*%
X61880000Y-63793552D03*
%TD*%
D16*
%TO.P,SW1,1,1*%
%TO.N,VCC*%
X111760000Y-50800000D03*
D17*
%TO.P,SW1,2,2*%
X111760000Y-53340000D03*
%TO.P,SW1,3,3*%
X111760000Y-55880000D03*
%TO.P,SW1,4,4*%
%TO.N,/A2*%
X119380000Y-55880000D03*
%TO.P,SW1,5,5*%
%TO.N,/A1*%
X119380000Y-53340000D03*
%TO.P,SW1,6,6*%
%TO.N,/A0*%
X119380000Y-50800000D03*
%TD*%
D10*
%TO.P,K4,1,1*%
%TO.N,/Relay4/NO1*%
X150779998Y-85208451D03*
%TO.P,K4,2,2*%
%TO.N,+12V Fused*%
X150779998Y-73008450D03*
%TO.P,K4,3,3*%
%TO.N,/Relay4/FUSED_COM1*%
X144780000Y-71108451D03*
%TO.P,K4,4,4*%
%TO.N,/Relay4/Relay*%
X138780002Y-73008450D03*
%TO.P,K4,5,5*%
%TO.N,/Relay4/NC1*%
X138780002Y-85208451D03*
%TD*%
D13*
%TO.P,Con7,1,Pin_1*%
%TO.N,/Relay7/NC1*%
X78740002Y-119071001D03*
%TO.P,Con7,2,Pin_2*%
%TO.N,/Relay7/COM1*%
X83820002Y-119071001D03*
%TO.P,Con7,3,Pin_3*%
%TO.N,/Relay7/NO1*%
X88900002Y-119071001D03*
%TD*%
D10*
%TO.P,K2,1,1*%
%TO.N,/Relay2/NO1*%
X191419998Y-85208451D03*
%TO.P,K2,2,2*%
%TO.N,+12V Fused*%
X191419998Y-73008450D03*
%TO.P,K2,3,3*%
%TO.N,/Relay2/FUSED_COM1*%
X185420000Y-71108451D03*
%TO.P,K2,4,4*%
%TO.N,/Relay2/Relay*%
X179420002Y-73008450D03*
%TO.P,K2,5,5*%
%TO.N,/Relay2/NC1*%
X179420002Y-85208451D03*
%TD*%
D14*
%TO.P,F7,1*%
%TO.N,/Relay7/COM1*%
X83820002Y-111451001D03*
%TO.P,F7,2*%
%TO.N,/Relay7/FUSED_COM1*%
X83820002Y-96451001D03*
%TD*%
D11*
%TO.P,LED2,1,K*%
%TO.N,Net-(LED2-K)*%
X186339998Y-63793552D03*
D12*
%TO.P,LED2,2,A*%
%TO.N,/Relay2/Relay*%
X183799998Y-63793552D03*
%TD*%
D14*
%TO.P,F4,1*%
%TO.N,/Relay4/COM1*%
X144780000Y-111451001D03*
%TO.P,F4,2*%
%TO.N,/Relay4/FUSED_COM1*%
X144780000Y-96451001D03*
%TD*%
D18*
%TO.P,J5,1,Pin_1*%
%TO.N,+12V*%
X116205000Y-43694502D03*
D19*
%TO.P,J5,2,Pin_2*%
%TO.N,GND*%
X111125000Y-43694502D03*
%TD*%
D13*
%TO.P,Con2,1,Pin_1*%
%TO.N,/Relay2/NC1*%
X180340000Y-119071001D03*
%TO.P,Con2,2,Pin_2*%
%TO.N,/Relay2/COM1*%
X185420000Y-119071001D03*
%TO.P,Con2,3,Pin_3*%
%TO.N,/Relay2/NO1*%
X190500000Y-119071001D03*
%TD*%
D11*
%TO.P,LED7,1,K*%
%TO.N,Net-(LED7-K)*%
X84740000Y-63793552D03*
D12*
%TO.P,LED7,2,A*%
%TO.N,/Relay7/Relay*%
X82200000Y-63793552D03*
%TD*%
D11*
%TO.P,LED3,1,K*%
%TO.N,Net-(LED3-K)*%
X166020000Y-63793552D03*
D12*
%TO.P,LED3,2,A*%
%TO.N,/Relay3/Relay*%
X163480000Y-63793552D03*
%TD*%
D10*
%TO.P,K7,1,1*%
%TO.N,/Relay7/NO1*%
X89820000Y-85208451D03*
%TO.P,K7,2,2*%
%TO.N,+12V Fused*%
X89820000Y-73008450D03*
%TO.P,K7,3,3*%
%TO.N,/Relay7/FUSED_COM1*%
X83820002Y-71108451D03*
%TO.P,K7,4,4*%
%TO.N,/Relay7/Relay*%
X77820004Y-73008450D03*
%TO.P,K7,5,5*%
%TO.N,/Relay7/NC1*%
X77820004Y-85208451D03*
%TD*%
D11*
%TO.P,LED1,1,K*%
%TO.N,Net-(LED1-K)*%
X205740000Y-63793552D03*
D12*
%TO.P,LED1,2,A*%
%TO.N,/Relay1/Relay*%
X203200000Y-63793552D03*
%TD*%
D14*
%TO.P,F0,1*%
%TO.N,+12V*%
X127755000Y-44964502D03*
%TO.P,F0,2*%
%TO.N,+12V Fused*%
X142755000Y-44964502D03*
%TD*%
D13*
%TO.P,Con8,1,Pin_1*%
%TO.N,/Relay8/NC1*%
X58420002Y-119071001D03*
%TO.P,Con8,2,Pin_2*%
%TO.N,/Relay8/COM1*%
X63500002Y-119071001D03*
%TO.P,Con8,3,Pin_3*%
%TO.N,/Relay8/NO1*%
X68580002Y-119071001D03*
%TD*%
D11*
%TO.P,LED5,1,K*%
%TO.N,Net-(LED5-K)*%
X125380000Y-63793552D03*
D12*
%TO.P,LED5,2,A*%
%TO.N,/Relay5/Relay*%
X122840000Y-63793552D03*
%TD*%
D10*
%TO.P,K6,1,1*%
%TO.N,/Relay6/NO1*%
X110140000Y-85208451D03*
%TO.P,K6,2,2*%
%TO.N,+12V Fused*%
X110140000Y-73008450D03*
%TO.P,K6,3,3*%
%TO.N,/Relay6/FUSED_COM1*%
X104140002Y-71108451D03*
%TO.P,K6,4,4*%
%TO.N,/Relay6/Relay*%
X98140004Y-73008450D03*
%TO.P,K6,5,5*%
%TO.N,/Relay6/NC1*%
X98140004Y-85208451D03*
%TD*%
D20*
%TO.P,R14,1*%
%TO.N,/A2*%
X134035000Y-41275000D03*
%TO.P,R14,2*%
%TO.N,GND*%
X130935000Y-41275000D03*
%TD*%
%TO.P,R12,1*%
%TO.N,/A0*%
X133985000Y-48260000D03*
%TO.P,R12,2*%
%TO.N,GND*%
X130885000Y-48260000D03*
%TD*%
%TO.P,R13,1*%
%TO.N,/A1*%
X133985000Y-45085000D03*
%TO.P,R13,2*%
%TO.N,GND*%
X130885000Y-45085000D03*
%TD*%
D21*
%TO.N,+12V Fused*%
X172720000Y-53340000D03*
X90170000Y-53340000D03*
X90170000Y-58420000D03*
%TO.N,GND*%
X203200000Y-45720000D03*
X139954000Y-48514000D03*
X114935000Y-55880000D03*
X148590000Y-62865000D03*
X208280000Y-65405000D03*
X175260000Y-43815000D03*
X210820000Y-50800000D03*
X152908000Y-47244000D03*
X124460000Y-52070000D03*
X101600000Y-66040000D03*
X142240000Y-52070000D03*
X99060000Y-49530000D03*
X58420000Y-48260000D03*
X99695000Y-58420000D03*
X180340000Y-43815000D03*
X160528000Y-40640000D03*
X141605000Y-53975000D03*
X100330000Y-52070000D03*
X182880000Y-58420000D03*
X168910000Y-51435000D03*
X95885000Y-67310000D03*
X147574000Y-44958000D03*
X203200000Y-50800000D03*
X71120000Y-66675000D03*
X210820000Y-45720000D03*
X135255000Y-57785000D03*
X182880000Y-43815000D03*
X158750000Y-42926000D03*
X107950000Y-56515000D03*
X156210000Y-55245000D03*
X156845000Y-67310000D03*
X152908000Y-42926000D03*
X158750000Y-50800000D03*
X172720000Y-43815000D03*
X169545000Y-56515000D03*
X158750000Y-47244000D03*
X158750000Y-44450000D03*
X189230000Y-65405000D03*
X142240000Y-66040000D03*
X168910000Y-66040000D03*
X161290000Y-45085000D03*
X63500000Y-50800000D03*
X149352000Y-47498000D03*
X146050000Y-42926000D03*
X152908000Y-45212000D03*
X167005000Y-53975000D03*
X129540000Y-66040000D03*
X176530000Y-67310000D03*
X63500000Y-48260000D03*
X177800000Y-43815000D03*
X122555000Y-54610000D03*
X155956000Y-40894000D03*
X102870000Y-50800000D03*
X58420000Y-50800000D03*
X81280000Y-66040000D03*
%TO.N,VCC*%
X140970000Y-49189020D03*
%TO.N,Net-(U1-P6)*%
X147955000Y-55880000D03*
X175895000Y-48895000D03*
%TO.N,/SCL*%
X151505000Y-44515000D03*
X151505000Y-48768000D03*
X160395000Y-44450000D03*
X160395000Y-48768000D03*
%TO.N,Net-(U1-P4)*%
X151173403Y-57224127D03*
X182245000Y-48260000D03*
%TO.N,/A0*%
X133350000Y-52705000D03*
%TO.N,/A1*%
X133985000Y-53340000D03*
%TO.N,/A2*%
X127000000Y-54199502D03*
X134620000Y-53975000D03*
%TD*%
D22*
%TO.N,/Relay1/NO1*%
X210820000Y-118151003D02*
X209900002Y-119071001D01*
X210820000Y-85208451D02*
X210820000Y-118151003D01*
%TO.N,/Relay1/NC1*%
X198820004Y-85208451D02*
X198820004Y-118151003D01*
X198820004Y-118151003D02*
X199740002Y-119071001D01*
%TO.N,/Relay1/COM1*%
X204820002Y-111451001D02*
X204820002Y-119071001D01*
D23*
%TO.N,+12V*%
X116205000Y-43694502D02*
X126485000Y-43694502D01*
X126485000Y-43694502D02*
X127755000Y-44964502D01*
%TO.N,+12V Fused*%
X191419998Y-67660002D02*
X198120000Y-60960000D01*
X139700000Y-60940000D02*
X147200000Y-53440000D01*
X210820000Y-72714898D02*
X210820000Y-63780000D01*
X139700000Y-60960000D02*
X139700000Y-60940000D01*
X207010000Y-60960000D02*
X207010000Y-57150000D01*
X171100000Y-67660000D02*
X177800000Y-60960000D01*
X208000000Y-60960000D02*
X207010000Y-60960000D01*
X89820000Y-73034898D02*
X89820000Y-67660000D01*
X110140000Y-67660000D02*
X116840000Y-60960000D01*
X150779998Y-73008450D02*
X150779998Y-70200002D01*
X172720000Y-58420000D02*
X172720000Y-53340000D01*
X81548450Y-60960000D02*
X82550000Y-60960000D01*
X177800000Y-60960000D02*
X172720000Y-60960000D01*
X69500000Y-73008450D02*
X81548450Y-60960000D01*
X89820000Y-73008450D02*
X89820000Y-67660000D01*
X130460000Y-73034898D02*
X130460000Y-70200000D01*
X96520000Y-60960000D02*
X90170000Y-60960000D01*
X90170000Y-58420000D02*
X90170000Y-60960000D01*
X210820000Y-73008450D02*
X210820000Y-64073552D01*
X172720000Y-60960000D02*
X172720000Y-58420000D01*
X147200000Y-49409502D02*
X142755000Y-44964502D01*
X207010000Y-60960000D02*
X198120000Y-60960000D01*
X160020000Y-60960000D02*
X139700000Y-60960000D01*
X139700000Y-60960000D02*
X116840000Y-60960000D01*
X198120000Y-60960000D02*
X177800000Y-60960000D01*
X90170000Y-60960000D02*
X82550000Y-60960000D01*
X171100000Y-73008450D02*
X171100000Y-67660000D01*
X172720000Y-60960000D02*
X160020000Y-60960000D01*
X150779998Y-70200002D02*
X160020000Y-60960000D01*
X89820000Y-67660000D02*
X96520000Y-60960000D01*
X191419998Y-73008450D02*
X191419998Y-67660002D01*
X116840000Y-60960000D02*
X96520000Y-60960000D01*
X210820000Y-63780000D02*
X208000000Y-60960000D01*
X130460000Y-73008450D02*
X130460000Y-70200000D01*
X147200000Y-53440000D02*
X147200000Y-49409502D01*
X130460000Y-70200000D02*
X139700000Y-60960000D01*
X110140000Y-73008450D02*
X110140000Y-67660000D01*
X208000000Y-61253552D02*
X208000000Y-60960000D01*
X210820000Y-64073552D02*
X208000000Y-61253552D01*
X90170000Y-53340000D02*
X90170000Y-58420000D01*
D24*
%TO.N,VCC*%
X111760000Y-55880000D02*
X111760000Y-50800000D01*
X140970000Y-49189020D02*
X131739020Y-58420000D01*
X131739020Y-58420000D02*
X114300000Y-58420000D01*
X114300000Y-58420000D02*
X111760000Y-55880000D01*
%TO.N,Net-(U1-P6)*%
X155445000Y-50035000D02*
X149600000Y-55880000D01*
X174755000Y-50035000D02*
X155445000Y-50035000D01*
X175895000Y-48895000D02*
X174755000Y-50035000D01*
X149600000Y-55880000D02*
X147955000Y-55880000D01*
%TO.N,/SCL*%
X160395000Y-48768000D02*
X160395000Y-44450000D01*
X151505000Y-48768000D02*
X151505000Y-44515000D01*
%TO.N,Net-(U1-P4)*%
X166573131Y-57224127D02*
X167778629Y-56018629D01*
X181610000Y-51435000D02*
X182245000Y-50800000D01*
X165735000Y-57224127D02*
X166573131Y-57224127D01*
X151173403Y-57224127D02*
X165735000Y-57224127D01*
X167778629Y-56018629D02*
X172362258Y-51435000D01*
X182245000Y-50800000D02*
X182245000Y-48260000D01*
X172362258Y-51435000D02*
X181610000Y-51435000D01*
D22*
%TO.N,/Relay2/COM1*%
X185420000Y-111451001D02*
X185420000Y-119071001D01*
%TO.N,/Relay2/NO1*%
X191419998Y-85208451D02*
X191419998Y-118151003D01*
X191419998Y-118151003D02*
X190500000Y-119071001D01*
%TO.N,/Relay2/NC1*%
X179420002Y-85208451D02*
X179420002Y-118151003D01*
X179420002Y-118151003D02*
X180340000Y-119071001D01*
%TO.N,/Relay3/NC1*%
X159100004Y-118151003D02*
X160020002Y-119071001D01*
X159100004Y-85208451D02*
X159100004Y-118151003D01*
%TO.N,/Relay3/NO1*%
X171100000Y-85208451D02*
X171100000Y-118151003D01*
X171100000Y-118151003D02*
X170180002Y-119071001D01*
%TO.N,/Relay3/COM1*%
X165100002Y-111451001D02*
X165100002Y-119071001D01*
%TO.N,/Relay4/NO1*%
X150779998Y-118151003D02*
X149860000Y-119071001D01*
X150779998Y-85208451D02*
X150779998Y-118151003D01*
%TO.N,/Relay4/COM1*%
X144780000Y-111451001D02*
X144780000Y-119071001D01*
%TO.N,/Relay4/NC1*%
X138780002Y-118151003D02*
X139700000Y-119071001D01*
X138780002Y-85208451D02*
X138780002Y-118151003D01*
%TO.N,/Relay1/FUSED_COM1*%
X204820002Y-96451001D02*
X204820002Y-71108451D01*
%TO.N,/Relay2/FUSED_COM1*%
X185420000Y-71108451D02*
X185420000Y-96451001D01*
%TO.N,/Relay3/FUSED_COM1*%
X165100002Y-71108451D02*
X165100002Y-96451001D01*
%TO.N,/Relay4/FUSED_COM1*%
X144780000Y-96451001D02*
X144780000Y-71108451D01*
%TO.N,/Relay5/NO1*%
X130460000Y-85208451D02*
X130460000Y-118151003D01*
X130460000Y-118151003D02*
X129540002Y-119071001D01*
%TO.N,/Relay5/COM1*%
X124460002Y-111451001D02*
X124460002Y-119071001D01*
%TO.N,/Relay5/NC1*%
X118460004Y-118151003D02*
X119380002Y-119071001D01*
X118460004Y-85208451D02*
X118460004Y-118151003D01*
%TO.N,/Relay5/FUSED_COM1*%
X124460002Y-96451001D02*
X124460002Y-71108451D01*
%TO.N,/Relay6/COM1*%
X104140002Y-111451001D02*
X104140002Y-119071001D01*
%TO.N,/Relay6/NO1*%
X110140000Y-118151003D02*
X109220002Y-119071001D01*
X110140000Y-85208451D02*
X110140000Y-118151003D01*
%TO.N,/Relay6/NC1*%
X98140004Y-85208451D02*
X98140004Y-118151003D01*
X98140004Y-118151003D02*
X99060002Y-119071001D01*
%TO.N,/Relay7/NO1*%
X89820000Y-85208451D02*
X89820000Y-118151003D01*
X89820000Y-118151003D02*
X88900002Y-119071001D01*
%TO.N,/Relay7/COM1*%
X83820002Y-111451001D02*
X83820002Y-119071001D01*
%TO.N,/Relay7/NC1*%
X77820004Y-118151003D02*
X78740002Y-119071001D01*
X77820004Y-85208451D02*
X77820004Y-118151003D01*
%TO.N,/Relay8/NO1*%
X69500000Y-118460000D02*
X68580000Y-119380000D01*
X69500000Y-85208451D02*
X69500000Y-118460000D01*
%TO.N,/Relay8/COM1*%
X63500002Y-111451001D02*
X63500002Y-119071001D01*
%TO.N,/Relay8/NC1*%
X57500004Y-118151003D02*
X58420002Y-119071001D01*
X57500004Y-85208451D02*
X57500004Y-118151003D01*
%TO.N,/Relay6/FUSED_COM1*%
X104140002Y-71108451D02*
X104140002Y-96451001D01*
%TO.N,/Relay7/FUSED_COM1*%
X83820002Y-96451001D02*
X83820002Y-71108451D01*
%TO.N,/Relay8/FUSED_COM1*%
X63500002Y-96451001D02*
X63500002Y-71108451D01*
D24*
%TO.N,Net-(LED0-K)*%
X149740000Y-53440000D02*
X149740000Y-53340000D01*
%TO.N,/A0*%
X133985000Y-48260000D02*
X133985000Y-52070000D01*
X133985000Y-52070000D02*
X133350000Y-52705000D01*
%TO.N,/A1*%
X134935000Y-52390000D02*
X133985000Y-53340000D01*
X133985000Y-45085000D02*
X134935000Y-46035000D01*
X134935000Y-46035000D02*
X134935000Y-52390000D01*
%TO.N,/A2*%
X125319502Y-55880000D02*
X119380000Y-55880000D01*
X127000000Y-54199502D02*
X125319502Y-55880000D01*
X135890000Y-43130000D02*
X135890000Y-52705000D01*
X135890000Y-52705000D02*
X134620000Y-53975000D01*
X134035000Y-41275000D02*
X135890000Y-43130000D01*
%TD*%
%TA.AperFunction,Conductor*%
%TO.N,GND*%
G36*
X222962539Y-39636185D02*
G01*
X223008294Y-39688989D01*
X223019500Y-39740500D01*
X223019500Y-68456000D01*
X222999815Y-68523039D01*
X222947011Y-68568794D01*
X222895500Y-68580000D01*
X212444500Y-68580000D01*
X212377461Y-68560315D01*
X212331706Y-68507511D01*
X212320500Y-68456000D01*
X212320500Y-63661902D01*
X212283553Y-63428631D01*
X212210566Y-63204003D01*
X212134772Y-63055250D01*
X212134771Y-63055249D01*
X212103344Y-62993568D01*
X212103340Y-62993562D01*
X211964517Y-62802490D01*
X208977510Y-59815483D01*
X208786434Y-59676657D01*
X208578205Y-59570559D01*
X208527409Y-59522584D01*
X208510500Y-59460074D01*
X208510500Y-57031902D01*
X208485586Y-56874603D01*
X208473553Y-56798632D01*
X208416568Y-56623251D01*
X208410499Y-56584933D01*
X208410499Y-56202129D01*
X208410498Y-56202123D01*
X208410497Y-56202116D01*
X208404091Y-56142517D01*
X208386080Y-56094228D01*
X208353797Y-56007671D01*
X208353793Y-56007664D01*
X208267547Y-55892455D01*
X208267544Y-55892452D01*
X208152335Y-55806206D01*
X208152328Y-55806202D01*
X208017482Y-55755908D01*
X208017483Y-55755908D01*
X207957883Y-55749501D01*
X207957881Y-55749500D01*
X207957873Y-55749500D01*
X207957865Y-55749500D01*
X207575065Y-55749500D01*
X207536747Y-55743431D01*
X207361370Y-55686447D01*
X207128097Y-55649500D01*
X207128092Y-55649500D01*
X206891908Y-55649500D01*
X206891903Y-55649500D01*
X206658630Y-55686447D01*
X206483251Y-55743431D01*
X206444933Y-55749500D01*
X206062130Y-55749500D01*
X206062123Y-55749501D01*
X206002516Y-55755908D01*
X205867671Y-55806202D01*
X205867664Y-55806206D01*
X205752455Y-55892452D01*
X205752452Y-55892455D01*
X205666206Y-56007664D01*
X205666202Y-56007671D01*
X205615908Y-56142517D01*
X205609501Y-56202116D01*
X205609501Y-56202123D01*
X205609500Y-56202135D01*
X205609500Y-56584934D01*
X205603431Y-56623252D01*
X205546447Y-56798630D01*
X205509500Y-57031902D01*
X205509500Y-59335500D01*
X205489815Y-59402539D01*
X205437011Y-59448294D01*
X205385500Y-59459500D01*
X174344500Y-59459500D01*
X174277461Y-59439815D01*
X174231706Y-59387011D01*
X174220500Y-59335500D01*
X174220500Y-53221902D01*
X174183553Y-52988631D01*
X174128264Y-52818472D01*
X174110568Y-52764008D01*
X174110566Y-52764005D01*
X174110566Y-52764003D01*
X174040220Y-52625943D01*
X174003343Y-52553567D01*
X173864517Y-52362490D01*
X173749208Y-52247181D01*
X173715723Y-52185858D01*
X173720707Y-52116166D01*
X173762579Y-52060233D01*
X173828043Y-52035816D01*
X173836889Y-52035500D01*
X181523331Y-52035500D01*
X181523347Y-52035501D01*
X181530943Y-52035501D01*
X181689054Y-52035501D01*
X181689057Y-52035501D01*
X181841785Y-51994577D01*
X181900115Y-51960900D01*
X181978716Y-51915520D01*
X182090520Y-51803716D01*
X182090520Y-51803714D01*
X182100724Y-51793511D01*
X182100727Y-51793506D01*
X182725520Y-51168716D01*
X182804577Y-51031784D01*
X182845501Y-50879057D01*
X182845501Y-50720942D01*
X182845501Y-50713347D01*
X182845500Y-50713329D01*
X182845500Y-48842412D01*
X182865185Y-48775373D01*
X182872555Y-48765097D01*
X182874810Y-48762267D01*
X182874816Y-48762262D01*
X182970789Y-48609522D01*
X183030368Y-48439255D01*
X183030369Y-48439249D01*
X183050565Y-48260003D01*
X183050565Y-48259996D01*
X183030369Y-48080750D01*
X183030368Y-48080745D01*
X182970788Y-47910476D01*
X182874815Y-47757737D01*
X182747262Y-47630184D01*
X182594523Y-47534211D01*
X182424254Y-47474631D01*
X182424249Y-47474630D01*
X182245004Y-47454435D01*
X182244996Y-47454435D01*
X182065750Y-47474630D01*
X182065745Y-47474631D01*
X181895476Y-47534211D01*
X181742737Y-47630184D01*
X181615184Y-47757737D01*
X181519211Y-47910476D01*
X181459631Y-48080745D01*
X181459630Y-48080750D01*
X181439435Y-48259996D01*
X181439435Y-48260003D01*
X181459630Y-48439249D01*
X181459631Y-48439254D01*
X181519211Y-48609523D01*
X181615185Y-48762263D01*
X181617445Y-48765097D01*
X181618334Y-48767275D01*
X181618889Y-48768158D01*
X181618734Y-48768255D01*
X181643855Y-48829783D01*
X181644500Y-48842412D01*
X181644500Y-50499902D01*
X181624815Y-50566941D01*
X181608181Y-50587583D01*
X181397584Y-50798181D01*
X181336261Y-50831666D01*
X181309903Y-50834500D01*
X175030949Y-50834500D01*
X174963910Y-50814815D01*
X174918155Y-50762011D01*
X174908211Y-50692853D01*
X174937236Y-50629297D01*
X174979747Y-50598643D01*
X174979746Y-50598641D01*
X174979769Y-50598627D01*
X174983502Y-50595936D01*
X174986773Y-50594580D01*
X174986785Y-50594577D01*
X175057033Y-50554019D01*
X175123716Y-50515520D01*
X175235520Y-50403716D01*
X175235520Y-50403714D01*
X175245724Y-50393511D01*
X175245728Y-50393506D01*
X175913535Y-49725698D01*
X175974856Y-49692215D01*
X175987311Y-49690163D01*
X176074255Y-49680368D01*
X176244522Y-49620789D01*
X176397262Y-49524816D01*
X176524816Y-49397262D01*
X176620789Y-49244522D01*
X176680368Y-49074255D01*
X176680369Y-49074249D01*
X176700565Y-48895003D01*
X176700565Y-48894996D01*
X176680369Y-48715750D01*
X176680368Y-48715745D01*
X176643199Y-48609522D01*
X176620789Y-48545478D01*
X176524816Y-48392738D01*
X176397262Y-48265184D01*
X176390150Y-48260715D01*
X176244523Y-48169211D01*
X176074254Y-48109631D01*
X176074249Y-48109630D01*
X175895004Y-48089435D01*
X175894996Y-48089435D01*
X175715750Y-48109630D01*
X175715745Y-48109631D01*
X175545476Y-48169211D01*
X175392737Y-48265184D01*
X175265184Y-48392737D01*
X175169210Y-48545478D01*
X175109630Y-48715750D01*
X175099837Y-48802668D01*
X175072770Y-48867082D01*
X175064298Y-48876465D01*
X174542584Y-49398181D01*
X174481261Y-49431666D01*
X174454903Y-49434500D01*
X161145980Y-49434500D01*
X161078941Y-49414815D01*
X161033186Y-49362011D01*
X161023242Y-49292853D01*
X161040986Y-49244528D01*
X161120788Y-49117523D01*
X161120789Y-49117522D01*
X161180368Y-48947255D01*
X161181749Y-48935001D01*
X161200565Y-48768003D01*
X161200565Y-48767996D01*
X161180369Y-48588750D01*
X161180368Y-48588745D01*
X161165228Y-48545478D01*
X161120789Y-48418478D01*
X161104615Y-48392738D01*
X161024813Y-48265734D01*
X161022550Y-48262896D01*
X161021659Y-48260715D01*
X161021111Y-48259842D01*
X161021264Y-48259745D01*
X160996144Y-48198209D01*
X160995500Y-48185587D01*
X160995500Y-45032412D01*
X161015185Y-44965373D01*
X161022555Y-44955097D01*
X161024810Y-44952267D01*
X161024816Y-44952262D01*
X161120789Y-44799522D01*
X161180368Y-44629255D01*
X161180995Y-44623694D01*
X161200565Y-44450003D01*
X161200565Y-44449996D01*
X161180369Y-44270750D01*
X161180368Y-44270745D01*
X161164103Y-44224262D01*
X161155613Y-44200000D01*
X205629117Y-44200000D01*
X206634722Y-44200000D01*
X206590667Y-44276306D01*
X206560000Y-44390756D01*
X206560000Y-44509244D01*
X206590667Y-44623694D01*
X206634722Y-44700000D01*
X205629117Y-44700000D01*
X205681317Y-44906135D01*
X205774516Y-45118609D01*
X205901414Y-45312842D01*
X206058558Y-45483545D01*
X206058562Y-45483548D01*
X206241644Y-45626047D01*
X206241648Y-45626050D01*
X206445697Y-45736476D01*
X206445706Y-45736479D01*
X206665139Y-45811811D01*
X206759999Y-45827640D01*
X206760000Y-45827639D01*
X206760000Y-44825277D01*
X206836306Y-44869333D01*
X206950756Y-44900000D01*
X207069244Y-44900000D01*
X207183694Y-44869333D01*
X207260000Y-44825277D01*
X207260000Y-45827640D01*
X207354860Y-45811811D01*
X207574293Y-45736479D01*
X207574302Y-45736476D01*
X207778351Y-45626050D01*
X207778355Y-45626047D01*
X207813476Y-45598711D01*
X216589500Y-45598711D01*
X216589500Y-45841288D01*
X216621161Y-46081785D01*
X216683947Y-46316104D01*
X216773783Y-46532987D01*
X216776776Y-46540212D01*
X216898064Y-46750289D01*
X216898066Y-46750292D01*
X216898067Y-46750293D01*
X217045733Y-46942736D01*
X217045739Y-46942743D01*
X217217256Y-47114260D01*
X217217262Y-47114265D01*
X217409711Y-47261936D01*
X217619788Y-47383224D01*
X217791707Y-47454435D01*
X217840464Y-47474631D01*
X217843900Y-47476054D01*
X218078211Y-47538838D01*
X218258586Y-47562584D01*
X218318711Y-47570500D01*
X218318712Y-47570500D01*
X218561289Y-47570500D01*
X218609388Y-47564167D01*
X218801789Y-47538838D01*
X219036100Y-47476054D01*
X219260212Y-47383224D01*
X219470289Y-47261936D01*
X219662738Y-47114265D01*
X219834265Y-46942738D01*
X219981936Y-46750289D01*
X220103224Y-46540212D01*
X220196054Y-46316100D01*
X220258838Y-46081789D01*
X220290500Y-45841288D01*
X220290500Y-45598712D01*
X220258838Y-45358211D01*
X220196054Y-45123900D01*
X220103224Y-44899788D01*
X219981936Y-44689711D01*
X219834265Y-44497262D01*
X219834260Y-44497256D01*
X219662743Y-44325739D01*
X219662736Y-44325733D01*
X219470293Y-44178067D01*
X219470292Y-44178066D01*
X219470289Y-44178064D01*
X219260212Y-44056776D01*
X219239158Y-44048055D01*
X219036104Y-43963947D01*
X218801785Y-43901161D01*
X218561289Y-43869500D01*
X218561288Y-43869500D01*
X218318712Y-43869500D01*
X218318711Y-43869500D01*
X218078214Y-43901161D01*
X217843895Y-43963947D01*
X217619794Y-44056773D01*
X217619785Y-44056777D01*
X217452590Y-44153308D01*
X217419541Y-44172389D01*
X217409706Y-44178067D01*
X217217263Y-44325733D01*
X217217256Y-44325739D01*
X217045739Y-44497256D01*
X217045733Y-44497263D01*
X216898067Y-44689706D01*
X216776777Y-44899785D01*
X216776773Y-44899794D01*
X216683947Y-45123895D01*
X216621161Y-45358214D01*
X216589500Y-45598711D01*
X207813476Y-45598711D01*
X207961437Y-45483548D01*
X207961441Y-45483545D01*
X208118585Y-45312842D01*
X208245483Y-45118609D01*
X208338682Y-44906135D01*
X208390883Y-44700000D01*
X207385278Y-44700000D01*
X207429333Y-44623694D01*
X207460000Y-44509244D01*
X207460000Y-44390756D01*
X207429333Y-44276306D01*
X207385278Y-44200000D01*
X208390883Y-44200000D01*
X208338682Y-43993864D01*
X208245483Y-43781390D01*
X208118585Y-43587157D01*
X207961441Y-43416454D01*
X207961437Y-43416451D01*
X207778355Y-43273952D01*
X207778351Y-43273949D01*
X207574302Y-43163523D01*
X207574293Y-43163520D01*
X207354861Y-43088188D01*
X207260000Y-43072359D01*
X207260000Y-44074722D01*
X207183694Y-44030667D01*
X207069244Y-44000000D01*
X206950756Y-44000000D01*
X206836306Y-44030667D01*
X206760000Y-44074722D01*
X206760000Y-43072359D01*
X206759999Y-43072359D01*
X206665138Y-43088188D01*
X206445706Y-43163520D01*
X206445697Y-43163523D01*
X206241648Y-43273949D01*
X206241644Y-43273952D01*
X206058562Y-43416451D01*
X206058558Y-43416454D01*
X205901414Y-43587157D01*
X205774516Y-43781390D01*
X205681317Y-43993864D01*
X205629117Y-44200000D01*
X161155613Y-44200000D01*
X161120789Y-44100478D01*
X161095100Y-44059595D01*
X161045002Y-43979864D01*
X161024816Y-43947738D01*
X160897262Y-43820184D01*
X160835522Y-43781390D01*
X160744523Y-43724211D01*
X160574254Y-43664631D01*
X160574249Y-43664630D01*
X160395004Y-43644435D01*
X160394996Y-43644435D01*
X160215750Y-43664630D01*
X160215745Y-43664631D01*
X160045476Y-43724211D01*
X159892737Y-43820184D01*
X159765184Y-43947737D01*
X159669211Y-44100476D01*
X159609631Y-44270745D01*
X159609630Y-44270750D01*
X159589435Y-44449996D01*
X159589435Y-44450003D01*
X159609630Y-44629249D01*
X159609631Y-44629254D01*
X159669211Y-44799523D01*
X159675851Y-44810090D01*
X159745580Y-44921063D01*
X159765185Y-44952263D01*
X159767445Y-44955097D01*
X159768334Y-44957275D01*
X159768889Y-44958158D01*
X159768734Y-44958255D01*
X159793855Y-45019783D01*
X159794500Y-45032412D01*
X159794500Y-48185587D01*
X159774815Y-48252626D01*
X159767450Y-48262896D01*
X159765186Y-48265734D01*
X159669211Y-48418476D01*
X159609631Y-48588745D01*
X159609630Y-48588750D01*
X159589435Y-48767996D01*
X159589435Y-48768003D01*
X159609630Y-48947249D01*
X159609631Y-48947254D01*
X159669211Y-49117523D01*
X159749014Y-49244528D01*
X159768014Y-49311765D01*
X159747646Y-49378600D01*
X159694378Y-49423814D01*
X159644020Y-49434500D01*
X155524057Y-49434500D01*
X155365942Y-49434500D01*
X155213215Y-49475423D01*
X155213214Y-49475423D01*
X155213212Y-49475424D01*
X155213209Y-49475425D01*
X155163096Y-49504359D01*
X155163095Y-49504360D01*
X155127666Y-49524815D01*
X155076285Y-49554479D01*
X155076282Y-49554481D01*
X151402180Y-53228584D01*
X151340857Y-53262069D01*
X151271165Y-53257085D01*
X151215232Y-53215213D01*
X151190815Y-53149749D01*
X151190499Y-53140903D01*
X151190499Y-52392129D01*
X151190498Y-52392123D01*
X151189491Y-52382756D01*
X151184091Y-52332517D01*
X151170602Y-52296352D01*
X151133797Y-52197671D01*
X151133793Y-52197664D01*
X151047547Y-52082455D01*
X151047544Y-52082452D01*
X150932335Y-51996206D01*
X150932328Y-51996202D01*
X150797482Y-51945908D01*
X150797483Y-51945908D01*
X150737883Y-51939501D01*
X150737881Y-51939500D01*
X150737873Y-51939500D01*
X150737864Y-51939500D01*
X148842129Y-51939500D01*
X148842118Y-51939501D01*
X148837751Y-51939971D01*
X148768992Y-51927563D01*
X148717856Y-51879951D01*
X148700500Y-51816681D01*
X148700500Y-49291404D01*
X148663553Y-49058133D01*
X148649395Y-49014561D01*
X148590568Y-48833510D01*
X148581617Y-48815943D01*
X148554266Y-48762263D01*
X148483344Y-48623069D01*
X148426969Y-48545476D01*
X148344517Y-48431992D01*
X144427521Y-44514996D01*
X150699435Y-44514996D01*
X150699435Y-44515003D01*
X150719630Y-44694249D01*
X150719631Y-44694254D01*
X150779211Y-44864523D01*
X150875185Y-45017263D01*
X150877445Y-45020097D01*
X150878334Y-45022275D01*
X150878889Y-45023158D01*
X150878734Y-45023255D01*
X150903855Y-45084783D01*
X150904500Y-45097412D01*
X150904500Y-48185587D01*
X150884815Y-48252626D01*
X150877450Y-48262896D01*
X150875186Y-48265734D01*
X150779211Y-48418476D01*
X150719631Y-48588745D01*
X150719630Y-48588750D01*
X150699435Y-48767996D01*
X150699435Y-48768003D01*
X150719630Y-48947249D01*
X150719631Y-48947254D01*
X150779211Y-49117523D01*
X150833760Y-49204336D01*
X150875184Y-49270262D01*
X151002738Y-49397816D01*
X151003319Y-49398181D01*
X151129891Y-49477712D01*
X151155478Y-49493789D01*
X151244148Y-49524816D01*
X151325745Y-49553368D01*
X151325750Y-49553369D01*
X151504996Y-49573565D01*
X151505000Y-49573565D01*
X151505004Y-49573565D01*
X151684249Y-49553369D01*
X151684252Y-49553368D01*
X151684255Y-49553368D01*
X151854522Y-49493789D01*
X152007262Y-49397816D01*
X152134816Y-49270262D01*
X152230789Y-49117522D01*
X152290368Y-48947255D01*
X152291749Y-48935001D01*
X152310565Y-48768003D01*
X152310565Y-48767996D01*
X152290369Y-48588750D01*
X152290368Y-48588745D01*
X152275228Y-48545478D01*
X152230789Y-48418478D01*
X152214615Y-48392738D01*
X152134813Y-48265734D01*
X152132550Y-48262896D01*
X152131659Y-48260715D01*
X152131111Y-48259842D01*
X152131264Y-48259745D01*
X152106144Y-48198209D01*
X152105500Y-48185587D01*
X152105500Y-45097412D01*
X152125185Y-45030373D01*
X152132555Y-45020097D01*
X152134810Y-45017267D01*
X152134816Y-45017262D01*
X152230789Y-44864522D01*
X152290368Y-44694255D01*
X152297692Y-44629254D01*
X152310565Y-44515003D01*
X152310565Y-44514996D01*
X152290369Y-44335750D01*
X152290368Y-44335745D01*
X152267625Y-44270750D01*
X152230789Y-44165478D01*
X152205161Y-44124692D01*
X152164258Y-44059595D01*
X152134816Y-44012738D01*
X152007262Y-43885184D01*
X151978781Y-43867288D01*
X151854523Y-43789211D01*
X151684254Y-43729631D01*
X151684249Y-43729630D01*
X151505004Y-43709435D01*
X151504996Y-43709435D01*
X151325750Y-43729630D01*
X151325745Y-43729631D01*
X151155476Y-43789211D01*
X151002737Y-43885184D01*
X150875184Y-44012737D01*
X150779211Y-44165476D01*
X150719631Y-44335745D01*
X150719630Y-44335750D01*
X150699435Y-44514996D01*
X144427521Y-44514996D01*
X144275472Y-44362947D01*
X144248592Y-44322718D01*
X144207810Y-44224261D01*
X144207809Y-44224259D01*
X144180058Y-44178974D01*
X144074123Y-44006103D01*
X144074122Y-44006102D01*
X144074121Y-44006100D01*
X143984494Y-43901161D01*
X143907956Y-43811546D01*
X143789061Y-43710000D01*
X143713401Y-43645380D01*
X143713396Y-43645377D01*
X143495242Y-43511692D01*
X143495239Y-43511690D01*
X143258864Y-43413781D01*
X143239529Y-43409139D01*
X143010070Y-43354050D01*
X143010067Y-43354049D01*
X143010064Y-43354049D01*
X142755000Y-43333976D01*
X142499935Y-43354049D01*
X142499931Y-43354049D01*
X142499930Y-43354050D01*
X142397111Y-43378735D01*
X142251135Y-43413781D01*
X142014760Y-43511690D01*
X142014757Y-43511692D01*
X141796603Y-43645377D01*
X141796598Y-43645380D01*
X141602044Y-43811546D01*
X141435878Y-44006100D01*
X141435875Y-44006105D01*
X141302190Y-44224259D01*
X141302188Y-44224262D01*
X141204279Y-44460637D01*
X141191228Y-44515000D01*
X141146813Y-44700000D01*
X141144547Y-44709437D01*
X141124474Y-44964502D01*
X141144547Y-45219566D01*
X141144547Y-45219569D01*
X141144548Y-45219572D01*
X141204278Y-45468362D01*
X141204279Y-45468366D01*
X141302188Y-45704741D01*
X141302190Y-45704744D01*
X141435875Y-45922898D01*
X141435878Y-45922903D01*
X141511200Y-46011093D01*
X141602044Y-46117458D01*
X141673334Y-46178345D01*
X141796598Y-46283623D01*
X141796600Y-46283624D01*
X141796601Y-46283625D01*
X141849602Y-46316104D01*
X142014757Y-46417311D01*
X142014759Y-46417312D01*
X142113216Y-46458094D01*
X142153445Y-46484974D01*
X145663181Y-49994710D01*
X145696666Y-50056033D01*
X145699500Y-50082391D01*
X145699500Y-52767110D01*
X145679815Y-52834149D01*
X145663181Y-52854791D01*
X139094792Y-59423181D01*
X139033469Y-59456666D01*
X139007111Y-59459500D01*
X91794500Y-59459500D01*
X91727461Y-59439815D01*
X91681706Y-59387011D01*
X91670500Y-59335500D01*
X91670500Y-53339999D01*
X110594127Y-53339999D01*
X110594127Y-53340000D01*
X110613977Y-53554221D01*
X110613977Y-53554227D01*
X110672855Y-53761159D01*
X110672860Y-53761172D01*
X110768751Y-53953746D01*
X110768753Y-53953749D01*
X110768755Y-53953753D01*
X110768758Y-53953757D01*
X110768760Y-53953760D01*
X110818972Y-54020252D01*
X110898409Y-54125444D01*
X110898412Y-54125446D01*
X110898414Y-54125449D01*
X111057399Y-54270382D01*
X111057400Y-54270382D01*
X111057405Y-54270387D01*
X111100780Y-54297243D01*
X111147413Y-54349268D01*
X111159500Y-54402668D01*
X111159500Y-54817330D01*
X111139815Y-54884369D01*
X111100779Y-54922756D01*
X111057412Y-54949608D01*
X111057410Y-54949609D01*
X111057406Y-54949611D01*
X111057405Y-54949613D01*
X110920481Y-55074435D01*
X110898409Y-55094556D01*
X110898407Y-55094558D01*
X110768760Y-55266239D01*
X110768751Y-55266253D01*
X110672860Y-55458827D01*
X110672855Y-55458840D01*
X110613977Y-55665771D01*
X110594127Y-55879999D01*
X110594127Y-55880000D01*
X110613977Y-56094228D01*
X110672855Y-56301159D01*
X110672860Y-56301172D01*
X110768751Y-56493746D01*
X110768753Y-56493749D01*
X110768755Y-56493753D01*
X110768758Y-56493757D01*
X110768760Y-56493760D01*
X110836008Y-56582811D01*
X110898409Y-56665444D01*
X110898412Y-56665446D01*
X110898414Y-56665449D01*
X111057402Y-56810385D01*
X111057404Y-56810386D01*
X111057405Y-56810387D01*
X111240326Y-56923647D01*
X111440944Y-57001367D01*
X111652427Y-57040900D01*
X111652429Y-57040900D01*
X111867572Y-57040900D01*
X111867573Y-57040900D01*
X111975273Y-57020767D01*
X112044787Y-57027797D01*
X112085739Y-57054974D01*
X113815139Y-58784374D01*
X113815149Y-58784385D01*
X113819479Y-58788715D01*
X113819480Y-58788716D01*
X113931284Y-58900520D01*
X113931286Y-58900521D01*
X113931290Y-58900524D01*
X114068209Y-58979573D01*
X114068216Y-58979577D01*
X114180019Y-59009534D01*
X114220942Y-59020500D01*
X114220943Y-59020500D01*
X131652351Y-59020500D01*
X131652367Y-59020501D01*
X131659963Y-59020501D01*
X131818074Y-59020501D01*
X131818077Y-59020501D01*
X131970805Y-58979577D01*
X132020924Y-58950639D01*
X132107736Y-58900520D01*
X132219540Y-58788716D01*
X132219540Y-58788714D01*
X132229748Y-58778507D01*
X132229750Y-58778504D01*
X140988535Y-50019718D01*
X141049856Y-49986235D01*
X141062311Y-49984183D01*
X141149255Y-49974388D01*
X141319522Y-49914809D01*
X141472262Y-49818836D01*
X141599816Y-49691282D01*
X141695789Y-49538542D01*
X141755368Y-49368275D01*
X141757015Y-49353656D01*
X141775565Y-49189023D01*
X141775565Y-49189016D01*
X141755369Y-49009770D01*
X141755368Y-49009765D01*
X141715210Y-48895000D01*
X141695789Y-48839498D01*
X141692026Y-48833510D01*
X141599815Y-48686757D01*
X141472262Y-48559204D01*
X141319523Y-48463231D01*
X141149254Y-48403651D01*
X141149249Y-48403650D01*
X140970004Y-48383455D01*
X140969996Y-48383455D01*
X140790750Y-48403650D01*
X140790745Y-48403651D01*
X140620476Y-48463231D01*
X140467737Y-48559204D01*
X140340184Y-48686757D01*
X140244210Y-48839498D01*
X140184630Y-49009770D01*
X140174837Y-49096688D01*
X140147770Y-49161102D01*
X140139298Y-49170485D01*
X136702181Y-52607603D01*
X136640858Y-52641088D01*
X136571166Y-52636104D01*
X136515233Y-52594232D01*
X136490816Y-52528768D01*
X136490500Y-52519922D01*
X136490500Y-43050945D01*
X136490500Y-43050943D01*
X136449577Y-42898216D01*
X136449577Y-42898215D01*
X136449577Y-42898214D01*
X136420639Y-42848095D01*
X136420637Y-42848092D01*
X136370520Y-42761284D01*
X136258716Y-42649480D01*
X136258715Y-42649479D01*
X136254385Y-42645149D01*
X136254374Y-42645139D01*
X135221818Y-41612583D01*
X135188333Y-41551260D01*
X135185499Y-41524902D01*
X135185499Y-40599998D01*
X135185498Y-40599981D01*
X135174999Y-40497203D01*
X135174998Y-40497200D01*
X135119814Y-40330666D01*
X135027712Y-40181344D01*
X134903656Y-40057288D01*
X134754334Y-39965186D01*
X134587797Y-39910001D01*
X134587795Y-39910000D01*
X134485010Y-39899500D01*
X133584998Y-39899500D01*
X133584980Y-39899501D01*
X133482203Y-39910000D01*
X133482200Y-39910001D01*
X133315668Y-39965185D01*
X133315663Y-39965187D01*
X133166342Y-40057289D01*
X133042289Y-40181342D01*
X132950187Y-40330663D01*
X132950185Y-40330668D01*
X132950115Y-40330880D01*
X132895001Y-40497203D01*
X132895001Y-40497204D01*
X132895000Y-40497204D01*
X132884500Y-40599983D01*
X132884500Y-41950001D01*
X132884501Y-41950018D01*
X132895000Y-42052796D01*
X132895001Y-42052799D01*
X132950185Y-42219331D01*
X132950187Y-42219336D01*
X132957350Y-42230949D01*
X133042288Y-42368656D01*
X133166344Y-42492712D01*
X133315666Y-42584814D01*
X133482203Y-42639999D01*
X133584991Y-42650500D01*
X134485008Y-42650499D01*
X134495576Y-42649419D01*
X134564268Y-42662187D01*
X134595861Y-42685096D01*
X135253181Y-43342416D01*
X135286666Y-43403739D01*
X135289500Y-43430097D01*
X135289500Y-44059595D01*
X135269815Y-44126634D01*
X135217011Y-44172389D01*
X135147853Y-44182333D01*
X135084297Y-44153308D01*
X135059961Y-44124692D01*
X135045026Y-44100478D01*
X134977712Y-43991344D01*
X134853656Y-43867288D01*
X134760888Y-43810069D01*
X134704336Y-43775187D01*
X134704331Y-43775185D01*
X134686737Y-43769355D01*
X134537797Y-43720001D01*
X134537795Y-43720000D01*
X134435010Y-43709500D01*
X133534998Y-43709500D01*
X133534980Y-43709501D01*
X133432203Y-43720000D01*
X133432200Y-43720001D01*
X133265668Y-43775185D01*
X133265663Y-43775187D01*
X133116342Y-43867289D01*
X132992289Y-43991342D01*
X132900187Y-44140663D01*
X132900185Y-44140668D01*
X132887492Y-44178974D01*
X132845001Y-44307203D01*
X132845001Y-44307204D01*
X132845000Y-44307204D01*
X132834500Y-44409983D01*
X132834500Y-45760001D01*
X132834501Y-45760018D01*
X132845000Y-45862796D01*
X132845001Y-45862799D01*
X132864918Y-45922903D01*
X132900186Y-46029334D01*
X132992288Y-46178656D01*
X133116344Y-46302712D01*
X133265666Y-46394814D01*
X133432203Y-46449999D01*
X133534991Y-46460500D01*
X134210500Y-46460499D01*
X134277539Y-46480183D01*
X134323294Y-46532987D01*
X134334500Y-46584499D01*
X134334500Y-46760500D01*
X134314815Y-46827539D01*
X134262011Y-46873294D01*
X134210500Y-46884500D01*
X133534998Y-46884500D01*
X133534980Y-46884501D01*
X133432203Y-46895000D01*
X133432200Y-46895001D01*
X133265668Y-46950185D01*
X133265663Y-46950187D01*
X133116342Y-47042289D01*
X132992289Y-47166342D01*
X132900187Y-47315663D01*
X132900185Y-47315668D01*
X132900115Y-47315880D01*
X132845001Y-47482203D01*
X132845001Y-47482204D01*
X132845000Y-47482204D01*
X132834500Y-47584983D01*
X132834500Y-48935001D01*
X132834501Y-48935018D01*
X132845000Y-49037796D01*
X132845001Y-49037799D01*
X132895110Y-49189016D01*
X132900186Y-49204334D01*
X132992288Y-49353656D01*
X133116344Y-49477712D01*
X133265666Y-49569814D01*
X133299500Y-49581025D01*
X133356947Y-49620796D01*
X133383772Y-49685311D01*
X133384500Y-49698732D01*
X133384500Y-51769902D01*
X133364815Y-51836941D01*
X133348183Y-51857580D01*
X133331463Y-51874301D01*
X133270138Y-51907784D01*
X133257668Y-51909837D01*
X133170750Y-51919630D01*
X133000478Y-51979210D01*
X132847737Y-52075184D01*
X132720184Y-52202737D01*
X132624211Y-52355476D01*
X132564631Y-52525745D01*
X132564630Y-52525750D01*
X132544435Y-52704996D01*
X132544435Y-52705003D01*
X132564630Y-52884249D01*
X132564631Y-52884254D01*
X132624211Y-53054523D01*
X132678488Y-53140903D01*
X132720184Y-53207262D01*
X132847738Y-53334816D01*
X132973969Y-53414132D01*
X133000478Y-53430789D01*
X133135779Y-53478133D01*
X133192556Y-53518855D01*
X133211867Y-53554221D01*
X133259210Y-53689521D01*
X133304225Y-53761162D01*
X133355184Y-53842262D01*
X133482738Y-53969816D01*
X133635478Y-54065789D01*
X133770779Y-54113133D01*
X133827556Y-54153855D01*
X133846867Y-54189221D01*
X133894210Y-54324521D01*
X133928289Y-54378757D01*
X133990184Y-54477262D01*
X134117738Y-54604816D01*
X134269574Y-54700221D01*
X134270480Y-54700790D01*
X134334976Y-54723359D01*
X134391752Y-54764080D01*
X134417499Y-54829033D01*
X134404043Y-54897595D01*
X134381702Y-54928081D01*
X131526604Y-57783181D01*
X131465281Y-57816666D01*
X131438923Y-57819500D01*
X114600097Y-57819500D01*
X114533058Y-57799815D01*
X114512416Y-57783181D01*
X112939237Y-56210002D01*
X112905752Y-56148679D01*
X112905031Y-56099530D01*
X112906021Y-56094231D01*
X112906022Y-56094229D01*
X112925873Y-55880000D01*
X112906022Y-55665771D01*
X112847144Y-55458838D01*
X112751245Y-55266247D01*
X112621591Y-55094556D01*
X112462595Y-54949613D01*
X112456279Y-54945702D01*
X112419221Y-54922756D01*
X112372586Y-54870728D01*
X112360500Y-54817330D01*
X112360500Y-54402668D01*
X112380185Y-54335629D01*
X112419218Y-54297244D01*
X112462595Y-54270387D01*
X112621591Y-54125444D01*
X112751245Y-53953753D01*
X112847144Y-53761162D01*
X112906022Y-53554229D01*
X112911669Y-53493293D01*
X112925873Y-53340000D01*
X112925873Y-53339999D01*
X112906022Y-53125771D01*
X112867002Y-52988631D01*
X112847144Y-52918838D01*
X112829923Y-52884254D01*
X112751248Y-52726253D01*
X112751247Y-52726252D01*
X112751245Y-52726247D01*
X112621591Y-52554556D01*
X112462595Y-52409613D01*
X112434358Y-52392129D01*
X112419221Y-52382756D01*
X112372586Y-52330728D01*
X112360500Y-52277330D01*
X112360500Y-52083869D01*
X112380185Y-52016830D01*
X112432989Y-51971075D01*
X112471245Y-51960579D01*
X112527883Y-51954491D01*
X112662731Y-51904196D01*
X112777946Y-51817946D01*
X112864196Y-51702731D01*
X112914491Y-51567883D01*
X112920900Y-51508273D01*
X112920899Y-50799999D01*
X118214127Y-50799999D01*
X118214127Y-50800000D01*
X118233977Y-51014228D01*
X118292855Y-51221159D01*
X118292860Y-51221172D01*
X118388751Y-51413746D01*
X118388753Y-51413749D01*
X118388755Y-51413753D01*
X118518409Y-51585444D01*
X118518412Y-51585446D01*
X118518414Y-51585449D01*
X118677402Y-51730385D01*
X118677404Y-51730386D01*
X118677405Y-51730387D01*
X118860326Y-51843647D01*
X119060944Y-51921367D01*
X119204015Y-51948111D01*
X119266295Y-51979779D01*
X119301568Y-52040092D01*
X119298634Y-52109900D01*
X119258425Y-52167040D01*
X119204015Y-52191888D01*
X119060944Y-52218633D01*
X118934075Y-52267782D01*
X118860328Y-52296352D01*
X118860327Y-52296352D01*
X118677402Y-52409614D01*
X118518414Y-52554550D01*
X118518407Y-52554558D01*
X118388760Y-52726239D01*
X118388751Y-52726253D01*
X118292860Y-52918827D01*
X118292855Y-52918840D01*
X118233977Y-53125771D01*
X118214127Y-53339999D01*
X118214127Y-53340000D01*
X118233977Y-53554221D01*
X118233977Y-53554227D01*
X118292855Y-53761159D01*
X118292860Y-53761172D01*
X118388751Y-53953746D01*
X118388753Y-53953749D01*
X118388755Y-53953753D01*
X118388758Y-53953757D01*
X118388760Y-53953760D01*
X118438972Y-54020252D01*
X118518409Y-54125444D01*
X118518412Y-54125446D01*
X118518414Y-54125449D01*
X118677402Y-54270385D01*
X118677404Y-54270386D01*
X118677405Y-54270387D01*
X118860326Y-54383647D01*
X119060944Y-54461367D01*
X119204015Y-54488111D01*
X119266295Y-54519779D01*
X119301568Y-54580092D01*
X119298634Y-54649900D01*
X119258425Y-54707040D01*
X119204015Y-54731888D01*
X119060944Y-54758633D01*
X118934075Y-54807782D01*
X118860328Y-54836352D01*
X118860327Y-54836352D01*
X118677402Y-54949614D01*
X118518414Y-55094550D01*
X118518407Y-55094558D01*
X118388760Y-55266239D01*
X118388751Y-55266253D01*
X118292860Y-55458827D01*
X118292855Y-55458840D01*
X118233977Y-55665771D01*
X118214127Y-55879999D01*
X118214127Y-55880000D01*
X118233977Y-56094228D01*
X118292855Y-56301159D01*
X118292860Y-56301172D01*
X118388751Y-56493746D01*
X118388753Y-56493749D01*
X118388755Y-56493753D01*
X118388758Y-56493757D01*
X118388760Y-56493760D01*
X118456008Y-56582811D01*
X118518409Y-56665444D01*
X118518412Y-56665446D01*
X118518414Y-56665449D01*
X118677402Y-56810385D01*
X118677404Y-56810386D01*
X118677405Y-56810387D01*
X118860326Y-56923647D01*
X119060944Y-57001367D01*
X119272427Y-57040900D01*
X119272429Y-57040900D01*
X119487571Y-57040900D01*
X119487573Y-57040900D01*
X119699056Y-57001367D01*
X119899674Y-56923647D01*
X120082595Y-56810387D01*
X120241591Y-56665444D01*
X120344045Y-56529771D01*
X120400151Y-56488137D01*
X120442997Y-56480500D01*
X125232833Y-56480500D01*
X125232849Y-56480501D01*
X125240445Y-56480501D01*
X125398556Y-56480501D01*
X125398559Y-56480501D01*
X125551287Y-56439577D01*
X125641755Y-56387345D01*
X125688218Y-56360520D01*
X125800022Y-56248716D01*
X125800022Y-56248714D01*
X125810226Y-56238511D01*
X125810230Y-56238506D01*
X127018535Y-55030200D01*
X127079856Y-54996717D01*
X127092311Y-54994665D01*
X127179255Y-54984870D01*
X127349522Y-54925291D01*
X127502262Y-54829318D01*
X127629816Y-54701764D01*
X127725789Y-54549024D01*
X127785368Y-54378757D01*
X127788961Y-54346867D01*
X127805565Y-54199505D01*
X127805565Y-54199498D01*
X127785369Y-54020252D01*
X127785368Y-54020247D01*
X127725788Y-53849978D01*
X127669979Y-53761159D01*
X127629816Y-53697240D01*
X127502262Y-53569686D01*
X127349523Y-53473713D01*
X127179254Y-53414133D01*
X127179249Y-53414132D01*
X127000004Y-53393937D01*
X126999996Y-53393937D01*
X126820750Y-53414132D01*
X126820745Y-53414133D01*
X126650476Y-53473713D01*
X126497737Y-53569686D01*
X126370184Y-53697239D01*
X126274210Y-53849980D01*
X126214630Y-54020252D01*
X126204837Y-54107170D01*
X126177770Y-54171584D01*
X126169298Y-54180967D01*
X125107086Y-55243181D01*
X125045763Y-55276666D01*
X125019405Y-55279500D01*
X120442997Y-55279500D01*
X120375958Y-55259815D01*
X120344046Y-55230230D01*
X120241591Y-55094556D01*
X120241586Y-55094551D01*
X120241585Y-55094550D01*
X120082597Y-54949614D01*
X119977222Y-54884369D01*
X119899674Y-54836353D01*
X119699056Y-54758633D01*
X119555983Y-54731888D01*
X119493704Y-54700221D01*
X119458431Y-54639908D01*
X119461365Y-54570100D01*
X119501574Y-54512960D01*
X119555982Y-54488111D01*
X119699056Y-54461367D01*
X119899674Y-54383647D01*
X120082595Y-54270387D01*
X120241591Y-54125444D01*
X120371245Y-53953753D01*
X120467144Y-53761162D01*
X120526022Y-53554229D01*
X120531669Y-53493293D01*
X120545873Y-53340000D01*
X120545873Y-53339999D01*
X120526022Y-53125771D01*
X120487002Y-52988631D01*
X120467144Y-52918838D01*
X120449923Y-52884254D01*
X120371248Y-52726253D01*
X120371247Y-52726252D01*
X120371245Y-52726247D01*
X120241591Y-52554556D01*
X120241587Y-52554552D01*
X120241585Y-52554550D01*
X120082597Y-52409614D01*
X120039219Y-52382756D01*
X119899674Y-52296353D01*
X119699056Y-52218633D01*
X119555983Y-52191888D01*
X119493704Y-52160221D01*
X119458431Y-52099908D01*
X119461365Y-52030100D01*
X119501574Y-51972960D01*
X119555982Y-51948111D01*
X119699056Y-51921367D01*
X119899674Y-51843647D01*
X120082595Y-51730387D01*
X120241591Y-51585444D01*
X120371245Y-51413753D01*
X120467144Y-51221162D01*
X120526022Y-51014229D01*
X120545873Y-50800000D01*
X120545704Y-50798181D01*
X120526022Y-50585771D01*
X120474222Y-50403716D01*
X120467144Y-50378838D01*
X120371245Y-50186247D01*
X120241591Y-50014556D01*
X120241587Y-50014552D01*
X120241585Y-50014550D01*
X120082597Y-49869614D01*
X120000587Y-49818836D01*
X119899674Y-49756353D01*
X119699056Y-49678633D01*
X119487573Y-49639100D01*
X119272427Y-49639100D01*
X119060944Y-49678633D01*
X119009063Y-49698732D01*
X118860328Y-49756352D01*
X118860327Y-49756352D01*
X118677402Y-49869614D01*
X118518414Y-50014550D01*
X118518407Y-50014558D01*
X118388760Y-50186239D01*
X118388751Y-50186253D01*
X118292860Y-50378827D01*
X118292855Y-50378840D01*
X118233977Y-50585771D01*
X118214127Y-50799999D01*
X112920899Y-50799999D01*
X112920899Y-50091728D01*
X112914491Y-50032117D01*
X112914085Y-50031029D01*
X112864197Y-49897271D01*
X112864193Y-49897264D01*
X112777947Y-49782055D01*
X112777944Y-49782052D01*
X112662735Y-49695806D01*
X112662728Y-49695802D01*
X112527882Y-49645508D01*
X112527883Y-49645508D01*
X112468283Y-49639101D01*
X112468281Y-49639100D01*
X112468273Y-49639100D01*
X112468264Y-49639100D01*
X111051729Y-49639100D01*
X111051723Y-49639101D01*
X110992116Y-49645508D01*
X110857271Y-49695802D01*
X110857264Y-49695806D01*
X110742055Y-49782052D01*
X110742052Y-49782055D01*
X110655806Y-49897264D01*
X110655802Y-49897271D01*
X110605508Y-50032117D01*
X110599101Y-50091716D01*
X110599101Y-50091723D01*
X110599100Y-50091735D01*
X110599100Y-51508270D01*
X110599101Y-51508276D01*
X110605508Y-51567883D01*
X110655802Y-51702728D01*
X110655806Y-51702735D01*
X110742052Y-51817944D01*
X110742055Y-51817947D01*
X110857264Y-51904193D01*
X110857271Y-51904197D01*
X110992117Y-51954491D01*
X110992115Y-51954491D01*
X111048756Y-51960581D01*
X111113307Y-51987319D01*
X111153155Y-52044712D01*
X111159500Y-52083870D01*
X111159500Y-52277330D01*
X111139815Y-52344369D01*
X111100779Y-52382756D01*
X111057412Y-52409608D01*
X111057410Y-52409609D01*
X111057406Y-52409611D01*
X111057405Y-52409613D01*
X110930008Y-52525750D01*
X110898409Y-52554556D01*
X110898407Y-52554558D01*
X110768760Y-52726239D01*
X110768751Y-52726253D01*
X110672860Y-52918827D01*
X110672855Y-52918840D01*
X110613977Y-53125771D01*
X110594127Y-53339999D01*
X91670500Y-53339999D01*
X91670500Y-53221902D01*
X91633553Y-52988631D01*
X91578264Y-52818472D01*
X91560568Y-52764008D01*
X91560566Y-52764005D01*
X91560566Y-52764003D01*
X91490220Y-52625943D01*
X91453343Y-52553567D01*
X91314517Y-52362490D01*
X91147510Y-52195483D01*
X90956433Y-52056657D01*
X90932990Y-52044712D01*
X90745996Y-51949433D01*
X90521368Y-51876446D01*
X90288097Y-51839500D01*
X90288092Y-51839500D01*
X90051908Y-51839500D01*
X90051903Y-51839500D01*
X89818631Y-51876446D01*
X89594003Y-51949433D01*
X89383566Y-52056657D01*
X89301660Y-52116166D01*
X89192490Y-52195483D01*
X89192488Y-52195485D01*
X89192487Y-52195485D01*
X89025485Y-52362487D01*
X89025485Y-52362488D01*
X89025483Y-52362490D01*
X88965862Y-52444550D01*
X88886657Y-52553566D01*
X88779433Y-52764003D01*
X88706446Y-52988631D01*
X88669500Y-53221902D01*
X88669500Y-59335500D01*
X88649815Y-59402539D01*
X88597011Y-59448294D01*
X88545500Y-59459500D01*
X81430353Y-59459500D01*
X81197081Y-59496446D01*
X81037951Y-59548152D01*
X80987585Y-59564517D01*
X80982286Y-59566238D01*
X80972456Y-59569432D01*
X80762015Y-59676657D01*
X80570938Y-59815484D01*
X80570937Y-59815485D01*
X71842742Y-68543681D01*
X71781419Y-68577166D01*
X71755061Y-68580000D01*
X68097500Y-68580000D01*
X68030461Y-68560315D01*
X67984706Y-68507511D01*
X67973500Y-68456000D01*
X67973500Y-67428451D01*
X67973500Y-67428450D01*
X67968355Y-67356511D01*
X67927819Y-67218459D01*
X67859556Y-67112240D01*
X67850032Y-67097420D01*
X67850028Y-67097416D01*
X67741299Y-67003201D01*
X67741295Y-67003198D01*
X67741294Y-67003197D01*
X67741290Y-67003195D01*
X67610419Y-66943427D01*
X67610414Y-66943426D01*
X67468000Y-66922951D01*
X59340000Y-66922951D01*
X59339997Y-66922951D01*
X59268059Y-66928095D01*
X59141644Y-66965215D01*
X59130012Y-66968631D01*
X59130005Y-66968633D01*
X59008969Y-67046418D01*
X59008965Y-67046422D01*
X58914750Y-67155151D01*
X58914744Y-67155160D01*
X58854976Y-67286031D01*
X58854975Y-67286036D01*
X58834500Y-67428450D01*
X58834500Y-68456000D01*
X58814815Y-68523039D01*
X58762011Y-68568794D01*
X58710500Y-68580000D01*
X46344500Y-68580000D01*
X46277461Y-68560315D01*
X46231706Y-68507511D01*
X46220500Y-68456000D01*
X46220500Y-63793545D01*
X60474700Y-63793545D01*
X60474700Y-63793558D01*
X60493864Y-64024849D01*
X60493866Y-64024860D01*
X60550842Y-64249852D01*
X60644075Y-64462400D01*
X60771016Y-64656699D01*
X60771019Y-64656703D01*
X60771021Y-64656705D01*
X60928216Y-64827465D01*
X60928219Y-64827467D01*
X60928222Y-64827470D01*
X61111365Y-64970016D01*
X61111371Y-64970020D01*
X61111374Y-64970022D01*
X61315497Y-65080488D01*
X61429487Y-65119620D01*
X61535015Y-65155849D01*
X61535017Y-65155849D01*
X61535019Y-65155850D01*
X61763951Y-65194052D01*
X61763952Y-65194052D01*
X61996048Y-65194052D01*
X61996049Y-65194052D01*
X62224981Y-65155850D01*
X62444503Y-65080488D01*
X62648626Y-64970022D01*
X62831784Y-64827465D01*
X62840130Y-64818398D01*
X62900010Y-64782406D01*
X62969849Y-64784501D01*
X63027468Y-64824021D01*
X63047544Y-64859043D01*
X63076203Y-64935882D01*
X63076206Y-64935887D01*
X63162452Y-65051096D01*
X63162455Y-65051099D01*
X63277664Y-65137345D01*
X63277671Y-65137349D01*
X63412517Y-65187643D01*
X63412516Y-65187643D01*
X63419444Y-65188387D01*
X63472127Y-65194052D01*
X65367872Y-65194051D01*
X65427483Y-65187643D01*
X65562331Y-65137348D01*
X65677546Y-65051098D01*
X65763796Y-64935883D01*
X65814091Y-64801035D01*
X65820500Y-64741425D01*
X65820499Y-62845680D01*
X65814091Y-62786069D01*
X65804233Y-62759639D01*
X65763797Y-62651223D01*
X65763793Y-62651216D01*
X65677547Y-62536007D01*
X65677544Y-62536004D01*
X65562335Y-62449758D01*
X65562328Y-62449754D01*
X65427482Y-62399460D01*
X65427483Y-62399460D01*
X65367883Y-62393053D01*
X65367881Y-62393052D01*
X65367873Y-62393052D01*
X65367864Y-62393052D01*
X63472129Y-62393052D01*
X63472123Y-62393053D01*
X63412516Y-62399460D01*
X63277671Y-62449754D01*
X63277664Y-62449758D01*
X63162455Y-62536004D01*
X63162452Y-62536007D01*
X63076206Y-62651216D01*
X63076203Y-62651222D01*
X63047544Y-62728060D01*
X63005672Y-62783993D01*
X62940208Y-62808410D01*
X62871935Y-62793558D01*
X62840135Y-62768710D01*
X62831784Y-62759639D01*
X62831778Y-62759634D01*
X62831777Y-62759633D01*
X62648634Y-62617087D01*
X62648628Y-62617083D01*
X62444504Y-62506616D01*
X62444495Y-62506613D01*
X62224984Y-62431254D01*
X62034450Y-62399460D01*
X61996049Y-62393052D01*
X61763951Y-62393052D01*
X61725550Y-62399460D01*
X61535015Y-62431254D01*
X61315504Y-62506613D01*
X61315495Y-62506616D01*
X61111371Y-62617083D01*
X61111365Y-62617087D01*
X60928222Y-62759633D01*
X60928219Y-62759636D01*
X60928216Y-62759638D01*
X60928216Y-62759639D01*
X60888771Y-62802488D01*
X60771016Y-62930404D01*
X60644075Y-63124703D01*
X60550842Y-63337251D01*
X60493866Y-63562243D01*
X60493864Y-63562254D01*
X60474700Y-63793545D01*
X46220500Y-63793545D01*
X46220500Y-48934986D01*
X129735001Y-48934986D01*
X129745494Y-49037697D01*
X129800641Y-49204119D01*
X129800643Y-49204124D01*
X129892684Y-49353345D01*
X130016654Y-49477315D01*
X130165875Y-49569356D01*
X130165880Y-49569358D01*
X130332302Y-49624505D01*
X130332309Y-49624506D01*
X130435019Y-49634999D01*
X130634999Y-49634999D01*
X131135000Y-49634999D01*
X131334972Y-49634999D01*
X131334986Y-49634998D01*
X131437697Y-49624505D01*
X131604119Y-49569358D01*
X131604124Y-49569356D01*
X131753345Y-49477315D01*
X131877315Y-49353345D01*
X131969356Y-49204124D01*
X131969358Y-49204119D01*
X132024505Y-49037697D01*
X132024506Y-49037690D01*
X132034999Y-48934986D01*
X132035000Y-48934973D01*
X132035000Y-48510000D01*
X131135000Y-48510000D01*
X131135000Y-49634999D01*
X130634999Y-49634999D01*
X130635000Y-49634998D01*
X130635000Y-48510000D01*
X129735001Y-48510000D01*
X129735001Y-48934986D01*
X46220500Y-48934986D01*
X46220500Y-47585013D01*
X129735000Y-47585013D01*
X129735000Y-48010000D01*
X130635000Y-48010000D01*
X131135000Y-48010000D01*
X132034999Y-48010000D01*
X132034999Y-47585028D01*
X132034998Y-47585013D01*
X132024505Y-47482302D01*
X131969358Y-47315880D01*
X131969356Y-47315875D01*
X131877315Y-47166654D01*
X131753345Y-47042684D01*
X131604124Y-46950643D01*
X131604119Y-46950641D01*
X131437697Y-46895494D01*
X131437690Y-46895493D01*
X131334986Y-46885000D01*
X131135000Y-46885000D01*
X131135000Y-48010000D01*
X130635000Y-48010000D01*
X130635000Y-46885000D01*
X130435029Y-46885000D01*
X130435012Y-46885001D01*
X130332302Y-46895494D01*
X130165880Y-46950641D01*
X130165875Y-46950643D01*
X130016654Y-47042684D01*
X129892684Y-47166654D01*
X129800643Y-47315875D01*
X129800641Y-47315880D01*
X129745494Y-47482302D01*
X129745493Y-47482309D01*
X129735000Y-47585013D01*
X46220500Y-47585013D01*
X46220500Y-45598711D01*
X48949500Y-45598711D01*
X48949500Y-45841288D01*
X48981161Y-46081785D01*
X49043947Y-46316104D01*
X49133783Y-46532987D01*
X49136776Y-46540212D01*
X49258064Y-46750289D01*
X49258066Y-46750292D01*
X49258067Y-46750293D01*
X49405733Y-46942736D01*
X49405739Y-46942743D01*
X49577256Y-47114260D01*
X49577262Y-47114265D01*
X49769711Y-47261936D01*
X49979788Y-47383224D01*
X50151707Y-47454435D01*
X50200464Y-47474631D01*
X50203900Y-47476054D01*
X50438211Y-47538838D01*
X50618586Y-47562584D01*
X50678711Y-47570500D01*
X50678712Y-47570500D01*
X50921289Y-47570500D01*
X50969388Y-47564167D01*
X51161789Y-47538838D01*
X51396100Y-47476054D01*
X51620212Y-47383224D01*
X51830289Y-47261936D01*
X52022738Y-47114265D01*
X52194265Y-46942738D01*
X52341936Y-46750289D01*
X52463224Y-46540212D01*
X52556054Y-46316100D01*
X52618838Y-46081789D01*
X52650500Y-45841288D01*
X52650500Y-45598712D01*
X52618838Y-45358211D01*
X52556054Y-45123900D01*
X52463224Y-44899788D01*
X52341936Y-44689711D01*
X52194265Y-44497262D01*
X52194260Y-44497256D01*
X52022743Y-44325739D01*
X52022736Y-44325733D01*
X51830293Y-44178067D01*
X51830292Y-44178066D01*
X51830289Y-44178064D01*
X51620212Y-44056776D01*
X51599158Y-44048055D01*
X51396104Y-43963947D01*
X51161785Y-43901161D01*
X50921289Y-43869500D01*
X50921288Y-43869500D01*
X50678712Y-43869500D01*
X50678711Y-43869500D01*
X50438214Y-43901161D01*
X50203895Y-43963947D01*
X49979794Y-44056773D01*
X49979785Y-44056777D01*
X49812590Y-44153308D01*
X49779541Y-44172389D01*
X49769706Y-44178067D01*
X49577263Y-44325733D01*
X49577256Y-44325739D01*
X49405739Y-44497256D01*
X49405733Y-44497263D01*
X49258067Y-44689706D01*
X49136777Y-44899785D01*
X49136773Y-44899794D01*
X49043947Y-45123895D01*
X48981161Y-45358214D01*
X48949500Y-45598711D01*
X46220500Y-45598711D01*
X46220500Y-43694500D01*
X109119891Y-43694500D01*
X109119891Y-43694503D01*
X109140300Y-43979864D01*
X109201109Y-44259397D01*
X109301091Y-44527460D01*
X109438191Y-44778540D01*
X109438196Y-44778548D01*
X109544882Y-44921063D01*
X109544883Y-44921064D01*
X110439767Y-44026179D01*
X110451497Y-44054497D01*
X110534670Y-44178974D01*
X110640528Y-44284832D01*
X110765005Y-44368005D01*
X110793320Y-44379733D01*
X109898436Y-45274617D01*
X110040960Y-45381309D01*
X110040961Y-45381310D01*
X110292042Y-45518410D01*
X110292041Y-45518410D01*
X110560104Y-45618392D01*
X110839637Y-45679201D01*
X111124999Y-45699611D01*
X111125001Y-45699611D01*
X111410362Y-45679201D01*
X111689895Y-45618392D01*
X111957958Y-45518410D01*
X112209047Y-45381305D01*
X112351561Y-45274618D01*
X112351562Y-45274617D01*
X111456679Y-44379733D01*
X111484995Y-44368005D01*
X111609472Y-44284832D01*
X111715330Y-44178974D01*
X111798503Y-44054497D01*
X111810231Y-44026180D01*
X112705115Y-44921064D01*
X112705116Y-44921063D01*
X112811803Y-44778549D01*
X112948908Y-44527460D01*
X113048890Y-44259397D01*
X113109699Y-43979864D01*
X113130109Y-43694503D01*
X113130109Y-43694500D01*
X113109699Y-43409139D01*
X113048890Y-43129606D01*
X112948908Y-42861543D01*
X112811808Y-42610463D01*
X112811807Y-42610462D01*
X112705115Y-42467938D01*
X111810231Y-43362822D01*
X111798503Y-43334507D01*
X111715330Y-43210030D01*
X111609472Y-43104172D01*
X111484995Y-43020999D01*
X111456678Y-43009269D01*
X112319310Y-42146637D01*
X114204500Y-42146637D01*
X114204500Y-45242372D01*
X114204501Y-45242378D01*
X114210908Y-45301985D01*
X114261202Y-45436830D01*
X114261206Y-45436837D01*
X114347452Y-45552046D01*
X114347455Y-45552049D01*
X114462664Y-45638295D01*
X114462671Y-45638299D01*
X114597517Y-45688593D01*
X114597516Y-45688593D01*
X114604444Y-45689337D01*
X114657127Y-45695002D01*
X117752872Y-45695001D01*
X117812483Y-45688593D01*
X117947331Y-45638298D01*
X118062546Y-45552048D01*
X118148796Y-45436833D01*
X118199091Y-45301985D01*
X118199091Y-45301983D01*
X118200874Y-45294440D01*
X118203146Y-45294976D01*
X118225429Y-45241190D01*
X118282823Y-45201345D01*
X118321976Y-45195002D01*
X125812111Y-45195002D01*
X125879150Y-45214687D01*
X125899792Y-45231321D01*
X126234526Y-45566055D01*
X126261406Y-45606283D01*
X126302190Y-45704745D01*
X126435875Y-45922898D01*
X126435878Y-45922903D01*
X126511200Y-46011093D01*
X126602044Y-46117458D01*
X126673334Y-46178345D01*
X126796598Y-46283623D01*
X126796600Y-46283624D01*
X126796601Y-46283625D01*
X126849602Y-46316104D01*
X127014757Y-46417311D01*
X127014760Y-46417313D01*
X127251135Y-46515222D01*
X127251140Y-46515224D01*
X127499930Y-46574954D01*
X127755000Y-46595028D01*
X128010070Y-46574954D01*
X128258860Y-46515224D01*
X128377051Y-46466267D01*
X128495239Y-46417313D01*
X128495240Y-46417312D01*
X128495243Y-46417311D01*
X128713399Y-46283625D01*
X128907956Y-46117458D01*
X129074123Y-45922901D01*
X129173957Y-45759986D01*
X129735001Y-45759986D01*
X129745494Y-45862697D01*
X129800641Y-46029119D01*
X129800643Y-46029124D01*
X129892684Y-46178345D01*
X130016654Y-46302315D01*
X130165875Y-46394356D01*
X130165880Y-46394358D01*
X130332302Y-46449505D01*
X130332309Y-46449506D01*
X130435019Y-46459999D01*
X130634999Y-46459999D01*
X131135000Y-46459999D01*
X131334972Y-46459999D01*
X131334986Y-46459998D01*
X131437697Y-46449505D01*
X131604119Y-46394358D01*
X131604124Y-46394356D01*
X131753345Y-46302315D01*
X131877315Y-46178345D01*
X131969356Y-46029124D01*
X131969358Y-46029119D01*
X132024505Y-45862697D01*
X132024506Y-45862690D01*
X132034999Y-45759986D01*
X132035000Y-45759973D01*
X132035000Y-45335000D01*
X131135000Y-45335000D01*
X131135000Y-46459999D01*
X130634999Y-46459999D01*
X130635000Y-46459998D01*
X130635000Y-45335000D01*
X129735001Y-45335000D01*
X129735001Y-45759986D01*
X129173957Y-45759986D01*
X129207809Y-45704745D01*
X129214500Y-45688593D01*
X129284991Y-45518410D01*
X129305722Y-45468362D01*
X129365452Y-45219572D01*
X129385526Y-44964502D01*
X129365452Y-44709432D01*
X129305722Y-44460642D01*
X129284751Y-44410013D01*
X129735000Y-44410013D01*
X129735000Y-44835000D01*
X130635000Y-44835000D01*
X131135000Y-44835000D01*
X132034999Y-44835000D01*
X132034999Y-44410028D01*
X132034998Y-44410013D01*
X132024505Y-44307302D01*
X131969358Y-44140880D01*
X131969356Y-44140875D01*
X131877315Y-43991654D01*
X131753345Y-43867684D01*
X131604124Y-43775643D01*
X131604119Y-43775641D01*
X131437697Y-43720494D01*
X131437690Y-43720493D01*
X131334986Y-43710000D01*
X131135000Y-43710000D01*
X131135000Y-44835000D01*
X130635000Y-44835000D01*
X130635000Y-43710000D01*
X130435029Y-43710000D01*
X130435012Y-43710001D01*
X130332302Y-43720494D01*
X130165880Y-43775641D01*
X130165875Y-43775643D01*
X130016654Y-43867684D01*
X129892684Y-43991654D01*
X129800643Y-44140875D01*
X129800641Y-44140880D01*
X129745494Y-44307302D01*
X129745493Y-44307309D01*
X129735000Y-44410013D01*
X129284751Y-44410013D01*
X129284742Y-44409991D01*
X129207811Y-44224262D01*
X129207809Y-44224259D01*
X129180058Y-44178974D01*
X129074123Y-44006103D01*
X129074122Y-44006102D01*
X129074121Y-44006100D01*
X128984494Y-43901161D01*
X128907956Y-43811546D01*
X128789061Y-43710000D01*
X128713401Y-43645380D01*
X128713396Y-43645377D01*
X128495242Y-43511692D01*
X128495243Y-43511692D01*
X128396781Y-43470908D01*
X128356553Y-43444028D01*
X127462511Y-42549986D01*
X127383134Y-42492315D01*
X127271434Y-42411159D01*
X127060996Y-42303935D01*
X126836368Y-42230948D01*
X126603097Y-42194002D01*
X126603092Y-42194002D01*
X118321977Y-42194002D01*
X118254938Y-42174317D01*
X118209183Y-42121513D01*
X118201733Y-42094367D01*
X118200876Y-42094570D01*
X118199092Y-42087022D01*
X118148797Y-41952173D01*
X118148793Y-41952166D01*
X118147161Y-41949986D01*
X129785001Y-41949986D01*
X129795494Y-42052697D01*
X129850641Y-42219119D01*
X129850643Y-42219124D01*
X129942684Y-42368345D01*
X130066654Y-42492315D01*
X130215875Y-42584356D01*
X130215880Y-42584358D01*
X130382302Y-42639505D01*
X130382309Y-42639506D01*
X130485019Y-42649999D01*
X130684999Y-42649999D01*
X131185000Y-42649999D01*
X131384972Y-42649999D01*
X131384986Y-42649998D01*
X131487697Y-42639505D01*
X131654119Y-42584358D01*
X131654124Y-42584356D01*
X131803345Y-42492315D01*
X131927315Y-42368345D01*
X132019356Y-42219124D01*
X132019358Y-42219119D01*
X132074505Y-42052697D01*
X132074506Y-42052690D01*
X132084999Y-41949986D01*
X132085000Y-41949973D01*
X132085000Y-41525000D01*
X131185000Y-41525000D01*
X131185000Y-42649999D01*
X130684999Y-42649999D01*
X130685000Y-42649998D01*
X130685000Y-41525000D01*
X129785001Y-41525000D01*
X129785001Y-41949986D01*
X118147161Y-41949986D01*
X118062547Y-41836957D01*
X118062544Y-41836954D01*
X117947335Y-41750708D01*
X117947328Y-41750704D01*
X117812482Y-41700410D01*
X117812483Y-41700410D01*
X117752883Y-41694003D01*
X117752881Y-41694002D01*
X117752873Y-41694002D01*
X117752864Y-41694002D01*
X114657129Y-41694002D01*
X114657123Y-41694003D01*
X114597516Y-41700410D01*
X114462671Y-41750704D01*
X114462664Y-41750708D01*
X114347455Y-41836954D01*
X114347452Y-41836957D01*
X114261206Y-41952166D01*
X114261202Y-41952173D01*
X114210908Y-42087019D01*
X114204501Y-42146618D01*
X114204500Y-42146637D01*
X112319310Y-42146637D01*
X112351562Y-42114385D01*
X112351561Y-42114384D01*
X112209046Y-42007698D01*
X112209038Y-42007693D01*
X111957957Y-41870593D01*
X111957958Y-41870593D01*
X111689895Y-41770611D01*
X111410362Y-41709802D01*
X111125001Y-41689393D01*
X111124999Y-41689393D01*
X110839637Y-41709802D01*
X110560104Y-41770611D01*
X110292041Y-41870593D01*
X110040961Y-42007693D01*
X110040953Y-42007698D01*
X109898437Y-42114384D01*
X109898436Y-42114385D01*
X110793321Y-43009269D01*
X110765005Y-43020999D01*
X110640528Y-43104172D01*
X110534670Y-43210030D01*
X110451497Y-43334507D01*
X110439768Y-43362823D01*
X109544883Y-42467938D01*
X109544882Y-42467939D01*
X109438196Y-42610455D01*
X109438191Y-42610463D01*
X109301091Y-42861543D01*
X109201109Y-43129606D01*
X109140300Y-43409139D01*
X109119891Y-43694500D01*
X46220500Y-43694500D01*
X46220500Y-40600013D01*
X129785000Y-40600013D01*
X129785000Y-41025000D01*
X130685000Y-41025000D01*
X131185000Y-41025000D01*
X132084999Y-41025000D01*
X132084999Y-40600028D01*
X132084998Y-40600013D01*
X132074505Y-40497302D01*
X132019358Y-40330880D01*
X132019356Y-40330875D01*
X131927315Y-40181654D01*
X131803345Y-40057684D01*
X131654124Y-39965643D01*
X131654119Y-39965641D01*
X131487697Y-39910494D01*
X131487690Y-39910493D01*
X131384986Y-39900000D01*
X131185000Y-39900000D01*
X131185000Y-41025000D01*
X130685000Y-41025000D01*
X130685000Y-39900000D01*
X130485029Y-39900000D01*
X130485012Y-39900001D01*
X130382302Y-39910494D01*
X130215880Y-39965641D01*
X130215875Y-39965643D01*
X130066654Y-40057684D01*
X129942684Y-40181654D01*
X129850643Y-40330875D01*
X129850641Y-40330880D01*
X129795494Y-40497302D01*
X129795493Y-40497309D01*
X129785000Y-40600013D01*
X46220500Y-40600013D01*
X46220500Y-39740500D01*
X46240185Y-39673461D01*
X46292989Y-39627706D01*
X46344500Y-39616500D01*
X222895500Y-39616500D01*
X222962539Y-39636185D01*
G37*
%TD.AperFunction*%
%TA.AperFunction,Conductor*%
G36*
X92665150Y-62480185D02*
G01*
X92710905Y-62532989D01*
X92720849Y-62602147D01*
X92691824Y-62665703D01*
X92685792Y-62672181D01*
X88675485Y-66682487D01*
X88675484Y-66682488D01*
X88536655Y-66873567D01*
X88488219Y-66968631D01*
X88488219Y-66968632D01*
X88429432Y-67084006D01*
X88420258Y-67112241D01*
X88380819Y-67169915D01*
X88316460Y-67197112D01*
X88247614Y-67185196D01*
X88198013Y-67140960D01*
X88170031Y-67097419D01*
X88154556Y-67084010D01*
X88061299Y-67003201D01*
X88061295Y-67003198D01*
X88061294Y-67003197D01*
X88061290Y-67003195D01*
X87930419Y-66943427D01*
X87930414Y-66943426D01*
X87788000Y-66922951D01*
X79660000Y-66922951D01*
X79659997Y-66922951D01*
X79588059Y-66928095D01*
X79461644Y-66965215D01*
X79450012Y-66968631D01*
X79450005Y-66968633D01*
X79328969Y-67046418D01*
X79328965Y-67046422D01*
X79234750Y-67155151D01*
X79234744Y-67155160D01*
X79174976Y-67286031D01*
X79174975Y-67286036D01*
X79154500Y-67428450D01*
X79154500Y-68456000D01*
X79134815Y-68523039D01*
X79082011Y-68568794D01*
X79030500Y-68580000D01*
X76349838Y-68580000D01*
X76282799Y-68560315D01*
X76237044Y-68507511D01*
X76227100Y-68438353D01*
X76256125Y-68374797D01*
X76262157Y-68368319D01*
X77947989Y-66682487D01*
X80617474Y-64013001D01*
X80678795Y-63979518D01*
X80748487Y-63984502D01*
X80804420Y-64026374D01*
X80825358Y-64070243D01*
X80870841Y-64249847D01*
X80870841Y-64249848D01*
X80964075Y-64462400D01*
X81091016Y-64656699D01*
X81091019Y-64656703D01*
X81091021Y-64656705D01*
X81248216Y-64827465D01*
X81248219Y-64827467D01*
X81248222Y-64827470D01*
X81431365Y-64970016D01*
X81431371Y-64970020D01*
X81431374Y-64970022D01*
X81635497Y-65080488D01*
X81749487Y-65119620D01*
X81855015Y-65155849D01*
X81855017Y-65155849D01*
X81855019Y-65155850D01*
X82083951Y-65194052D01*
X82083952Y-65194052D01*
X82316048Y-65194052D01*
X82316049Y-65194052D01*
X82544981Y-65155850D01*
X82764503Y-65080488D01*
X82968626Y-64970022D01*
X83151784Y-64827465D01*
X83160130Y-64818398D01*
X83220010Y-64782406D01*
X83289849Y-64784501D01*
X83347468Y-64824021D01*
X83367544Y-64859043D01*
X83396203Y-64935882D01*
X83396206Y-64935887D01*
X83482452Y-65051096D01*
X83482455Y-65051099D01*
X83597664Y-65137345D01*
X83597671Y-65137349D01*
X83732517Y-65187643D01*
X83732516Y-65187643D01*
X83739444Y-65188387D01*
X83792127Y-65194052D01*
X85687872Y-65194051D01*
X85747483Y-65187643D01*
X85882331Y-65137348D01*
X85997546Y-65051098D01*
X86083796Y-64935883D01*
X86134091Y-64801035D01*
X86140500Y-64741425D01*
X86140499Y-62845680D01*
X86134091Y-62786069D01*
X86124233Y-62759639D01*
X86083796Y-62651221D01*
X86079813Y-62643926D01*
X86064962Y-62575653D01*
X86089380Y-62510188D01*
X86145314Y-62468318D01*
X86188646Y-62460500D01*
X90051908Y-62460500D01*
X90288092Y-62460500D01*
X92598111Y-62460500D01*
X92665150Y-62480185D01*
G37*
%TD.AperFunction*%
%TA.AperFunction,Conductor*%
G36*
X101658389Y-62480185D02*
G01*
X101704144Y-62532989D01*
X101714088Y-62602147D01*
X101685063Y-62665703D01*
X101667512Y-62682353D01*
X101568222Y-62759633D01*
X101568219Y-62759636D01*
X101568216Y-62759638D01*
X101568216Y-62759639D01*
X101528771Y-62802488D01*
X101411016Y-62930404D01*
X101284075Y-63124703D01*
X101190842Y-63337251D01*
X101133866Y-63562243D01*
X101133864Y-63562254D01*
X101114700Y-63793545D01*
X101114700Y-63793558D01*
X101133864Y-64024849D01*
X101133866Y-64024860D01*
X101190842Y-64249852D01*
X101284075Y-64462400D01*
X101411016Y-64656699D01*
X101411019Y-64656703D01*
X101411021Y-64656705D01*
X101568216Y-64827465D01*
X101568219Y-64827467D01*
X101568222Y-64827470D01*
X101751365Y-64970016D01*
X101751371Y-64970020D01*
X101751374Y-64970022D01*
X101955497Y-65080488D01*
X102069487Y-65119620D01*
X102175015Y-65155849D01*
X102175017Y-65155849D01*
X102175019Y-65155850D01*
X102403951Y-65194052D01*
X102403952Y-65194052D01*
X102636048Y-65194052D01*
X102636049Y-65194052D01*
X102864981Y-65155850D01*
X103084503Y-65080488D01*
X103288626Y-64970022D01*
X103471784Y-64827465D01*
X103480130Y-64818398D01*
X103540010Y-64782406D01*
X103609849Y-64784501D01*
X103667468Y-64824021D01*
X103687544Y-64859043D01*
X103716203Y-64935882D01*
X103716206Y-64935887D01*
X103802452Y-65051096D01*
X103802455Y-65051099D01*
X103917664Y-65137345D01*
X103917671Y-65137349D01*
X104052517Y-65187643D01*
X104052516Y-65187643D01*
X104059444Y-65188387D01*
X104112127Y-65194052D01*
X106007872Y-65194051D01*
X106067483Y-65187643D01*
X106202331Y-65137348D01*
X106317546Y-65051098D01*
X106403796Y-64935883D01*
X106454091Y-64801035D01*
X106460500Y-64741425D01*
X106460499Y-62845680D01*
X106454091Y-62786069D01*
X106444233Y-62759639D01*
X106403796Y-62651221D01*
X106399813Y-62643926D01*
X106384962Y-62575653D01*
X106409380Y-62510188D01*
X106465314Y-62468318D01*
X106508646Y-62460500D01*
X112918111Y-62460500D01*
X112985150Y-62480185D01*
X113030905Y-62532989D01*
X113040849Y-62602147D01*
X113011824Y-62665703D01*
X113005792Y-62672181D01*
X108995485Y-66682487D01*
X108995484Y-66682488D01*
X108856655Y-66873567D01*
X108808219Y-66968631D01*
X108808219Y-66968632D01*
X108749432Y-67084006D01*
X108740258Y-67112241D01*
X108700819Y-67169915D01*
X108636460Y-67197112D01*
X108567614Y-67185196D01*
X108518013Y-67140960D01*
X108490031Y-67097419D01*
X108474556Y-67084010D01*
X108381299Y-67003201D01*
X108381295Y-67003198D01*
X108381294Y-67003197D01*
X108381290Y-67003195D01*
X108250419Y-66943427D01*
X108250414Y-66943426D01*
X108108000Y-66922951D01*
X99980000Y-66922951D01*
X99979997Y-66922951D01*
X99908059Y-66928095D01*
X99781644Y-66965215D01*
X99770012Y-66968631D01*
X99770005Y-66968633D01*
X99648969Y-67046418D01*
X99648965Y-67046422D01*
X99554750Y-67155151D01*
X99554744Y-67155160D01*
X99494976Y-67286031D01*
X99494975Y-67286036D01*
X99474500Y-67428450D01*
X99474500Y-68456000D01*
X99454815Y-68523039D01*
X99402011Y-68568794D01*
X99350500Y-68580000D01*
X91444500Y-68580000D01*
X91377461Y-68560315D01*
X91331706Y-68507511D01*
X91320500Y-68456000D01*
X91320500Y-68332889D01*
X91340185Y-68265850D01*
X91356819Y-68245208D01*
X97105208Y-62496819D01*
X97166531Y-62463334D01*
X97192889Y-62460500D01*
X101591350Y-62460500D01*
X101658389Y-62480185D01*
G37*
%TD.AperFunction*%
%TA.AperFunction,Conductor*%
G36*
X121978389Y-62480185D02*
G01*
X122024144Y-62532989D01*
X122034088Y-62602147D01*
X122005063Y-62665703D01*
X121987512Y-62682353D01*
X121888222Y-62759633D01*
X121888219Y-62759636D01*
X121888216Y-62759638D01*
X121888216Y-62759639D01*
X121848771Y-62802488D01*
X121731016Y-62930404D01*
X121604075Y-63124703D01*
X121510842Y-63337251D01*
X121453866Y-63562243D01*
X121453864Y-63562254D01*
X121434700Y-63793545D01*
X121434700Y-63793558D01*
X121453864Y-64024849D01*
X121453866Y-64024860D01*
X121510842Y-64249852D01*
X121604075Y-64462400D01*
X121731016Y-64656699D01*
X121731019Y-64656703D01*
X121731021Y-64656705D01*
X121888216Y-64827465D01*
X121888219Y-64827467D01*
X121888222Y-64827470D01*
X122071365Y-64970016D01*
X122071371Y-64970020D01*
X122071374Y-64970022D01*
X122275497Y-65080488D01*
X122389487Y-65119620D01*
X122495015Y-65155849D01*
X122495017Y-65155849D01*
X122495019Y-65155850D01*
X122723951Y-65194052D01*
X122723952Y-65194052D01*
X122956048Y-65194052D01*
X122956049Y-65194052D01*
X123184981Y-65155850D01*
X123404503Y-65080488D01*
X123608626Y-64970022D01*
X123791784Y-64827465D01*
X123800130Y-64818398D01*
X123860010Y-64782406D01*
X123929849Y-64784501D01*
X123987468Y-64824021D01*
X124007544Y-64859043D01*
X124036203Y-64935882D01*
X124036206Y-64935887D01*
X124122452Y-65051096D01*
X124122455Y-65051099D01*
X124237664Y-65137345D01*
X124237671Y-65137349D01*
X124372517Y-65187643D01*
X124372516Y-65187643D01*
X124379444Y-65188387D01*
X124432127Y-65194052D01*
X126327872Y-65194051D01*
X126387483Y-65187643D01*
X126522331Y-65137348D01*
X126637546Y-65051098D01*
X126723796Y-64935883D01*
X126774091Y-64801035D01*
X126780500Y-64741425D01*
X126780499Y-62845680D01*
X126774091Y-62786069D01*
X126764233Y-62759639D01*
X126723796Y-62651221D01*
X126719813Y-62643926D01*
X126704962Y-62575653D01*
X126729380Y-62510188D01*
X126785314Y-62468318D01*
X126828646Y-62460500D01*
X135778111Y-62460500D01*
X135845150Y-62480185D01*
X135890905Y-62532989D01*
X135900849Y-62602147D01*
X135871824Y-62665703D01*
X135865792Y-62672181D01*
X129994292Y-68543681D01*
X129932969Y-68577166D01*
X129906611Y-68580000D01*
X129057500Y-68580000D01*
X128990461Y-68560315D01*
X128944706Y-68507511D01*
X128933500Y-68456000D01*
X128933500Y-67428451D01*
X128933500Y-67428450D01*
X128928355Y-67356511D01*
X128887819Y-67218459D01*
X128819556Y-67112240D01*
X128810032Y-67097420D01*
X128810028Y-67097416D01*
X128701299Y-67003201D01*
X128701295Y-67003198D01*
X128701294Y-67003197D01*
X128701290Y-67003195D01*
X128570419Y-66943427D01*
X128570414Y-66943426D01*
X128428000Y-66922951D01*
X120300000Y-66922951D01*
X120299997Y-66922951D01*
X120228059Y-66928095D01*
X120101644Y-66965215D01*
X120090012Y-66968631D01*
X120090005Y-66968633D01*
X119968969Y-67046418D01*
X119968965Y-67046422D01*
X119874750Y-67155151D01*
X119874744Y-67155160D01*
X119814976Y-67286031D01*
X119814975Y-67286036D01*
X119794500Y-67428450D01*
X119794500Y-68456000D01*
X119774815Y-68523039D01*
X119722011Y-68568794D01*
X119670500Y-68580000D01*
X111764500Y-68580000D01*
X111697461Y-68560315D01*
X111651706Y-68507511D01*
X111640500Y-68456000D01*
X111640500Y-68332889D01*
X111660185Y-68265850D01*
X111676819Y-68245208D01*
X117425208Y-62496819D01*
X117486531Y-62463334D01*
X117512889Y-62460500D01*
X121911350Y-62460500D01*
X121978389Y-62480185D01*
G37*
%TD.AperFunction*%
%TA.AperFunction,Conductor*%
G36*
X142298387Y-62480185D02*
G01*
X142344142Y-62532989D01*
X142354086Y-62602147D01*
X142325061Y-62665703D01*
X142307510Y-62682353D01*
X142208220Y-62759633D01*
X142208217Y-62759636D01*
X142208214Y-62759638D01*
X142208214Y-62759639D01*
X142168769Y-62802488D01*
X142051014Y-62930404D01*
X141924073Y-63124703D01*
X141830840Y-63337251D01*
X141773864Y-63562243D01*
X141773862Y-63562254D01*
X141754698Y-63793545D01*
X141754698Y-63793558D01*
X141773862Y-64024849D01*
X141773864Y-64024860D01*
X141830840Y-64249852D01*
X141924073Y-64462400D01*
X142051014Y-64656699D01*
X142051017Y-64656703D01*
X142051019Y-64656705D01*
X142208214Y-64827465D01*
X142208217Y-64827467D01*
X142208220Y-64827470D01*
X142391363Y-64970016D01*
X142391369Y-64970020D01*
X142391372Y-64970022D01*
X142595495Y-65080488D01*
X142709485Y-65119620D01*
X142815013Y-65155849D01*
X142815015Y-65155849D01*
X142815017Y-65155850D01*
X143043949Y-65194052D01*
X143043950Y-65194052D01*
X143276046Y-65194052D01*
X143276047Y-65194052D01*
X143504979Y-65155850D01*
X143724501Y-65080488D01*
X143928624Y-64970022D01*
X144111782Y-64827465D01*
X144120128Y-64818398D01*
X144180008Y-64782406D01*
X144249847Y-64784501D01*
X144307466Y-64824021D01*
X144327542Y-64859043D01*
X144356201Y-64935882D01*
X144356204Y-64935887D01*
X144442450Y-65051096D01*
X144442453Y-65051099D01*
X144557662Y-65137345D01*
X144557669Y-65137349D01*
X144692515Y-65187643D01*
X144692514Y-65187643D01*
X144699442Y-65188387D01*
X144752125Y-65194052D01*
X146647870Y-65194051D01*
X146707481Y-65187643D01*
X146842329Y-65137348D01*
X146957544Y-65051098D01*
X147043794Y-64935883D01*
X147094089Y-64801035D01*
X147100498Y-64741425D01*
X147100497Y-62845680D01*
X147094089Y-62786069D01*
X147084231Y-62759639D01*
X147043794Y-62651221D01*
X147039811Y-62643926D01*
X147024960Y-62575653D01*
X147049378Y-62510188D01*
X147105312Y-62468318D01*
X147148644Y-62460500D01*
X156098111Y-62460500D01*
X156165150Y-62480185D01*
X156210905Y-62532989D01*
X156220849Y-62602147D01*
X156191824Y-62665703D01*
X156185792Y-62672181D01*
X150314292Y-68543681D01*
X150252969Y-68577166D01*
X150226611Y-68580000D01*
X149377498Y-68580000D01*
X149310459Y-68560315D01*
X149264704Y-68507511D01*
X149253498Y-68456000D01*
X149253498Y-67428451D01*
X149253498Y-67428450D01*
X149248353Y-67356511D01*
X149207817Y-67218459D01*
X149139554Y-67112240D01*
X149130030Y-67097420D01*
X149130026Y-67097416D01*
X149021297Y-67003201D01*
X149021293Y-67003198D01*
X149021292Y-67003197D01*
X149021288Y-67003195D01*
X148890417Y-66943427D01*
X148890412Y-66943426D01*
X148747998Y-66922951D01*
X140619998Y-66922951D01*
X140619995Y-66922951D01*
X140548057Y-66928095D01*
X140421642Y-66965215D01*
X140410010Y-66968631D01*
X140410003Y-66968633D01*
X140288967Y-67046418D01*
X140288963Y-67046422D01*
X140194748Y-67155151D01*
X140194742Y-67155160D01*
X140134974Y-67286031D01*
X140134973Y-67286036D01*
X140114498Y-67428450D01*
X140114498Y-68456000D01*
X140094813Y-68523039D01*
X140042009Y-68568794D01*
X139990498Y-68580000D01*
X134501389Y-68580000D01*
X134434350Y-68560315D01*
X134388595Y-68507511D01*
X134378651Y-68438353D01*
X134407676Y-68374797D01*
X134413708Y-68368319D01*
X140285208Y-62496819D01*
X140346531Y-62463334D01*
X140372889Y-62460500D01*
X142231348Y-62460500D01*
X142298387Y-62480185D01*
G37*
%TD.AperFunction*%
%TA.AperFunction,Conductor*%
G36*
X162618389Y-62480185D02*
G01*
X162664144Y-62532989D01*
X162674088Y-62602147D01*
X162645063Y-62665703D01*
X162627512Y-62682353D01*
X162528222Y-62759633D01*
X162528219Y-62759636D01*
X162528216Y-62759638D01*
X162528216Y-62759639D01*
X162488771Y-62802488D01*
X162371016Y-62930404D01*
X162244075Y-63124703D01*
X162150842Y-63337251D01*
X162093866Y-63562243D01*
X162093864Y-63562254D01*
X162074700Y-63793545D01*
X162074700Y-63793558D01*
X162093864Y-64024849D01*
X162093866Y-64024860D01*
X162150842Y-64249852D01*
X162244075Y-64462400D01*
X162371016Y-64656699D01*
X162371019Y-64656703D01*
X162371021Y-64656705D01*
X162528216Y-64827465D01*
X162528219Y-64827467D01*
X162528222Y-64827470D01*
X162711365Y-64970016D01*
X162711371Y-64970020D01*
X162711374Y-64970022D01*
X162915497Y-65080488D01*
X163029487Y-65119620D01*
X163135015Y-65155849D01*
X163135017Y-65155849D01*
X163135019Y-65155850D01*
X163363951Y-65194052D01*
X163363952Y-65194052D01*
X163596048Y-65194052D01*
X163596049Y-65194052D01*
X163824981Y-65155850D01*
X164044503Y-65080488D01*
X164248626Y-64970022D01*
X164431784Y-64827465D01*
X164440130Y-64818398D01*
X164500010Y-64782406D01*
X164569849Y-64784501D01*
X164627468Y-64824021D01*
X164647544Y-64859043D01*
X164676203Y-64935882D01*
X164676206Y-64935887D01*
X164762452Y-65051096D01*
X164762455Y-65051099D01*
X164877664Y-65137345D01*
X164877671Y-65137349D01*
X165012517Y-65187643D01*
X165012516Y-65187643D01*
X165019444Y-65188387D01*
X165072127Y-65194052D01*
X166967872Y-65194051D01*
X167027483Y-65187643D01*
X167162331Y-65137348D01*
X167277546Y-65051098D01*
X167363796Y-64935883D01*
X167414091Y-64801035D01*
X167420500Y-64741425D01*
X167420499Y-62845680D01*
X167414091Y-62786069D01*
X167404233Y-62759639D01*
X167363796Y-62651221D01*
X167359813Y-62643926D01*
X167344962Y-62575653D01*
X167369380Y-62510188D01*
X167425314Y-62468318D01*
X167468646Y-62460500D01*
X172601908Y-62460500D01*
X172838092Y-62460500D01*
X173878111Y-62460500D01*
X173945150Y-62480185D01*
X173990905Y-62532989D01*
X174000849Y-62602147D01*
X173971824Y-62665703D01*
X173965792Y-62672181D01*
X169955485Y-66682487D01*
X169955484Y-66682488D01*
X169816655Y-66873567D01*
X169768219Y-66968631D01*
X169768219Y-66968632D01*
X169709432Y-67084006D01*
X169700258Y-67112241D01*
X169660819Y-67169915D01*
X169596460Y-67197112D01*
X169527614Y-67185196D01*
X169478013Y-67140960D01*
X169450031Y-67097419D01*
X169434556Y-67084010D01*
X169341299Y-67003201D01*
X169341295Y-67003198D01*
X169341294Y-67003197D01*
X169341290Y-67003195D01*
X169210419Y-66943427D01*
X169210414Y-66943426D01*
X169068000Y-66922951D01*
X160940000Y-66922951D01*
X160939997Y-66922951D01*
X160868059Y-66928095D01*
X160741644Y-66965215D01*
X160730012Y-66968631D01*
X160730005Y-66968633D01*
X160608969Y-67046418D01*
X160608965Y-67046422D01*
X160514750Y-67155151D01*
X160514744Y-67155160D01*
X160454976Y-67286031D01*
X160454975Y-67286036D01*
X160434500Y-67428450D01*
X160434500Y-68456000D01*
X160414815Y-68523039D01*
X160362011Y-68568794D01*
X160310500Y-68580000D01*
X154821389Y-68580000D01*
X154754350Y-68560315D01*
X154708595Y-68507511D01*
X154698651Y-68438353D01*
X154727676Y-68374797D01*
X154733708Y-68368319D01*
X160605208Y-62496819D01*
X160666531Y-62463334D01*
X160692889Y-62460500D01*
X162551350Y-62460500D01*
X162618389Y-62480185D01*
G37*
%TD.AperFunction*%
%TA.AperFunction,Conductor*%
G36*
X182938387Y-62480185D02*
G01*
X182984142Y-62532989D01*
X182994086Y-62602147D01*
X182965061Y-62665703D01*
X182947510Y-62682353D01*
X182848220Y-62759633D01*
X182848217Y-62759636D01*
X182848214Y-62759638D01*
X182848214Y-62759639D01*
X182808769Y-62802488D01*
X182691014Y-62930404D01*
X182564073Y-63124703D01*
X182470840Y-63337251D01*
X182413864Y-63562243D01*
X182413862Y-63562254D01*
X182394698Y-63793545D01*
X182394698Y-63793558D01*
X182413862Y-64024849D01*
X182413864Y-64024860D01*
X182470840Y-64249852D01*
X182564073Y-64462400D01*
X182691014Y-64656699D01*
X182691017Y-64656703D01*
X182691019Y-64656705D01*
X182848214Y-64827465D01*
X182848217Y-64827467D01*
X182848220Y-64827470D01*
X183031363Y-64970016D01*
X183031369Y-64970020D01*
X183031372Y-64970022D01*
X183235495Y-65080488D01*
X183349485Y-65119620D01*
X183455013Y-65155849D01*
X183455015Y-65155849D01*
X183455017Y-65155850D01*
X183683949Y-65194052D01*
X183683950Y-65194052D01*
X183916046Y-65194052D01*
X183916047Y-65194052D01*
X184144979Y-65155850D01*
X184364501Y-65080488D01*
X184568624Y-64970022D01*
X184751782Y-64827465D01*
X184760128Y-64818398D01*
X184820008Y-64782406D01*
X184889847Y-64784501D01*
X184947466Y-64824021D01*
X184967542Y-64859043D01*
X184996201Y-64935882D01*
X184996204Y-64935887D01*
X185082450Y-65051096D01*
X185082453Y-65051099D01*
X185197662Y-65137345D01*
X185197669Y-65137349D01*
X185332515Y-65187643D01*
X185332514Y-65187643D01*
X185339442Y-65188387D01*
X185392125Y-65194052D01*
X187287870Y-65194051D01*
X187347481Y-65187643D01*
X187482329Y-65137348D01*
X187597544Y-65051098D01*
X187683794Y-64935883D01*
X187734089Y-64801035D01*
X187740498Y-64741425D01*
X187740497Y-62845680D01*
X187734089Y-62786069D01*
X187724231Y-62759639D01*
X187683794Y-62651221D01*
X187679811Y-62643926D01*
X187664960Y-62575653D01*
X187689378Y-62510188D01*
X187745312Y-62468318D01*
X187788644Y-62460500D01*
X194198110Y-62460500D01*
X194265149Y-62480185D01*
X194310904Y-62532989D01*
X194320848Y-62602147D01*
X194291823Y-62665703D01*
X194285791Y-62672181D01*
X190275482Y-66682490D01*
X190136653Y-66873569D01*
X190088218Y-66968631D01*
X190088218Y-66968632D01*
X190029429Y-67084009D01*
X190020257Y-67112240D01*
X189980819Y-67169915D01*
X189916460Y-67197112D01*
X189847614Y-67185197D01*
X189798012Y-67140960D01*
X189770030Y-67097421D01*
X189770029Y-67097419D01*
X189754554Y-67084010D01*
X189661297Y-67003201D01*
X189661293Y-67003198D01*
X189661292Y-67003197D01*
X189661288Y-67003195D01*
X189530417Y-66943427D01*
X189530412Y-66943426D01*
X189387998Y-66922951D01*
X181259998Y-66922951D01*
X181259995Y-66922951D01*
X181188057Y-66928095D01*
X181061642Y-66965215D01*
X181050010Y-66968631D01*
X181050003Y-66968633D01*
X180928967Y-67046418D01*
X180928963Y-67046422D01*
X180834748Y-67155151D01*
X180834742Y-67155160D01*
X180774974Y-67286031D01*
X180774973Y-67286036D01*
X180754498Y-67428450D01*
X180754498Y-68456000D01*
X180734813Y-68523039D01*
X180682009Y-68568794D01*
X180630498Y-68580000D01*
X172724500Y-68580000D01*
X172657461Y-68560315D01*
X172611706Y-68507511D01*
X172600500Y-68456000D01*
X172600500Y-68332889D01*
X172620185Y-68265850D01*
X172636819Y-68245208D01*
X178385208Y-62496819D01*
X178446531Y-62463334D01*
X178472889Y-62460500D01*
X182871348Y-62460500D01*
X182938387Y-62480185D01*
G37*
%TD.AperFunction*%
%TA.AperFunction,Conductor*%
G36*
X202338389Y-62480185D02*
G01*
X202384144Y-62532989D01*
X202394088Y-62602147D01*
X202365063Y-62665703D01*
X202347512Y-62682353D01*
X202248222Y-62759633D01*
X202248219Y-62759636D01*
X202248216Y-62759638D01*
X202248216Y-62759639D01*
X202208771Y-62802488D01*
X202091016Y-62930404D01*
X201964075Y-63124703D01*
X201870842Y-63337251D01*
X201813866Y-63562243D01*
X201813864Y-63562254D01*
X201794700Y-63793545D01*
X201794700Y-63793558D01*
X201813864Y-64024849D01*
X201813866Y-64024860D01*
X201870842Y-64249852D01*
X201964075Y-64462400D01*
X202091016Y-64656699D01*
X202091019Y-64656703D01*
X202091021Y-64656705D01*
X202248216Y-64827465D01*
X202248219Y-64827467D01*
X202248222Y-64827470D01*
X202431365Y-64970016D01*
X202431371Y-64970020D01*
X202431374Y-64970022D01*
X202635497Y-65080488D01*
X202749487Y-65119620D01*
X202855015Y-65155849D01*
X202855017Y-65155849D01*
X202855019Y-65155850D01*
X203083951Y-65194052D01*
X203083952Y-65194052D01*
X203316048Y-65194052D01*
X203316049Y-65194052D01*
X203544981Y-65155850D01*
X203764503Y-65080488D01*
X203968626Y-64970022D01*
X204151784Y-64827465D01*
X204160130Y-64818398D01*
X204220010Y-64782406D01*
X204289849Y-64784501D01*
X204347468Y-64824021D01*
X204367544Y-64859043D01*
X204396203Y-64935882D01*
X204396206Y-64935887D01*
X204482452Y-65051096D01*
X204482455Y-65051099D01*
X204597664Y-65137345D01*
X204597671Y-65137349D01*
X204732517Y-65187643D01*
X204732516Y-65187643D01*
X204739444Y-65188387D01*
X204792127Y-65194052D01*
X206687872Y-65194051D01*
X206747483Y-65187643D01*
X206882331Y-65137348D01*
X206997546Y-65051098D01*
X207083796Y-64935883D01*
X207134091Y-64801035D01*
X207140500Y-64741425D01*
X207140499Y-62845680D01*
X207140498Y-62845678D01*
X207140498Y-62845664D01*
X207138368Y-62825854D01*
X207150772Y-62757095D01*
X207198382Y-62705957D01*
X207266081Y-62688677D01*
X207332376Y-62710741D01*
X207349338Y-62724917D01*
X209283181Y-64658760D01*
X209316666Y-64720083D01*
X209319500Y-64746441D01*
X209319500Y-66955412D01*
X209299815Y-67022451D01*
X209247011Y-67068206D01*
X209177853Y-67078150D01*
X209114297Y-67049125D01*
X209111175Y-67046420D01*
X209061294Y-67003197D01*
X209061290Y-67003195D01*
X208930419Y-66943427D01*
X208930414Y-66943426D01*
X208788000Y-66922951D01*
X200660000Y-66922951D01*
X200659997Y-66922951D01*
X200588059Y-66928095D01*
X200461644Y-66965215D01*
X200450012Y-66968631D01*
X200450005Y-66968633D01*
X200328969Y-67046418D01*
X200328965Y-67046422D01*
X200234750Y-67155151D01*
X200234744Y-67155160D01*
X200174976Y-67286031D01*
X200174975Y-67286036D01*
X200154500Y-67428450D01*
X200154500Y-68456000D01*
X200134815Y-68523039D01*
X200082011Y-68568794D01*
X200030500Y-68580000D01*
X193044498Y-68580000D01*
X192977459Y-68560315D01*
X192931704Y-68507511D01*
X192920498Y-68456000D01*
X192920498Y-68332891D01*
X192940183Y-68265852D01*
X192956817Y-68245210D01*
X198705209Y-62496819D01*
X198766532Y-62463334D01*
X198792890Y-62460500D01*
X202271350Y-62460500D01*
X202338389Y-62480185D01*
G37*
%TD.AperFunction*%
%TA.AperFunction,Conductor*%
G36*
X172153348Y-50655185D02*
G01*
X172199103Y-50707989D01*
X172209047Y-50777147D01*
X172180022Y-50840703D01*
X172137511Y-50871356D01*
X172137512Y-50871358D01*
X172137495Y-50871367D01*
X172133756Y-50874064D01*
X172130463Y-50875427D01*
X172080354Y-50904359D01*
X172080353Y-50904360D01*
X172036947Y-50929420D01*
X171993543Y-50954479D01*
X171993540Y-50954481D01*
X167409913Y-55538109D01*
X166360715Y-56587308D01*
X166299392Y-56620793D01*
X166273034Y-56623627D01*
X151755815Y-56623627D01*
X151688776Y-56603942D01*
X151678500Y-56596572D01*
X151675666Y-56594312D01*
X151675665Y-56594311D01*
X151618899Y-56558642D01*
X151522926Y-56498338D01*
X151352657Y-56438758D01*
X151352652Y-56438757D01*
X151173407Y-56418562D01*
X151173399Y-56418562D01*
X150994153Y-56438757D01*
X150994148Y-56438758D01*
X150823879Y-56498338D01*
X150671140Y-56594311D01*
X150543587Y-56721864D01*
X150447614Y-56874603D01*
X150388034Y-57044872D01*
X150388033Y-57044877D01*
X150367838Y-57224123D01*
X150367838Y-57224130D01*
X150388033Y-57403376D01*
X150388034Y-57403381D01*
X150447614Y-57573650D01*
X150543587Y-57726389D01*
X150671141Y-57853943D01*
X150823881Y-57949916D01*
X150994148Y-58009495D01*
X150994153Y-58009496D01*
X151173399Y-58029692D01*
X151173403Y-58029692D01*
X151173407Y-58029692D01*
X151352652Y-58009496D01*
X151352655Y-58009495D01*
X151352658Y-58009495D01*
X151522925Y-57949916D01*
X151675665Y-57853943D01*
X151675670Y-57853937D01*
X151678500Y-57851682D01*
X151680678Y-57850792D01*
X151681561Y-57850238D01*
X151681658Y-57850392D01*
X151743186Y-57825272D01*
X151755815Y-57824627D01*
X165655943Y-57824627D01*
X166486462Y-57824627D01*
X166486478Y-57824628D01*
X166494074Y-57824628D01*
X166652185Y-57824628D01*
X166652188Y-57824628D01*
X166804916Y-57783704D01*
X166855035Y-57754766D01*
X166941847Y-57704647D01*
X167053651Y-57592843D01*
X167053651Y-57592841D01*
X167063859Y-57582634D01*
X167063860Y-57582631D01*
X168259149Y-56387345D01*
X168259149Y-56387343D01*
X168269353Y-56377140D01*
X168269356Y-56377135D01*
X171007821Y-53638671D01*
X171069142Y-53605188D01*
X171138834Y-53610172D01*
X171194767Y-53652044D01*
X171219184Y-53717508D01*
X171219500Y-53726354D01*
X171219500Y-59335500D01*
X171199815Y-59402539D01*
X171147011Y-59448294D01*
X171095500Y-59459500D01*
X143601889Y-59459500D01*
X143534850Y-59439815D01*
X143489095Y-59387011D01*
X143479151Y-59317853D01*
X143508176Y-59254297D01*
X143514208Y-59247819D01*
X145188378Y-57573649D01*
X146940286Y-55821740D01*
X147001607Y-55788257D01*
X147071299Y-55793241D01*
X147127232Y-55835113D01*
X147151185Y-55895539D01*
X147169630Y-56059250D01*
X147169631Y-56059254D01*
X147229211Y-56229523D01*
X147311525Y-56360524D01*
X147325184Y-56382262D01*
X147452738Y-56509816D01*
X147484501Y-56529774D01*
X147603542Y-56604573D01*
X147605478Y-56605789D01*
X147775745Y-56665368D01*
X147775750Y-56665369D01*
X147954996Y-56685565D01*
X147955000Y-56685565D01*
X147955004Y-56685565D01*
X148134249Y-56665369D01*
X148134252Y-56665368D01*
X148134255Y-56665368D01*
X148304522Y-56605789D01*
X148457262Y-56509816D01*
X148457267Y-56509810D01*
X148460097Y-56507555D01*
X148462275Y-56506665D01*
X148463158Y-56506111D01*
X148463255Y-56506265D01*
X148524783Y-56481145D01*
X148537412Y-56480500D01*
X149513331Y-56480500D01*
X149513347Y-56480501D01*
X149520943Y-56480501D01*
X149679054Y-56480501D01*
X149679057Y-56480501D01*
X149831785Y-56439577D01*
X149922253Y-56387345D01*
X149968716Y-56360520D01*
X150080520Y-56248716D01*
X150080520Y-56248714D01*
X150090724Y-56238511D01*
X150090727Y-56238506D01*
X155657416Y-50671819D01*
X155718739Y-50638334D01*
X155745097Y-50635500D01*
X172086309Y-50635500D01*
X172153348Y-50655185D01*
G37*
%TD.AperFunction*%
%TD*%
M02*
