%TF.GenerationSoftware,KiCad,Pcbnew,8.0.5*%
%TF.CreationDate,2024-09-24T14:10:05-04:00*%
%TF.ProjectId,MPD V1,4d504420-5631-42e6-9b69-6361645f7063,rev?*%
%TF.SameCoordinates,Original*%
%TF.FileFunction,Profile,NP*%
%FSLAX46Y46*%
G04 Gerber Fmt 4.6, Leading zero omitted, Abs format (unit mm)*
G04 Created by KiCad (PCBNEW 8.0.5) date 2024-09-24 14:10:05*
%MOMM*%
%LPD*%
G01*
G04 APERTURE LIST*
%TA.AperFunction,Profile*%
%ADD10C,0.200000*%
%TD*%
%TA.AperFunction,Profile*%
%ADD11C,0.100000*%
%TD*%
G04 APERTURE END LIST*
D10*
X45720000Y-39116000D02*
X223520000Y-39116000D01*
X223520000Y-129540000D01*
X45720000Y-129540000D01*
X45720000Y-39116000D01*
D11*
%TO.C,K5*%
X128428000Y-76064451D02*
X133254000Y-76064451D01*
X133254000Y-77080451D01*
X127412000Y-77080451D01*
X127412000Y-68444451D01*
X121316000Y-68444451D01*
X121316000Y-77080451D01*
X115728000Y-77080451D01*
X115728000Y-76064451D01*
X120300000Y-76064451D01*
X120300000Y-67428451D01*
X128428000Y-67428451D01*
X128428000Y-76064451D01*
%TA.AperFunction,Profile*%
G36*
X128428000Y-76064451D02*
G01*
X133254000Y-76064451D01*
X133254000Y-77080451D01*
X127412000Y-77080451D01*
X127412000Y-68444451D01*
X121316000Y-68444451D01*
X121316000Y-77080451D01*
X115728000Y-77080451D01*
X115728000Y-76064451D01*
X120300000Y-76064451D01*
X120300000Y-67428451D01*
X128428000Y-67428451D01*
X128428000Y-76064451D01*
G37*
%TD.AperFunction*%
%TO.C,K8*%
X67468000Y-76064451D02*
X72294000Y-76064451D01*
X72294000Y-77080451D01*
X66452000Y-77080451D01*
X66452000Y-68444451D01*
X60356000Y-68444451D01*
X60356000Y-77080451D01*
X54768000Y-77080451D01*
X54768000Y-76064451D01*
X59340000Y-76064451D01*
X59340000Y-67428451D01*
X67468000Y-67428451D01*
X67468000Y-76064451D01*
%TA.AperFunction,Profile*%
G36*
X67468000Y-76064451D02*
G01*
X72294000Y-76064451D01*
X72294000Y-77080451D01*
X66452000Y-77080451D01*
X66452000Y-68444451D01*
X60356000Y-68444451D01*
X60356000Y-77080451D01*
X54768000Y-77080451D01*
X54768000Y-76064451D01*
X59340000Y-76064451D01*
X59340000Y-67428451D01*
X67468000Y-67428451D01*
X67468000Y-76064451D01*
G37*
%TD.AperFunction*%
%TO.C,K1*%
X208788000Y-76064451D02*
X213614000Y-76064451D01*
X213614000Y-77080451D01*
X207772000Y-77080451D01*
X207772000Y-68444451D01*
X201676000Y-68444451D01*
X201676000Y-77080451D01*
X196088000Y-77080451D01*
X196088000Y-76064451D01*
X200660000Y-76064451D01*
X200660000Y-67428451D01*
X208788000Y-67428451D01*
X208788000Y-76064451D01*
%TA.AperFunction,Profile*%
G36*
X208788000Y-76064451D02*
G01*
X213614000Y-76064451D01*
X213614000Y-77080451D01*
X207772000Y-77080451D01*
X207772000Y-68444451D01*
X201676000Y-68444451D01*
X201676000Y-77080451D01*
X196088000Y-77080451D01*
X196088000Y-76064451D01*
X200660000Y-76064451D01*
X200660000Y-67428451D01*
X208788000Y-67428451D01*
X208788000Y-76064451D01*
G37*
%TD.AperFunction*%
%TO.C,K3*%
X169068000Y-76064451D02*
X173894000Y-76064451D01*
X173894000Y-77080451D01*
X168052000Y-77080451D01*
X168052000Y-68444451D01*
X161956000Y-68444451D01*
X161956000Y-77080451D01*
X156368000Y-77080451D01*
X156368000Y-76064451D01*
X160940000Y-76064451D01*
X160940000Y-67428451D01*
X169068000Y-67428451D01*
X169068000Y-76064451D01*
%TA.AperFunction,Profile*%
G36*
X169068000Y-76064451D02*
G01*
X173894000Y-76064451D01*
X173894000Y-77080451D01*
X168052000Y-77080451D01*
X168052000Y-68444451D01*
X161956000Y-68444451D01*
X161956000Y-77080451D01*
X156368000Y-77080451D01*
X156368000Y-76064451D01*
X160940000Y-76064451D01*
X160940000Y-67428451D01*
X169068000Y-67428451D01*
X169068000Y-76064451D01*
G37*
%TD.AperFunction*%
%TO.C,K4*%
X148747998Y-76064451D02*
X153573998Y-76064451D01*
X153573998Y-77080451D01*
X147731998Y-77080451D01*
X147731998Y-68444451D01*
X141635998Y-68444451D01*
X141635998Y-77080451D01*
X136047998Y-77080451D01*
X136047998Y-76064451D01*
X140619998Y-76064451D01*
X140619998Y-67428451D01*
X148747998Y-67428451D01*
X148747998Y-76064451D01*
%TA.AperFunction,Profile*%
G36*
X148747998Y-76064451D02*
G01*
X153573998Y-76064451D01*
X153573998Y-77080451D01*
X147731998Y-77080451D01*
X147731998Y-68444451D01*
X141635998Y-68444451D01*
X141635998Y-77080451D01*
X136047998Y-77080451D01*
X136047998Y-76064451D01*
X140619998Y-76064451D01*
X140619998Y-67428451D01*
X148747998Y-67428451D01*
X148747998Y-76064451D01*
G37*
%TD.AperFunction*%
%TO.C,K2*%
X189387998Y-76064451D02*
X194213998Y-76064451D01*
X194213998Y-77080451D01*
X188371998Y-77080451D01*
X188371998Y-68444451D01*
X182275998Y-68444451D01*
X182275998Y-77080451D01*
X176687998Y-77080451D01*
X176687998Y-76064451D01*
X181259998Y-76064451D01*
X181259998Y-67428451D01*
X189387998Y-67428451D01*
X189387998Y-76064451D01*
%TA.AperFunction,Profile*%
G36*
X189387998Y-76064451D02*
G01*
X194213998Y-76064451D01*
X194213998Y-77080451D01*
X188371998Y-77080451D01*
X188371998Y-68444451D01*
X182275998Y-68444451D01*
X182275998Y-77080451D01*
X176687998Y-77080451D01*
X176687998Y-76064451D01*
X181259998Y-76064451D01*
X181259998Y-67428451D01*
X189387998Y-67428451D01*
X189387998Y-76064451D01*
G37*
%TD.AperFunction*%
%TO.C,K7*%
X87788000Y-76064451D02*
X92614000Y-76064451D01*
X92614000Y-77080451D01*
X86772000Y-77080451D01*
X86772000Y-68444451D01*
X80676000Y-68444451D01*
X80676000Y-77080451D01*
X75088000Y-77080451D01*
X75088000Y-76064451D01*
X79660000Y-76064451D01*
X79660000Y-67428451D01*
X87788000Y-67428451D01*
X87788000Y-76064451D01*
%TA.AperFunction,Profile*%
G36*
X87788000Y-76064451D02*
G01*
X92614000Y-76064451D01*
X92614000Y-77080451D01*
X86772000Y-77080451D01*
X86772000Y-68444451D01*
X80676000Y-68444451D01*
X80676000Y-77080451D01*
X75088000Y-77080451D01*
X75088000Y-76064451D01*
X79660000Y-76064451D01*
X79660000Y-67428451D01*
X87788000Y-67428451D01*
X87788000Y-76064451D01*
G37*
%TD.AperFunction*%
%TO.C,K6*%
X108108000Y-76064451D02*
X112934000Y-76064451D01*
X112934000Y-77080451D01*
X107092000Y-77080451D01*
X107092000Y-68444451D01*
X100996000Y-68444451D01*
X100996000Y-77080451D01*
X95408000Y-77080451D01*
X95408000Y-76064451D01*
X99980000Y-76064451D01*
X99980000Y-67428451D01*
X108108000Y-67428451D01*
X108108000Y-76064451D01*
%TA.AperFunction,Profile*%
G36*
X108108000Y-76064451D02*
G01*
X112934000Y-76064451D01*
X112934000Y-77080451D01*
X107092000Y-77080451D01*
X107092000Y-68444451D01*
X100996000Y-68444451D01*
X100996000Y-77080451D01*
X95408000Y-77080451D01*
X95408000Y-76064451D01*
X99980000Y-76064451D01*
X99980000Y-67428451D01*
X108108000Y-67428451D01*
X108108000Y-76064451D01*
G37*
%TD.AperFunction*%
%TD*%
M02*
