%TF.GenerationSoftware,KiCad,Pcbnew,8.0.5*%
%TF.CreationDate,2024-09-24T14:10:04-04:00*%
%TF.ProjectId,MPD V1,4d504420-5631-42e6-9b69-6361645f7063,rev?*%
%TF.SameCoordinates,Original*%
%TF.FileFunction,Copper,L1,Top*%
%TF.FilePolarity,Positive*%
%FSLAX46Y46*%
G04 Gerber Fmt 4.6, Leading zero omitted, Abs format (unit mm)*
G04 Created by KiCad (PCBNEW 8.0.5) date 2024-09-24 14:10:04*
%MOMM*%
%LPD*%
G01*
G04 APERTURE LIST*
G04 Aperture macros list*
%AMRoundRect*
0 Rectangle with rounded corners*
0 $1 Rounding radius*
0 $2 $3 $4 $5 $6 $7 $8 $9 X,Y pos of 4 corners*
0 Add a 4 corners polygon primitive as box body*
4,1,4,$2,$3,$4,$5,$6,$7,$8,$9,$2,$3,0*
0 Add four circle primitives for the rounded corners*
1,1,$1+$1,$2,$3*
1,1,$1+$1,$4,$5*
1,1,$1+$1,$6,$7*
1,1,$1+$1,$8,$9*
0 Add four rect primitives between the rounded corners*
20,1,$1+$1,$2,$3,$4,$5,0*
20,1,$1+$1,$4,$5,$6,$7,0*
20,1,$1+$1,$6,$7,$8,$9,0*
20,1,$1+$1,$8,$9,$2,$3,0*%
G04 Aperture macros list end*
%TA.AperFunction,ComponentPad*%
%ADD10C,1.498600*%
%TD*%
%TA.AperFunction,ComponentPad*%
%ADD11R,1.800000X1.800000*%
%TD*%
%TA.AperFunction,ComponentPad*%
%ADD12C,1.800000*%
%TD*%
%TA.AperFunction,ComponentPad*%
%ADD13C,1.905000*%
%TD*%
%TA.AperFunction,ComponentPad*%
%ADD14C,2.250000*%
%TD*%
%TA.AperFunction,SMDPad,CuDef*%
%ADD15RoundRect,0.150000X0.150000X0.625000X-0.150000X0.625000X-0.150000X-0.625000X0.150000X-0.625000X0*%
%TD*%
%TA.AperFunction,SMDPad,CuDef*%
%ADD16RoundRect,0.250000X0.350000X0.650000X-0.350000X0.650000X-0.350000X-0.650000X0.350000X-0.650000X0*%
%TD*%
%TA.AperFunction,SMDPad,CuDef*%
%ADD17RoundRect,0.250000X-0.400000X-0.625000X0.400000X-0.625000X0.400000X0.625000X-0.400000X0.625000X0*%
%TD*%
%TA.AperFunction,ComponentPad*%
%ADD18O,1.800000X1.800000*%
%TD*%
%TA.AperFunction,SMDPad,CuDef*%
%ADD19RoundRect,0.250000X0.625000X-0.400000X0.625000X0.400000X-0.625000X0.400000X-0.625000X-0.400000X0*%
%TD*%
%TA.AperFunction,SMDPad,CuDef*%
%ADD20RoundRect,0.237500X-0.300000X-0.237500X0.300000X-0.237500X0.300000X0.237500X-0.300000X0.237500X0*%
%TD*%
%TA.AperFunction,SMDPad,CuDef*%
%ADD21RoundRect,0.125000X-0.762500X-0.125000X0.762500X-0.125000X0.762500X0.125000X-0.762500X0.125000X0*%
%TD*%
%TA.AperFunction,SMDPad,CuDef*%
%ADD22RoundRect,0.250000X0.400000X0.625000X-0.400000X0.625000X-0.400000X-0.625000X0.400000X-0.625000X0*%
%TD*%
%TA.AperFunction,SMDPad,CuDef*%
%ADD23R,0.622132X2.602784*%
%TD*%
%TA.AperFunction,ComponentPad*%
%ADD24R,1.320800X1.320800*%
%TD*%
%TA.AperFunction,ComponentPad*%
%ADD25C,1.320800*%
%TD*%
%TA.AperFunction,ComponentPad*%
%ADD26R,3.000000X3.000000*%
%TD*%
%TA.AperFunction,ComponentPad*%
%ADD27C,3.000000*%
%TD*%
%TA.AperFunction,ViaPad*%
%ADD28C,0.600000*%
%TD*%
%TA.AperFunction,Conductor*%
%ADD29C,4.000000*%
%TD*%
%TA.AperFunction,Conductor*%
%ADD30C,0.200000*%
%TD*%
%TA.AperFunction,Conductor*%
%ADD31C,2.000000*%
%TD*%
G04 APERTURE END LIST*
D10*
%TO.P,K5,1,1*%
%TO.N,/Relay5/NO1*%
X130460000Y-85208451D03*
%TO.P,K5,2,2*%
%TO.N,+12V Fused*%
X130460000Y-73008450D03*
%TO.P,K5,3,3*%
%TO.N,/Relay5/FUSED_COM1*%
X124460002Y-71108451D03*
%TO.P,K5,4,4*%
%TO.N,/Relay5/Relay*%
X118460004Y-73008450D03*
%TO.P,K5,5,5*%
%TO.N,/Relay5/NC1*%
X118460004Y-85208451D03*
%TD*%
%TO.P,K8,1,1*%
%TO.N,/Relay8/NO1*%
X69500000Y-85208451D03*
%TO.P,K8,2,2*%
%TO.N,+12V Fused*%
X69500000Y-73008450D03*
%TO.P,K8,3,3*%
%TO.N,/Relay8/FUSED_COM1*%
X63500002Y-71108451D03*
%TO.P,K8,4,4*%
%TO.N,/Relay8/Relay*%
X57500004Y-73008450D03*
%TO.P,K8,5,5*%
%TO.N,/Relay8/NC1*%
X57500004Y-85208451D03*
%TD*%
D11*
%TO.P,LED6,1,K*%
%TO.N,Net-(LED6-K)*%
X105060000Y-63793552D03*
D12*
%TO.P,LED6,2,A*%
%TO.N,/Relay6/Relay*%
X102520000Y-63793552D03*
%TD*%
D13*
%TO.P,Con4,1,Pin_1*%
%TO.N,/Relay4/NC1*%
X139700000Y-119071001D03*
%TO.P,Con4,2,Pin_2*%
%TO.N,/Relay4/COM1*%
X144780000Y-119071001D03*
%TO.P,Con4,3,Pin_3*%
%TO.N,/Relay4/NO1*%
X149860000Y-119071001D03*
%TD*%
D14*
%TO.P,F2,1*%
%TO.N,/Relay2/COM1*%
X185420000Y-111451001D03*
%TO.P,F2,2*%
%TO.N,/Relay2/FUSED_COM1*%
X185420000Y-96451001D03*
%TD*%
D15*
%TO.P,J2,1,Pin_1*%
%TO.N,GND*%
X166340000Y-44515000D03*
%TO.P,J2,2,Pin_2*%
%TO.N,VCC*%
X165340000Y-44515000D03*
%TO.P,J2,3,Pin_3*%
%TO.N,/SDA*%
X164340000Y-44515000D03*
%TO.P,J2,4,Pin_4*%
%TO.N,/SCL*%
X163340000Y-44515000D03*
D16*
%TO.P,J2,MP*%
%TO.N,N/C*%
X167640000Y-40640000D03*
X162040000Y-40640000D03*
%TD*%
D11*
%TO.P,LED4,1,K*%
%TO.N,Net-(LED4-K)*%
X145699998Y-63793552D03*
D12*
%TO.P,LED4,2,A*%
%TO.N,/Relay4/Relay*%
X143159998Y-63793552D03*
%TD*%
D17*
%TO.P,R4,1*%
%TO.N,Net-(LED4-K)*%
X150779998Y-63793552D03*
%TO.P,R4,2*%
%TO.N,GND*%
X153879998Y-63793552D03*
%TD*%
D14*
%TO.P,F3,1*%
%TO.N,/Relay3/COM1*%
X165100002Y-111451001D03*
%TO.P,F3,2*%
%TO.N,/Relay3/FUSED_COM1*%
X165100002Y-96451001D03*
%TD*%
D11*
%TO.P,D1,1,K*%
%TO.N,+12V Fused*%
X207010000Y-57150000D03*
D18*
%TO.P,D1,2,A*%
%TO.N,GND*%
X207010000Y-44450000D03*
%TD*%
D17*
%TO.P,R8,1*%
%TO.N,Net-(LED8-K)*%
X69500000Y-63793552D03*
%TO.P,R8,2*%
%TO.N,GND*%
X72600000Y-63793552D03*
%TD*%
D13*
%TO.P,Con5,1,Pin_1*%
%TO.N,/Relay5/NC1*%
X119380002Y-119071001D03*
%TO.P,Con5,2,Pin_2*%
%TO.N,/Relay5/COM1*%
X124460002Y-119071001D03*
%TO.P,Con5,3,Pin_3*%
%TO.N,/Relay5/NO1*%
X129540002Y-119071001D03*
%TD*%
D14*
%TO.P,F6,1*%
%TO.N,/Relay6/COM1*%
X104140002Y-111451001D03*
%TO.P,F6,2*%
%TO.N,/Relay6/FUSED_COM1*%
X104140002Y-96451001D03*
%TD*%
D19*
%TO.P,R9,1*%
%TO.N,VCC*%
X149860000Y-44248000D03*
%TO.P,R9,2*%
%TO.N,Net-(U1-~{INT})*%
X149860000Y-41148000D03*
%TD*%
D11*
%TO.P,LED0,1,K*%
%TO.N,Net-(LED0-K)*%
X149790000Y-53340000D03*
D12*
%TO.P,LED0,2,A*%
%TO.N,+12V Fused*%
X147250000Y-53340000D03*
%TD*%
D17*
%TO.P,R7,1*%
%TO.N,Net-(LED7-K)*%
X89820000Y-63793552D03*
%TO.P,R7,2*%
%TO.N,GND*%
X92920000Y-63793552D03*
%TD*%
D14*
%TO.P,F8,1*%
%TO.N,/Relay8/COM1*%
X63500002Y-111451001D03*
%TO.P,F8,2*%
%TO.N,/Relay8/FUSED_COM1*%
X63500002Y-96451001D03*
%TD*%
D13*
%TO.P,Con6,1,Pin_1*%
%TO.N,/Relay6/NC1*%
X99060002Y-119071001D03*
%TO.P,Con6,2,Pin_2*%
%TO.N,/Relay6/COM1*%
X104140002Y-119071001D03*
%TO.P,Con6,3,Pin_3*%
%TO.N,/Relay6/NO1*%
X109220002Y-119071001D03*
%TD*%
%TO.P,Con3,1,Pin_1*%
%TO.N,/Relay3/NC1*%
X160020002Y-119071001D03*
%TO.P,Con3,2,Pin_2*%
%TO.N,/Relay3/COM1*%
X165100002Y-119071001D03*
%TO.P,Con3,3,Pin_3*%
%TO.N,/Relay3/NO1*%
X170180002Y-119071001D03*
%TD*%
D10*
%TO.P,K1,1,1*%
%TO.N,/Relay1/NO1*%
X210820000Y-85208451D03*
%TO.P,K1,2,2*%
%TO.N,+12V Fused*%
X210820000Y-73008450D03*
%TO.P,K1,3,3*%
%TO.N,/Relay1/FUSED_COM1*%
X204820002Y-71108451D03*
%TO.P,K1,4,4*%
%TO.N,/Relay1/Relay*%
X198820004Y-73008450D03*
%TO.P,K1,5,5*%
%TO.N,/Relay1/NC1*%
X198820004Y-85208451D03*
%TD*%
D14*
%TO.P,F1,1*%
%TO.N,/Relay1/COM1*%
X204820002Y-111451001D03*
%TO.P,F1,2*%
%TO.N,/Relay1/FUSED_COM1*%
X204820002Y-96451001D03*
%TD*%
D20*
%TO.P,C1,1*%
%TO.N,VCC*%
X140970000Y-52705000D03*
%TO.P,C1,2*%
%TO.N,GND*%
X142695000Y-52705000D03*
%TD*%
D10*
%TO.P,K3,1,1*%
%TO.N,/Relay3/NO1*%
X171100000Y-85208451D03*
%TO.P,K3,2,2*%
%TO.N,+12V Fused*%
X171100000Y-73008450D03*
%TO.P,K3,3,3*%
%TO.N,/Relay3/FUSED_COM1*%
X165100002Y-71108451D03*
%TO.P,K3,4,4*%
%TO.N,/Relay3/Relay*%
X159100004Y-73008450D03*
%TO.P,K3,5,5*%
%TO.N,/Relay3/NC1*%
X159100004Y-85208451D03*
%TD*%
D15*
%TO.P,J1,1,Pin_1*%
%TO.N,GND*%
X157450000Y-44515000D03*
%TO.P,J1,2,Pin_2*%
%TO.N,VCC*%
X156450000Y-44515000D03*
%TO.P,J1,3,Pin_3*%
%TO.N,/SDA*%
X155450000Y-44515000D03*
%TO.P,J1,4,Pin_4*%
%TO.N,/SCL*%
X154450000Y-44515000D03*
D16*
%TO.P,J1,MP*%
%TO.N,N/C*%
X158750000Y-40640000D03*
X153150000Y-40640000D03*
%TD*%
D21*
%TO.P,U1,1,A0*%
%TO.N,/A0*%
X131842500Y-52849502D03*
%TO.P,U1,2,A1*%
%TO.N,/A1*%
X131842500Y-53499502D03*
%TO.P,U1,3,A2*%
%TO.N,/A2*%
X131842500Y-54149502D03*
%TO.P,U1,4,P0*%
%TO.N,Net-(U1-P0)*%
X131842500Y-54799502D03*
%TO.P,U1,5,P1*%
%TO.N,Net-(U1-P1)*%
X131842500Y-55449502D03*
%TO.P,U1,6,P2*%
%TO.N,Net-(U1-P2)*%
X131842500Y-56099502D03*
%TO.P,U1,7,P3*%
%TO.N,Net-(U1-P3)*%
X131842500Y-56749502D03*
%TO.P,U1,8,GND*%
%TO.N,GND*%
X131842500Y-57399502D03*
%TO.P,U1,9,P4*%
%TO.N,Net-(U1-P4)*%
X138667500Y-57399502D03*
%TO.P,U1,10,P5*%
%TO.N,Net-(U1-P5)*%
X138667500Y-56749502D03*
%TO.P,U1,11,P6*%
%TO.N,Net-(U1-P6)*%
X138667500Y-56099502D03*
%TO.P,U1,12,P7*%
%TO.N,Net-(U1-P7)*%
X138667500Y-55449502D03*
%TO.P,U1,13,~{INT}*%
%TO.N,Net-(U1-~{INT})*%
X138667500Y-54799502D03*
%TO.P,U1,14,SCL*%
%TO.N,/SCL*%
X138667500Y-54149502D03*
%TO.P,U1,15,SDA*%
%TO.N,/SDA*%
X138667500Y-53499502D03*
%TO.P,U1,16,VDD*%
%TO.N,VCC*%
X138667500Y-52849502D03*
%TD*%
D22*
%TO.P,R11,1*%
%TO.N,VCC*%
X166930000Y-52070000D03*
%TO.P,R11,2*%
%TO.N,/SCL*%
X163830000Y-52070000D03*
%TD*%
D17*
%TO.P,R0,1*%
%TO.N,Net-(LED0-K)*%
X153035000Y-50800000D03*
%TO.P,R0,2*%
%TO.N,GND*%
X156135000Y-50800000D03*
%TD*%
D14*
%TO.P,F5,1*%
%TO.N,/Relay5/COM1*%
X124460002Y-111451001D03*
%TO.P,F5,2*%
%TO.N,/Relay5/FUSED_COM1*%
X124460002Y-96451001D03*
%TD*%
D13*
%TO.P,Con1,1,Pin_1*%
%TO.N,/Relay1/NC1*%
X199740002Y-119071001D03*
%TO.P,Con1,2,Pin_2*%
%TO.N,/Relay1/COM1*%
X204820002Y-119071001D03*
%TO.P,Con1,3,Pin_3*%
%TO.N,/Relay1/NO1*%
X209900002Y-119071001D03*
%TD*%
D11*
%TO.P,LED8,1,K*%
%TO.N,Net-(LED8-K)*%
X64420000Y-63793552D03*
D12*
%TO.P,LED8,2,A*%
%TO.N,/Relay8/Relay*%
X61880000Y-63793552D03*
%TD*%
D23*
%TO.P,U2,1,1B*%
%TO.N,Net-(U1-P0)*%
X100965000Y-46749007D03*
%TO.P,U2,2,2B*%
X99695000Y-46749007D03*
%TO.P,U2,3,3B*%
%TO.N,Net-(U1-P1)*%
X98425000Y-46749007D03*
%TO.P,U2,4,4B*%
X97155000Y-46749007D03*
%TO.P,U2,5,5B*%
%TO.N,Net-(U1-P2)*%
X95885000Y-46749007D03*
%TO.P,U2,6,6B*%
X94615000Y-46749007D03*
%TO.P,U2,7,7B*%
%TO.N,Net-(U1-P3)*%
X93345000Y-46749007D03*
%TO.P,U2,8,8B*%
X92075000Y-46749007D03*
%TO.P,U2,9,GND*%
%TO.N,GND*%
X90805000Y-46749007D03*
%TO.P,U2,10,NC*%
%TO.N,unconnected-(U2-NC-Pad10)*%
X89535000Y-46749007D03*
%TO.P,U2,11,NC*%
%TO.N,unconnected-(U2-NC-Pad11)*%
X89535000Y-55880000D03*
%TO.P,U2,12,COM*%
%TO.N,+12V Fused*%
X90805000Y-55880000D03*
%TO.P,U2,13,8C*%
%TO.N,/Relay8/Relay*%
X92075000Y-55880000D03*
%TO.P,U2,14,7C*%
X93345000Y-55880000D03*
%TO.P,U2,15,6C*%
%TO.N,/Relay7/Relay*%
X94615000Y-55880000D03*
%TO.P,U2,16,5C*%
X95885000Y-55880000D03*
%TO.P,U2,17,4C*%
%TO.N,/Relay6/Relay*%
X97155000Y-55880000D03*
%TO.P,U2,18,3C*%
X98425000Y-55880000D03*
%TO.P,U2,19,2C*%
%TO.N,/Relay5/Relay*%
X99695000Y-55880000D03*
%TO.P,U2,20,1C*%
X100965000Y-55880000D03*
%TD*%
D17*
%TO.P,R5,1*%
%TO.N,Net-(LED5-K)*%
X130460000Y-63793552D03*
%TO.P,R5,2*%
%TO.N,GND*%
X133560000Y-63793552D03*
%TD*%
%TO.P,R1,1*%
%TO.N,Net-(LED1-K)*%
X210820000Y-63793552D03*
%TO.P,R1,2*%
%TO.N,GND*%
X213920000Y-63793552D03*
%TD*%
D24*
%TO.P,SW1,1,1*%
%TO.N,VCC*%
X111760000Y-50800000D03*
D25*
%TO.P,SW1,2,2*%
X111760000Y-53340000D03*
%TO.P,SW1,3,3*%
X111760000Y-55880000D03*
%TO.P,SW1,4,4*%
%TO.N,/A2*%
X119380000Y-55880000D03*
%TO.P,SW1,5,5*%
%TO.N,/A1*%
X119380000Y-53340000D03*
%TO.P,SW1,6,6*%
%TO.N,/A0*%
X119380000Y-50800000D03*
%TD*%
D10*
%TO.P,K4,1,1*%
%TO.N,/Relay4/NO1*%
X150779998Y-85208451D03*
%TO.P,K4,2,2*%
%TO.N,+12V Fused*%
X150779998Y-73008450D03*
%TO.P,K4,3,3*%
%TO.N,/Relay4/FUSED_COM1*%
X144780000Y-71108451D03*
%TO.P,K4,4,4*%
%TO.N,/Relay4/Relay*%
X138780002Y-73008450D03*
%TO.P,K4,5,5*%
%TO.N,/Relay4/NC1*%
X138780002Y-85208451D03*
%TD*%
D13*
%TO.P,Con7,1,Pin_1*%
%TO.N,/Relay7/NC1*%
X78740002Y-119071001D03*
%TO.P,Con7,2,Pin_2*%
%TO.N,/Relay7/COM1*%
X83820002Y-119071001D03*
%TO.P,Con7,3,Pin_3*%
%TO.N,/Relay7/NO1*%
X88900002Y-119071001D03*
%TD*%
D17*
%TO.P,R3,1*%
%TO.N,Net-(LED3-K)*%
X170815000Y-64770000D03*
%TO.P,R3,2*%
%TO.N,GND*%
X173915000Y-64770000D03*
%TD*%
D10*
%TO.P,K2,1,1*%
%TO.N,/Relay2/NO1*%
X191419998Y-85208451D03*
%TO.P,K2,2,2*%
%TO.N,+12V Fused*%
X191419998Y-73008450D03*
%TO.P,K2,3,3*%
%TO.N,/Relay2/FUSED_COM1*%
X185420000Y-71108451D03*
%TO.P,K2,4,4*%
%TO.N,/Relay2/Relay*%
X179420002Y-73008450D03*
%TO.P,K2,5,5*%
%TO.N,/Relay2/NC1*%
X179420002Y-85208451D03*
%TD*%
D17*
%TO.P,R2,1*%
%TO.N,Net-(LED2-K)*%
X191419998Y-63793552D03*
%TO.P,R2,2*%
%TO.N,GND*%
X194519998Y-63793552D03*
%TD*%
D20*
%TO.P,C2,1*%
%TO.N,VCC*%
X140970000Y-50800000D03*
%TO.P,C2,2*%
%TO.N,GND*%
X142695000Y-50800000D03*
%TD*%
D14*
%TO.P,F7,1*%
%TO.N,/Relay7/COM1*%
X83820002Y-111451001D03*
%TO.P,F7,2*%
%TO.N,/Relay7/FUSED_COM1*%
X83820002Y-96451001D03*
%TD*%
D11*
%TO.P,LED2,1,K*%
%TO.N,Net-(LED2-K)*%
X186339998Y-63793552D03*
D12*
%TO.P,LED2,2,A*%
%TO.N,/Relay2/Relay*%
X183799998Y-63793552D03*
%TD*%
D14*
%TO.P,F4,1*%
%TO.N,/Relay4/COM1*%
X144780000Y-111451001D03*
%TO.P,F4,2*%
%TO.N,/Relay4/FUSED_COM1*%
X144780000Y-96451001D03*
%TD*%
D26*
%TO.P,J5,1,Pin_1*%
%TO.N,+12V*%
X116205000Y-43694502D03*
D27*
%TO.P,J5,2,Pin_2*%
%TO.N,GND*%
X111125000Y-43694502D03*
%TD*%
D13*
%TO.P,Con2,1,Pin_1*%
%TO.N,/Relay2/NC1*%
X180340000Y-119071001D03*
%TO.P,Con2,2,Pin_2*%
%TO.N,/Relay2/COM1*%
X185420000Y-119071001D03*
%TO.P,Con2,3,Pin_3*%
%TO.N,/Relay2/NO1*%
X190500000Y-119071001D03*
%TD*%
D17*
%TO.P,R6,1*%
%TO.N,Net-(LED6-K)*%
X110140000Y-63793552D03*
%TO.P,R6,2*%
%TO.N,GND*%
X113240000Y-63793552D03*
%TD*%
D22*
%TO.P,R10,1*%
%TO.N,VCC*%
X166930000Y-48260000D03*
%TO.P,R10,2*%
%TO.N,/SDA*%
X163830000Y-48260000D03*
%TD*%
D11*
%TO.P,LED7,1,K*%
%TO.N,Net-(LED7-K)*%
X84740000Y-63793552D03*
D12*
%TO.P,LED7,2,A*%
%TO.N,/Relay7/Relay*%
X82200000Y-63793552D03*
%TD*%
D11*
%TO.P,LED3,1,K*%
%TO.N,Net-(LED3-K)*%
X166020000Y-63793552D03*
D12*
%TO.P,LED3,2,A*%
%TO.N,/Relay3/Relay*%
X163480000Y-63793552D03*
%TD*%
D10*
%TO.P,K7,1,1*%
%TO.N,/Relay7/NO1*%
X89820000Y-85208451D03*
%TO.P,K7,2,2*%
%TO.N,+12V Fused*%
X89820000Y-73008450D03*
%TO.P,K7,3,3*%
%TO.N,/Relay7/FUSED_COM1*%
X83820002Y-71108451D03*
%TO.P,K7,4,4*%
%TO.N,/Relay7/Relay*%
X77820004Y-73008450D03*
%TO.P,K7,5,5*%
%TO.N,/Relay7/NC1*%
X77820004Y-85208451D03*
%TD*%
D11*
%TO.P,LED1,1,K*%
%TO.N,Net-(LED1-K)*%
X205740000Y-63793552D03*
D12*
%TO.P,LED1,2,A*%
%TO.N,/Relay1/Relay*%
X203200000Y-63793552D03*
%TD*%
D14*
%TO.P,F0,1*%
%TO.N,+12V*%
X127755000Y-44964502D03*
%TO.P,F0,2*%
%TO.N,+12V Fused*%
X142755000Y-44964502D03*
%TD*%
D23*
%TO.P,U3,1,1B*%
%TO.N,Net-(U1-P4)*%
X182880000Y-46749007D03*
%TO.P,U3,2,2B*%
X181610000Y-46749007D03*
%TO.P,U3,3,3B*%
%TO.N,Net-(U1-P5)*%
X180340000Y-46749007D03*
%TO.P,U3,4,4B*%
X179070000Y-46749007D03*
%TO.P,U3,5,5B*%
%TO.N,Net-(U1-P6)*%
X177800000Y-46749007D03*
%TO.P,U3,6,6B*%
X176530000Y-46749007D03*
%TO.P,U3,7,7B*%
%TO.N,Net-(U1-P7)*%
X175260000Y-46749007D03*
%TO.P,U3,8,8B*%
X173990000Y-46749007D03*
%TO.P,U3,9,GND*%
%TO.N,GND*%
X172720000Y-46749007D03*
%TO.P,U3,10,NC*%
%TO.N,unconnected-(U3-NC-Pad10)*%
X171450000Y-46749007D03*
%TO.P,U3,11,NC*%
%TO.N,unconnected-(U3-NC-Pad11)*%
X171450000Y-55880000D03*
%TO.P,U3,12,COM*%
%TO.N,+12V Fused*%
X172720000Y-55880000D03*
%TO.P,U3,13,8C*%
%TO.N,/Relay4/Relay*%
X173990000Y-55880000D03*
%TO.P,U3,14,7C*%
X175260000Y-55880000D03*
%TO.P,U3,15,6C*%
%TO.N,/Relay3/Relay*%
X176530000Y-55880000D03*
%TO.P,U3,16,5C*%
X177800000Y-55880000D03*
%TO.P,U3,17,4C*%
%TO.N,/Relay2/Relay*%
X179070000Y-55880000D03*
%TO.P,U3,18,3C*%
X180340000Y-55880000D03*
%TO.P,U3,19,2C*%
%TO.N,/Relay1/Relay*%
X181610000Y-55880000D03*
%TO.P,U3,20,1C*%
X182880000Y-55880000D03*
%TD*%
D13*
%TO.P,Con8,1,Pin_1*%
%TO.N,/Relay8/NC1*%
X58420002Y-119071001D03*
%TO.P,Con8,2,Pin_2*%
%TO.N,/Relay8/COM1*%
X63500002Y-119071001D03*
%TO.P,Con8,3,Pin_3*%
%TO.N,/Relay8/NO1*%
X68580002Y-119071001D03*
%TD*%
D11*
%TO.P,LED5,1,K*%
%TO.N,Net-(LED5-K)*%
X125380000Y-63793552D03*
D12*
%TO.P,LED5,2,A*%
%TO.N,/Relay5/Relay*%
X122840000Y-63793552D03*
%TD*%
D10*
%TO.P,K6,1,1*%
%TO.N,/Relay6/NO1*%
X110140000Y-85208451D03*
%TO.P,K6,2,2*%
%TO.N,+12V Fused*%
X110140000Y-73008450D03*
%TO.P,K6,3,3*%
%TO.N,/Relay6/FUSED_COM1*%
X104140002Y-71108451D03*
%TO.P,K6,4,4*%
%TO.N,/Relay6/Relay*%
X98140004Y-73008450D03*
%TO.P,K6,5,5*%
%TO.N,/Relay6/NC1*%
X98140004Y-85208451D03*
%TD*%
D28*
%TO.N,+12V Fused*%
X172720000Y-53340000D03*
X90170000Y-53340000D03*
X90170000Y-58420000D03*
%TO.N,GND*%
X203200000Y-45720000D03*
X139954000Y-48514000D03*
X114935000Y-55880000D03*
X148590000Y-62865000D03*
X208280000Y-65405000D03*
X175260000Y-43815000D03*
X210820000Y-50800000D03*
X152908000Y-47244000D03*
X124460000Y-52070000D03*
X101600000Y-66040000D03*
X142240000Y-52070000D03*
X99060000Y-49530000D03*
X58420000Y-48260000D03*
X99695000Y-58420000D03*
X180340000Y-43815000D03*
X160528000Y-40640000D03*
X141605000Y-53975000D03*
X100330000Y-52070000D03*
X182880000Y-58420000D03*
X168910000Y-51435000D03*
X95885000Y-67310000D03*
X147574000Y-44958000D03*
X203200000Y-50800000D03*
X71120000Y-66675000D03*
X210820000Y-45720000D03*
X135255000Y-57785000D03*
X182880000Y-43815000D03*
X158750000Y-42926000D03*
X107950000Y-56515000D03*
X156210000Y-55245000D03*
X156845000Y-67310000D03*
X152908000Y-42926000D03*
X158750000Y-50800000D03*
X172720000Y-43815000D03*
X169545000Y-56515000D03*
X158750000Y-47244000D03*
X158750000Y-44450000D03*
X189230000Y-65405000D03*
X142240000Y-66040000D03*
X168910000Y-66040000D03*
X161290000Y-45085000D03*
X63500000Y-50800000D03*
X149352000Y-47498000D03*
X146050000Y-42926000D03*
X152908000Y-45212000D03*
X167005000Y-53975000D03*
X129540000Y-66040000D03*
X176530000Y-67310000D03*
X63500000Y-48260000D03*
X177800000Y-43815000D03*
X122555000Y-54610000D03*
X155956000Y-40894000D03*
X102870000Y-50800000D03*
X58420000Y-50800000D03*
X81280000Y-66040000D03*
%TO.N,VCC*%
X140970000Y-49189020D03*
%TO.N,Net-(U1-P6)*%
X147955000Y-55880000D03*
X175895000Y-48895000D03*
%TO.N,/SCL*%
X151505000Y-44515000D03*
X151505000Y-48768000D03*
X160395000Y-44450000D03*
X160395000Y-48768000D03*
%TO.N,Net-(U1-P4)*%
X151173403Y-57224127D03*
X182245000Y-48260000D03*
%TO.N,/A0*%
X133350000Y-52705000D03*
%TO.N,/A1*%
X133985000Y-53340000D03*
%TO.N,/A2*%
X127000000Y-54199502D03*
X134620000Y-53975000D03*
%TD*%
D29*
%TO.N,/Relay1/NO1*%
X210820000Y-118151003D02*
X209900002Y-119071001D01*
X210820000Y-85208451D02*
X210820000Y-118151003D01*
%TO.N,/Relay1/NC1*%
X198820004Y-118151003D02*
X199740002Y-119071001D01*
X198820004Y-85208451D02*
X198820004Y-118151003D01*
%TO.N,/Relay1/COM1*%
X204820002Y-111451001D02*
X204820002Y-119071001D01*
D30*
%TO.N,VCC*%
X140970000Y-50800000D02*
X140970000Y-49189020D01*
X156450000Y-41924000D02*
X156464000Y-41910000D01*
X166930000Y-52705000D02*
X166930000Y-48895000D01*
X141434510Y-48724510D02*
X145911021Y-44248000D01*
X166930000Y-48335000D02*
X165340000Y-46745000D01*
X149860000Y-44450000D02*
X149982002Y-44450000D01*
X165340000Y-43740001D02*
X165340000Y-44515000D01*
X140825498Y-52849502D02*
X140970000Y-52705000D01*
X165340000Y-46745000D02*
X165340000Y-44515000D01*
X164739999Y-43140000D02*
X165340000Y-43740001D01*
X145911021Y-44248000D02*
X147269002Y-44248000D01*
X156464000Y-41910000D02*
X163509999Y-41910000D01*
X140970000Y-49189020D02*
X141434510Y-48724510D01*
X149860000Y-44248000D02*
X147269002Y-44248000D01*
X156450000Y-44515000D02*
X156450000Y-41924000D01*
X152400000Y-41910000D02*
X156464000Y-41910000D01*
X166930000Y-48895000D02*
X166930000Y-48335000D01*
X149860000Y-44450000D02*
X152400000Y-41910000D01*
X138667500Y-52849502D02*
X140825498Y-52849502D01*
X140970000Y-50800000D02*
X140970000Y-52705000D01*
X163509999Y-41910000D02*
X164739999Y-43140000D01*
%TO.N,Net-(U1-P1)*%
X120307713Y-55449502D02*
X119777811Y-54919600D01*
X119777811Y-54919600D02*
X109545400Y-54919600D01*
X109545400Y-54919600D02*
X109015498Y-55449502D01*
X109015498Y-55449502D02*
X106135169Y-55449502D01*
X131842500Y-55449502D02*
X120307713Y-55449502D01*
X97155000Y-46749007D02*
X98425000Y-46749007D01*
X98425000Y-47739333D02*
X106135169Y-55449502D01*
X98425000Y-46749007D02*
X98425000Y-47739333D01*
%TO.N,Net-(U1-P6)*%
X147735498Y-56099502D02*
X147955000Y-55880000D01*
X138667500Y-56099502D02*
X147735498Y-56099502D01*
X176530000Y-48260000D02*
X175895000Y-48895000D01*
X176530000Y-46749007D02*
X176530000Y-48260000D01*
X177800000Y-46749007D02*
X176530000Y-46749007D01*
%TO.N,Net-(U1-P3)*%
X99060000Y-53340000D02*
X93345000Y-47625000D01*
X99695000Y-53340000D02*
X99060000Y-53340000D01*
X93345000Y-46749007D02*
X92075000Y-46749007D01*
X99695000Y-53340000D02*
X101200000Y-53340000D01*
X93345000Y-47625000D02*
X93345000Y-46749007D01*
X101200000Y-53340000D02*
X105410000Y-57550000D01*
X131842500Y-56749502D02*
X120434395Y-56749502D01*
X119633897Y-57550000D02*
X105410000Y-57550000D01*
X120434395Y-56749502D02*
X119633897Y-57550000D01*
%TO.N,/SDA*%
X140970000Y-54610000D02*
X142240000Y-54610000D01*
X155448000Y-46644000D02*
X162976000Y-46644000D01*
X142875000Y-54610000D02*
X145415000Y-52070000D01*
X145415000Y-52070000D02*
X145557818Y-52070000D01*
X138667500Y-53499502D02*
X139859502Y-53499502D01*
X155450000Y-46642000D02*
X155448000Y-46644000D01*
X139859502Y-53499502D02*
X140335000Y-53975000D01*
X163493999Y-46136000D02*
X164340000Y-45289999D01*
X162976000Y-46644000D02*
X163830000Y-47498000D01*
X163830000Y-47498000D02*
X163830000Y-48895000D01*
X155450000Y-44515000D02*
X155450000Y-46228000D01*
X142240000Y-54610000D02*
X142875000Y-54610000D01*
X155450000Y-46228000D02*
X155450000Y-46642000D01*
X163357000Y-46263000D02*
X163484000Y-46136000D01*
X145557818Y-52070000D02*
X150983818Y-46644000D01*
X164340000Y-45289999D02*
X164340000Y-44515000D01*
X162976000Y-46644000D02*
X163357000Y-46263000D01*
X150983818Y-46644000D02*
X151130000Y-46644000D01*
X151130000Y-46644000D02*
X155448000Y-46644000D01*
X140335000Y-53975000D02*
X140970000Y-54610000D01*
X163484000Y-46136000D02*
X163493999Y-46136000D01*
%TO.N,Net-(U1-P5)*%
X138667500Y-56749502D02*
X149625498Y-56749502D01*
X174739333Y-52070000D02*
X179070000Y-47739333D01*
X150145000Y-56230000D02*
X149625498Y-56749502D01*
X173355000Y-52070000D02*
X174739333Y-52070000D01*
X172717207Y-52070000D02*
X173355000Y-52070000D01*
X168557207Y-56230000D02*
X172717207Y-52070000D01*
X151480000Y-56230000D02*
X168557207Y-56230000D01*
X180340000Y-46749007D02*
X179070000Y-46749007D01*
X151480000Y-56230000D02*
X150145000Y-56230000D01*
X179070000Y-46749007D02*
X179070000Y-47739333D01*
%TO.N,/SCL*%
X154450000Y-44515000D02*
X151505000Y-44515000D01*
X160395000Y-48768000D02*
X163830000Y-52203000D01*
X140335000Y-54610000D02*
X140824502Y-55099502D01*
X161665000Y-44450000D02*
X161730000Y-44515000D01*
X151892000Y-48768000D02*
X149860000Y-48768000D01*
X163830000Y-52203000D02*
X163830000Y-52705000D01*
X138667500Y-54149502D02*
X139874502Y-54149502D01*
X161730000Y-44515000D02*
X163340000Y-44515000D01*
X149700679Y-48768000D02*
X149860000Y-48768000D01*
X143369177Y-55099502D02*
X149700679Y-48768000D01*
X140824502Y-55099502D02*
X142385498Y-55099502D01*
X139874502Y-54149502D02*
X140335000Y-54610000D01*
X151892000Y-48768000D02*
X160395000Y-48768000D01*
X160395000Y-44450000D02*
X161665000Y-44450000D01*
X142385498Y-55099502D02*
X143369177Y-55099502D01*
X151505000Y-48768000D02*
X151892000Y-48768000D01*
%TO.N,Net-(U1-P7)*%
X173990000Y-48895000D02*
X173990000Y-46749007D01*
X165635483Y-53875483D02*
X165952983Y-53557983D01*
X138667500Y-55449502D02*
X142240000Y-55449502D01*
X166315966Y-53195000D02*
X168534333Y-53195000D01*
X147607680Y-55449502D02*
X142240000Y-55449502D01*
X165535966Y-53975000D02*
X165952983Y-53557983D01*
X173355000Y-49530000D02*
X173990000Y-48895000D01*
X151547017Y-54827983D02*
X152400000Y-53975000D01*
X172199334Y-49530000D02*
X173355000Y-49530000D01*
X149225000Y-54827983D02*
X151547017Y-54827983D01*
X165952983Y-53557983D02*
X166315966Y-53195000D01*
X148229199Y-54827983D02*
X147607680Y-55449502D01*
X175260000Y-46749007D02*
X173990000Y-46749007D01*
X173990000Y-46749007D02*
X173990000Y-47739333D01*
X152400000Y-53975000D02*
X165535966Y-53975000D01*
X149225000Y-54827983D02*
X148229199Y-54827983D01*
X172142167Y-49587167D02*
X172199334Y-49530000D01*
X168534333Y-53195000D02*
X172142167Y-49587167D01*
%TO.N,Net-(U1-P4)*%
X181610000Y-47739333D02*
X181610000Y-46749007D01*
X138667500Y-57399502D02*
X146685000Y-57399502D01*
X146685000Y-57399502D02*
X150998028Y-57399502D01*
X150998028Y-57399502D02*
X151173403Y-57224127D01*
X182245000Y-48260000D02*
X182245000Y-47384007D01*
X182245000Y-47384007D02*
X181610000Y-46749007D01*
X181610000Y-46749007D02*
X182880000Y-46749007D01*
%TO.N,Net-(U1-P2)*%
X95885000Y-47625000D02*
X95885000Y-46749007D01*
X99695000Y-51435000D02*
X95885000Y-47625000D01*
X94615000Y-46749007D02*
X95885000Y-46749007D01*
X131842500Y-56099502D02*
X120518709Y-56099502D01*
X120518709Y-56099502D02*
X119468211Y-57150000D01*
X100745498Y-51435000D02*
X99695000Y-51435000D01*
X106460498Y-57150000D02*
X100745498Y-51435000D01*
X119468211Y-57150000D02*
X106460498Y-57150000D01*
%TO.N,Net-(U1-P0)*%
X125730000Y-53975000D02*
X121194600Y-53975000D01*
X126471569Y-54519600D02*
X126274600Y-54519600D01*
X99695000Y-46749007D02*
X100965000Y-46749007D01*
X131842500Y-54799502D02*
X126751471Y-54799502D01*
X120650000Y-54519600D02*
X108735592Y-54519600D01*
X108735592Y-54519600D02*
X108387996Y-54172004D01*
X126274600Y-54519600D02*
X125730000Y-53975000D01*
X126751471Y-54799502D02*
X126471569Y-54519600D01*
X108387996Y-54172004D02*
X100965000Y-46749007D01*
X121194600Y-53975000D02*
X120650000Y-54519600D01*
D29*
%TO.N,/Relay2/COM1*%
X185420000Y-111451001D02*
X185420000Y-119071001D01*
%TO.N,/Relay2/NO1*%
X191419998Y-118151003D02*
X190500000Y-119071001D01*
X191419998Y-85208451D02*
X191419998Y-118151003D01*
%TO.N,/Relay2/NC1*%
X179420002Y-85208451D02*
X179420002Y-118151003D01*
X179420002Y-118151003D02*
X180340000Y-119071001D01*
%TO.N,/Relay3/NC1*%
X159100004Y-85208451D02*
X159100004Y-118151003D01*
X159100004Y-118151003D02*
X160020002Y-119071001D01*
%TO.N,/Relay3/NO1*%
X171100000Y-118151003D02*
X170180002Y-119071001D01*
X171100000Y-85208451D02*
X171100000Y-118151003D01*
%TO.N,/Relay3/COM1*%
X165100002Y-111451001D02*
X165100002Y-119071001D01*
%TO.N,/Relay4/NO1*%
X150779998Y-85208451D02*
X150779998Y-118151003D01*
X150779998Y-118151003D02*
X149860000Y-119071001D01*
%TO.N,/Relay4/COM1*%
X144780000Y-119071001D02*
X144780000Y-111451001D01*
%TO.N,/Relay4/NC1*%
X138780002Y-85208451D02*
X138780002Y-118151003D01*
X138780002Y-118151003D02*
X139700000Y-119071001D01*
%TO.N,/Relay1/FUSED_COM1*%
X204820002Y-71108451D02*
X204820002Y-96451001D01*
%TO.N,/Relay2/FUSED_COM1*%
X185420000Y-71108451D02*
X185420000Y-96451001D01*
%TO.N,/Relay3/FUSED_COM1*%
X165100002Y-71108451D02*
X165100002Y-96451001D01*
%TO.N,/Relay4/FUSED_COM1*%
X144780000Y-96451001D02*
X144780000Y-71108451D01*
D31*
%TO.N,/Relay3/Relay*%
X159100004Y-66900756D02*
X162207208Y-63793552D01*
X163620000Y-61393552D02*
X167005000Y-61393552D01*
X168110000Y-61393552D02*
X168910000Y-62193552D01*
X168910000Y-62193552D02*
X175296448Y-62193552D01*
X176071448Y-61418552D02*
X177218934Y-60271066D01*
X163480000Y-63793552D02*
X163480000Y-61533552D01*
D30*
X176530000Y-57150000D02*
X176530000Y-55880000D01*
D31*
X163480000Y-61533552D02*
X163620000Y-61393552D01*
X167005000Y-61393552D02*
X168110000Y-61393552D01*
D30*
X177800000Y-55880000D02*
X176530000Y-55880000D01*
D31*
X177218934Y-60271066D02*
X177218934Y-55880000D01*
X175296448Y-62193552D02*
X177218934Y-60271066D01*
X159100004Y-73008450D02*
X159100004Y-66900756D01*
X162207208Y-63793552D02*
X163480000Y-63793552D01*
%TO.N,/Relay4/Relay*%
X174718934Y-57150000D02*
X174718934Y-58961066D01*
D30*
X175260000Y-55880000D02*
X173990000Y-55880000D01*
X138780002Y-72884898D02*
X138780002Y-68072000D01*
D31*
X138780002Y-73008450D02*
X138780002Y-66900756D01*
D30*
X138780002Y-65689998D02*
X140676448Y-63793552D01*
D31*
X173986448Y-59693552D02*
X170180000Y-59693552D01*
X174718934Y-57150000D02*
X174718934Y-55880000D01*
X174718934Y-58961066D02*
X173986448Y-59693552D01*
X138780002Y-66900756D02*
X141887206Y-63793552D01*
X141887206Y-63793552D02*
X143159998Y-63793552D01*
D30*
X140676448Y-63793552D02*
X143159998Y-63793552D01*
D31*
X170180000Y-59693552D02*
X169380000Y-58893552D01*
X162423018Y-59055000D02*
X145638550Y-59055000D01*
X141887206Y-62806344D02*
X141887206Y-63793552D01*
X174718934Y-58326066D02*
X174718934Y-57150000D01*
X169380000Y-58893552D02*
X162584466Y-58893552D01*
X162584466Y-58893552D02*
X162423018Y-59055000D01*
D30*
X138780002Y-68072000D02*
X138780002Y-65689998D01*
D31*
X145638550Y-59055000D02*
X141887206Y-62806344D01*
D29*
%TO.N,/Relay5/NO1*%
X130460000Y-118151003D02*
X129540002Y-119071001D01*
X130460000Y-85208451D02*
X130460000Y-118151003D01*
%TO.N,/Relay5/COM1*%
X124460002Y-111451001D02*
X124460002Y-119071001D01*
%TO.N,/Relay5/NC1*%
X118460004Y-118151003D02*
X119380002Y-119071001D01*
X118460004Y-85208451D02*
X118460004Y-118151003D01*
%TO.N,/Relay5/FUSED_COM1*%
X124460002Y-96451001D02*
X124460002Y-71108451D01*
D31*
%TO.N,/Relay5/Relay*%
X103506066Y-59150000D02*
X100236066Y-55880000D01*
D30*
X118460004Y-68199996D02*
X118460004Y-65689996D01*
X118460004Y-73034898D02*
X118460004Y-68199996D01*
D31*
X118460004Y-73008450D02*
X118460004Y-65913548D01*
X112103250Y-59150000D02*
X103506066Y-59150000D01*
X120580000Y-63793552D02*
X122840000Y-63793552D01*
X118460004Y-65506754D02*
X112103250Y-59150000D01*
X118460004Y-65913548D02*
X118460004Y-65506754D01*
D30*
X120356448Y-63793552D02*
X122840000Y-63793552D01*
D31*
X118460004Y-65913548D02*
X120580000Y-63793552D01*
D30*
X100965000Y-55880000D02*
X99695000Y-55880000D01*
X118460004Y-65689996D02*
X120356448Y-63793552D01*
D29*
%TO.N,/Relay6/COM1*%
X104140002Y-111451001D02*
X104140002Y-119071001D01*
%TO.N,/Relay6/NO1*%
X110140000Y-118151003D02*
X109220002Y-119071001D01*
X110140000Y-85208451D02*
X110140000Y-118151003D01*
%TO.N,/Relay6/NC1*%
X98140004Y-85208451D02*
X98140004Y-118151003D01*
X98140004Y-118151003D02*
X99060002Y-119071001D01*
%TO.N,/Relay7/NO1*%
X89820000Y-85208451D02*
X89820000Y-118151003D01*
X89820000Y-118151003D02*
X88900002Y-119071001D01*
%TO.N,/Relay7/COM1*%
X83820002Y-111451001D02*
X83820002Y-119071001D01*
%TO.N,/Relay7/NC1*%
X77820004Y-85208451D02*
X77820004Y-118151003D01*
X77820004Y-118151003D02*
X78740002Y-119071001D01*
%TO.N,/Relay8/NO1*%
X69500000Y-118151003D02*
X68580002Y-119071001D01*
X69500000Y-85208451D02*
X69500000Y-118151003D01*
%TO.N,/Relay8/COM1*%
X63500002Y-111451001D02*
X63500002Y-119071001D01*
%TO.N,/Relay8/NC1*%
X57500004Y-118151003D02*
X58420002Y-119071001D01*
X57500004Y-85208451D02*
X57500004Y-118151003D01*
%TO.N,/Relay6/FUSED_COM1*%
X104140002Y-71108451D02*
X104140002Y-96451001D01*
%TO.N,/Relay7/FUSED_COM1*%
X83820002Y-71108451D02*
X83820002Y-96451001D01*
%TO.N,/Relay8/FUSED_COM1*%
X63500002Y-96451001D02*
X63500002Y-71108451D01*
D30*
%TO.N,/Relay6/Relay*%
X98425000Y-55880000D02*
X97790000Y-55880000D01*
D31*
X98140004Y-66900756D02*
X100300380Y-64740380D01*
X98140004Y-73008450D02*
X98140004Y-66900756D01*
D30*
X100290448Y-63793552D02*
X102520000Y-63793552D01*
D31*
X97696066Y-62136066D02*
X97696066Y-55880000D01*
D30*
X98140004Y-65943996D02*
X100290448Y-63793552D01*
D31*
X100300380Y-64740380D02*
X101247208Y-63793552D01*
X100300380Y-64740380D02*
X97696066Y-62136066D01*
X101247208Y-63793552D02*
X102520000Y-63793552D01*
D30*
X98140004Y-72884898D02*
X98140004Y-68326000D01*
X97790000Y-55880000D02*
X97155000Y-55880000D01*
X98140004Y-68326000D02*
X98140004Y-65943996D01*
D31*
%TO.N,/Relay7/Relay*%
X95196066Y-60378934D02*
X95196066Y-55880000D01*
D30*
X95885000Y-55880000D02*
X94615000Y-55880000D01*
X77820004Y-65689996D02*
X79716448Y-63793552D01*
D31*
X77820004Y-73008450D02*
X77820004Y-66900756D01*
X82200000Y-61533552D02*
X82773552Y-60960000D01*
X82773552Y-60960000D02*
X94615000Y-60960000D01*
X77820004Y-66900756D02*
X80927208Y-63793552D01*
X94615000Y-60960000D02*
X95196066Y-60378934D01*
X82200000Y-63793552D02*
X82200000Y-61533552D01*
X80927208Y-63793552D02*
X82200000Y-63793552D01*
D30*
X77820004Y-73034898D02*
X77820004Y-68326000D01*
X77820004Y-68326000D02*
X77820004Y-65689996D01*
D31*
%TO.N,/Relay8/Relay*%
X61880000Y-63793552D02*
X61880000Y-61533552D01*
X92696066Y-53158608D02*
X92696066Y-55880000D01*
D30*
X57500004Y-73347449D02*
X57500004Y-65943996D01*
X93345000Y-55880000D02*
X92075000Y-55880000D01*
D31*
X57500004Y-73008450D02*
X57500004Y-66900756D01*
X60853579Y-63793552D02*
X61880000Y-63793552D01*
X57500004Y-66900756D02*
X60607208Y-63793552D01*
X91077458Y-51540000D02*
X92696066Y-53158608D01*
X71873552Y-51540000D02*
X91077458Y-51540000D01*
X61880000Y-61533552D02*
X71873552Y-51540000D01*
X57500004Y-73008450D02*
X57500004Y-67147127D01*
X60607208Y-63793552D02*
X61880000Y-63793552D01*
D30*
%TO.N,Net-(LED0-K)*%
X149790000Y-53340000D02*
X152330000Y-50800000D01*
X152330000Y-50800000D02*
X153035000Y-50800000D01*
%TO.N,Net-(LED1-K)*%
X205740000Y-63500000D02*
X210820000Y-63500000D01*
%TO.N,Net-(LED2-K)*%
X186339998Y-63670000D02*
X191419998Y-63670000D01*
%TO.N,Net-(LED3-K)*%
X169838552Y-63793552D02*
X170815000Y-64770000D01*
X166020000Y-63793552D02*
X169838552Y-63793552D01*
%TO.N,Net-(LED4-K)*%
X145699998Y-63670000D02*
X150779998Y-63670000D01*
%TO.N,Net-(LED5-K)*%
X125380000Y-63820000D02*
X130460000Y-63820000D01*
%TO.N,Net-(LED6-K)*%
X105060000Y-63670000D02*
X110140000Y-63670000D01*
%TO.N,Net-(LED7-K)*%
X84740000Y-63820000D02*
X89820000Y-63820000D01*
%TO.N,Net-(LED8-K)*%
X64420000Y-64132551D02*
X69500000Y-64132551D01*
%TO.N,Net-(U1-~{INT})*%
X138667500Y-54799502D02*
X137780001Y-54799502D01*
X149860000Y-41350000D02*
X143929982Y-41350000D01*
X143929982Y-41350000D02*
X143439991Y-41839991D01*
X137780001Y-54799502D02*
X137480000Y-54499501D01*
X137480000Y-54499501D02*
X137480000Y-47799983D01*
X137480000Y-47799983D02*
X143439991Y-41839991D01*
%TO.N,/A0*%
X133350000Y-52705000D02*
X131987002Y-52705000D01*
X119380000Y-50800000D02*
X129540000Y-50800000D01*
X129540000Y-50800000D02*
X130810000Y-52070000D01*
X130810000Y-52070000D02*
X131062998Y-52070000D01*
X131062998Y-52070000D02*
X131842500Y-52849502D01*
X131987002Y-52705000D02*
X131842500Y-52849502D01*
%TO.N,/A1*%
X133985000Y-53340000D02*
X133825498Y-53499502D01*
X131842500Y-53499502D02*
X119539502Y-53499502D01*
X119539502Y-53499502D02*
X119380000Y-53340000D01*
X133825498Y-53499502D02*
X131842500Y-53499502D01*
%TO.N,/A2*%
X134620000Y-53975000D02*
X134445498Y-54149502D01*
X131842500Y-54149502D02*
X127050000Y-54149502D01*
X127050000Y-54149502D02*
X127000000Y-54199502D01*
X134445498Y-54149502D02*
X131842500Y-54149502D01*
%TO.N,/Relay1/Relay*%
X203200000Y-63793552D02*
X200953552Y-63793552D01*
D31*
X198820004Y-73008450D02*
X198820004Y-66900756D01*
X200953552Y-63793552D02*
X193040000Y-55880000D01*
D30*
X198820004Y-61660004D02*
X198628000Y-61468000D01*
X181610000Y-55880000D02*
X182880000Y-55880000D01*
D31*
X198820004Y-66900756D02*
X201927208Y-63793552D01*
X201927208Y-63793552D02*
X200953552Y-63793552D01*
X193040000Y-55880000D02*
X182298934Y-55880000D01*
X201927208Y-63793552D02*
X203200000Y-63793552D01*
X193040000Y-55880000D02*
X182880000Y-55880000D01*
D30*
X200953552Y-63793552D02*
X198628000Y-61468000D01*
D31*
%TO.N,/Relay2/Relay*%
X180433565Y-66133565D02*
X182773577Y-63793552D01*
X179718934Y-72709518D02*
X179718934Y-55960000D01*
D30*
X180340000Y-55880000D02*
X179070000Y-55880000D01*
D31*
X179420002Y-73008450D02*
X179718934Y-72709518D01*
X182773577Y-63793552D02*
X183799998Y-63793552D01*
%TD*%
%TA.AperFunction,Conductor*%
%TO.N,+12V Fused*%
G36*
X173298039Y-52978685D02*
G01*
X173343794Y-53031489D01*
X173355000Y-53083000D01*
X173355000Y-53987187D01*
X173335315Y-54054226D01*
X173282511Y-54099981D01*
X173213353Y-54109925D01*
X173187668Y-54103369D01*
X173138449Y-54085011D01*
X173138438Y-54085009D01*
X173078910Y-54078608D01*
X172970000Y-54078608D01*
X172970000Y-57681392D01*
X173078894Y-57681392D01*
X173078895Y-57681391D01*
X173081172Y-57681147D01*
X173081698Y-57681241D01*
X173082219Y-57681214D01*
X173082225Y-57681337D01*
X173149932Y-57693549D01*
X173201072Y-57741156D01*
X173218434Y-57804436D01*
X173218434Y-58069052D01*
X173198749Y-58136091D01*
X173145945Y-58181846D01*
X173094434Y-58193052D01*
X172209000Y-58193052D01*
X172141961Y-58173367D01*
X172096206Y-58120563D01*
X172085000Y-58069052D01*
X172085000Y-57772812D01*
X172104685Y-57705773D01*
X172157489Y-57660018D01*
X172226647Y-57650074D01*
X172252334Y-57656630D01*
X172301557Y-57674989D01*
X172301561Y-57674990D01*
X172361089Y-57681391D01*
X172361106Y-57681392D01*
X172470000Y-57681392D01*
X172470000Y-54078608D01*
X172361089Y-54078608D01*
X172301561Y-54085009D01*
X172301550Y-54085011D01*
X172252332Y-54103369D01*
X172182640Y-54108353D01*
X172121318Y-54074867D01*
X172087833Y-54013544D01*
X172085000Y-53987187D01*
X172085000Y-53602803D01*
X172104685Y-53535764D01*
X172121319Y-53515122D01*
X172641123Y-52995319D01*
X172702446Y-52961834D01*
X172728804Y-52959000D01*
X173231000Y-52959000D01*
X173298039Y-52978685D01*
G37*
%TD.AperFunction*%
%TD*%
%TA.AperFunction,Conductor*%
%TO.N,GND*%
G36*
X152028454Y-39636185D02*
G01*
X152074209Y-39688989D01*
X152084153Y-39758147D01*
X152079122Y-39779499D01*
X152060001Y-39837203D01*
X152060001Y-39837204D01*
X152060000Y-39837204D01*
X152049500Y-39939983D01*
X152049500Y-41340001D01*
X152049501Y-41340019D01*
X152050117Y-41346041D01*
X152037347Y-41414734D01*
X152014441Y-41446323D01*
X151919480Y-41541284D01*
X151919478Y-41541286D01*
X150399582Y-43061181D01*
X150338259Y-43094666D01*
X150311901Y-43097500D01*
X149184998Y-43097500D01*
X149184981Y-43097501D01*
X149082203Y-43108000D01*
X149082200Y-43108001D01*
X148915668Y-43163185D01*
X148915663Y-43163187D01*
X148766342Y-43255289D01*
X148642289Y-43379342D01*
X148550187Y-43528663D01*
X148550184Y-43528671D01*
X148538972Y-43562506D01*
X148499199Y-43619950D01*
X148434683Y-43646772D01*
X148421267Y-43647500D01*
X145997691Y-43647500D01*
X145997675Y-43647499D01*
X145990079Y-43647499D01*
X145831964Y-43647499D01*
X145755600Y-43667961D01*
X145679235Y-43688423D01*
X145679230Y-43688426D01*
X145542311Y-43767475D01*
X145542303Y-43767481D01*
X144567494Y-44742289D01*
X144506171Y-44775774D01*
X144436479Y-44770790D01*
X144380546Y-44728918D01*
X144359240Y-44683558D01*
X144305722Y-44460642D01*
X144291081Y-44425295D01*
X144207811Y-44224262D01*
X144207809Y-44224259D01*
X144180058Y-44178974D01*
X144074123Y-44006103D01*
X144074122Y-44006102D01*
X144074121Y-44006100D01*
X143984494Y-43901161D01*
X143907956Y-43811546D01*
X143770914Y-43694501D01*
X143713401Y-43645380D01*
X143713396Y-43645377D01*
X143495242Y-43511692D01*
X143495239Y-43511690D01*
X143258864Y-43413781D01*
X143239529Y-43409139D01*
X143035940Y-43360260D01*
X142975351Y-43325471D01*
X142943187Y-43263444D01*
X142949663Y-43193876D01*
X142977206Y-43152010D01*
X143920511Y-42208707D01*
X143920511Y-42208705D01*
X143930712Y-42198505D01*
X143930715Y-42198500D01*
X144142399Y-41986816D01*
X144203721Y-41953334D01*
X144230079Y-41950500D01*
X148532276Y-41950500D01*
X148599315Y-41970185D01*
X148637813Y-42009401D01*
X148642288Y-42016656D01*
X148766344Y-42140712D01*
X148915666Y-42232814D01*
X149082203Y-42287999D01*
X149184991Y-42298500D01*
X150535008Y-42298499D01*
X150637797Y-42287999D01*
X150804334Y-42232814D01*
X150953656Y-42140712D01*
X151077712Y-42016656D01*
X151169814Y-41867334D01*
X151224999Y-41700797D01*
X151235500Y-41598009D01*
X151235499Y-40697992D01*
X151224999Y-40595203D01*
X151169814Y-40428666D01*
X151077712Y-40279344D01*
X150953656Y-40155288D01*
X150804334Y-40063186D01*
X150637797Y-40008001D01*
X150637795Y-40008000D01*
X150535010Y-39997500D01*
X149184998Y-39997500D01*
X149184981Y-39997501D01*
X149082203Y-40008000D01*
X149082200Y-40008001D01*
X148915668Y-40063185D01*
X148915663Y-40063187D01*
X148766342Y-40155289D01*
X148642289Y-40279342D01*
X148550187Y-40428663D01*
X148550185Y-40428668D01*
X148495001Y-40595204D01*
X148495000Y-40595205D01*
X148490618Y-40638103D01*
X148464221Y-40702795D01*
X148407040Y-40742946D01*
X148367260Y-40749500D01*
X144016651Y-40749500D01*
X144016635Y-40749499D01*
X144009039Y-40749499D01*
X143850925Y-40749499D01*
X143743569Y-40778265D01*
X143698192Y-40790424D01*
X143698191Y-40790425D01*
X143648078Y-40819359D01*
X143648077Y-40819360D01*
X143604671Y-40844420D01*
X143561267Y-40869479D01*
X143561264Y-40869481D01*
X143449460Y-40981286D01*
X143071275Y-41359472D01*
X136999481Y-47431265D01*
X136999479Y-47431268D01*
X136955441Y-47507546D01*
X136955440Y-47507547D01*
X136920423Y-47568197D01*
X136920423Y-47568198D01*
X136879499Y-47720926D01*
X136879499Y-47720928D01*
X136879499Y-47889029D01*
X136879500Y-47889042D01*
X136879500Y-54412831D01*
X136879499Y-54412849D01*
X136879499Y-54578555D01*
X136879498Y-54578555D01*
X136902706Y-54665167D01*
X136920423Y-54731286D01*
X136941814Y-54768336D01*
X136948873Y-54780561D01*
X136948874Y-54780565D01*
X136948875Y-54780565D01*
X136988386Y-54849002D01*
X136999479Y-54868215D01*
X136999481Y-54868218D01*
X137118349Y-54987086D01*
X137118355Y-54987091D01*
X137247864Y-55116600D01*
X137281349Y-55177923D01*
X137282049Y-55219500D01*
X137282788Y-55219559D01*
X137279500Y-55261331D01*
X137279500Y-55637652D01*
X137279501Y-55637677D01*
X137282290Y-55673127D01*
X137282291Y-55673129D01*
X137301691Y-55739909D01*
X137301691Y-55809093D01*
X137282292Y-55875868D01*
X137282290Y-55875881D01*
X137279500Y-55911331D01*
X137279500Y-56287652D01*
X137279501Y-56287677D01*
X137282290Y-56323127D01*
X137282291Y-56323129D01*
X137301691Y-56389909D01*
X137301691Y-56459093D01*
X137282292Y-56525868D01*
X137282290Y-56525881D01*
X137279500Y-56561331D01*
X137279500Y-56937652D01*
X137279501Y-56937677D01*
X137282290Y-56973127D01*
X137282291Y-56973129D01*
X137301691Y-57039909D01*
X137301691Y-57109093D01*
X137282292Y-57175868D01*
X137282290Y-57175881D01*
X137279500Y-57211331D01*
X137279500Y-57587652D01*
X137279501Y-57587677D01*
X137282291Y-57623129D01*
X137326380Y-57774887D01*
X137326382Y-57774892D01*
X137406827Y-57910918D01*
X137406834Y-57910927D01*
X137518574Y-58022667D01*
X137518578Y-58022670D01*
X137518580Y-58022672D01*
X137654610Y-58103120D01*
X137806373Y-58147211D01*
X137841837Y-58150002D01*
X139493162Y-58150001D01*
X139528627Y-58147211D01*
X139680390Y-58103120D01*
X139816420Y-58022672D01*
X139816419Y-58022672D01*
X139823135Y-58018701D01*
X139824569Y-58021125D01*
X139877142Y-58000487D01*
X139888101Y-58000002D01*
X144272158Y-58000002D01*
X144339197Y-58019687D01*
X144384952Y-58072491D01*
X144394896Y-58141649D01*
X144365871Y-58205205D01*
X144359839Y-58211683D01*
X140742690Y-61828832D01*
X140603863Y-62019909D01*
X140522301Y-62179985D01*
X140496640Y-62230347D01*
X140496639Y-62230349D01*
X140496638Y-62230352D01*
X140488066Y-62256733D01*
X140423652Y-62454975D01*
X140386706Y-62688246D01*
X140386706Y-63120663D01*
X140367021Y-63187702D01*
X140350387Y-63208344D01*
X137635487Y-65923243D01*
X137635486Y-65923244D01*
X137496659Y-66114321D01*
X137451000Y-66203933D01*
X137389436Y-66324759D01*
X137316448Y-66549387D01*
X137279502Y-66782658D01*
X137279502Y-68456000D01*
X137259817Y-68523039D01*
X137207013Y-68568794D01*
X137155502Y-68580000D01*
X129057500Y-68580000D01*
X128990461Y-68560315D01*
X128944706Y-68507511D01*
X128933500Y-68456000D01*
X128933500Y-67428451D01*
X128928355Y-67356511D01*
X128887819Y-67218459D01*
X128810031Y-67097419D01*
X128762447Y-67056187D01*
X128701299Y-67003201D01*
X128701297Y-67003199D01*
X128701294Y-67003197D01*
X128701290Y-67003195D01*
X128570419Y-66943427D01*
X128570414Y-66943426D01*
X128428000Y-66922951D01*
X120300000Y-66922951D01*
X120299997Y-66922951D01*
X120228058Y-66928096D01*
X120119439Y-66959990D01*
X120049570Y-66959990D01*
X119990791Y-66922216D01*
X119961766Y-66858661D01*
X119960504Y-66841013D01*
X119960504Y-66586437D01*
X119980189Y-66519398D01*
X119996823Y-66498756D01*
X121165208Y-65330371D01*
X121226531Y-65296886D01*
X121252889Y-65294052D01*
X122958097Y-65294052D01*
X123191368Y-65257105D01*
X123415992Y-65184120D01*
X123626433Y-65076895D01*
X123817510Y-64938069D01*
X123842609Y-64912969D01*
X123903928Y-64879486D01*
X123973620Y-64884469D01*
X124029554Y-64926340D01*
X124032560Y-64931017D01*
X124122452Y-65051096D01*
X124122455Y-65051099D01*
X124237664Y-65137345D01*
X124237671Y-65137349D01*
X124372517Y-65187643D01*
X124372516Y-65187643D01*
X124379444Y-65188387D01*
X124432127Y-65194052D01*
X126327872Y-65194051D01*
X126387483Y-65187643D01*
X126522331Y-65137348D01*
X126637546Y-65051098D01*
X126723796Y-64935883D01*
X126774091Y-64801035D01*
X126780500Y-64741425D01*
X126780500Y-64544500D01*
X126800185Y-64477461D01*
X126852989Y-64431706D01*
X126904500Y-64420500D01*
X129192613Y-64420500D01*
X129259652Y-64440185D01*
X129305407Y-64492989D01*
X129315971Y-64531898D01*
X129320001Y-64571349D01*
X129320001Y-64571351D01*
X129367278Y-64714022D01*
X129375186Y-64737886D01*
X129467288Y-64887208D01*
X129591344Y-65011264D01*
X129740666Y-65103366D01*
X129907203Y-65158551D01*
X130009991Y-65169052D01*
X130910008Y-65169051D01*
X130910016Y-65169050D01*
X130910019Y-65169050D01*
X130966302Y-65163300D01*
X131012797Y-65158551D01*
X131179334Y-65103366D01*
X131328656Y-65011264D01*
X131452712Y-64887208D01*
X131544814Y-64737886D01*
X131599999Y-64571349D01*
X131610500Y-64468561D01*
X131610500Y-64468538D01*
X132410001Y-64468538D01*
X132420494Y-64571249D01*
X132475641Y-64737671D01*
X132475643Y-64737676D01*
X132567684Y-64886897D01*
X132691654Y-65010867D01*
X132840875Y-65102908D01*
X132840880Y-65102910D01*
X133007302Y-65158057D01*
X133007309Y-65158058D01*
X133110019Y-65168551D01*
X133309999Y-65168551D01*
X133810000Y-65168551D01*
X134009972Y-65168551D01*
X134009986Y-65168550D01*
X134112697Y-65158057D01*
X134279119Y-65102910D01*
X134279124Y-65102908D01*
X134428345Y-65010867D01*
X134552315Y-64886897D01*
X134644356Y-64737676D01*
X134644358Y-64737671D01*
X134699505Y-64571249D01*
X134699506Y-64571242D01*
X134709999Y-64468538D01*
X134710000Y-64468525D01*
X134710000Y-64043552D01*
X133810000Y-64043552D01*
X133810000Y-65168551D01*
X133309999Y-65168551D01*
X133310000Y-65168550D01*
X133310000Y-64043552D01*
X132410001Y-64043552D01*
X132410001Y-64468538D01*
X131610500Y-64468538D01*
X131610499Y-63118565D01*
X132410000Y-63118565D01*
X132410000Y-63543552D01*
X133310000Y-63543552D01*
X133810000Y-63543552D01*
X134709999Y-63543552D01*
X134709999Y-63118580D01*
X134709998Y-63118565D01*
X134699505Y-63015854D01*
X134644358Y-62849432D01*
X134644356Y-62849427D01*
X134552315Y-62700206D01*
X134428345Y-62576236D01*
X134279124Y-62484195D01*
X134279119Y-62484193D01*
X134112697Y-62429046D01*
X134112690Y-62429045D01*
X134009986Y-62418552D01*
X133810000Y-62418552D01*
X133810000Y-63543552D01*
X133310000Y-63543552D01*
X133310000Y-62418552D01*
X133110029Y-62418552D01*
X133110012Y-62418553D01*
X133007302Y-62429046D01*
X132840880Y-62484193D01*
X132840875Y-62484195D01*
X132691654Y-62576236D01*
X132567684Y-62700206D01*
X132475643Y-62849427D01*
X132475641Y-62849432D01*
X132420494Y-63015854D01*
X132420493Y-63015861D01*
X132410000Y-63118565D01*
X131610499Y-63118565D01*
X131610499Y-63118544D01*
X131609432Y-63108103D01*
X131599999Y-63015755D01*
X131599998Y-63015752D01*
X131589643Y-62984504D01*
X131544814Y-62849218D01*
X131452712Y-62699896D01*
X131328656Y-62575840D01*
X131222217Y-62510188D01*
X131179336Y-62483739D01*
X131179331Y-62483737D01*
X131168612Y-62480185D01*
X131012797Y-62428553D01*
X131012795Y-62428552D01*
X130910010Y-62418052D01*
X130009998Y-62418052D01*
X130009980Y-62418053D01*
X129907203Y-62428552D01*
X129907200Y-62428553D01*
X129740668Y-62483737D01*
X129740663Y-62483739D01*
X129591342Y-62575841D01*
X129467289Y-62699894D01*
X129375187Y-62849215D01*
X129375185Y-62849220D01*
X129375115Y-62849432D01*
X129320588Y-63013986D01*
X129320001Y-63015756D01*
X129320000Y-63015757D01*
X129310566Y-63108103D01*
X129284169Y-63172795D01*
X129226988Y-63212946D01*
X129187208Y-63219500D01*
X126904499Y-63219500D01*
X126837460Y-63199815D01*
X126791705Y-63147011D01*
X126780499Y-63095500D01*
X126780499Y-62845681D01*
X126780498Y-62845675D01*
X126774091Y-62786068D01*
X126723797Y-62651223D01*
X126723793Y-62651216D01*
X126637547Y-62536007D01*
X126637544Y-62536004D01*
X126522335Y-62449758D01*
X126522328Y-62449754D01*
X126387482Y-62399460D01*
X126387483Y-62399460D01*
X126327883Y-62393053D01*
X126327881Y-62393052D01*
X126327873Y-62393052D01*
X126327864Y-62393052D01*
X124432129Y-62393052D01*
X124432123Y-62393053D01*
X124372516Y-62399460D01*
X124237671Y-62449754D01*
X124237664Y-62449758D01*
X124122455Y-62536004D01*
X124122452Y-62536007D01*
X124030888Y-62658321D01*
X124028485Y-62656522D01*
X123989677Y-62695304D01*
X123921399Y-62710132D01*
X123855943Y-62685692D01*
X123842607Y-62674132D01*
X123817512Y-62649037D01*
X123817511Y-62649036D01*
X123817510Y-62649035D01*
X123626433Y-62510209D01*
X123567508Y-62480185D01*
X123415996Y-62402985D01*
X123191368Y-62329998D01*
X122958097Y-62293052D01*
X122958092Y-62293052D01*
X120698092Y-62293052D01*
X120461908Y-62293052D01*
X120461903Y-62293052D01*
X120228631Y-62329998D01*
X120004003Y-62402985D01*
X119793565Y-62510209D01*
X119602488Y-62649036D01*
X118751082Y-63500442D01*
X118689759Y-63533927D01*
X118620067Y-63528943D01*
X118575720Y-63500442D01*
X113437458Y-58362181D01*
X113403973Y-58300858D01*
X113408957Y-58231166D01*
X113450829Y-58175233D01*
X113516293Y-58150816D01*
X113525139Y-58150500D01*
X119547228Y-58150500D01*
X119547244Y-58150501D01*
X119554840Y-58150501D01*
X119712951Y-58150501D01*
X119712954Y-58150501D01*
X119865682Y-58109577D01*
X119944670Y-58063973D01*
X120002613Y-58030520D01*
X120114417Y-57918716D01*
X120114417Y-57918714D01*
X120124621Y-57908511D01*
X120124624Y-57908506D01*
X120646811Y-57386321D01*
X120708134Y-57352836D01*
X120734492Y-57350002D01*
X130621899Y-57350002D01*
X130686674Y-57369022D01*
X130686865Y-57368701D01*
X130688132Y-57369450D01*
X130688938Y-57369687D01*
X130691015Y-57371155D01*
X130771527Y-57418770D01*
X130819211Y-57469839D01*
X130831714Y-57538581D01*
X130805069Y-57603170D01*
X130747733Y-57643100D01*
X130708406Y-57649502D01*
X130465474Y-57649502D01*
X130501843Y-57774687D01*
X130501845Y-57774693D01*
X130582226Y-57910610D01*
X130582232Y-57910618D01*
X130693883Y-58022269D01*
X130693891Y-58022275D01*
X130829811Y-58102657D01*
X130829814Y-58102658D01*
X130981446Y-58146712D01*
X130981452Y-58146713D01*
X131016881Y-58149501D01*
X131016894Y-58149502D01*
X131592500Y-58149502D01*
X131592500Y-57624001D01*
X131612185Y-57556962D01*
X131664989Y-57511207D01*
X131716497Y-57500001D01*
X131968501Y-57500001D01*
X132035539Y-57519686D01*
X132081294Y-57572490D01*
X132092500Y-57624001D01*
X132092500Y-58149502D01*
X132668106Y-58149502D01*
X132668118Y-58149501D01*
X132703547Y-58146713D01*
X132703553Y-58146712D01*
X132855185Y-58102658D01*
X132855188Y-58102657D01*
X132991108Y-58022275D01*
X132991116Y-58022269D01*
X133102767Y-57910618D01*
X133102773Y-57910610D01*
X133183154Y-57774693D01*
X133183156Y-57774687D01*
X133219525Y-57649502D01*
X132976594Y-57649502D01*
X132909555Y-57629817D01*
X132863800Y-57577013D01*
X132853856Y-57507855D01*
X132882881Y-57444299D01*
X132913473Y-57418770D01*
X132968341Y-57386321D01*
X132991420Y-57372672D01*
X133103170Y-57260922D01*
X133133060Y-57210381D01*
X133184129Y-57162698D01*
X133215137Y-57155346D01*
X133219525Y-57149501D01*
X133208047Y-57109991D01*
X133208047Y-57040802D01*
X133227709Y-56973129D01*
X133230500Y-56937665D01*
X133230499Y-56561340D01*
X133227709Y-56525875D01*
X133208308Y-56459097D01*
X133208308Y-56389906D01*
X133214025Y-56370229D01*
X133227709Y-56323129D01*
X133230500Y-56287665D01*
X133230499Y-55911340D01*
X133227709Y-55875875D01*
X133208308Y-55809097D01*
X133208308Y-55739906D01*
X133219684Y-55700750D01*
X133227709Y-55673129D01*
X133230500Y-55637665D01*
X133230499Y-55261340D01*
X133227709Y-55225875D01*
X133208308Y-55159097D01*
X133208308Y-55089906D01*
X133215497Y-55065162D01*
X133227709Y-55023129D01*
X133230500Y-54987665D01*
X133230500Y-54874002D01*
X133250185Y-54806963D01*
X133302989Y-54761208D01*
X133354500Y-54750002D01*
X134358829Y-54750002D01*
X134358845Y-54750003D01*
X134366441Y-54750003D01*
X134390056Y-54750003D01*
X134431007Y-54756960D01*
X134440745Y-54760368D01*
X134440748Y-54760368D01*
X134440750Y-54760369D01*
X134619996Y-54780565D01*
X134620000Y-54780565D01*
X134620004Y-54780565D01*
X134799249Y-54760369D01*
X134799252Y-54760368D01*
X134799255Y-54760368D01*
X134969522Y-54700789D01*
X135122262Y-54604816D01*
X135249816Y-54477262D01*
X135345789Y-54324522D01*
X135405368Y-54154255D01*
X135405613Y-54152084D01*
X135425565Y-53975003D01*
X135425565Y-53974996D01*
X135405369Y-53795750D01*
X135405368Y-53795745D01*
X135381342Y-53727083D01*
X135345789Y-53625478D01*
X135249816Y-53472738D01*
X135122262Y-53345184D01*
X134969521Y-53249210D01*
X134834221Y-53201867D01*
X134777444Y-53161145D01*
X134758133Y-53125779D01*
X134710789Y-52990478D01*
X134665776Y-52918840D01*
X134614816Y-52837738D01*
X134487262Y-52710184D01*
X134424107Y-52670501D01*
X134334521Y-52614210D01*
X134199221Y-52566867D01*
X134142444Y-52526145D01*
X134123133Y-52490779D01*
X134075789Y-52355478D01*
X134050452Y-52315154D01*
X133979816Y-52202738D01*
X133852262Y-52075184D01*
X133817058Y-52053064D01*
X133699523Y-51979211D01*
X133529254Y-51919631D01*
X133529249Y-51919630D01*
X133350004Y-51899435D01*
X133349996Y-51899435D01*
X133170750Y-51919630D01*
X133170745Y-51919631D01*
X133000476Y-51979211D01*
X132847736Y-52075185D01*
X132844903Y-52077445D01*
X132842724Y-52078334D01*
X132841842Y-52078889D01*
X132841744Y-52078734D01*
X132780217Y-52103855D01*
X132767588Y-52104500D01*
X132729678Y-52104500D01*
X132707393Y-52102481D01*
X132703625Y-52101792D01*
X132668170Y-52099002D01*
X132668163Y-52099002D01*
X131992597Y-52099002D01*
X131925558Y-52079317D01*
X131904916Y-52062683D01*
X131550588Y-51708355D01*
X131550586Y-51708352D01*
X131431715Y-51589481D01*
X131431714Y-51589480D01*
X131344902Y-51539360D01*
X131344902Y-51539359D01*
X131344898Y-51539358D01*
X131294783Y-51510423D01*
X131142055Y-51469499D01*
X131142052Y-51469499D01*
X131110096Y-51469499D01*
X131043057Y-51449814D01*
X131022415Y-51433180D01*
X130027590Y-50438355D01*
X130027588Y-50438352D01*
X129908717Y-50319481D01*
X129908716Y-50319480D01*
X129821904Y-50269360D01*
X129821904Y-50269359D01*
X129821900Y-50269358D01*
X129771785Y-50240423D01*
X129619057Y-50199499D01*
X129460943Y-50199499D01*
X129453347Y-50199499D01*
X129453331Y-50199500D01*
X120442997Y-50199500D01*
X120375958Y-50179815D01*
X120344046Y-50150230D01*
X120241591Y-50014556D01*
X120241586Y-50014551D01*
X120241585Y-50014550D01*
X120082597Y-49869614D01*
X120010544Y-49825001D01*
X119899674Y-49756353D01*
X119699056Y-49678633D01*
X119487573Y-49639100D01*
X119272427Y-49639100D01*
X119060944Y-49678633D01*
X118988614Y-49706654D01*
X118860328Y-49756352D01*
X118860327Y-49756352D01*
X118677402Y-49869614D01*
X118518414Y-50014550D01*
X118518407Y-50014558D01*
X118388760Y-50186239D01*
X118388751Y-50186253D01*
X118292860Y-50378827D01*
X118292855Y-50378840D01*
X118233977Y-50585771D01*
X118214127Y-50799999D01*
X118214127Y-50800000D01*
X118233977Y-51014228D01*
X118292855Y-51221159D01*
X118292860Y-51221172D01*
X118388751Y-51413746D01*
X118388753Y-51413749D01*
X118388755Y-51413753D01*
X118388758Y-51413757D01*
X118388760Y-51413760D01*
X118415987Y-51449814D01*
X118518409Y-51585444D01*
X118518412Y-51585446D01*
X118518414Y-51585449D01*
X118677402Y-51730385D01*
X118677404Y-51730386D01*
X118677405Y-51730387D01*
X118860326Y-51843647D01*
X119060944Y-51921367D01*
X119204015Y-51948111D01*
X119266295Y-51979779D01*
X119301568Y-52040092D01*
X119298634Y-52109900D01*
X119258425Y-52167040D01*
X119204015Y-52191888D01*
X119060944Y-52218633D01*
X119001376Y-52241710D01*
X118860328Y-52296352D01*
X118860327Y-52296352D01*
X118677402Y-52409614D01*
X118518414Y-52554550D01*
X118518407Y-52554558D01*
X118388760Y-52726239D01*
X118388751Y-52726253D01*
X118292860Y-52918827D01*
X118292855Y-52918840D01*
X118233977Y-53125771D01*
X118214127Y-53339999D01*
X118214127Y-53340000D01*
X118233977Y-53554228D01*
X118233978Y-53554230D01*
X118292857Y-53761166D01*
X118292271Y-53831033D01*
X118254004Y-53889492D01*
X118190207Y-53917982D01*
X118173591Y-53919100D01*
X112966409Y-53919100D01*
X112899370Y-53899415D01*
X112853615Y-53846611D01*
X112843671Y-53777453D01*
X112847143Y-53761166D01*
X112862714Y-53706441D01*
X112906022Y-53554229D01*
X112925873Y-53340000D01*
X112925704Y-53338181D01*
X112906022Y-53125771D01*
X112893855Y-53083010D01*
X112847144Y-52918838D01*
X112843328Y-52911175D01*
X112751248Y-52726253D01*
X112751245Y-52726248D01*
X112751245Y-52726247D01*
X112621591Y-52554556D01*
X112621587Y-52554552D01*
X112621585Y-52554550D01*
X112462597Y-52409614D01*
X112422811Y-52384979D01*
X112279674Y-52296353D01*
X112079056Y-52218633D01*
X112015687Y-52206787D01*
X111953408Y-52175119D01*
X111918135Y-52114807D01*
X111921069Y-52044999D01*
X111961278Y-51987859D01*
X112025996Y-51961528D01*
X112038467Y-51960899D01*
X112468272Y-51960899D01*
X112527883Y-51954491D01*
X112662731Y-51904196D01*
X112777946Y-51817946D01*
X112864196Y-51702731D01*
X112914491Y-51567883D01*
X112920900Y-51508273D01*
X112920899Y-50091728D01*
X112914491Y-50032117D01*
X112910897Y-50022482D01*
X112864197Y-49897271D01*
X112864193Y-49897264D01*
X112777947Y-49782055D01*
X112777944Y-49782052D01*
X112662735Y-49695806D01*
X112662728Y-49695802D01*
X112527882Y-49645508D01*
X112527883Y-49645508D01*
X112468283Y-49639101D01*
X112468281Y-49639100D01*
X112468273Y-49639100D01*
X112468264Y-49639100D01*
X111051729Y-49639100D01*
X111051723Y-49639101D01*
X110992116Y-49645508D01*
X110857271Y-49695802D01*
X110857264Y-49695806D01*
X110742055Y-49782052D01*
X110742052Y-49782055D01*
X110655806Y-49897264D01*
X110655802Y-49897271D01*
X110605508Y-50032117D01*
X110599331Y-50089576D01*
X110599101Y-50091723D01*
X110599100Y-50091735D01*
X110599100Y-51508270D01*
X110599101Y-51508276D01*
X110605508Y-51567883D01*
X110655802Y-51702728D01*
X110655806Y-51702735D01*
X110742052Y-51817944D01*
X110742055Y-51817947D01*
X110857264Y-51904193D01*
X110857271Y-51904197D01*
X110992117Y-51954491D01*
X110992116Y-51954491D01*
X110999044Y-51955235D01*
X111051727Y-51960900D01*
X111481525Y-51960899D01*
X111548562Y-51980583D01*
X111594317Y-52033387D01*
X111604261Y-52102546D01*
X111575236Y-52166102D01*
X111516458Y-52203876D01*
X111504309Y-52206787D01*
X111440955Y-52218630D01*
X111440946Y-52218632D01*
X111440944Y-52218633D01*
X111381376Y-52241710D01*
X111240328Y-52296352D01*
X111240327Y-52296352D01*
X111057402Y-52409614D01*
X110898414Y-52554550D01*
X110898407Y-52554558D01*
X110768760Y-52726239D01*
X110768751Y-52726253D01*
X110672860Y-52918827D01*
X110672855Y-52918840D01*
X110613977Y-53125771D01*
X110594127Y-53339999D01*
X110594127Y-53340000D01*
X110613977Y-53554228D01*
X110613978Y-53554230D01*
X110672857Y-53761166D01*
X110672271Y-53831033D01*
X110634004Y-53889492D01*
X110570207Y-53917982D01*
X110553591Y-53919100D01*
X109035689Y-53919100D01*
X108968650Y-53899415D01*
X108948008Y-53882781D01*
X108756712Y-53691485D01*
X101812884Y-46747656D01*
X101779399Y-46686333D01*
X101776565Y-46659975D01*
X101776565Y-45399744D01*
X101776564Y-45399738D01*
X101776563Y-45399731D01*
X101770157Y-45340132D01*
X101759978Y-45312842D01*
X101719863Y-45205286D01*
X101719859Y-45205279D01*
X101633613Y-45090070D01*
X101633610Y-45090067D01*
X101518401Y-45003821D01*
X101518394Y-45003817D01*
X101383552Y-44953525D01*
X101383551Y-44953524D01*
X101383549Y-44953524D01*
X101323939Y-44947115D01*
X101323929Y-44947115D01*
X100606063Y-44947115D01*
X100606057Y-44947116D01*
X100546450Y-44953523D01*
X100411605Y-45003817D01*
X100411596Y-45003822D01*
X100404307Y-45009279D01*
X100338842Y-45033694D01*
X100270570Y-45018840D01*
X100255693Y-45009279D01*
X100248403Y-45003822D01*
X100248394Y-45003817D01*
X100113552Y-44953525D01*
X100113551Y-44953524D01*
X100113549Y-44953524D01*
X100053939Y-44947115D01*
X100053929Y-44947115D01*
X99336063Y-44947115D01*
X99336057Y-44947116D01*
X99276450Y-44953523D01*
X99141605Y-45003817D01*
X99141596Y-45003822D01*
X99134307Y-45009279D01*
X99068842Y-45033694D01*
X99000570Y-45018840D01*
X98985693Y-45009279D01*
X98978403Y-45003822D01*
X98978394Y-45003817D01*
X98843552Y-44953525D01*
X98843551Y-44953524D01*
X98843549Y-44953524D01*
X98783939Y-44947115D01*
X98783929Y-44947115D01*
X98066063Y-44947115D01*
X98066057Y-44947116D01*
X98006450Y-44953523D01*
X97871605Y-45003817D01*
X97871596Y-45003822D01*
X97864307Y-45009279D01*
X97798842Y-45033694D01*
X97730570Y-45018840D01*
X97715693Y-45009279D01*
X97708403Y-45003822D01*
X97708394Y-45003817D01*
X97573552Y-44953525D01*
X97573551Y-44953524D01*
X97573549Y-44953524D01*
X97513939Y-44947115D01*
X97513929Y-44947115D01*
X96796063Y-44947115D01*
X96796057Y-44947116D01*
X96736450Y-44953523D01*
X96601605Y-45003817D01*
X96601596Y-45003822D01*
X96594307Y-45009279D01*
X96528842Y-45033694D01*
X96460570Y-45018840D01*
X96445693Y-45009279D01*
X96438403Y-45003822D01*
X96438394Y-45003817D01*
X96303552Y-44953525D01*
X96303551Y-44953524D01*
X96303549Y-44953524D01*
X96243939Y-44947115D01*
X96243929Y-44947115D01*
X95526063Y-44947115D01*
X95526057Y-44947116D01*
X95466450Y-44953523D01*
X95331605Y-45003817D01*
X95331596Y-45003822D01*
X95324307Y-45009279D01*
X95258842Y-45033694D01*
X95190570Y-45018840D01*
X95175693Y-45009279D01*
X95168403Y-45003822D01*
X95168394Y-45003817D01*
X95033552Y-44953525D01*
X95033551Y-44953524D01*
X95033549Y-44953524D01*
X94973939Y-44947115D01*
X94973929Y-44947115D01*
X94256063Y-44947115D01*
X94256057Y-44947116D01*
X94196450Y-44953523D01*
X94061605Y-45003817D01*
X94061596Y-45003822D01*
X94054307Y-45009279D01*
X93988842Y-45033694D01*
X93920570Y-45018840D01*
X93905693Y-45009279D01*
X93898403Y-45003822D01*
X93898394Y-45003817D01*
X93763552Y-44953525D01*
X93763551Y-44953524D01*
X93763549Y-44953524D01*
X93703939Y-44947115D01*
X93703929Y-44947115D01*
X92986063Y-44947115D01*
X92986057Y-44947116D01*
X92926450Y-44953523D01*
X92791605Y-45003817D01*
X92791596Y-45003822D01*
X92784307Y-45009279D01*
X92718842Y-45033694D01*
X92650570Y-45018840D01*
X92635693Y-45009279D01*
X92628403Y-45003822D01*
X92628394Y-45003817D01*
X92493552Y-44953525D01*
X92493551Y-44953524D01*
X92493549Y-44953524D01*
X92433939Y-44947115D01*
X92433929Y-44947115D01*
X91716063Y-44947115D01*
X91716057Y-44947116D01*
X91656450Y-44953523D01*
X91521605Y-45003817D01*
X91521600Y-45003820D01*
X91513890Y-45009592D01*
X91448424Y-45034006D01*
X91380152Y-45019152D01*
X91365276Y-45009592D01*
X91358156Y-45004263D01*
X91358152Y-45004260D01*
X91223445Y-44954018D01*
X91223438Y-44954016D01*
X91163910Y-44947615D01*
X91055000Y-44947615D01*
X91055000Y-48550399D01*
X91163894Y-48550399D01*
X91163910Y-48550398D01*
X91223438Y-48543997D01*
X91223442Y-48543996D01*
X91358155Y-48493750D01*
X91365268Y-48488426D01*
X91430731Y-48464006D01*
X91499005Y-48478855D01*
X91513894Y-48488424D01*
X91516021Y-48490016D01*
X91521602Y-48494195D01*
X91521604Y-48494196D01*
X91581915Y-48516690D01*
X91656451Y-48544490D01*
X91716061Y-48550899D01*
X92433938Y-48550898D01*
X92493549Y-48544490D01*
X92628397Y-48494195D01*
X92635687Y-48488736D01*
X92701148Y-48464318D01*
X92769422Y-48479167D01*
X92784304Y-48488731D01*
X92791603Y-48494195D01*
X92926451Y-48544490D01*
X92986061Y-48550899D01*
X93370301Y-48550898D01*
X93437340Y-48570582D01*
X93457981Y-48587216D01*
X98691284Y-53820520D01*
X98691285Y-53820521D01*
X98691287Y-53820522D01*
X98736665Y-53846721D01*
X98784880Y-53897288D01*
X98798104Y-53965895D01*
X98772136Y-54030760D01*
X98715222Y-54071288D01*
X98674665Y-54078108D01*
X98066063Y-54078108D01*
X98066057Y-54078109D01*
X98006450Y-54084516D01*
X97871605Y-54134810D01*
X97871596Y-54134815D01*
X97864307Y-54140272D01*
X97798842Y-54164687D01*
X97730570Y-54149833D01*
X97715693Y-54140272D01*
X97708403Y-54134815D01*
X97708394Y-54134810D01*
X97573552Y-54084518D01*
X97573551Y-54084517D01*
X97573549Y-54084517D01*
X97513939Y-54078108D01*
X97513929Y-54078108D01*
X96796063Y-54078108D01*
X96796057Y-54078109D01*
X96736450Y-54084516D01*
X96601605Y-54134810D01*
X96601596Y-54134815D01*
X96594307Y-54140272D01*
X96528842Y-54164687D01*
X96460570Y-54149833D01*
X96445693Y-54140272D01*
X96438403Y-54134815D01*
X96438394Y-54134810D01*
X96303552Y-54084518D01*
X96303551Y-54084517D01*
X96303549Y-54084517D01*
X96243939Y-54078108D01*
X96243929Y-54078108D01*
X95526063Y-54078108D01*
X95526057Y-54078109D01*
X95466450Y-54084516D01*
X95331605Y-54134810D01*
X95331596Y-54134815D01*
X95324307Y-54140272D01*
X95258842Y-54164687D01*
X95190570Y-54149833D01*
X95175693Y-54140272D01*
X95168403Y-54134815D01*
X95168394Y-54134810D01*
X95033552Y-54084518D01*
X95033551Y-54084517D01*
X95033549Y-54084517D01*
X94973939Y-54078108D01*
X94973930Y-54078108D01*
X94320566Y-54078108D01*
X94253527Y-54058423D01*
X94207772Y-54005619D01*
X94196566Y-53954108D01*
X94196566Y-53040510D01*
X94159619Y-52807239D01*
X94124923Y-52700457D01*
X94086634Y-52582616D01*
X94081080Y-52571716D01*
X94072334Y-52554550D01*
X93979410Y-52372175D01*
X93908450Y-52274508D01*
X93840583Y-52181098D01*
X92054968Y-50395483D01*
X91863892Y-50256657D01*
X91653454Y-50149433D01*
X91428826Y-50076446D01*
X91195555Y-50039500D01*
X91195550Y-50039500D01*
X71991644Y-50039500D01*
X71755460Y-50039500D01*
X71755455Y-50039500D01*
X71522183Y-50076446D01*
X71297555Y-50149433D01*
X71087115Y-50256659D01*
X70896048Y-50395476D01*
X70896043Y-50395480D01*
X60735485Y-60556039D01*
X60735484Y-60556040D01*
X60596657Y-60747117D01*
X60490773Y-60954928D01*
X60490772Y-60954929D01*
X60489434Y-60957554D01*
X60489430Y-60957563D01*
X60416447Y-61182179D01*
X60416447Y-61182182D01*
X60379500Y-61415454D01*
X60379500Y-62204507D01*
X60359815Y-62271546D01*
X60307011Y-62317301D01*
X60274900Y-62326980D01*
X60255841Y-62329998D01*
X60031213Y-62402985D01*
X59820773Y-62510209D01*
X59629696Y-62649036D01*
X56355488Y-65923244D01*
X56216661Y-66114321D01*
X56171002Y-66203933D01*
X56109438Y-66324759D01*
X56036450Y-66549387D01*
X55999504Y-66782658D01*
X55999504Y-68456000D01*
X55979819Y-68523039D01*
X55927015Y-68568794D01*
X55875504Y-68580000D01*
X46344500Y-68580000D01*
X46277461Y-68560315D01*
X46231706Y-68507511D01*
X46220500Y-68456000D01*
X46220500Y-45598711D01*
X48949500Y-45598711D01*
X48949500Y-45841288D01*
X48981161Y-46081785D01*
X49043947Y-46316104D01*
X49133616Y-46532583D01*
X49136776Y-46540212D01*
X49258064Y-46750289D01*
X49258066Y-46750292D01*
X49258067Y-46750293D01*
X49405733Y-46942736D01*
X49405739Y-46942743D01*
X49577256Y-47114260D01*
X49577262Y-47114265D01*
X49769711Y-47261936D01*
X49979788Y-47383224D01*
X50203900Y-47476054D01*
X50438211Y-47538838D01*
X50618586Y-47562584D01*
X50678711Y-47570500D01*
X50678712Y-47570500D01*
X50921289Y-47570500D01*
X50969388Y-47564167D01*
X51161789Y-47538838D01*
X51396100Y-47476054D01*
X51620212Y-47383224D01*
X51830289Y-47261936D01*
X52022738Y-47114265D01*
X52194265Y-46942738D01*
X52341936Y-46750289D01*
X52463224Y-46540212D01*
X52556054Y-46316100D01*
X52618838Y-46081789D01*
X52650500Y-45841288D01*
X52650500Y-45598712D01*
X52624307Y-45399750D01*
X88723434Y-45399750D01*
X88723434Y-48098269D01*
X88723435Y-48098275D01*
X88729842Y-48157882D01*
X88780136Y-48292727D01*
X88780140Y-48292734D01*
X88866386Y-48407943D01*
X88866389Y-48407946D01*
X88981598Y-48494192D01*
X88981605Y-48494196D01*
X89015254Y-48506746D01*
X89116451Y-48544490D01*
X89176061Y-48550899D01*
X89893938Y-48550898D01*
X89953549Y-48544490D01*
X90088397Y-48494195D01*
X90096102Y-48488426D01*
X90161561Y-48464007D01*
X90229835Y-48478854D01*
X90244729Y-48488425D01*
X90251842Y-48493750D01*
X90386557Y-48543996D01*
X90386561Y-48543997D01*
X90446089Y-48550398D01*
X90446106Y-48550399D01*
X90555000Y-48550399D01*
X90555000Y-44947615D01*
X90446089Y-44947615D01*
X90386561Y-44954016D01*
X90386554Y-44954018D01*
X90251847Y-45004260D01*
X90251842Y-45004263D01*
X90244724Y-45009592D01*
X90179259Y-45034007D01*
X90110987Y-45019154D01*
X90096115Y-45009597D01*
X90088397Y-45003819D01*
X90088395Y-45003818D01*
X90088392Y-45003816D01*
X89953552Y-44953525D01*
X89953551Y-44953524D01*
X89953549Y-44953524D01*
X89893939Y-44947115D01*
X89893929Y-44947115D01*
X89176063Y-44947115D01*
X89176057Y-44947116D01*
X89116450Y-44953523D01*
X88981605Y-45003817D01*
X88981598Y-45003821D01*
X88866389Y-45090067D01*
X88866386Y-45090070D01*
X88780140Y-45205279D01*
X88780136Y-45205286D01*
X88729842Y-45340132D01*
X88723435Y-45399731D01*
X88723435Y-45399738D01*
X88723434Y-45399750D01*
X52624307Y-45399750D01*
X52618838Y-45358211D01*
X52556054Y-45123900D01*
X52463224Y-44899788D01*
X52341936Y-44689711D01*
X52194265Y-44497262D01*
X52194260Y-44497256D01*
X52022743Y-44325739D01*
X52022736Y-44325733D01*
X51830293Y-44178067D01*
X51830292Y-44178066D01*
X51830289Y-44178064D01*
X51620212Y-44056776D01*
X51599158Y-44048055D01*
X51396104Y-43963947D01*
X51217859Y-43916186D01*
X51161789Y-43901162D01*
X51161788Y-43901161D01*
X51161785Y-43901161D01*
X50921289Y-43869500D01*
X50921288Y-43869500D01*
X50678712Y-43869500D01*
X50678711Y-43869500D01*
X50438214Y-43901161D01*
X50203895Y-43963947D01*
X49979794Y-44056773D01*
X49979785Y-44056777D01*
X49769706Y-44178067D01*
X49577263Y-44325733D01*
X49577256Y-44325739D01*
X49405739Y-44497256D01*
X49405733Y-44497263D01*
X49258067Y-44689706D01*
X49136777Y-44899785D01*
X49136773Y-44899794D01*
X49043947Y-45123895D01*
X48981161Y-45358214D01*
X48949500Y-45598711D01*
X46220500Y-45598711D01*
X46220500Y-43694500D01*
X109119891Y-43694500D01*
X109119891Y-43694503D01*
X109140300Y-43979864D01*
X109201109Y-44259397D01*
X109301091Y-44527460D01*
X109438191Y-44778540D01*
X109438196Y-44778548D01*
X109544882Y-44921063D01*
X109544883Y-44921064D01*
X110439767Y-44026179D01*
X110451497Y-44054497D01*
X110534670Y-44178974D01*
X110640528Y-44284832D01*
X110765005Y-44368005D01*
X110793320Y-44379733D01*
X109898436Y-45274617D01*
X110040960Y-45381309D01*
X110040961Y-45381310D01*
X110292042Y-45518410D01*
X110292041Y-45518410D01*
X110560104Y-45618392D01*
X110839637Y-45679201D01*
X111124999Y-45699611D01*
X111125001Y-45699611D01*
X111410362Y-45679201D01*
X111689895Y-45618392D01*
X111957958Y-45518410D01*
X112209047Y-45381305D01*
X112351561Y-45274618D01*
X112351562Y-45274617D01*
X111456679Y-44379733D01*
X111484995Y-44368005D01*
X111609472Y-44284832D01*
X111715330Y-44178974D01*
X111798503Y-44054497D01*
X111810231Y-44026180D01*
X112705115Y-44921064D01*
X112705116Y-44921063D01*
X112811803Y-44778549D01*
X112948908Y-44527460D01*
X113048890Y-44259397D01*
X113109699Y-43979864D01*
X113130109Y-43694503D01*
X113130109Y-43694500D01*
X113109699Y-43409139D01*
X113048890Y-43129606D01*
X112948908Y-42861543D01*
X112811808Y-42610463D01*
X112811807Y-42610462D01*
X112705115Y-42467938D01*
X111810231Y-43362822D01*
X111798503Y-43334507D01*
X111715330Y-43210030D01*
X111609472Y-43104172D01*
X111484995Y-43020999D01*
X111456678Y-43009269D01*
X112319310Y-42146637D01*
X114204500Y-42146637D01*
X114204500Y-45242372D01*
X114204501Y-45242378D01*
X114210908Y-45301985D01*
X114261202Y-45436830D01*
X114261206Y-45436837D01*
X114347452Y-45552046D01*
X114347455Y-45552049D01*
X114462664Y-45638295D01*
X114462671Y-45638299D01*
X114597517Y-45688593D01*
X114597516Y-45688593D01*
X114604444Y-45689337D01*
X114657127Y-45695002D01*
X117752872Y-45695001D01*
X117812483Y-45688593D01*
X117947331Y-45638298D01*
X118062546Y-45552048D01*
X118148796Y-45436833D01*
X118199091Y-45301985D01*
X118205500Y-45242375D01*
X118205500Y-44964502D01*
X126124474Y-44964502D01*
X126144547Y-45219566D01*
X126144547Y-45219569D01*
X126144548Y-45219572D01*
X126204278Y-45468362D01*
X126204279Y-45468366D01*
X126302188Y-45704741D01*
X126302190Y-45704744D01*
X126435875Y-45922898D01*
X126435878Y-45922903D01*
X126490229Y-45986539D01*
X126602044Y-46117458D01*
X126726579Y-46223821D01*
X126796598Y-46283623D01*
X126796600Y-46283624D01*
X126796601Y-46283625D01*
X126849602Y-46316104D01*
X127014757Y-46417311D01*
X127014760Y-46417313D01*
X127145001Y-46471260D01*
X127251140Y-46515224D01*
X127499930Y-46574954D01*
X127755000Y-46595028D01*
X128010070Y-46574954D01*
X128258860Y-46515224D01*
X128377051Y-46466267D01*
X128495239Y-46417313D01*
X128495240Y-46417312D01*
X128495243Y-46417311D01*
X128713399Y-46283625D01*
X128907956Y-46117458D01*
X129074123Y-45922901D01*
X129207809Y-45704745D01*
X129214500Y-45688593D01*
X129284991Y-45518410D01*
X129305722Y-45468362D01*
X129365452Y-45219572D01*
X129385526Y-44964502D01*
X129365452Y-44709432D01*
X129305722Y-44460642D01*
X129291081Y-44425295D01*
X129207811Y-44224262D01*
X129207809Y-44224259D01*
X129180058Y-44178974D01*
X129074123Y-44006103D01*
X129074122Y-44006102D01*
X129074121Y-44006100D01*
X128984494Y-43901161D01*
X128907956Y-43811546D01*
X128770914Y-43694501D01*
X128713401Y-43645380D01*
X128713396Y-43645377D01*
X128495242Y-43511692D01*
X128495239Y-43511690D01*
X128258864Y-43413781D01*
X128239529Y-43409139D01*
X128010070Y-43354050D01*
X128010067Y-43354049D01*
X128010064Y-43354049D01*
X127755000Y-43333976D01*
X127499935Y-43354049D01*
X127499931Y-43354049D01*
X127499930Y-43354050D01*
X127425485Y-43371923D01*
X127251135Y-43413781D01*
X127014760Y-43511690D01*
X127014757Y-43511692D01*
X126796603Y-43645377D01*
X126796598Y-43645380D01*
X126602044Y-43811546D01*
X126435878Y-44006100D01*
X126435875Y-44006105D01*
X126302190Y-44224259D01*
X126302188Y-44224262D01*
X126204279Y-44460637D01*
X126188236Y-44527460D01*
X126146813Y-44700000D01*
X126144547Y-44709437D01*
X126124474Y-44964502D01*
X118205500Y-44964502D01*
X118205499Y-42146630D01*
X118199091Y-42087019D01*
X118181740Y-42040499D01*
X118148797Y-41952173D01*
X118148793Y-41952166D01*
X118062547Y-41836957D01*
X118062544Y-41836954D01*
X117947335Y-41750708D01*
X117947328Y-41750704D01*
X117812482Y-41700410D01*
X117812483Y-41700410D01*
X117752883Y-41694003D01*
X117752881Y-41694002D01*
X117752873Y-41694002D01*
X117752864Y-41694002D01*
X114657129Y-41694002D01*
X114657123Y-41694003D01*
X114597516Y-41700410D01*
X114462671Y-41750704D01*
X114462664Y-41750708D01*
X114347455Y-41836954D01*
X114347452Y-41836957D01*
X114261206Y-41952166D01*
X114261202Y-41952173D01*
X114210908Y-42087019D01*
X114205136Y-42140710D01*
X114204501Y-42146625D01*
X114204500Y-42146637D01*
X112319310Y-42146637D01*
X112351562Y-42114385D01*
X112351561Y-42114384D01*
X112209046Y-42007698D01*
X112209038Y-42007693D01*
X111957957Y-41870593D01*
X111957958Y-41870593D01*
X111689895Y-41770611D01*
X111410362Y-41709802D01*
X111125001Y-41689393D01*
X111124999Y-41689393D01*
X110839637Y-41709802D01*
X110560104Y-41770611D01*
X110292041Y-41870593D01*
X110040961Y-42007693D01*
X110040953Y-42007698D01*
X109898437Y-42114384D01*
X109898436Y-42114385D01*
X110793321Y-43009269D01*
X110765005Y-43020999D01*
X110640528Y-43104172D01*
X110534670Y-43210030D01*
X110451497Y-43334507D01*
X110439768Y-43362823D01*
X109544883Y-42467938D01*
X109544882Y-42467939D01*
X109438196Y-42610455D01*
X109438191Y-42610463D01*
X109301091Y-42861543D01*
X109201109Y-43129606D01*
X109140300Y-43409139D01*
X109119891Y-43694500D01*
X46220500Y-43694500D01*
X46220500Y-39740500D01*
X46240185Y-39673461D01*
X46292989Y-39627706D01*
X46344500Y-39616500D01*
X151961415Y-39616500D01*
X152028454Y-39636185D01*
G37*
%TD.AperFunction*%
%TA.AperFunction,Conductor*%
G36*
X89326463Y-53060185D02*
G01*
X89372218Y-53112989D01*
X89382644Y-53178383D01*
X89364435Y-53339996D01*
X89364435Y-53340003D01*
X89384630Y-53519249D01*
X89384631Y-53519254D01*
X89444211Y-53689523D01*
X89540184Y-53842262D01*
X89564349Y-53866427D01*
X89597834Y-53927750D01*
X89592850Y-53997442D01*
X89550978Y-54053375D01*
X89485514Y-54077792D01*
X89476668Y-54078108D01*
X89176064Y-54078108D01*
X89176057Y-54078109D01*
X89116450Y-54084516D01*
X88981605Y-54134810D01*
X88981598Y-54134814D01*
X88866389Y-54221060D01*
X88866386Y-54221063D01*
X88780140Y-54336272D01*
X88780136Y-54336279D01*
X88729842Y-54471125D01*
X88723435Y-54530724D01*
X88723434Y-54530743D01*
X88723434Y-57158127D01*
X88703749Y-57225166D01*
X88666476Y-57262441D01*
X88641458Y-57278519D01*
X88641444Y-57278529D01*
X88588659Y-57324268D01*
X88494433Y-57433009D01*
X88494430Y-57433013D01*
X88434664Y-57563879D01*
X88414976Y-57630927D01*
X88408570Y-57675481D01*
X88394500Y-57773345D01*
X88394500Y-58296000D01*
X88394501Y-58296009D01*
X88406052Y-58403450D01*
X88406054Y-58403462D01*
X88417260Y-58454972D01*
X88451383Y-58557497D01*
X88451386Y-58557503D01*
X88529171Y-58678537D01*
X88529179Y-58678548D01*
X88574923Y-58731340D01*
X88574926Y-58731343D01*
X88574930Y-58731347D01*
X88683664Y-58825567D01*
X88683667Y-58825568D01*
X88683668Y-58825569D01*
X88777925Y-58868616D01*
X88814541Y-58885338D01*
X88881580Y-58905023D01*
X88881584Y-58905024D01*
X89024000Y-58925500D01*
X89492060Y-58925500D01*
X89559099Y-58945185D01*
X89579741Y-58961819D01*
X89667738Y-59049816D01*
X89820478Y-59145789D01*
X89990745Y-59205368D01*
X89990750Y-59205369D01*
X90052086Y-59212280D01*
X90116500Y-59239346D01*
X90156056Y-59296941D01*
X90158193Y-59366778D01*
X90122235Y-59426684D01*
X90059597Y-59457640D01*
X90038203Y-59459500D01*
X82655455Y-59459500D01*
X82422183Y-59496446D01*
X82197555Y-59569433D01*
X81987117Y-59676657D01*
X81796040Y-59815484D01*
X81055484Y-60556040D01*
X80916657Y-60747117D01*
X80810773Y-60954928D01*
X80810772Y-60954929D01*
X80809434Y-60957554D01*
X80809430Y-60957563D01*
X80736447Y-61182179D01*
X80736447Y-61182182D01*
X80699500Y-61415454D01*
X80699500Y-62204507D01*
X80679815Y-62271546D01*
X80627011Y-62317301D01*
X80594900Y-62326980D01*
X80575841Y-62329998D01*
X80351213Y-62402985D01*
X80140773Y-62510209D01*
X79949696Y-62649036D01*
X76675488Y-65923244D01*
X76536661Y-66114321D01*
X76491002Y-66203933D01*
X76429438Y-66324759D01*
X76356450Y-66549387D01*
X76319504Y-66782658D01*
X76319504Y-68456000D01*
X76299819Y-68523039D01*
X76247015Y-68568794D01*
X76195504Y-68580000D01*
X68097500Y-68580000D01*
X68030461Y-68560315D01*
X67984706Y-68507511D01*
X67973500Y-68456000D01*
X67973500Y-67428451D01*
X67968355Y-67356511D01*
X67927819Y-67218459D01*
X67850031Y-67097419D01*
X67802447Y-67056187D01*
X67741299Y-67003201D01*
X67741297Y-67003199D01*
X67741294Y-67003197D01*
X67741290Y-67003195D01*
X67610419Y-66943427D01*
X67610414Y-66943426D01*
X67468000Y-66922951D01*
X59899198Y-66922951D01*
X59832159Y-66903266D01*
X59786404Y-66850462D01*
X59776460Y-66781304D01*
X59805485Y-66717748D01*
X59811517Y-66711270D01*
X61192416Y-65330371D01*
X61253739Y-65296886D01*
X61280097Y-65294052D01*
X61998097Y-65294052D01*
X62231368Y-65257105D01*
X62455992Y-65184120D01*
X62666433Y-65076895D01*
X62857510Y-64938069D01*
X62882609Y-64912969D01*
X62943928Y-64879486D01*
X63013620Y-64884469D01*
X63069554Y-64926340D01*
X63072560Y-64931017D01*
X63162452Y-65051096D01*
X63162455Y-65051099D01*
X63277664Y-65137345D01*
X63277671Y-65137349D01*
X63412517Y-65187643D01*
X63412516Y-65187643D01*
X63419444Y-65188387D01*
X63472127Y-65194052D01*
X65367872Y-65194051D01*
X65427483Y-65187643D01*
X65562331Y-65137348D01*
X65677546Y-65051098D01*
X65763796Y-64935883D01*
X65809361Y-64813718D01*
X65851232Y-64757784D01*
X65916696Y-64733367D01*
X65925543Y-64733051D01*
X68342996Y-64733051D01*
X68410035Y-64752736D01*
X68448534Y-64791954D01*
X68507285Y-64887204D01*
X68507288Y-64887208D01*
X68631344Y-65011264D01*
X68780666Y-65103366D01*
X68947203Y-65158551D01*
X69049991Y-65169052D01*
X69950008Y-65169051D01*
X69950016Y-65169050D01*
X69950019Y-65169050D01*
X70006302Y-65163300D01*
X70052797Y-65158551D01*
X70219334Y-65103366D01*
X70368656Y-65011264D01*
X70492712Y-64887208D01*
X70584814Y-64737886D01*
X70639999Y-64571349D01*
X70650500Y-64468561D01*
X70650500Y-64468538D01*
X71450001Y-64468538D01*
X71460494Y-64571249D01*
X71515641Y-64737671D01*
X71515643Y-64737676D01*
X71607684Y-64886897D01*
X71731654Y-65010867D01*
X71880875Y-65102908D01*
X71880880Y-65102910D01*
X72047302Y-65158057D01*
X72047309Y-65158058D01*
X72150019Y-65168551D01*
X72349999Y-65168551D01*
X72850000Y-65168551D01*
X73049972Y-65168551D01*
X73049986Y-65168550D01*
X73152697Y-65158057D01*
X73319119Y-65102910D01*
X73319124Y-65102908D01*
X73468345Y-65010867D01*
X73592315Y-64886897D01*
X73684356Y-64737676D01*
X73684358Y-64737671D01*
X73739505Y-64571249D01*
X73739506Y-64571242D01*
X73749999Y-64468538D01*
X73750000Y-64468525D01*
X73750000Y-64043552D01*
X72850000Y-64043552D01*
X72850000Y-65168551D01*
X72349999Y-65168551D01*
X72350000Y-65168550D01*
X72350000Y-64043552D01*
X71450001Y-64043552D01*
X71450001Y-64468538D01*
X70650500Y-64468538D01*
X70650499Y-63118565D01*
X71450000Y-63118565D01*
X71450000Y-63543552D01*
X72350000Y-63543552D01*
X72850000Y-63543552D01*
X73749999Y-63543552D01*
X73749999Y-63118580D01*
X73749998Y-63118565D01*
X73739505Y-63015854D01*
X73684358Y-62849432D01*
X73684356Y-62849427D01*
X73592315Y-62700206D01*
X73468345Y-62576236D01*
X73319124Y-62484195D01*
X73319119Y-62484193D01*
X73152697Y-62429046D01*
X73152690Y-62429045D01*
X73049986Y-62418552D01*
X72850000Y-62418552D01*
X72850000Y-63543552D01*
X72350000Y-63543552D01*
X72350000Y-62418552D01*
X72150029Y-62418552D01*
X72150012Y-62418553D01*
X72047302Y-62429046D01*
X71880880Y-62484193D01*
X71880875Y-62484195D01*
X71731654Y-62576236D01*
X71607684Y-62700206D01*
X71515643Y-62849427D01*
X71515641Y-62849432D01*
X71460494Y-63015854D01*
X71460493Y-63015861D01*
X71450000Y-63118565D01*
X70650499Y-63118565D01*
X70650499Y-63118544D01*
X70649432Y-63108103D01*
X70639999Y-63015755D01*
X70639998Y-63015752D01*
X70629643Y-62984504D01*
X70584814Y-62849218D01*
X70492712Y-62699896D01*
X70368656Y-62575840D01*
X70262217Y-62510188D01*
X70219336Y-62483739D01*
X70219331Y-62483737D01*
X70208612Y-62480185D01*
X70052797Y-62428553D01*
X70052795Y-62428552D01*
X69950010Y-62418052D01*
X69049998Y-62418052D01*
X69049980Y-62418053D01*
X68947203Y-62428552D01*
X68947200Y-62428553D01*
X68780668Y-62483737D01*
X68780663Y-62483739D01*
X68631342Y-62575841D01*
X68507289Y-62699894D01*
X68415187Y-62849215D01*
X68415185Y-62849220D01*
X68415115Y-62849432D01*
X68360001Y-63015755D01*
X68360001Y-63015756D01*
X68360000Y-63015756D01*
X68349500Y-63118535D01*
X68349500Y-63408051D01*
X68329815Y-63475090D01*
X68277011Y-63520845D01*
X68225500Y-63532051D01*
X65944499Y-63532051D01*
X65877460Y-63512366D01*
X65831705Y-63459562D01*
X65820499Y-63408051D01*
X65820499Y-62845681D01*
X65820498Y-62845675D01*
X65814091Y-62786068D01*
X65763797Y-62651223D01*
X65763793Y-62651216D01*
X65677547Y-62536007D01*
X65677544Y-62536004D01*
X65562335Y-62449758D01*
X65562328Y-62449754D01*
X65427482Y-62399460D01*
X65427483Y-62399460D01*
X65367883Y-62393053D01*
X65367881Y-62393052D01*
X65367873Y-62393052D01*
X65367865Y-62393052D01*
X63504500Y-62393052D01*
X63437461Y-62373367D01*
X63391706Y-62320563D01*
X63380500Y-62269052D01*
X63380500Y-62206441D01*
X63400185Y-62139402D01*
X63416819Y-62118760D01*
X72458761Y-53076819D01*
X72520084Y-53043334D01*
X72546442Y-53040500D01*
X89259424Y-53040500D01*
X89326463Y-53060185D01*
G37*
%TD.AperFunction*%
%TA.AperFunction,Conductor*%
G36*
X96114900Y-61684641D02*
G01*
X96170833Y-61726513D01*
X96195250Y-61791977D01*
X96195566Y-61800823D01*
X96195566Y-62254163D01*
X96232512Y-62487434D01*
X96305499Y-62712062D01*
X96375493Y-62849432D01*
X96412723Y-62922500D01*
X96499899Y-63042487D01*
X96551550Y-63113577D01*
X98090672Y-64652699D01*
X98124157Y-64714022D01*
X98119173Y-64783714D01*
X98090672Y-64828061D01*
X96995489Y-65923243D01*
X96995488Y-65923244D01*
X96856661Y-66114321D01*
X96811002Y-66203933D01*
X96749438Y-66324759D01*
X96676450Y-66549387D01*
X96639504Y-66782658D01*
X96639504Y-68456000D01*
X96619819Y-68523039D01*
X96567015Y-68568794D01*
X96515504Y-68580000D01*
X88417500Y-68580000D01*
X88350461Y-68560315D01*
X88304706Y-68507511D01*
X88293500Y-68456000D01*
X88293500Y-67428451D01*
X88288355Y-67356511D01*
X88247819Y-67218459D01*
X88170031Y-67097419D01*
X88122447Y-67056187D01*
X88061299Y-67003201D01*
X88061297Y-67003199D01*
X88061294Y-67003197D01*
X88061290Y-67003195D01*
X87930419Y-66943427D01*
X87930414Y-66943426D01*
X87788000Y-66922951D01*
X80219198Y-66922951D01*
X80152159Y-66903266D01*
X80106404Y-66850462D01*
X80096460Y-66781304D01*
X80125485Y-66717748D01*
X80131517Y-66711270D01*
X81512416Y-65330371D01*
X81573739Y-65296886D01*
X81600097Y-65294052D01*
X82318097Y-65294052D01*
X82551368Y-65257105D01*
X82775992Y-65184120D01*
X82986433Y-65076895D01*
X83177510Y-64938069D01*
X83202609Y-64912969D01*
X83263928Y-64879486D01*
X83333620Y-64884469D01*
X83389554Y-64926340D01*
X83392560Y-64931017D01*
X83482452Y-65051096D01*
X83482455Y-65051099D01*
X83597664Y-65137345D01*
X83597671Y-65137349D01*
X83732517Y-65187643D01*
X83732516Y-65187643D01*
X83739444Y-65188387D01*
X83792127Y-65194052D01*
X85687872Y-65194051D01*
X85747483Y-65187643D01*
X85882331Y-65137348D01*
X85997546Y-65051098D01*
X86083796Y-64935883D01*
X86134091Y-64801035D01*
X86140500Y-64741425D01*
X86140500Y-64544500D01*
X86160185Y-64477461D01*
X86212989Y-64431706D01*
X86264500Y-64420500D01*
X88552613Y-64420500D01*
X88619652Y-64440185D01*
X88665407Y-64492989D01*
X88675971Y-64531898D01*
X88680001Y-64571349D01*
X88680001Y-64571351D01*
X88727278Y-64714022D01*
X88735186Y-64737886D01*
X88827288Y-64887208D01*
X88951344Y-65011264D01*
X89100666Y-65103366D01*
X89267203Y-65158551D01*
X89369991Y-65169052D01*
X90270008Y-65169051D01*
X90270016Y-65169050D01*
X90270019Y-65169050D01*
X90326302Y-65163300D01*
X90372797Y-65158551D01*
X90539334Y-65103366D01*
X90688656Y-65011264D01*
X90812712Y-64887208D01*
X90904814Y-64737886D01*
X90959999Y-64571349D01*
X90970500Y-64468561D01*
X90970500Y-64468538D01*
X91770001Y-64468538D01*
X91780494Y-64571249D01*
X91835641Y-64737671D01*
X91835643Y-64737676D01*
X91927684Y-64886897D01*
X92051654Y-65010867D01*
X92200875Y-65102908D01*
X92200880Y-65102910D01*
X92367302Y-65158057D01*
X92367309Y-65158058D01*
X92470019Y-65168551D01*
X92669999Y-65168551D01*
X93170000Y-65168551D01*
X93369972Y-65168551D01*
X93369986Y-65168550D01*
X93472697Y-65158057D01*
X93639119Y-65102910D01*
X93639124Y-65102908D01*
X93788345Y-65010867D01*
X93912315Y-64886897D01*
X94004356Y-64737676D01*
X94004358Y-64737671D01*
X94059505Y-64571249D01*
X94059506Y-64571242D01*
X94069999Y-64468538D01*
X94070000Y-64468525D01*
X94070000Y-64043552D01*
X93170000Y-64043552D01*
X93170000Y-65168551D01*
X92669999Y-65168551D01*
X92670000Y-65168550D01*
X92670000Y-64043552D01*
X91770001Y-64043552D01*
X91770001Y-64468538D01*
X90970500Y-64468538D01*
X90970499Y-63118544D01*
X90969432Y-63108103D01*
X90959999Y-63015755D01*
X90959998Y-63015752D01*
X90949643Y-62984504D01*
X90904814Y-62849218D01*
X90812712Y-62699896D01*
X90784997Y-62672181D01*
X90751512Y-62610858D01*
X90756496Y-62541166D01*
X90798368Y-62485233D01*
X90863832Y-62460816D01*
X90872678Y-62460500D01*
X91868029Y-62460500D01*
X91935068Y-62480185D01*
X91980823Y-62532989D01*
X91990767Y-62602147D01*
X91961742Y-62665703D01*
X91955710Y-62672181D01*
X91927684Y-62700206D01*
X91835643Y-62849427D01*
X91835641Y-62849432D01*
X91780494Y-63015854D01*
X91780493Y-63015861D01*
X91770000Y-63118565D01*
X91770000Y-63543552D01*
X94069999Y-63543552D01*
X94069999Y-63118580D01*
X94069998Y-63118565D01*
X94059505Y-63015854D01*
X94004358Y-62849432D01*
X94004356Y-62849427D01*
X93912315Y-62700206D01*
X93884290Y-62672181D01*
X93850805Y-62610858D01*
X93855789Y-62541166D01*
X93897661Y-62485233D01*
X93963125Y-62460816D01*
X93971971Y-62460500D01*
X94733097Y-62460500D01*
X94966368Y-62423553D01*
X94983298Y-62418052D01*
X95190992Y-62350568D01*
X95401434Y-62243343D01*
X95592510Y-62104517D01*
X95983885Y-61713142D01*
X96045208Y-61679657D01*
X96114900Y-61684641D01*
G37*
%TD.AperFunction*%
%TA.AperFunction,Conductor*%
G36*
X99336061Y-57681892D02*
G01*
X99864568Y-57681891D01*
X99931607Y-57701575D01*
X99952249Y-57718210D01*
X102528556Y-60294517D01*
X102655940Y-60387067D01*
X102719633Y-60433344D01*
X102765402Y-60456664D01*
X102811173Y-60479985D01*
X102930069Y-60540566D01*
X102930071Y-60540566D01*
X102930074Y-60540568D01*
X103036614Y-60575185D01*
X103154697Y-60613553D01*
X103387969Y-60650500D01*
X103387974Y-60650500D01*
X111430361Y-60650500D01*
X111497400Y-60670185D01*
X111518042Y-60686819D01*
X113038094Y-62206871D01*
X113071579Y-62268194D01*
X113066595Y-62337886D01*
X113024723Y-62393819D01*
X112959259Y-62418236D01*
X112950414Y-62418552D01*
X112790029Y-62418552D01*
X112790012Y-62418553D01*
X112687302Y-62429046D01*
X112520880Y-62484193D01*
X112520875Y-62484195D01*
X112371654Y-62576236D01*
X112247684Y-62700206D01*
X112155643Y-62849427D01*
X112155641Y-62849432D01*
X112100494Y-63015854D01*
X112100493Y-63015861D01*
X112090000Y-63118565D01*
X112090000Y-63543552D01*
X114323413Y-63543552D01*
X114390452Y-63563237D01*
X114411094Y-63579871D01*
X116923185Y-66091962D01*
X116956670Y-66153285D01*
X116959504Y-66179643D01*
X116959504Y-68456000D01*
X116939819Y-68523039D01*
X116887015Y-68568794D01*
X116835504Y-68580000D01*
X108737500Y-68580000D01*
X108670461Y-68560315D01*
X108624706Y-68507511D01*
X108613500Y-68456000D01*
X108613500Y-67428451D01*
X108608355Y-67356511D01*
X108567819Y-67218459D01*
X108490031Y-67097419D01*
X108442447Y-67056187D01*
X108381299Y-67003201D01*
X108381297Y-67003199D01*
X108381294Y-67003197D01*
X108381290Y-67003195D01*
X108250419Y-66943427D01*
X108250414Y-66943426D01*
X108108000Y-66922951D01*
X100539198Y-66922951D01*
X100472159Y-66903266D01*
X100426404Y-66850462D01*
X100416460Y-66781304D01*
X100445485Y-66717748D01*
X100451517Y-66711270D01*
X101832416Y-65330371D01*
X101893739Y-65296886D01*
X101920097Y-65294052D01*
X102638097Y-65294052D01*
X102871368Y-65257105D01*
X103095992Y-65184120D01*
X103306433Y-65076895D01*
X103497510Y-64938069D01*
X103522609Y-64912969D01*
X103583928Y-64879486D01*
X103653620Y-64884469D01*
X103709554Y-64926340D01*
X103712560Y-64931017D01*
X103802452Y-65051096D01*
X103802455Y-65051099D01*
X103917664Y-65137345D01*
X103917671Y-65137349D01*
X104052517Y-65187643D01*
X104052516Y-65187643D01*
X104059444Y-65188387D01*
X104112127Y-65194052D01*
X106007872Y-65194051D01*
X106067483Y-65187643D01*
X106202331Y-65137348D01*
X106317546Y-65051098D01*
X106403796Y-64935883D01*
X106454091Y-64801035D01*
X106460500Y-64741425D01*
X106460500Y-64394500D01*
X106480185Y-64327461D01*
X106532989Y-64281706D01*
X106584500Y-64270500D01*
X108865501Y-64270500D01*
X108932540Y-64290185D01*
X108978295Y-64342989D01*
X108989501Y-64394500D01*
X108989501Y-64468570D01*
X109000000Y-64571348D01*
X109000001Y-64571351D01*
X109047278Y-64714022D01*
X109055186Y-64737886D01*
X109147288Y-64887208D01*
X109271344Y-65011264D01*
X109420666Y-65103366D01*
X109587203Y-65158551D01*
X109689991Y-65169052D01*
X110590008Y-65169051D01*
X110590016Y-65169050D01*
X110590019Y-65169050D01*
X110646302Y-65163300D01*
X110692797Y-65158551D01*
X110859334Y-65103366D01*
X111008656Y-65011264D01*
X111132712Y-64887208D01*
X111224814Y-64737886D01*
X111279999Y-64571349D01*
X111290500Y-64468561D01*
X111290500Y-64468538D01*
X112090001Y-64468538D01*
X112100494Y-64571249D01*
X112155641Y-64737671D01*
X112155643Y-64737676D01*
X112247684Y-64886897D01*
X112371654Y-65010867D01*
X112520875Y-65102908D01*
X112520880Y-65102910D01*
X112687302Y-65158057D01*
X112687309Y-65158058D01*
X112790019Y-65168551D01*
X112989999Y-65168551D01*
X113490000Y-65168551D01*
X113689972Y-65168551D01*
X113689986Y-65168550D01*
X113792697Y-65158057D01*
X113959119Y-65102910D01*
X113959124Y-65102908D01*
X114108345Y-65010867D01*
X114232315Y-64886897D01*
X114324356Y-64737676D01*
X114324358Y-64737671D01*
X114379505Y-64571249D01*
X114379506Y-64571242D01*
X114389999Y-64468538D01*
X114390000Y-64468525D01*
X114390000Y-64043552D01*
X113490000Y-64043552D01*
X113490000Y-65168551D01*
X112989999Y-65168551D01*
X112990000Y-65168550D01*
X112990000Y-64043552D01*
X112090001Y-64043552D01*
X112090001Y-64468538D01*
X111290500Y-64468538D01*
X111290499Y-63118544D01*
X111289432Y-63108103D01*
X111279999Y-63015755D01*
X111279998Y-63015752D01*
X111269643Y-62984504D01*
X111224814Y-62849218D01*
X111132712Y-62699896D01*
X111008656Y-62575840D01*
X110902217Y-62510188D01*
X110859336Y-62483739D01*
X110859331Y-62483737D01*
X110848612Y-62480185D01*
X110692797Y-62428553D01*
X110692795Y-62428552D01*
X110590010Y-62418052D01*
X109689998Y-62418052D01*
X109689980Y-62418053D01*
X109587203Y-62428552D01*
X109587200Y-62428553D01*
X109420668Y-62483737D01*
X109420663Y-62483739D01*
X109271342Y-62575841D01*
X109147289Y-62699894D01*
X109055187Y-62849215D01*
X109055185Y-62849220D01*
X109010357Y-62984504D01*
X108970584Y-63041949D01*
X108906069Y-63068772D01*
X108892651Y-63069500D01*
X106584499Y-63069500D01*
X106517460Y-63049815D01*
X106471705Y-62997011D01*
X106460499Y-62945500D01*
X106460499Y-62845681D01*
X106460498Y-62845675D01*
X106454091Y-62786068D01*
X106403797Y-62651223D01*
X106403793Y-62651216D01*
X106317547Y-62536007D01*
X106317544Y-62536004D01*
X106202335Y-62449758D01*
X106202328Y-62449754D01*
X106067482Y-62399460D01*
X106067483Y-62399460D01*
X106007883Y-62393053D01*
X106007881Y-62393052D01*
X106007873Y-62393052D01*
X106007864Y-62393052D01*
X104112129Y-62393052D01*
X104112123Y-62393053D01*
X104052516Y-62399460D01*
X103917671Y-62449754D01*
X103917664Y-62449758D01*
X103802455Y-62536004D01*
X103802452Y-62536007D01*
X103710888Y-62658321D01*
X103708485Y-62656522D01*
X103669677Y-62695304D01*
X103601399Y-62710132D01*
X103535943Y-62685692D01*
X103522607Y-62674132D01*
X103497512Y-62649037D01*
X103497511Y-62649036D01*
X103497510Y-62649035D01*
X103306433Y-62510209D01*
X103247508Y-62480185D01*
X103095996Y-62402985D01*
X102871368Y-62329998D01*
X102638097Y-62293052D01*
X102638092Y-62293052D01*
X101365300Y-62293052D01*
X101129116Y-62293052D01*
X101129111Y-62293052D01*
X100895839Y-62329998D01*
X100671211Y-62402985D01*
X100460773Y-62510209D01*
X100390919Y-62560962D01*
X100325112Y-62584442D01*
X100257058Y-62568617D01*
X100230352Y-62548325D01*
X99232885Y-61550858D01*
X99199400Y-61489535D01*
X99196566Y-61463177D01*
X99196566Y-57804940D01*
X99216251Y-57737901D01*
X99269055Y-57692146D01*
X99332749Y-57681825D01*
X99332755Y-57681714D01*
X99333266Y-57681741D01*
X99333822Y-57681651D01*
X99336061Y-57681892D01*
G37*
%TD.AperFunction*%
%TA.AperFunction,Conductor*%
G36*
X162159701Y-60575185D02*
G01*
X162205456Y-60627989D01*
X162215400Y-60697147D01*
X162198393Y-60744283D01*
X162196663Y-60747106D01*
X162090773Y-60954928D01*
X162090772Y-60954929D01*
X162089434Y-60957554D01*
X162089430Y-60957563D01*
X162016447Y-61182179D01*
X162016447Y-61182182D01*
X161979500Y-61415454D01*
X161979500Y-62204507D01*
X161959815Y-62271546D01*
X161907011Y-62317301D01*
X161874900Y-62326980D01*
X161855841Y-62329998D01*
X161631213Y-62402985D01*
X161420773Y-62510209D01*
X161229696Y-62649036D01*
X157955488Y-65923244D01*
X157816661Y-66114321D01*
X157771002Y-66203933D01*
X157709438Y-66324759D01*
X157636450Y-66549387D01*
X157599504Y-66782658D01*
X157599504Y-68456000D01*
X157579819Y-68523039D01*
X157527015Y-68568794D01*
X157475504Y-68580000D01*
X149377498Y-68580000D01*
X149310459Y-68560315D01*
X149264704Y-68507511D01*
X149253498Y-68456000D01*
X149253498Y-67428451D01*
X149248353Y-67356511D01*
X149207817Y-67218459D01*
X149130029Y-67097419D01*
X149082445Y-67056187D01*
X149021297Y-67003201D01*
X149021295Y-67003199D01*
X149021292Y-67003197D01*
X149021288Y-67003195D01*
X148890417Y-66943427D01*
X148890412Y-66943426D01*
X148747998Y-66922951D01*
X141179196Y-66922951D01*
X141112157Y-66903266D01*
X141066402Y-66850462D01*
X141056458Y-66781304D01*
X141085483Y-66717748D01*
X141091515Y-66711270D01*
X142472414Y-65330371D01*
X142533737Y-65296886D01*
X142560095Y-65294052D01*
X143278095Y-65294052D01*
X143511366Y-65257105D01*
X143735990Y-65184120D01*
X143946431Y-65076895D01*
X144137508Y-64938069D01*
X144162607Y-64912969D01*
X144223926Y-64879486D01*
X144293618Y-64884469D01*
X144349552Y-64926340D01*
X144352558Y-64931017D01*
X144442450Y-65051096D01*
X144442453Y-65051099D01*
X144557662Y-65137345D01*
X144557669Y-65137349D01*
X144692515Y-65187643D01*
X144692514Y-65187643D01*
X144699442Y-65188387D01*
X144752125Y-65194052D01*
X146647870Y-65194051D01*
X146707481Y-65187643D01*
X146842329Y-65137348D01*
X146957544Y-65051098D01*
X147043794Y-64935883D01*
X147094089Y-64801035D01*
X147100498Y-64741425D01*
X147100498Y-64394500D01*
X147120183Y-64327461D01*
X147172987Y-64281706D01*
X147224498Y-64270500D01*
X149505499Y-64270500D01*
X149572538Y-64290185D01*
X149618293Y-64342989D01*
X149629499Y-64394500D01*
X149629499Y-64468570D01*
X149639998Y-64571348D01*
X149639999Y-64571351D01*
X149687276Y-64714022D01*
X149695184Y-64737886D01*
X149787286Y-64887208D01*
X149911342Y-65011264D01*
X150060664Y-65103366D01*
X150227201Y-65158551D01*
X150329989Y-65169052D01*
X151230006Y-65169051D01*
X151230014Y-65169050D01*
X151230017Y-65169050D01*
X151286300Y-65163300D01*
X151332795Y-65158551D01*
X151499332Y-65103366D01*
X151648654Y-65011264D01*
X151772710Y-64887208D01*
X151864812Y-64737886D01*
X151919997Y-64571349D01*
X151930498Y-64468561D01*
X151930498Y-64468538D01*
X152729999Y-64468538D01*
X152740492Y-64571249D01*
X152795639Y-64737671D01*
X152795641Y-64737676D01*
X152887682Y-64886897D01*
X153011652Y-65010867D01*
X153160873Y-65102908D01*
X153160878Y-65102910D01*
X153327300Y-65158057D01*
X153327307Y-65158058D01*
X153430017Y-65168551D01*
X153629997Y-65168551D01*
X154129998Y-65168551D01*
X154329970Y-65168551D01*
X154329984Y-65168550D01*
X154432695Y-65158057D01*
X154599117Y-65102910D01*
X154599122Y-65102908D01*
X154748343Y-65010867D01*
X154872313Y-64886897D01*
X154964354Y-64737676D01*
X154964356Y-64737671D01*
X155019503Y-64571249D01*
X155019504Y-64571242D01*
X155029997Y-64468538D01*
X155029998Y-64468525D01*
X155029998Y-64043552D01*
X154129998Y-64043552D01*
X154129998Y-65168551D01*
X153629997Y-65168551D01*
X153629998Y-65168550D01*
X153629998Y-64043552D01*
X152729999Y-64043552D01*
X152729999Y-64468538D01*
X151930498Y-64468538D01*
X151930497Y-63118565D01*
X152729998Y-63118565D01*
X152729998Y-63543552D01*
X153629998Y-63543552D01*
X154129998Y-63543552D01*
X155029997Y-63543552D01*
X155029997Y-63118580D01*
X155029996Y-63118565D01*
X155019503Y-63015854D01*
X154964356Y-62849432D01*
X154964354Y-62849427D01*
X154872313Y-62700206D01*
X154748343Y-62576236D01*
X154599122Y-62484195D01*
X154599117Y-62484193D01*
X154432695Y-62429046D01*
X154432688Y-62429045D01*
X154329984Y-62418552D01*
X154129998Y-62418552D01*
X154129998Y-63543552D01*
X153629998Y-63543552D01*
X153629998Y-62418552D01*
X153430027Y-62418552D01*
X153430010Y-62418553D01*
X153327300Y-62429046D01*
X153160878Y-62484193D01*
X153160873Y-62484195D01*
X153011652Y-62576236D01*
X152887682Y-62700206D01*
X152795641Y-62849427D01*
X152795639Y-62849432D01*
X152740492Y-63015854D01*
X152740491Y-63015861D01*
X152729998Y-63118565D01*
X151930497Y-63118565D01*
X151930497Y-63118544D01*
X151929430Y-63108103D01*
X151919997Y-63015755D01*
X151919996Y-63015752D01*
X151909641Y-62984504D01*
X151864812Y-62849218D01*
X151772710Y-62699896D01*
X151648654Y-62575840D01*
X151542215Y-62510188D01*
X151499334Y-62483739D01*
X151499329Y-62483737D01*
X151488610Y-62480185D01*
X151332795Y-62428553D01*
X151332793Y-62428552D01*
X151230008Y-62418052D01*
X150329996Y-62418052D01*
X150329978Y-62418053D01*
X150227201Y-62428552D01*
X150227198Y-62428553D01*
X150060666Y-62483737D01*
X150060661Y-62483739D01*
X149911340Y-62575841D01*
X149787287Y-62699894D01*
X149695185Y-62849215D01*
X149695183Y-62849220D01*
X149650355Y-62984504D01*
X149610582Y-63041949D01*
X149546067Y-63068772D01*
X149532649Y-63069500D01*
X147224497Y-63069500D01*
X147157458Y-63049815D01*
X147111703Y-62997011D01*
X147100497Y-62945500D01*
X147100497Y-62845681D01*
X147100496Y-62845675D01*
X147094089Y-62786068D01*
X147043795Y-62651223D01*
X147043791Y-62651216D01*
X146957545Y-62536007D01*
X146957542Y-62536004D01*
X146842333Y-62449758D01*
X146842326Y-62449754D01*
X146707480Y-62399460D01*
X146707481Y-62399460D01*
X146647881Y-62393053D01*
X146647879Y-62393052D01*
X146647871Y-62393052D01*
X146647862Y-62393052D01*
X144752127Y-62393052D01*
X144752116Y-62393053D01*
X144732295Y-62395184D01*
X144663536Y-62382776D01*
X144612400Y-62335164D01*
X144595123Y-62267464D01*
X144617190Y-62201171D01*
X144631356Y-62184220D01*
X146223759Y-60591819D01*
X146285082Y-60558334D01*
X146311440Y-60555500D01*
X162092662Y-60555500D01*
X162159701Y-60575185D01*
G37*
%TD.AperFunction*%
%TA.AperFunction,Conductor*%
G36*
X178137768Y-61576773D02*
G01*
X178193701Y-61618645D01*
X178218118Y-61684109D01*
X178218434Y-61692955D01*
X178218434Y-68456000D01*
X178198749Y-68523039D01*
X178145945Y-68568794D01*
X178094434Y-68580000D01*
X169697500Y-68580000D01*
X169630461Y-68560315D01*
X169584706Y-68507511D01*
X169573500Y-68456000D01*
X169573500Y-67428451D01*
X169568355Y-67356511D01*
X169527819Y-67218459D01*
X169450031Y-67097419D01*
X169402447Y-67056187D01*
X169341299Y-67003201D01*
X169341297Y-67003199D01*
X169341294Y-67003197D01*
X169341290Y-67003195D01*
X169210419Y-66943427D01*
X169210414Y-66943426D01*
X169068000Y-66922951D01*
X161499198Y-66922951D01*
X161432159Y-66903266D01*
X161386404Y-66850462D01*
X161376460Y-66781304D01*
X161405485Y-66717748D01*
X161411517Y-66711270D01*
X162792416Y-65330371D01*
X162853739Y-65296886D01*
X162880097Y-65294052D01*
X163598097Y-65294052D01*
X163831368Y-65257105D01*
X164055992Y-65184120D01*
X164266433Y-65076895D01*
X164457510Y-64938069D01*
X164482609Y-64912969D01*
X164543928Y-64879486D01*
X164613620Y-64884469D01*
X164669554Y-64926340D01*
X164672560Y-64931017D01*
X164762452Y-65051096D01*
X164762455Y-65051099D01*
X164877664Y-65137345D01*
X164877671Y-65137349D01*
X165012517Y-65187643D01*
X165012516Y-65187643D01*
X165019444Y-65188387D01*
X165072127Y-65194052D01*
X166967872Y-65194051D01*
X167027483Y-65187643D01*
X167162331Y-65137348D01*
X167277546Y-65051098D01*
X167363796Y-64935883D01*
X167414091Y-64801035D01*
X167420500Y-64741425D01*
X167420500Y-64518052D01*
X167440185Y-64451013D01*
X167492989Y-64405258D01*
X167544500Y-64394052D01*
X169538455Y-64394052D01*
X169605494Y-64413737D01*
X169626136Y-64430371D01*
X169628181Y-64432416D01*
X169661666Y-64493739D01*
X169664500Y-64520097D01*
X169664500Y-65445001D01*
X169664501Y-65445019D01*
X169675000Y-65547796D01*
X169675001Y-65547799D01*
X169730115Y-65714119D01*
X169730186Y-65714334D01*
X169822288Y-65863656D01*
X169946344Y-65987712D01*
X170095666Y-66079814D01*
X170262203Y-66134999D01*
X170364991Y-66145500D01*
X171265008Y-66145499D01*
X171265016Y-66145498D01*
X171265019Y-66145498D01*
X171321302Y-66139748D01*
X171367797Y-66134999D01*
X171534334Y-66079814D01*
X171683656Y-65987712D01*
X171807712Y-65863656D01*
X171899814Y-65714334D01*
X171954999Y-65547797D01*
X171965500Y-65445009D01*
X171965500Y-65444986D01*
X172765001Y-65444986D01*
X172775494Y-65547697D01*
X172830641Y-65714119D01*
X172830643Y-65714124D01*
X172922684Y-65863345D01*
X173046654Y-65987315D01*
X173195875Y-66079356D01*
X173195880Y-66079358D01*
X173362302Y-66134505D01*
X173362309Y-66134506D01*
X173465019Y-66144999D01*
X173664999Y-66144999D01*
X174165000Y-66144999D01*
X174364972Y-66144999D01*
X174364986Y-66144998D01*
X174467697Y-66134505D01*
X174634119Y-66079358D01*
X174634124Y-66079356D01*
X174783345Y-65987315D01*
X174907315Y-65863345D01*
X174999356Y-65714124D01*
X174999358Y-65714119D01*
X175054505Y-65547697D01*
X175054506Y-65547690D01*
X175064999Y-65444986D01*
X175065000Y-65444973D01*
X175065000Y-65020000D01*
X174165000Y-65020000D01*
X174165000Y-66144999D01*
X173664999Y-66144999D01*
X173665000Y-66144998D01*
X173665000Y-65020000D01*
X172765001Y-65020000D01*
X172765001Y-65444986D01*
X171965500Y-65444986D01*
X171965499Y-64094992D01*
X171954999Y-63992203D01*
X171910214Y-63857053D01*
X171907813Y-63787228D01*
X171943544Y-63727186D01*
X172006065Y-63695993D01*
X172027921Y-63694052D01*
X172702605Y-63694052D01*
X172769644Y-63713737D01*
X172815399Y-63766541D01*
X172825343Y-63835699D01*
X172820311Y-63857056D01*
X172775494Y-63992302D01*
X172775493Y-63992309D01*
X172765000Y-64095013D01*
X172765000Y-64520000D01*
X175064999Y-64520000D01*
X175064999Y-64095028D01*
X175064998Y-64095013D01*
X175054505Y-63992302D01*
X175009689Y-63857056D01*
X175007287Y-63787228D01*
X175043019Y-63727186D01*
X175105539Y-63695993D01*
X175127395Y-63694052D01*
X175414545Y-63694052D01*
X175647816Y-63657105D01*
X175872440Y-63584120D01*
X176082882Y-63476895D01*
X176273958Y-63338069D01*
X178006753Y-61605274D01*
X178068076Y-61571789D01*
X178137768Y-61576773D01*
G37*
%TD.AperFunction*%
%TA.AperFunction,Conductor*%
G36*
X192434150Y-57400185D02*
G01*
X192454792Y-57416819D01*
X199230671Y-64192699D01*
X199264156Y-64254022D01*
X199259172Y-64323714D01*
X199230671Y-64368061D01*
X197675488Y-65923244D01*
X197536661Y-66114321D01*
X197491002Y-66203933D01*
X197429438Y-66324759D01*
X197356450Y-66549387D01*
X197319504Y-66782658D01*
X197319504Y-68456000D01*
X197299819Y-68523039D01*
X197247015Y-68568794D01*
X197195504Y-68580000D01*
X190017498Y-68580000D01*
X189950459Y-68560315D01*
X189904704Y-68507511D01*
X189893498Y-68456000D01*
X189893498Y-67428451D01*
X189888353Y-67356511D01*
X189847817Y-67218459D01*
X189770029Y-67097419D01*
X189722445Y-67056187D01*
X189661297Y-67003201D01*
X189661295Y-67003199D01*
X189661292Y-67003197D01*
X189661288Y-67003195D01*
X189530417Y-66943427D01*
X189530412Y-66943426D01*
X189387998Y-66922951D01*
X182065568Y-66922951D01*
X181998529Y-66903266D01*
X181952774Y-66850462D01*
X181942830Y-66781304D01*
X181971855Y-66717748D01*
X181977887Y-66711270D01*
X183358785Y-65330371D01*
X183420108Y-65296886D01*
X183446466Y-65294052D01*
X183918095Y-65294052D01*
X184151366Y-65257105D01*
X184375990Y-65184120D01*
X184586431Y-65076895D01*
X184777508Y-64938069D01*
X184802607Y-64912969D01*
X184863926Y-64879486D01*
X184933618Y-64884469D01*
X184989552Y-64926340D01*
X184992558Y-64931017D01*
X185082450Y-65051096D01*
X185082453Y-65051099D01*
X185197662Y-65137345D01*
X185197669Y-65137349D01*
X185332515Y-65187643D01*
X185332514Y-65187643D01*
X185339442Y-65188387D01*
X185392125Y-65194052D01*
X187287870Y-65194051D01*
X187347481Y-65187643D01*
X187482329Y-65137348D01*
X187597544Y-65051098D01*
X187683794Y-64935883D01*
X187734089Y-64801035D01*
X187740498Y-64741425D01*
X187740498Y-64394500D01*
X187760183Y-64327461D01*
X187812987Y-64281706D01*
X187864498Y-64270500D01*
X190145499Y-64270500D01*
X190212538Y-64290185D01*
X190258293Y-64342989D01*
X190269499Y-64394500D01*
X190269499Y-64468570D01*
X190279998Y-64571348D01*
X190279999Y-64571351D01*
X190327276Y-64714022D01*
X190335184Y-64737886D01*
X190427286Y-64887208D01*
X190551342Y-65011264D01*
X190700664Y-65103366D01*
X190867201Y-65158551D01*
X190969989Y-65169052D01*
X191870006Y-65169051D01*
X191870014Y-65169050D01*
X191870017Y-65169050D01*
X191926300Y-65163300D01*
X191972795Y-65158551D01*
X192139332Y-65103366D01*
X192288654Y-65011264D01*
X192412710Y-64887208D01*
X192504812Y-64737886D01*
X192559997Y-64571349D01*
X192570498Y-64468561D01*
X192570498Y-64468538D01*
X193369999Y-64468538D01*
X193380492Y-64571249D01*
X193435639Y-64737671D01*
X193435641Y-64737676D01*
X193527682Y-64886897D01*
X193651652Y-65010867D01*
X193800873Y-65102908D01*
X193800878Y-65102910D01*
X193967300Y-65158057D01*
X193967307Y-65158058D01*
X194070017Y-65168551D01*
X194269997Y-65168551D01*
X194769998Y-65168551D01*
X194969970Y-65168551D01*
X194969984Y-65168550D01*
X195072695Y-65158057D01*
X195239117Y-65102910D01*
X195239122Y-65102908D01*
X195388343Y-65010867D01*
X195512313Y-64886897D01*
X195604354Y-64737676D01*
X195604356Y-64737671D01*
X195659503Y-64571249D01*
X195659504Y-64571242D01*
X195669997Y-64468538D01*
X195669998Y-64468525D01*
X195669998Y-64043552D01*
X194769998Y-64043552D01*
X194769998Y-65168551D01*
X194269997Y-65168551D01*
X194269998Y-65168550D01*
X194269998Y-64043552D01*
X193369999Y-64043552D01*
X193369999Y-64468538D01*
X192570498Y-64468538D01*
X192570497Y-63118565D01*
X193369998Y-63118565D01*
X193369998Y-63543552D01*
X194269998Y-63543552D01*
X194769998Y-63543552D01*
X195669997Y-63543552D01*
X195669997Y-63118580D01*
X195669996Y-63118565D01*
X195659503Y-63015854D01*
X195604356Y-62849432D01*
X195604354Y-62849427D01*
X195512313Y-62700206D01*
X195388343Y-62576236D01*
X195239122Y-62484195D01*
X195239117Y-62484193D01*
X195072695Y-62429046D01*
X195072688Y-62429045D01*
X194969984Y-62418552D01*
X194769998Y-62418552D01*
X194769998Y-63543552D01*
X194269998Y-63543552D01*
X194269998Y-62418552D01*
X194070027Y-62418552D01*
X194070010Y-62418553D01*
X193967300Y-62429046D01*
X193800878Y-62484193D01*
X193800873Y-62484195D01*
X193651652Y-62576236D01*
X193527682Y-62700206D01*
X193435641Y-62849427D01*
X193435639Y-62849432D01*
X193380492Y-63015854D01*
X193380491Y-63015861D01*
X193369998Y-63118565D01*
X192570497Y-63118565D01*
X192570497Y-63118544D01*
X192569430Y-63108103D01*
X192559997Y-63015755D01*
X192559996Y-63015752D01*
X192549641Y-62984504D01*
X192504812Y-62849218D01*
X192412710Y-62699896D01*
X192288654Y-62575840D01*
X192182215Y-62510188D01*
X192139334Y-62483739D01*
X192139329Y-62483737D01*
X192128610Y-62480185D01*
X191972795Y-62428553D01*
X191972793Y-62428552D01*
X191870008Y-62418052D01*
X190969996Y-62418052D01*
X190969978Y-62418053D01*
X190867201Y-62428552D01*
X190867198Y-62428553D01*
X190700666Y-62483737D01*
X190700661Y-62483739D01*
X190551340Y-62575841D01*
X190427287Y-62699894D01*
X190335185Y-62849215D01*
X190335183Y-62849220D01*
X190290355Y-62984504D01*
X190250582Y-63041949D01*
X190186067Y-63068772D01*
X190172649Y-63069500D01*
X187864497Y-63069500D01*
X187797458Y-63049815D01*
X187751703Y-62997011D01*
X187740497Y-62945500D01*
X187740497Y-62845681D01*
X187740496Y-62845675D01*
X187734089Y-62786068D01*
X187683795Y-62651223D01*
X187683791Y-62651216D01*
X187597545Y-62536007D01*
X187597542Y-62536004D01*
X187482333Y-62449758D01*
X187482326Y-62449754D01*
X187347480Y-62399460D01*
X187347481Y-62399460D01*
X187287881Y-62393053D01*
X187287879Y-62393052D01*
X187287871Y-62393052D01*
X187287862Y-62393052D01*
X185392127Y-62393052D01*
X185392121Y-62393053D01*
X185332514Y-62399460D01*
X185197669Y-62449754D01*
X185197662Y-62449758D01*
X185082453Y-62536004D01*
X185082450Y-62536007D01*
X184990886Y-62658321D01*
X184988483Y-62656522D01*
X184949675Y-62695304D01*
X184881397Y-62710132D01*
X184815941Y-62685692D01*
X184802605Y-62674132D01*
X184777510Y-62649037D01*
X184777509Y-62649036D01*
X184777508Y-62649035D01*
X184586431Y-62510209D01*
X184527506Y-62480185D01*
X184375994Y-62402985D01*
X184151366Y-62329998D01*
X183918095Y-62293052D01*
X183918090Y-62293052D01*
X182655485Y-62293052D01*
X182655480Y-62293052D01*
X182422208Y-62329998D01*
X182197580Y-62402985D01*
X182046069Y-62480185D01*
X181987144Y-62510209D01*
X181987143Y-62510210D01*
X181979245Y-62515948D01*
X181979244Y-62515947D01*
X181979244Y-62515948D01*
X181796072Y-62649029D01*
X181796067Y-62649033D01*
X181431115Y-63013986D01*
X181369792Y-63047471D01*
X181300100Y-63042487D01*
X181244167Y-63000615D01*
X181219750Y-62935151D01*
X181219434Y-62926305D01*
X181219434Y-57805891D01*
X181239119Y-57738852D01*
X181291923Y-57693097D01*
X181343429Y-57681891D01*
X181968938Y-57681891D01*
X182028549Y-57675483D01*
X182163397Y-57625188D01*
X182170687Y-57619729D01*
X182236148Y-57595311D01*
X182304422Y-57610160D01*
X182319304Y-57619724D01*
X182326603Y-57625188D01*
X182461451Y-57675483D01*
X182521061Y-57681892D01*
X183238938Y-57681891D01*
X183298549Y-57675483D01*
X183433397Y-57625188D01*
X183548612Y-57538938D01*
X183630022Y-57430188D01*
X183685955Y-57388318D01*
X183729288Y-57380500D01*
X192367111Y-57380500D01*
X192434150Y-57400185D01*
G37*
%TD.AperFunction*%
%TA.AperFunction,Conductor*%
G36*
X166518454Y-39636185D02*
G01*
X166564209Y-39688989D01*
X166574153Y-39758147D01*
X166569122Y-39779499D01*
X166550001Y-39837203D01*
X166550001Y-39837204D01*
X166550000Y-39837204D01*
X166539500Y-39939983D01*
X166539500Y-41340001D01*
X166539501Y-41340018D01*
X166550000Y-41442796D01*
X166550001Y-41442799D01*
X166601433Y-41598009D01*
X166605186Y-41609334D01*
X166697288Y-41758656D01*
X166821344Y-41882712D01*
X166970666Y-41974814D01*
X167137203Y-42029999D01*
X167239991Y-42040500D01*
X168040008Y-42040499D01*
X168040016Y-42040498D01*
X168040019Y-42040498D01*
X168096302Y-42034748D01*
X168142797Y-42029999D01*
X168309334Y-41974814D01*
X168458656Y-41882712D01*
X168582712Y-41758656D01*
X168674814Y-41609334D01*
X168729999Y-41442797D01*
X168740500Y-41340009D01*
X168740499Y-39939992D01*
X168729999Y-39837203D01*
X168710878Y-39779502D01*
X168708477Y-39709677D01*
X168744208Y-39649635D01*
X168806728Y-39618442D01*
X168828585Y-39616500D01*
X222895500Y-39616500D01*
X222962539Y-39636185D01*
X223008294Y-39688989D01*
X223019500Y-39740500D01*
X223019500Y-68456000D01*
X222999815Y-68523039D01*
X222947011Y-68568794D01*
X222895500Y-68580000D01*
X209417500Y-68580000D01*
X209350461Y-68560315D01*
X209304706Y-68507511D01*
X209293500Y-68456000D01*
X209293500Y-67428451D01*
X209288355Y-67356511D01*
X209247819Y-67218459D01*
X209170031Y-67097419D01*
X209122447Y-67056187D01*
X209061299Y-67003201D01*
X209061297Y-67003199D01*
X209061294Y-67003197D01*
X209061290Y-67003195D01*
X208930419Y-66943427D01*
X208930414Y-66943426D01*
X208788000Y-66922951D01*
X201219198Y-66922951D01*
X201152159Y-66903266D01*
X201106404Y-66850462D01*
X201096460Y-66781304D01*
X201125485Y-66717748D01*
X201131517Y-66711270D01*
X202512416Y-65330371D01*
X202573739Y-65296886D01*
X202600097Y-65294052D01*
X203318097Y-65294052D01*
X203551368Y-65257105D01*
X203775992Y-65184120D01*
X203986433Y-65076895D01*
X204177510Y-64938069D01*
X204202609Y-64912969D01*
X204263928Y-64879486D01*
X204333620Y-64884469D01*
X204389554Y-64926340D01*
X204392560Y-64931017D01*
X204482452Y-65051096D01*
X204482455Y-65051099D01*
X204597664Y-65137345D01*
X204597671Y-65137349D01*
X204732517Y-65187643D01*
X204732516Y-65187643D01*
X204739444Y-65188387D01*
X204792127Y-65194052D01*
X206687872Y-65194051D01*
X206747483Y-65187643D01*
X206882331Y-65137348D01*
X206997546Y-65051098D01*
X207083796Y-64935883D01*
X207134091Y-64801035D01*
X207140500Y-64741425D01*
X207140500Y-64224500D01*
X207160185Y-64157461D01*
X207212989Y-64111706D01*
X207264500Y-64100500D01*
X209545501Y-64100500D01*
X209612540Y-64120185D01*
X209658295Y-64172989D01*
X209669501Y-64224500D01*
X209669501Y-64468570D01*
X209680000Y-64571348D01*
X209680001Y-64571351D01*
X209727278Y-64714022D01*
X209735186Y-64737886D01*
X209827288Y-64887208D01*
X209951344Y-65011264D01*
X210100666Y-65103366D01*
X210267203Y-65158551D01*
X210369991Y-65169052D01*
X211270008Y-65169051D01*
X211270016Y-65169050D01*
X211270019Y-65169050D01*
X211326302Y-65163300D01*
X211372797Y-65158551D01*
X211539334Y-65103366D01*
X211688656Y-65011264D01*
X211812712Y-64887208D01*
X211904814Y-64737886D01*
X211959999Y-64571349D01*
X211970500Y-64468561D01*
X211970500Y-64468538D01*
X212770001Y-64468538D01*
X212780494Y-64571249D01*
X212835641Y-64737671D01*
X212835643Y-64737676D01*
X212927684Y-64886897D01*
X213051654Y-65010867D01*
X213200875Y-65102908D01*
X213200880Y-65102910D01*
X213367302Y-65158057D01*
X213367309Y-65158058D01*
X213470019Y-65168551D01*
X213669999Y-65168551D01*
X214170000Y-65168551D01*
X214369972Y-65168551D01*
X214369986Y-65168550D01*
X214472697Y-65158057D01*
X214639119Y-65102910D01*
X214639124Y-65102908D01*
X214788345Y-65010867D01*
X214912315Y-64886897D01*
X215004356Y-64737676D01*
X215004358Y-64737671D01*
X215059505Y-64571249D01*
X215059506Y-64571242D01*
X215069999Y-64468538D01*
X215070000Y-64468525D01*
X215070000Y-64043552D01*
X214170000Y-64043552D01*
X214170000Y-65168551D01*
X213669999Y-65168551D01*
X213670000Y-65168550D01*
X213670000Y-64043552D01*
X212770001Y-64043552D01*
X212770001Y-64468538D01*
X211970500Y-64468538D01*
X211970499Y-63118565D01*
X212770000Y-63118565D01*
X212770000Y-63543552D01*
X213670000Y-63543552D01*
X214170000Y-63543552D01*
X215069999Y-63543552D01*
X215069999Y-63118580D01*
X215069998Y-63118565D01*
X215059505Y-63015854D01*
X215004358Y-62849432D01*
X215004356Y-62849427D01*
X214912315Y-62700206D01*
X214788345Y-62576236D01*
X214639124Y-62484195D01*
X214639119Y-62484193D01*
X214472697Y-62429046D01*
X214472690Y-62429045D01*
X214369986Y-62418552D01*
X214170000Y-62418552D01*
X214170000Y-63543552D01*
X213670000Y-63543552D01*
X213670000Y-62418552D01*
X213470029Y-62418552D01*
X213470012Y-62418553D01*
X213367302Y-62429046D01*
X213200880Y-62484193D01*
X213200875Y-62484195D01*
X213051654Y-62576236D01*
X212927684Y-62700206D01*
X212835643Y-62849427D01*
X212835641Y-62849432D01*
X212780494Y-63015854D01*
X212780493Y-63015861D01*
X212770000Y-63118565D01*
X211970499Y-63118565D01*
X211970499Y-63118544D01*
X211969432Y-63108103D01*
X211959999Y-63015755D01*
X211959998Y-63015752D01*
X211949643Y-62984504D01*
X211904814Y-62849218D01*
X211812712Y-62699896D01*
X211688656Y-62575840D01*
X211582217Y-62510188D01*
X211539336Y-62483739D01*
X211539331Y-62483737D01*
X211528612Y-62480185D01*
X211372797Y-62428553D01*
X211372795Y-62428552D01*
X211270010Y-62418052D01*
X210369998Y-62418052D01*
X210369980Y-62418053D01*
X210267203Y-62428552D01*
X210267200Y-62428553D01*
X210100668Y-62483737D01*
X210100663Y-62483739D01*
X209951342Y-62575841D01*
X209827288Y-62699895D01*
X209827287Y-62699897D01*
X209740504Y-62840596D01*
X209688556Y-62887321D01*
X209634965Y-62899500D01*
X207257670Y-62899500D01*
X207190631Y-62879815D01*
X207144876Y-62827011D01*
X207134381Y-62788757D01*
X207134092Y-62786071D01*
X207083797Y-62651223D01*
X207083793Y-62651216D01*
X206997547Y-62536007D01*
X206997544Y-62536004D01*
X206882335Y-62449758D01*
X206882328Y-62449754D01*
X206747482Y-62399460D01*
X206747483Y-62399460D01*
X206687883Y-62393053D01*
X206687881Y-62393052D01*
X206687873Y-62393052D01*
X206687864Y-62393052D01*
X204792129Y-62393052D01*
X204792123Y-62393053D01*
X204732516Y-62399460D01*
X204597671Y-62449754D01*
X204597664Y-62449758D01*
X204482455Y-62536004D01*
X204482452Y-62536007D01*
X204390888Y-62658321D01*
X204388485Y-62656522D01*
X204349677Y-62695304D01*
X204281399Y-62710132D01*
X204215943Y-62685692D01*
X204202607Y-62674132D01*
X204177512Y-62649037D01*
X204177511Y-62649036D01*
X204177510Y-62649035D01*
X203986433Y-62510209D01*
X203927508Y-62480185D01*
X203775996Y-62402985D01*
X203551368Y-62329998D01*
X203318097Y-62293052D01*
X203318092Y-62293052D01*
X202045300Y-62293052D01*
X201626442Y-62293052D01*
X201559403Y-62273367D01*
X201538761Y-62256733D01*
X195484162Y-56202135D01*
X205609500Y-56202135D01*
X205609500Y-58097870D01*
X205609501Y-58097876D01*
X205615908Y-58157483D01*
X205666202Y-58292328D01*
X205666206Y-58292335D01*
X205752452Y-58407544D01*
X205752455Y-58407547D01*
X205867664Y-58493793D01*
X205867671Y-58493797D01*
X206002517Y-58544091D01*
X206002516Y-58544091D01*
X206009444Y-58544835D01*
X206062127Y-58550500D01*
X207957872Y-58550499D01*
X208017483Y-58544091D01*
X208152331Y-58493796D01*
X208267546Y-58407546D01*
X208353796Y-58292331D01*
X208404091Y-58157483D01*
X208410500Y-58097873D01*
X208410499Y-56202128D01*
X208404788Y-56149002D01*
X208404091Y-56142516D01*
X208353797Y-56007671D01*
X208353793Y-56007664D01*
X208267547Y-55892455D01*
X208267544Y-55892452D01*
X208152335Y-55806206D01*
X208152328Y-55806202D01*
X208017482Y-55755908D01*
X208017483Y-55755908D01*
X207957883Y-55749501D01*
X207957881Y-55749500D01*
X207957873Y-55749500D01*
X207957864Y-55749500D01*
X206062129Y-55749500D01*
X206062123Y-55749501D01*
X206002516Y-55755908D01*
X205867671Y-55806202D01*
X205867664Y-55806206D01*
X205752455Y-55892452D01*
X205752452Y-55892455D01*
X205666206Y-56007664D01*
X205666202Y-56007671D01*
X205615908Y-56142517D01*
X205609690Y-56200360D01*
X205609501Y-56202123D01*
X205609500Y-56202135D01*
X195484162Y-56202135D01*
X194017512Y-54735485D01*
X194017511Y-54735484D01*
X194014619Y-54733383D01*
X193826434Y-54596657D01*
X193784911Y-54575500D01*
X193615996Y-54489433D01*
X193391368Y-54416446D01*
X193158097Y-54379500D01*
X193158092Y-54379500D01*
X183729288Y-54379500D01*
X183662249Y-54359815D01*
X183630022Y-54329812D01*
X183548612Y-54221062D01*
X183515000Y-54195900D01*
X183433401Y-54134814D01*
X183433394Y-54134810D01*
X183298552Y-54084518D01*
X183298551Y-54084517D01*
X183298549Y-54084517D01*
X183238939Y-54078108D01*
X183238929Y-54078108D01*
X182521063Y-54078108D01*
X182521057Y-54078109D01*
X182461450Y-54084516D01*
X182326605Y-54134810D01*
X182326596Y-54134815D01*
X182319307Y-54140272D01*
X182253842Y-54164687D01*
X182185570Y-54149833D01*
X182170693Y-54140272D01*
X182163403Y-54134815D01*
X182163394Y-54134810D01*
X182028552Y-54084518D01*
X182028551Y-54084517D01*
X182028549Y-54084517D01*
X181968939Y-54078108D01*
X181968929Y-54078108D01*
X181251063Y-54078108D01*
X181251057Y-54078109D01*
X181191450Y-54084516D01*
X181056605Y-54134810D01*
X181056596Y-54134815D01*
X181049307Y-54140272D01*
X180983842Y-54164687D01*
X180915570Y-54149833D01*
X180900693Y-54140272D01*
X180893403Y-54134815D01*
X180893394Y-54134810D01*
X180758552Y-54084518D01*
X180758551Y-54084517D01*
X180758549Y-54084517D01*
X180698939Y-54078108D01*
X180698929Y-54078108D01*
X179981063Y-54078108D01*
X179981057Y-54078109D01*
X179921450Y-54084516D01*
X179786605Y-54134810D01*
X179786596Y-54134815D01*
X179779307Y-54140272D01*
X179713842Y-54164687D01*
X179645570Y-54149833D01*
X179630693Y-54140272D01*
X179623403Y-54134815D01*
X179623394Y-54134810D01*
X179488552Y-54084518D01*
X179488551Y-54084517D01*
X179488549Y-54084517D01*
X179428939Y-54078108D01*
X179428929Y-54078108D01*
X178711063Y-54078108D01*
X178711057Y-54078109D01*
X178651450Y-54084516D01*
X178516605Y-54134810D01*
X178516596Y-54134815D01*
X178509307Y-54140272D01*
X178443842Y-54164687D01*
X178375570Y-54149833D01*
X178360693Y-54140272D01*
X178353403Y-54134815D01*
X178353394Y-54134810D01*
X178218552Y-54084518D01*
X178218551Y-54084517D01*
X178218549Y-54084517D01*
X178158939Y-54078108D01*
X178158929Y-54078108D01*
X177441063Y-54078108D01*
X177441057Y-54078109D01*
X177381450Y-54084516D01*
X177246605Y-54134810D01*
X177246596Y-54134815D01*
X177239307Y-54140272D01*
X177173842Y-54164687D01*
X177105570Y-54149833D01*
X177090693Y-54140272D01*
X177083403Y-54134815D01*
X177083394Y-54134810D01*
X176948552Y-54084518D01*
X176948551Y-54084517D01*
X176948549Y-54084517D01*
X176888939Y-54078108D01*
X176888929Y-54078108D01*
X176171063Y-54078108D01*
X176171057Y-54078109D01*
X176111450Y-54084516D01*
X175976605Y-54134810D01*
X175976596Y-54134815D01*
X175969307Y-54140272D01*
X175903842Y-54164687D01*
X175835570Y-54149833D01*
X175820693Y-54140272D01*
X175813403Y-54134815D01*
X175813394Y-54134810D01*
X175678552Y-54084518D01*
X175678551Y-54084517D01*
X175678549Y-54084517D01*
X175618939Y-54078108D01*
X175618929Y-54078108D01*
X174901063Y-54078108D01*
X174901057Y-54078109D01*
X174841450Y-54084516D01*
X174706605Y-54134810D01*
X174706596Y-54134815D01*
X174699307Y-54140272D01*
X174633842Y-54164687D01*
X174565570Y-54149833D01*
X174550693Y-54140272D01*
X174543403Y-54134815D01*
X174543394Y-54134810D01*
X174408548Y-54084516D01*
X174408549Y-54084516D01*
X174348949Y-54078109D01*
X174348947Y-54078108D01*
X174348939Y-54078108D01*
X174348931Y-54078108D01*
X173984500Y-54078108D01*
X173917461Y-54058423D01*
X173871706Y-54005619D01*
X173860500Y-53954108D01*
X173860500Y-53083010D01*
X173860500Y-53083000D01*
X173848947Y-52975544D01*
X173837741Y-52924033D01*
X173825680Y-52887796D01*
X173807662Y-52833659D01*
X173805168Y-52763834D01*
X173840820Y-52703745D01*
X173903299Y-52672470D01*
X173925316Y-52670500D01*
X174652664Y-52670500D01*
X174652680Y-52670501D01*
X174660276Y-52670501D01*
X174818387Y-52670501D01*
X174818390Y-52670501D01*
X174971118Y-52629577D01*
X175021237Y-52600639D01*
X175108049Y-52550520D01*
X175219853Y-52438716D01*
X175219853Y-52438714D01*
X175230061Y-52428507D01*
X175230063Y-52428504D01*
X179071350Y-48587217D01*
X179132673Y-48553732D01*
X179159031Y-48550898D01*
X179428937Y-48550898D01*
X179428938Y-48550898D01*
X179488549Y-48544490D01*
X179623397Y-48494195D01*
X179630687Y-48488736D01*
X179696148Y-48464318D01*
X179764422Y-48479167D01*
X179779304Y-48488731D01*
X179786603Y-48494195D01*
X179921451Y-48544490D01*
X179981061Y-48550899D01*
X180698938Y-48550898D01*
X180758549Y-48544490D01*
X180893397Y-48494195D01*
X180900687Y-48488736D01*
X180966148Y-48464318D01*
X181034422Y-48479167D01*
X181049304Y-48488731D01*
X181056603Y-48494195D01*
X181191451Y-48544490D01*
X181251061Y-48550899D01*
X181413842Y-48550898D01*
X181480881Y-48570582D01*
X181518836Y-48608926D01*
X181585955Y-48715745D01*
X181615184Y-48762262D01*
X181742738Y-48889816D01*
X181814678Y-48935019D01*
X181876806Y-48974057D01*
X181895478Y-48985789D01*
X182044108Y-49037797D01*
X182065745Y-49045368D01*
X182065750Y-49045369D01*
X182244996Y-49065565D01*
X182245000Y-49065565D01*
X182245004Y-49065565D01*
X182424249Y-49045369D01*
X182424252Y-49045368D01*
X182424255Y-49045368D01*
X182594522Y-48985789D01*
X182747262Y-48889816D01*
X182874816Y-48762262D01*
X182938706Y-48660580D01*
X182971164Y-48608926D01*
X183023499Y-48562635D01*
X183076158Y-48550898D01*
X183238937Y-48550898D01*
X183238938Y-48550898D01*
X183298549Y-48544490D01*
X183433397Y-48494195D01*
X183548612Y-48407945D01*
X183634862Y-48292730D01*
X183685157Y-48157882D01*
X183691566Y-48098272D01*
X183691565Y-45399743D01*
X183685157Y-45340132D01*
X183674978Y-45312842D01*
X183634863Y-45205286D01*
X183634859Y-45205279D01*
X183548613Y-45090070D01*
X183548610Y-45090067D01*
X183433401Y-45003821D01*
X183433394Y-45003817D01*
X183298552Y-44953525D01*
X183298551Y-44953524D01*
X183298549Y-44953524D01*
X183238939Y-44947115D01*
X183238929Y-44947115D01*
X182521063Y-44947115D01*
X182521057Y-44947116D01*
X182461450Y-44953523D01*
X182326605Y-45003817D01*
X182326596Y-45003822D01*
X182319307Y-45009279D01*
X182253842Y-45033694D01*
X182185570Y-45018840D01*
X182170693Y-45009279D01*
X182163403Y-45003822D01*
X182163394Y-45003817D01*
X182028552Y-44953525D01*
X182028551Y-44953524D01*
X182028549Y-44953524D01*
X181968939Y-44947115D01*
X181968929Y-44947115D01*
X181251063Y-44947115D01*
X181251057Y-44947116D01*
X181191450Y-44953523D01*
X181056605Y-45003817D01*
X181056596Y-45003822D01*
X181049307Y-45009279D01*
X180983842Y-45033694D01*
X180915570Y-45018840D01*
X180900693Y-45009279D01*
X180893403Y-45003822D01*
X180893394Y-45003817D01*
X180758552Y-44953525D01*
X180758551Y-44953524D01*
X180758549Y-44953524D01*
X180698939Y-44947115D01*
X180698929Y-44947115D01*
X179981063Y-44947115D01*
X179981057Y-44947116D01*
X179921450Y-44953523D01*
X179786605Y-45003817D01*
X179786596Y-45003822D01*
X179779307Y-45009279D01*
X179713842Y-45033694D01*
X179645570Y-45018840D01*
X179630693Y-45009279D01*
X179623403Y-45003822D01*
X179623394Y-45003817D01*
X179488552Y-44953525D01*
X179488551Y-44953524D01*
X179488549Y-44953524D01*
X179428939Y-44947115D01*
X179428929Y-44947115D01*
X178711063Y-44947115D01*
X178711057Y-44947116D01*
X178651450Y-44953523D01*
X178516605Y-45003817D01*
X178516596Y-45003822D01*
X178509307Y-45009279D01*
X178443842Y-45033694D01*
X178375570Y-45018840D01*
X178360693Y-45009279D01*
X178353403Y-45003822D01*
X178353394Y-45003817D01*
X178218552Y-44953525D01*
X178218551Y-44953524D01*
X178218549Y-44953524D01*
X178158939Y-44947115D01*
X178158929Y-44947115D01*
X177441063Y-44947115D01*
X177441057Y-44947116D01*
X177381450Y-44953523D01*
X177246605Y-45003817D01*
X177246596Y-45003822D01*
X177239307Y-45009279D01*
X177173842Y-45033694D01*
X177105570Y-45018840D01*
X177090693Y-45009279D01*
X177083403Y-45003822D01*
X177083394Y-45003817D01*
X176948552Y-44953525D01*
X176948551Y-44953524D01*
X176948549Y-44953524D01*
X176888939Y-44947115D01*
X176888929Y-44947115D01*
X176171063Y-44947115D01*
X176171057Y-44947116D01*
X176111450Y-44953523D01*
X175976605Y-45003817D01*
X175976596Y-45003822D01*
X175969307Y-45009279D01*
X175903842Y-45033694D01*
X175835570Y-45018840D01*
X175820693Y-45009279D01*
X175813403Y-45003822D01*
X175813394Y-45003817D01*
X175678552Y-44953525D01*
X175678551Y-44953524D01*
X175678549Y-44953524D01*
X175618939Y-44947115D01*
X175618929Y-44947115D01*
X174901063Y-44947115D01*
X174901057Y-44947116D01*
X174841450Y-44953523D01*
X174706605Y-45003817D01*
X174706596Y-45003822D01*
X174699307Y-45009279D01*
X174633842Y-45033694D01*
X174565570Y-45018840D01*
X174550693Y-45009279D01*
X174543403Y-45003822D01*
X174543394Y-45003817D01*
X174408552Y-44953525D01*
X174408551Y-44953524D01*
X174408549Y-44953524D01*
X174348939Y-44947115D01*
X174348929Y-44947115D01*
X173631063Y-44947115D01*
X173631057Y-44947116D01*
X173571450Y-44953523D01*
X173436605Y-45003817D01*
X173436600Y-45003820D01*
X173428890Y-45009592D01*
X173363424Y-45034006D01*
X173295152Y-45019152D01*
X173280276Y-45009592D01*
X173273156Y-45004263D01*
X173273152Y-45004260D01*
X173138445Y-44954018D01*
X173138438Y-44954016D01*
X173078910Y-44947615D01*
X172970000Y-44947615D01*
X172970000Y-48550399D01*
X173078894Y-48550399D01*
X173078910Y-48550398D01*
X173138438Y-48543997D01*
X173138449Y-48543994D01*
X173167863Y-48533024D01*
X173237554Y-48528039D01*
X173298878Y-48561523D01*
X173332363Y-48622846D01*
X173327379Y-48692538D01*
X173298880Y-48736884D01*
X173142582Y-48893182D01*
X173081261Y-48926666D01*
X173054903Y-48929500D01*
X172120274Y-48929500D01*
X172079353Y-48940464D01*
X172079353Y-48940465D01*
X172042085Y-48950451D01*
X171967548Y-48970423D01*
X171967543Y-48970426D01*
X171830624Y-49049475D01*
X171830616Y-49049481D01*
X168321917Y-52558181D01*
X168260594Y-52591666D01*
X168234236Y-52594500D01*
X168204500Y-52594500D01*
X168137461Y-52574815D01*
X168091706Y-52522011D01*
X168080500Y-52470500D01*
X168080499Y-51394998D01*
X168080498Y-51394981D01*
X168069999Y-51292203D01*
X168069998Y-51292200D01*
X168014814Y-51125666D01*
X167922712Y-50976344D01*
X167798656Y-50852288D01*
X167649334Y-50760186D01*
X167649328Y-50760184D01*
X167615494Y-50748972D01*
X167558050Y-50709199D01*
X167531228Y-50644683D01*
X167530500Y-50631267D01*
X167530500Y-49698732D01*
X167550185Y-49631693D01*
X167602989Y-49585938D01*
X167615495Y-49581026D01*
X167649334Y-49569814D01*
X167798656Y-49477712D01*
X167922712Y-49353656D01*
X168014814Y-49204334D01*
X168069999Y-49037797D01*
X168080500Y-48935009D01*
X168080499Y-47584992D01*
X168078783Y-47568198D01*
X168069999Y-47482203D01*
X168069998Y-47482200D01*
X168037201Y-47383226D01*
X168014814Y-47315666D01*
X167922712Y-47166344D01*
X167798656Y-47042288D01*
X167682199Y-46970457D01*
X167649336Y-46950187D01*
X167649331Y-46950185D01*
X167647862Y-46949698D01*
X167482797Y-46895001D01*
X167482795Y-46895000D01*
X167380010Y-46884500D01*
X166479998Y-46884500D01*
X166479980Y-46884501D01*
X166401372Y-46892532D01*
X166332680Y-46879762D01*
X166301090Y-46856855D01*
X165976819Y-46532583D01*
X165943334Y-46471260D01*
X165940500Y-46444902D01*
X165940500Y-45908948D01*
X165960185Y-45841909D01*
X166012989Y-45796154D01*
X166082147Y-45786210D01*
X166086794Y-45786969D01*
X166087512Y-45787100D01*
X166089998Y-45787295D01*
X166090000Y-45787295D01*
X166590000Y-45787295D01*
X166590001Y-45787295D01*
X166592486Y-45787100D01*
X166750198Y-45741281D01*
X166891552Y-45657685D01*
X166891561Y-45657678D01*
X167007678Y-45541561D01*
X167007685Y-45541552D01*
X167091282Y-45400196D01*
X167091283Y-45400193D01*
X167091412Y-45399750D01*
X170638434Y-45399750D01*
X170638434Y-48098269D01*
X170638435Y-48098275D01*
X170644842Y-48157882D01*
X170695136Y-48292727D01*
X170695140Y-48292734D01*
X170781386Y-48407943D01*
X170781389Y-48407946D01*
X170896598Y-48494192D01*
X170896605Y-48494196D01*
X170930254Y-48506746D01*
X171031451Y-48544490D01*
X171091061Y-48550899D01*
X171808938Y-48550898D01*
X171868549Y-48544490D01*
X172003397Y-48494195D01*
X172011102Y-48488426D01*
X172076561Y-48464007D01*
X172144835Y-48478854D01*
X172159729Y-48488425D01*
X172166842Y-48493750D01*
X172301557Y-48543996D01*
X172301561Y-48543997D01*
X172361089Y-48550398D01*
X172361106Y-48550399D01*
X172470000Y-48550399D01*
X172470000Y-44947615D01*
X172361089Y-44947615D01*
X172301561Y-44954016D01*
X172301554Y-44954018D01*
X172166847Y-45004260D01*
X172166842Y-45004263D01*
X172159724Y-45009592D01*
X172094259Y-45034007D01*
X172025987Y-45019154D01*
X172011115Y-45009597D01*
X172003397Y-45003819D01*
X172003395Y-45003818D01*
X172003392Y-45003816D01*
X171868552Y-44953525D01*
X171868551Y-44953524D01*
X171868549Y-44953524D01*
X171808939Y-44947115D01*
X171808929Y-44947115D01*
X171091063Y-44947115D01*
X171091057Y-44947116D01*
X171031450Y-44953523D01*
X170896605Y-45003817D01*
X170896598Y-45003821D01*
X170781389Y-45090067D01*
X170781386Y-45090070D01*
X170695140Y-45205279D01*
X170695136Y-45205286D01*
X170644842Y-45340132D01*
X170638435Y-45399731D01*
X170638435Y-45399738D01*
X170638434Y-45399750D01*
X167091412Y-45399750D01*
X167137099Y-45242495D01*
X167137100Y-45242489D01*
X167139999Y-45205649D01*
X167140000Y-45205634D01*
X167140000Y-44765000D01*
X166590000Y-44765000D01*
X166590000Y-45787295D01*
X166090000Y-45787295D01*
X166090000Y-45424050D01*
X166094924Y-45389455D01*
X166137597Y-45242573D01*
X166137598Y-45242567D01*
X166137613Y-45242374D01*
X166140500Y-45205694D01*
X166140500Y-44265000D01*
X166590000Y-44265000D01*
X167140000Y-44265000D01*
X167140000Y-44200000D01*
X205629117Y-44200000D01*
X206634722Y-44200000D01*
X206590667Y-44276306D01*
X206560000Y-44390756D01*
X206560000Y-44509244D01*
X206590667Y-44623694D01*
X206634722Y-44700000D01*
X205629117Y-44700000D01*
X205681317Y-44906135D01*
X205774516Y-45118609D01*
X205901414Y-45312842D01*
X206058558Y-45483545D01*
X206058562Y-45483548D01*
X206241644Y-45626047D01*
X206241648Y-45626050D01*
X206445697Y-45736476D01*
X206445706Y-45736479D01*
X206665139Y-45811811D01*
X206759999Y-45827640D01*
X206760000Y-45827639D01*
X206760000Y-44825277D01*
X206836306Y-44869333D01*
X206950756Y-44900000D01*
X207069244Y-44900000D01*
X207183694Y-44869333D01*
X207260000Y-44825277D01*
X207260000Y-45827640D01*
X207354860Y-45811811D01*
X207574293Y-45736479D01*
X207574302Y-45736476D01*
X207778351Y-45626050D01*
X207778355Y-45626047D01*
X207813476Y-45598711D01*
X216589500Y-45598711D01*
X216589500Y-45841288D01*
X216621161Y-46081785D01*
X216683947Y-46316104D01*
X216773616Y-46532583D01*
X216776776Y-46540212D01*
X216898064Y-46750289D01*
X216898066Y-46750292D01*
X216898067Y-46750293D01*
X217045733Y-46942736D01*
X217045739Y-46942743D01*
X217217256Y-47114260D01*
X217217262Y-47114265D01*
X217409711Y-47261936D01*
X217619788Y-47383224D01*
X217843900Y-47476054D01*
X218078211Y-47538838D01*
X218258586Y-47562584D01*
X218318711Y-47570500D01*
X218318712Y-47570500D01*
X218561289Y-47570500D01*
X218609388Y-47564167D01*
X218801789Y-47538838D01*
X219036100Y-47476054D01*
X219260212Y-47383224D01*
X219470289Y-47261936D01*
X219662738Y-47114265D01*
X219834265Y-46942738D01*
X219981936Y-46750289D01*
X220103224Y-46540212D01*
X220196054Y-46316100D01*
X220258838Y-46081789D01*
X220290500Y-45841288D01*
X220290500Y-45598712D01*
X220258838Y-45358211D01*
X220196054Y-45123900D01*
X220103224Y-44899788D01*
X219981936Y-44689711D01*
X219834265Y-44497262D01*
X219834260Y-44497256D01*
X219662743Y-44325739D01*
X219662736Y-44325733D01*
X219470293Y-44178067D01*
X219470292Y-44178066D01*
X219470289Y-44178064D01*
X219260212Y-44056776D01*
X219239158Y-44048055D01*
X219036104Y-43963947D01*
X218857859Y-43916186D01*
X218801789Y-43901162D01*
X218801788Y-43901161D01*
X218801785Y-43901161D01*
X218561289Y-43869500D01*
X218561288Y-43869500D01*
X218318712Y-43869500D01*
X218318711Y-43869500D01*
X218078214Y-43901161D01*
X217843895Y-43963947D01*
X217619794Y-44056773D01*
X217619785Y-44056777D01*
X217409706Y-44178067D01*
X217217263Y-44325733D01*
X217217256Y-44325739D01*
X217045739Y-44497256D01*
X217045733Y-44497263D01*
X216898067Y-44689706D01*
X216776777Y-44899785D01*
X216776773Y-44899794D01*
X216683947Y-45123895D01*
X216621161Y-45358214D01*
X216589500Y-45598711D01*
X207813476Y-45598711D01*
X207961437Y-45483548D01*
X207961441Y-45483545D01*
X208118585Y-45312842D01*
X208245483Y-45118609D01*
X208338682Y-44906135D01*
X208390883Y-44700000D01*
X207385278Y-44700000D01*
X207429333Y-44623694D01*
X207460000Y-44509244D01*
X207460000Y-44390756D01*
X207429333Y-44276306D01*
X207385278Y-44200000D01*
X208390883Y-44200000D01*
X208338682Y-43993864D01*
X208245483Y-43781390D01*
X208118585Y-43587157D01*
X207961441Y-43416454D01*
X207961437Y-43416451D01*
X207778355Y-43273952D01*
X207778351Y-43273949D01*
X207574302Y-43163523D01*
X207574293Y-43163520D01*
X207354861Y-43088188D01*
X207260000Y-43072359D01*
X207260000Y-44074722D01*
X207183694Y-44030667D01*
X207069244Y-44000000D01*
X206950756Y-44000000D01*
X206836306Y-44030667D01*
X206760000Y-44074722D01*
X206760000Y-43072359D01*
X206759999Y-43072359D01*
X206665138Y-43088188D01*
X206445706Y-43163520D01*
X206445697Y-43163523D01*
X206241648Y-43273949D01*
X206241644Y-43273952D01*
X206058562Y-43416451D01*
X206058558Y-43416454D01*
X205901414Y-43587157D01*
X205774516Y-43781390D01*
X205681317Y-43993864D01*
X205629117Y-44200000D01*
X167140000Y-44200000D01*
X167140000Y-43824365D01*
X167139999Y-43824350D01*
X167137100Y-43787510D01*
X167137099Y-43787504D01*
X167091283Y-43629806D01*
X167091282Y-43629803D01*
X167007685Y-43488447D01*
X167007678Y-43488438D01*
X166891561Y-43372321D01*
X166891552Y-43372314D01*
X166750196Y-43288717D01*
X166750193Y-43288716D01*
X166592494Y-43242900D01*
X166592497Y-43242900D01*
X166590000Y-43242703D01*
X166590000Y-44265000D01*
X166140500Y-44265000D01*
X166140500Y-43824306D01*
X166137598Y-43787431D01*
X166135843Y-43781390D01*
X166094924Y-43640545D01*
X166090000Y-43605950D01*
X166090000Y-43242703D01*
X166087504Y-43242900D01*
X165929806Y-43288716D01*
X165929798Y-43288719D01*
X165903608Y-43304208D01*
X165835884Y-43321388D01*
X165777369Y-43304206D01*
X165750401Y-43288257D01*
X165749353Y-43287804D01*
X165747466Y-43286522D01*
X165743684Y-43284285D01*
X165743824Y-43284046D01*
X165710918Y-43261683D01*
X165220519Y-42771284D01*
X163997589Y-41548355D01*
X163997587Y-41548352D01*
X163878716Y-41429481D01*
X163878715Y-41429480D01*
X163766033Y-41364423D01*
X163766033Y-41364422D01*
X163766028Y-41364421D01*
X163757457Y-41359472D01*
X163741785Y-41350423D01*
X163702889Y-41340001D01*
X163589056Y-41309499D01*
X163430942Y-41309499D01*
X163423346Y-41309499D01*
X163423330Y-41309500D01*
X163264500Y-41309500D01*
X163197461Y-41289815D01*
X163151706Y-41237011D01*
X163140500Y-41185500D01*
X163140499Y-39939998D01*
X163140498Y-39939981D01*
X163129999Y-39837203D01*
X163110878Y-39779502D01*
X163108477Y-39709677D01*
X163144208Y-39649635D01*
X163206728Y-39618442D01*
X163228585Y-39616500D01*
X166451415Y-39616500D01*
X166518454Y-39636185D01*
G37*
%TD.AperFunction*%
%TA.AperFunction,Conductor*%
G36*
X170557768Y-55181186D02*
G01*
X170613701Y-55223058D01*
X170638118Y-55288522D01*
X170638434Y-55297368D01*
X170638434Y-57229262D01*
X170638435Y-57229268D01*
X170644842Y-57288875D01*
X170695136Y-57423720D01*
X170695140Y-57423727D01*
X170781386Y-57538936D01*
X170781389Y-57538939D01*
X170896598Y-57625185D01*
X170896605Y-57625189D01*
X170911990Y-57630927D01*
X171031451Y-57675483D01*
X171091061Y-57681892D01*
X171455500Y-57681891D01*
X171522539Y-57701575D01*
X171568294Y-57754379D01*
X171579500Y-57805891D01*
X171579500Y-58069052D01*
X171559815Y-58136091D01*
X171507011Y-58181846D01*
X171455500Y-58193052D01*
X170852889Y-58193052D01*
X170785850Y-58173367D01*
X170765208Y-58156733D01*
X170357511Y-57749036D01*
X170280518Y-57693097D01*
X170166434Y-57610209D01*
X170137195Y-57595311D01*
X169955996Y-57502985D01*
X169731368Y-57429998D01*
X169498097Y-57393052D01*
X169498092Y-57393052D01*
X162702558Y-57393052D01*
X162466374Y-57393052D01*
X162466369Y-57393052D01*
X162233097Y-57429998D01*
X162008469Y-57502985D01*
X161933893Y-57540985D01*
X161877598Y-57554500D01*
X152079771Y-57554500D01*
X152012732Y-57534815D01*
X151966977Y-57482011D01*
X151957033Y-57412853D01*
X151958741Y-57403648D01*
X151978968Y-57224130D01*
X151978968Y-57224123D01*
X151958772Y-57044877D01*
X151958769Y-57044864D01*
X151941480Y-56995455D01*
X151937918Y-56925676D01*
X151972646Y-56865049D01*
X152034640Y-56832821D01*
X152058521Y-56830500D01*
X168470538Y-56830500D01*
X168470554Y-56830501D01*
X168478150Y-56830501D01*
X168636261Y-56830501D01*
X168636264Y-56830501D01*
X168788992Y-56789577D01*
X168839111Y-56760639D01*
X168925923Y-56710520D01*
X169037727Y-56598716D01*
X169037727Y-56598714D01*
X169047935Y-56588507D01*
X169047937Y-56588504D01*
X170426755Y-55209685D01*
X170488076Y-55176202D01*
X170557768Y-55181186D01*
G37*
%TD.AperFunction*%
%TA.AperFunction,Conductor*%
G36*
X110558920Y-55539785D02*
G01*
X110604675Y-55592589D01*
X110614374Y-55660049D01*
X110614507Y-55660062D01*
X110614455Y-55660612D01*
X110614619Y-55661747D01*
X110614008Y-55665436D01*
X110594127Y-55879999D01*
X110594127Y-55880000D01*
X110613977Y-56094228D01*
X110672855Y-56301159D01*
X110672862Y-56301177D01*
X110707246Y-56370229D01*
X110719507Y-56439014D01*
X110692634Y-56503509D01*
X110635158Y-56543236D01*
X110596246Y-56549500D01*
X106760596Y-56549500D01*
X106693557Y-56529815D01*
X106672915Y-56513181D01*
X106421417Y-56261683D01*
X106387932Y-56200360D01*
X106392916Y-56130668D01*
X106434788Y-56074735D01*
X106500252Y-56050318D01*
X106509098Y-56050002D01*
X108928829Y-56050002D01*
X108928845Y-56050003D01*
X108936441Y-56050003D01*
X109094552Y-56050003D01*
X109094555Y-56050003D01*
X109247283Y-56009079D01*
X109297402Y-55980141D01*
X109384214Y-55930022D01*
X109496018Y-55818218D01*
X109496019Y-55818216D01*
X109757818Y-55556416D01*
X109819140Y-55522934D01*
X109845498Y-55520100D01*
X110491881Y-55520100D01*
X110558920Y-55539785D01*
G37*
%TD.AperFunction*%
%TA.AperFunction,Conductor*%
G36*
X118178920Y-55539785D02*
G01*
X118224675Y-55592589D01*
X118234374Y-55660049D01*
X118234507Y-55660062D01*
X118234455Y-55660612D01*
X118234619Y-55661747D01*
X118234008Y-55665436D01*
X118214127Y-55879999D01*
X118214127Y-55880000D01*
X118233977Y-56094228D01*
X118292855Y-56301159D01*
X118292862Y-56301177D01*
X118327246Y-56370229D01*
X118339507Y-56439014D01*
X118312634Y-56503509D01*
X118255158Y-56543236D01*
X118216246Y-56549500D01*
X112923754Y-56549500D01*
X112856715Y-56529815D01*
X112810960Y-56477011D01*
X112801016Y-56407853D01*
X112812754Y-56370229D01*
X112847137Y-56301177D01*
X112847138Y-56301172D01*
X112847144Y-56301162D01*
X112906022Y-56094229D01*
X112925873Y-55880000D01*
X112906022Y-55665771D01*
X112905493Y-55660062D01*
X112906933Y-55659928D01*
X112913262Y-55597367D01*
X112956761Y-55542690D01*
X113022916Y-55520209D01*
X113028119Y-55520100D01*
X118111881Y-55520100D01*
X118178920Y-55539785D01*
G37*
%TD.AperFunction*%
%TA.AperFunction,Conductor*%
G36*
X174757826Y-48513300D02*
G01*
X174831762Y-48540876D01*
X174841445Y-48544488D01*
X174841451Y-48544490D01*
X174901061Y-48550899D01*
X174992553Y-48550898D01*
X175059590Y-48570582D01*
X175105346Y-48623385D01*
X175115290Y-48692544D01*
X175109777Y-48715104D01*
X175109631Y-48715746D01*
X175089435Y-48894996D01*
X175089435Y-48895003D01*
X175109630Y-49074249D01*
X175109631Y-49074254D01*
X175169211Y-49244523D01*
X175262652Y-49393233D01*
X175265184Y-49397262D01*
X175392738Y-49524816D01*
X175470322Y-49573565D01*
X175510323Y-49598700D01*
X175545478Y-49620789D01*
X175587517Y-49635499D01*
X175715745Y-49680368D01*
X175715750Y-49680369D01*
X175894996Y-49700565D01*
X175895000Y-49700565D01*
X175895003Y-49700565D01*
X175953677Y-49693954D01*
X176022499Y-49706008D01*
X176073879Y-49753357D01*
X176091503Y-49820968D01*
X176069777Y-49887374D01*
X176055242Y-49904855D01*
X174526917Y-51433181D01*
X174465594Y-51466666D01*
X174439236Y-51469500D01*
X172638148Y-51469500D01*
X172617589Y-51475008D01*
X172617590Y-51475009D01*
X172485421Y-51510423D01*
X172485416Y-51510426D01*
X172348497Y-51589475D01*
X172348489Y-51589481D01*
X172236685Y-51701286D01*
X168344791Y-55593181D01*
X168283468Y-55626666D01*
X168257110Y-55629500D01*
X151817742Y-55629500D01*
X151750703Y-55609815D01*
X151704948Y-55557011D01*
X151695004Y-55487853D01*
X151724029Y-55424297D01*
X151772361Y-55393235D01*
X151771298Y-55390668D01*
X151778799Y-55387560D01*
X151778802Y-55387560D01*
X151859936Y-55340717D01*
X151915733Y-55308503D01*
X152027537Y-55196699D01*
X152027537Y-55196697D01*
X152037741Y-55186494D01*
X152037744Y-55186489D01*
X152612416Y-54611819D01*
X152673739Y-54578334D01*
X152700097Y-54575500D01*
X165449297Y-54575500D01*
X165449313Y-54575501D01*
X165456909Y-54575501D01*
X165615020Y-54575501D01*
X165615023Y-54575501D01*
X165767751Y-54534577D01*
X165829368Y-54499002D01*
X165904682Y-54455520D01*
X166016486Y-54343716D01*
X166016486Y-54343714D01*
X166026687Y-54333514D01*
X166026690Y-54333509D01*
X166216517Y-54143684D01*
X166433503Y-53926699D01*
X166433503Y-53926698D01*
X166443712Y-53916490D01*
X166443714Y-53916486D01*
X166528384Y-53831818D01*
X166589707Y-53798333D01*
X166616064Y-53795500D01*
X168447664Y-53795500D01*
X168447680Y-53795501D01*
X168455276Y-53795501D01*
X168613387Y-53795501D01*
X168613390Y-53795501D01*
X168766118Y-53754577D01*
X168845551Y-53708716D01*
X168849492Y-53706441D01*
X168903042Y-53675524D01*
X168903041Y-53675524D01*
X168903049Y-53675520D01*
X169014853Y-53563716D01*
X169014853Y-53563714D01*
X169025057Y-53553511D01*
X169025060Y-53553506D01*
X172411750Y-50166819D01*
X172473073Y-50133334D01*
X172499431Y-50130500D01*
X173268331Y-50130500D01*
X173268347Y-50130501D01*
X173275943Y-50130501D01*
X173434054Y-50130501D01*
X173434057Y-50130501D01*
X173586785Y-50089577D01*
X173636904Y-50060639D01*
X173723716Y-50010520D01*
X173835520Y-49898716D01*
X173835520Y-49898714D01*
X173845728Y-49888507D01*
X173845729Y-49888504D01*
X174470520Y-49263716D01*
X174549577Y-49126784D01*
X174590501Y-48974057D01*
X174590501Y-48815942D01*
X174590501Y-48808347D01*
X174590500Y-48808329D01*
X174590500Y-48629484D01*
X174610185Y-48562445D01*
X174662989Y-48516690D01*
X174732147Y-48506746D01*
X174757826Y-48513300D01*
G37*
%TD.AperFunction*%
%TA.AperFunction,Conductor*%
G36*
X101762021Y-48402367D02*
G01*
X101790276Y-48423519D01*
X108004078Y-54637321D01*
X108037563Y-54698644D01*
X108032579Y-54768336D01*
X107990707Y-54824269D01*
X107925243Y-54848686D01*
X107916397Y-54849002D01*
X106435267Y-54849002D01*
X106368228Y-54829317D01*
X106347586Y-54812683D01*
X103302775Y-51767872D01*
X100223678Y-48688776D01*
X100190194Y-48627454D01*
X100195178Y-48557762D01*
X100237050Y-48501829D01*
X100245167Y-48496611D01*
X100248392Y-48494196D01*
X100248397Y-48494195D01*
X100255687Y-48488736D01*
X100321148Y-48464318D01*
X100389422Y-48479167D01*
X100404304Y-48488731D01*
X100411603Y-48494195D01*
X100546451Y-48544490D01*
X100606061Y-48550899D01*
X101323938Y-48550898D01*
X101383549Y-48544490D01*
X101518397Y-48494195D01*
X101538890Y-48478854D01*
X101628284Y-48411934D01*
X101693748Y-48387516D01*
X101762021Y-48402367D01*
G37*
%TD.AperFunction*%
%TA.AperFunction,Conductor*%
G36*
X125496942Y-54595185D02*
G01*
X125517584Y-54611819D01*
X125543086Y-54637321D01*
X125576571Y-54698644D01*
X125571587Y-54768336D01*
X125529715Y-54824269D01*
X125464251Y-54848686D01*
X125455405Y-54849002D01*
X121469196Y-54849002D01*
X121402157Y-54829317D01*
X121356402Y-54776513D01*
X121346458Y-54707355D01*
X121375483Y-54643799D01*
X121381515Y-54637321D01*
X121407017Y-54611819D01*
X121468340Y-54578334D01*
X121494698Y-54575500D01*
X125429903Y-54575500D01*
X125496942Y-54595185D01*
G37*
%TD.AperFunction*%
%TA.AperFunction,Conductor*%
G36*
X155248516Y-49388185D02*
G01*
X155294271Y-49440989D01*
X155304215Y-49510147D01*
X155275190Y-49573703D01*
X155269158Y-49580181D01*
X155142684Y-49706654D01*
X155050643Y-49855875D01*
X155050641Y-49855880D01*
X154995494Y-50022302D01*
X154995493Y-50022309D01*
X154985000Y-50125013D01*
X154985000Y-50550000D01*
X157284999Y-50550000D01*
X157284999Y-50125028D01*
X157284998Y-50125013D01*
X157274505Y-50022302D01*
X157219358Y-49855880D01*
X157219356Y-49855875D01*
X157127315Y-49706654D01*
X157000842Y-49580181D01*
X156967357Y-49518858D01*
X156972341Y-49449166D01*
X157014213Y-49393233D01*
X157079677Y-49368816D01*
X157088523Y-49368500D01*
X159812588Y-49368500D01*
X159879627Y-49388185D01*
X159889903Y-49395555D01*
X159892736Y-49397814D01*
X159892738Y-49397816D01*
X160045478Y-49493789D01*
X160215745Y-49553368D01*
X160302669Y-49563161D01*
X160367080Y-49590226D01*
X160376465Y-49598700D01*
X162643181Y-51865417D01*
X162676666Y-51926740D01*
X162679500Y-51953098D01*
X162679500Y-52745001D01*
X162679501Y-52745019D01*
X162690000Y-52847796D01*
X162690001Y-52847799D01*
X162713542Y-52918840D01*
X162745186Y-53014334D01*
X162837288Y-53163656D01*
X162837290Y-53163658D01*
X162841766Y-53169319D01*
X162840532Y-53170294D01*
X162869936Y-53224142D01*
X162864952Y-53293834D01*
X162823080Y-53349767D01*
X162757616Y-53374184D01*
X162748770Y-53374500D01*
X152320943Y-53374500D01*
X152168213Y-53415423D01*
X152134309Y-53434999D01*
X152134308Y-53434999D01*
X152031287Y-53494477D01*
X152031282Y-53494481D01*
X151919478Y-53606286D01*
X151402180Y-54123583D01*
X151340857Y-54157068D01*
X151271165Y-54152084D01*
X151215232Y-54110212D01*
X151190815Y-54044748D01*
X151190499Y-54035926D01*
X151190499Y-52840095D01*
X151210184Y-52773057D01*
X151226813Y-52752420D01*
X151976252Y-52002982D01*
X152037575Y-51969497D01*
X152107267Y-51974481D01*
X152151614Y-52002982D01*
X152166344Y-52017712D01*
X152315666Y-52109814D01*
X152482203Y-52164999D01*
X152584991Y-52175500D01*
X153485008Y-52175499D01*
X153485016Y-52175498D01*
X153485019Y-52175498D01*
X153541302Y-52169748D01*
X153587797Y-52164999D01*
X153754334Y-52109814D01*
X153903656Y-52017712D01*
X154027712Y-51893656D01*
X154119814Y-51744334D01*
X154174999Y-51577797D01*
X154185500Y-51475009D01*
X154185500Y-51474986D01*
X154985001Y-51474986D01*
X154995494Y-51577697D01*
X155050641Y-51744119D01*
X155050643Y-51744124D01*
X155142684Y-51893345D01*
X155266654Y-52017315D01*
X155415875Y-52109356D01*
X155415880Y-52109358D01*
X155582302Y-52164505D01*
X155582309Y-52164506D01*
X155685019Y-52174999D01*
X155884999Y-52174999D01*
X156385000Y-52174999D01*
X156584972Y-52174999D01*
X156584986Y-52174998D01*
X156687697Y-52164505D01*
X156854119Y-52109358D01*
X156854124Y-52109356D01*
X157003345Y-52017315D01*
X157127315Y-51893345D01*
X157219356Y-51744124D01*
X157219358Y-51744119D01*
X157274505Y-51577697D01*
X157274506Y-51577690D01*
X157284999Y-51474986D01*
X157285000Y-51474973D01*
X157285000Y-51050000D01*
X156385000Y-51050000D01*
X156385000Y-52174999D01*
X155884999Y-52174999D01*
X155885000Y-52174998D01*
X155885000Y-51050000D01*
X154985001Y-51050000D01*
X154985001Y-51474986D01*
X154185500Y-51474986D01*
X154185499Y-50124992D01*
X154174999Y-50022203D01*
X154119814Y-49855666D01*
X154027712Y-49706344D01*
X153903656Y-49582288D01*
X153901549Y-49580181D01*
X153868064Y-49518858D01*
X153873048Y-49449166D01*
X153914920Y-49393233D01*
X153980384Y-49368816D01*
X153989230Y-49368500D01*
X155181477Y-49368500D01*
X155248516Y-49388185D01*
G37*
%TD.AperFunction*%
%TA.AperFunction,Conductor*%
G36*
X148488306Y-44868185D02*
G01*
X148534061Y-44920989D01*
X148538972Y-44933494D01*
X148545609Y-44953523D01*
X148550186Y-44967334D01*
X148642288Y-45116656D01*
X148766344Y-45240712D01*
X148915666Y-45332814D01*
X149082203Y-45387999D01*
X149184991Y-45398500D01*
X150535008Y-45398499D01*
X150637797Y-45387999D01*
X150804334Y-45332814D01*
X150953656Y-45240712D01*
X150961561Y-45232805D01*
X151022882Y-45199320D01*
X151092574Y-45204302D01*
X151115218Y-45215492D01*
X151155475Y-45240788D01*
X151325745Y-45300368D01*
X151325750Y-45300369D01*
X151504996Y-45320565D01*
X151505000Y-45320565D01*
X151505004Y-45320565D01*
X151684249Y-45300369D01*
X151684252Y-45300368D01*
X151684255Y-45300368D01*
X151854522Y-45240789D01*
X152007262Y-45144816D01*
X152007267Y-45144810D01*
X152010097Y-45142555D01*
X152012275Y-45141665D01*
X152013158Y-45141111D01*
X152013255Y-45141265D01*
X152074783Y-45116145D01*
X152087412Y-45115500D01*
X153527777Y-45115500D01*
X153594816Y-45135185D01*
X153640571Y-45187989D01*
X153651395Y-45229773D01*
X153652401Y-45242567D01*
X153652402Y-45242573D01*
X153698254Y-45400393D01*
X153698255Y-45400396D01*
X153781917Y-45541862D01*
X153781923Y-45541870D01*
X153898129Y-45658076D01*
X153898133Y-45658079D01*
X153898135Y-45658081D01*
X154039602Y-45741744D01*
X154057793Y-45747029D01*
X154197426Y-45787597D01*
X154197429Y-45787597D01*
X154197431Y-45787598D01*
X154234306Y-45790500D01*
X154234314Y-45790500D01*
X154665686Y-45790500D01*
X154665694Y-45790500D01*
X154702569Y-45787598D01*
X154702570Y-45787597D01*
X154703215Y-45787480D01*
X154703580Y-45787518D01*
X154708886Y-45787101D01*
X154708963Y-45788085D01*
X154772701Y-45794796D01*
X154827201Y-45838517D01*
X154849411Y-45904763D01*
X154849500Y-45909461D01*
X154849500Y-45919500D01*
X154829815Y-45986539D01*
X154777011Y-46032294D01*
X154725500Y-46043500D01*
X151070488Y-46043500D01*
X151070472Y-46043499D01*
X151062876Y-46043499D01*
X150904761Y-46043499D01*
X150752033Y-46084423D01*
X150752031Y-46084423D01*
X150752031Y-46084424D01*
X150615099Y-46163482D01*
X145322745Y-51455836D01*
X145267159Y-51487929D01*
X145183220Y-51510421D01*
X145183209Y-51510426D01*
X145046290Y-51589475D01*
X145046282Y-51589481D01*
X144934478Y-51701286D01*
X143944180Y-52691583D01*
X143882857Y-52725068D01*
X143813165Y-52720084D01*
X143757232Y-52678212D01*
X143732815Y-52612748D01*
X143732499Y-52603902D01*
X143732499Y-52418360D01*
X143732498Y-52418345D01*
X143722180Y-52317347D01*
X143667953Y-52153699D01*
X143667948Y-52153688D01*
X143577447Y-52006965D01*
X143577444Y-52006961D01*
X143455539Y-51885056D01*
X143411737Y-51858039D01*
X143365013Y-51806091D01*
X143353790Y-51737129D01*
X143381634Y-51673046D01*
X143411737Y-51646961D01*
X143455539Y-51619943D01*
X143577444Y-51498038D01*
X143577447Y-51498034D01*
X143667948Y-51351311D01*
X143667953Y-51351300D01*
X143722180Y-51187652D01*
X143732499Y-51086654D01*
X143732500Y-51086641D01*
X143732500Y-51050000D01*
X142945000Y-51050000D01*
X142945000Y-53639402D01*
X142925315Y-53706441D01*
X142908681Y-53727083D01*
X142662584Y-53973181D01*
X142601261Y-54006666D01*
X142574903Y-54009500D01*
X141270098Y-54009500D01*
X141203059Y-53989815D01*
X141182417Y-53973181D01*
X141101416Y-53892180D01*
X141067931Y-53830857D01*
X141072915Y-53761165D01*
X141114787Y-53705232D01*
X141180251Y-53680815D01*
X141189097Y-53680499D01*
X141319170Y-53680499D01*
X141319176Y-53680499D01*
X141420253Y-53670174D01*
X141584016Y-53615908D01*
X141730850Y-53525340D01*
X141745171Y-53511018D01*
X141806489Y-53477533D01*
X141876181Y-53482514D01*
X141920534Y-53511017D01*
X141934461Y-53524944D01*
X141934465Y-53524947D01*
X142081188Y-53615448D01*
X142081199Y-53615453D01*
X142244847Y-53669680D01*
X142345851Y-53679999D01*
X142445000Y-53679998D01*
X142445000Y-50550000D01*
X142945000Y-50550000D01*
X143732499Y-50550000D01*
X143732499Y-50513360D01*
X143732498Y-50513345D01*
X143722180Y-50412347D01*
X143667953Y-50248699D01*
X143667948Y-50248688D01*
X143577447Y-50101965D01*
X143577444Y-50101961D01*
X143455538Y-49980055D01*
X143455534Y-49980052D01*
X143308811Y-49889551D01*
X143308800Y-49889546D01*
X143145152Y-49835319D01*
X143044154Y-49825000D01*
X142945000Y-49825000D01*
X142945000Y-50550000D01*
X142445000Y-50550000D01*
X142445000Y-49824999D01*
X142345860Y-49825000D01*
X142345844Y-49825001D01*
X142244847Y-49835319D01*
X142081199Y-49889546D01*
X142081188Y-49889551D01*
X141934465Y-49980052D01*
X141920532Y-49993985D01*
X141859208Y-50027468D01*
X141789516Y-50022482D01*
X141745172Y-49993982D01*
X141730850Y-49979660D01*
X141730846Y-49979657D01*
X141629403Y-49917086D01*
X141582678Y-49865138D01*
X141570500Y-49811548D01*
X141570500Y-49771432D01*
X141590185Y-49704393D01*
X141597555Y-49694117D01*
X141599810Y-49691287D01*
X141599816Y-49691282D01*
X141695789Y-49538542D01*
X141755368Y-49368275D01*
X141765161Y-49281349D01*
X141792226Y-49216939D01*
X141800688Y-49207565D01*
X141915029Y-49093226D01*
X141915028Y-49093226D01*
X141973597Y-49034657D01*
X141973596Y-49034657D01*
X146123437Y-44884819D01*
X146184760Y-44851334D01*
X146211118Y-44848500D01*
X147189945Y-44848500D01*
X148421267Y-44848500D01*
X148488306Y-44868185D01*
G37*
%TD.AperFunction*%
%TA.AperFunction,Conductor*%
G36*
X155361347Y-47244501D02*
G01*
X155368943Y-47244501D01*
X155534653Y-47244501D01*
X155534669Y-47244500D01*
X162597048Y-47244500D01*
X162664087Y-47264185D01*
X162709842Y-47316989D01*
X162719786Y-47386147D01*
X162714754Y-47407504D01*
X162690001Y-47482203D01*
X162690000Y-47482204D01*
X162679500Y-47584983D01*
X162679500Y-48935001D01*
X162679501Y-48935018D01*
X162690000Y-49037796D01*
X162690001Y-49037799D01*
X162730921Y-49161286D01*
X162745186Y-49204334D01*
X162837288Y-49353656D01*
X162961344Y-49477712D01*
X163110666Y-49569814D01*
X163277203Y-49624999D01*
X163379991Y-49635500D01*
X164280008Y-49635499D01*
X164280016Y-49635498D01*
X164280019Y-49635498D01*
X164336302Y-49629748D01*
X164382797Y-49624999D01*
X164549334Y-49569814D01*
X164698656Y-49477712D01*
X164822712Y-49353656D01*
X164914814Y-49204334D01*
X164969999Y-49037797D01*
X164980500Y-48935009D01*
X164980499Y-47584992D01*
X164976069Y-47541625D01*
X164988839Y-47472933D01*
X165036719Y-47422049D01*
X165104509Y-47405128D01*
X165170685Y-47427544D01*
X165187108Y-47441343D01*
X165743181Y-47997416D01*
X165776666Y-48058739D01*
X165779500Y-48085097D01*
X165779500Y-48935001D01*
X165779501Y-48935019D01*
X165790000Y-49037796D01*
X165790001Y-49037799D01*
X165830921Y-49161286D01*
X165845186Y-49204334D01*
X165937288Y-49353656D01*
X166061344Y-49477712D01*
X166210666Y-49569814D01*
X166244500Y-49581025D01*
X166301947Y-49620796D01*
X166328772Y-49685311D01*
X166329500Y-49698732D01*
X166329500Y-50631267D01*
X166309815Y-50698306D01*
X166257011Y-50744061D01*
X166244506Y-50748972D01*
X166210671Y-50760184D01*
X166210663Y-50760187D01*
X166061342Y-50852289D01*
X165937289Y-50976342D01*
X165845187Y-51125663D01*
X165845186Y-51125666D01*
X165790001Y-51292203D01*
X165790001Y-51292204D01*
X165790000Y-51292204D01*
X165779500Y-51394983D01*
X165779500Y-52745001D01*
X165779501Y-52745019D01*
X165786231Y-52810893D01*
X165773461Y-52879586D01*
X165750555Y-52911175D01*
X165584269Y-53077461D01*
X165584267Y-53077463D01*
X165356231Y-53305500D01*
X165323550Y-53338181D01*
X165262227Y-53371666D01*
X165235869Y-53374500D01*
X164911230Y-53374500D01*
X164844191Y-53354815D01*
X164798436Y-53302011D01*
X164788492Y-53232853D01*
X164817517Y-53169297D01*
X164822386Y-53164066D01*
X164822705Y-53163662D01*
X164822712Y-53163656D01*
X164914814Y-53014334D01*
X164969999Y-52847797D01*
X164980500Y-52745009D01*
X164980499Y-51394992D01*
X164969999Y-51292203D01*
X164914814Y-51125666D01*
X164822712Y-50976344D01*
X164698656Y-50852288D01*
X164549334Y-50760186D01*
X164382797Y-50705001D01*
X164382795Y-50705000D01*
X164280010Y-50694500D01*
X163379998Y-50694500D01*
X163379980Y-50694501D01*
X163277203Y-50705000D01*
X163270578Y-50706419D01*
X163270292Y-50705083D01*
X163207895Y-50707229D01*
X163151039Y-50674803D01*
X161225700Y-48749465D01*
X161192215Y-48688142D01*
X161190163Y-48675686D01*
X161180368Y-48588745D01*
X161120789Y-48418478D01*
X161024816Y-48265738D01*
X160897262Y-48138184D01*
X160744523Y-48042211D01*
X160574254Y-47982631D01*
X160574249Y-47982630D01*
X160395004Y-47962435D01*
X160394996Y-47962435D01*
X160215750Y-47982630D01*
X160215745Y-47982631D01*
X160045476Y-48042211D01*
X159892736Y-48138185D01*
X159889903Y-48140445D01*
X159887724Y-48141334D01*
X159886842Y-48141889D01*
X159886744Y-48141734D01*
X159825217Y-48166855D01*
X159812588Y-48167500D01*
X152087412Y-48167500D01*
X152020373Y-48147815D01*
X152010097Y-48140445D01*
X152007263Y-48138185D01*
X152007262Y-48138184D01*
X151943747Y-48098275D01*
X151854523Y-48042211D01*
X151684254Y-47982631D01*
X151684249Y-47982630D01*
X151505004Y-47962435D01*
X151504996Y-47962435D01*
X151325750Y-47982630D01*
X151325745Y-47982631D01*
X151155476Y-48042211D01*
X151002736Y-48138185D01*
X150999903Y-48140445D01*
X150997724Y-48141334D01*
X150996842Y-48141889D01*
X150996744Y-48141734D01*
X150935217Y-48166855D01*
X150922588Y-48167500D01*
X150608916Y-48167500D01*
X150541877Y-48147815D01*
X150496122Y-48095011D01*
X150486178Y-48025853D01*
X150515203Y-47962297D01*
X150521235Y-47955819D01*
X151196235Y-47280819D01*
X151257558Y-47247334D01*
X151283916Y-47244500D01*
X155361331Y-47244500D01*
X155361347Y-47244501D01*
G37*
%TD.AperFunction*%
%TA.AperFunction,Conductor*%
G36*
X129306942Y-51420185D02*
G01*
X129327584Y-51436819D01*
X130325139Y-52434374D01*
X130325160Y-52434397D01*
X130421198Y-52530435D01*
X130454683Y-52591758D01*
X130457135Y-52627841D01*
X130454500Y-52661323D01*
X130454500Y-52775002D01*
X130434815Y-52842041D01*
X130382011Y-52887796D01*
X130330500Y-52899002D01*
X120534044Y-52899002D01*
X120467005Y-52879317D01*
X120423044Y-52830273D01*
X120371246Y-52726248D01*
X120320337Y-52658834D01*
X120241591Y-52554556D01*
X120241588Y-52554553D01*
X120241585Y-52554550D01*
X120082597Y-52409614D01*
X120042811Y-52384979D01*
X119899674Y-52296353D01*
X119699056Y-52218633D01*
X119555983Y-52191888D01*
X119493704Y-52160221D01*
X119458431Y-52099908D01*
X119461365Y-52030100D01*
X119501574Y-51972960D01*
X119555982Y-51948111D01*
X119699056Y-51921367D01*
X119899674Y-51843647D01*
X120082595Y-51730387D01*
X120241591Y-51585444D01*
X120344045Y-51449771D01*
X120400151Y-51408137D01*
X120442997Y-51400500D01*
X129239903Y-51400500D01*
X129306942Y-51420185D01*
G37*
%TD.AperFunction*%
%TA.AperFunction,Conductor*%
G36*
X95437985Y-48533873D02*
G01*
X95466451Y-48544490D01*
X95526061Y-48550899D01*
X95910301Y-48550898D01*
X95977340Y-48570582D01*
X95997981Y-48587216D01*
X99326284Y-51915520D01*
X99326286Y-51915521D01*
X99326290Y-51915524D01*
X99425774Y-51972960D01*
X99463216Y-51994577D01*
X99615943Y-52035501D01*
X99615945Y-52035501D01*
X99781654Y-52035501D01*
X99781670Y-52035500D01*
X100445401Y-52035500D01*
X100512440Y-52055185D01*
X100533082Y-52071819D01*
X100989082Y-52527819D01*
X101022567Y-52589142D01*
X101017583Y-52658834D01*
X100975711Y-52714767D01*
X100910247Y-52739184D01*
X100901401Y-52739500D01*
X99360098Y-52739500D01*
X99293059Y-52719815D01*
X99272417Y-52703181D01*
X97290044Y-50720808D01*
X95306970Y-48737735D01*
X95273486Y-48676413D01*
X95278470Y-48606721D01*
X95320342Y-48550788D01*
X95385806Y-48526371D01*
X95437985Y-48533873D01*
G37*
%TD.AperFunction*%
%TA.AperFunction,Conductor*%
G36*
X141073520Y-45158210D02*
G01*
X141129453Y-45200082D01*
X141150758Y-45245441D01*
X141204278Y-45468362D01*
X141204279Y-45468366D01*
X141302188Y-45704741D01*
X141302190Y-45704744D01*
X141435875Y-45922898D01*
X141435878Y-45922903D01*
X141490229Y-45986539D01*
X141602044Y-46117458D01*
X141726579Y-46223821D01*
X141796598Y-46283623D01*
X141796600Y-46283624D01*
X141796601Y-46283625D01*
X141849602Y-46316104D01*
X142014757Y-46417311D01*
X142014760Y-46417313D01*
X142145001Y-46471260D01*
X142251140Y-46515224D01*
X142474055Y-46568742D01*
X142534645Y-46603532D01*
X142566809Y-46665559D01*
X142560333Y-46735127D01*
X142532787Y-46776996D01*
X141065794Y-48243990D01*
X141065793Y-48243991D01*
X140951463Y-48358319D01*
X140890140Y-48391803D01*
X140877667Y-48393857D01*
X140790750Y-48403650D01*
X140620478Y-48463230D01*
X140467737Y-48559204D01*
X140340184Y-48686757D01*
X140244211Y-48839496D01*
X140184631Y-49009765D01*
X140184630Y-49009770D01*
X140164435Y-49189016D01*
X140164435Y-49189023D01*
X140184630Y-49368269D01*
X140184631Y-49368274D01*
X140244211Y-49538543D01*
X140270905Y-49581025D01*
X140336432Y-49685311D01*
X140340185Y-49691283D01*
X140342445Y-49694117D01*
X140343334Y-49696295D01*
X140343889Y-49697178D01*
X140343734Y-49697275D01*
X140368855Y-49758803D01*
X140369500Y-49771432D01*
X140369500Y-49811548D01*
X140349815Y-49878587D01*
X140310597Y-49917086D01*
X140209153Y-49979657D01*
X140209149Y-49979660D01*
X140087161Y-50101648D01*
X139996593Y-50248481D01*
X139996591Y-50248486D01*
X139989674Y-50269360D01*
X139942326Y-50412247D01*
X139942326Y-50412248D01*
X139942325Y-50412248D01*
X139932000Y-50513315D01*
X139932000Y-51086669D01*
X139932001Y-51086687D01*
X139942325Y-51187752D01*
X139976938Y-51292204D01*
X139996592Y-51351516D01*
X140080732Y-51487929D01*
X140087161Y-51498351D01*
X140209149Y-51620339D01*
X140209153Y-51620342D01*
X140252310Y-51646962D01*
X140299035Y-51698910D01*
X140310256Y-51767872D01*
X140282413Y-51831954D01*
X140252310Y-51858038D01*
X140209153Y-51884657D01*
X140209149Y-51884660D01*
X140087161Y-52006648D01*
X139996590Y-52153487D01*
X139995277Y-52157450D01*
X139993640Y-52159812D01*
X139993540Y-52160029D01*
X139993503Y-52160011D01*
X139955500Y-52214892D01*
X139890982Y-52241710D01*
X139822207Y-52229390D01*
X139814453Y-52225169D01*
X139803401Y-52218633D01*
X139680390Y-52145884D01*
X139680385Y-52145882D01*
X139528633Y-52101794D01*
X139528620Y-52101792D01*
X139493170Y-52099002D01*
X139493163Y-52099002D01*
X138204500Y-52099002D01*
X138137461Y-52079317D01*
X138091706Y-52026513D01*
X138080500Y-51975002D01*
X138080500Y-48100079D01*
X138100185Y-48033040D01*
X138116814Y-48012403D01*
X140942507Y-45186709D01*
X141003828Y-45153226D01*
X141073520Y-45158210D01*
G37*
%TD.AperFunction*%
%TA.AperFunction,Conductor*%
G36*
X97977987Y-48533874D02*
G01*
X98006445Y-48544488D01*
X98006451Y-48544490D01*
X98066061Y-48550899D01*
X98335968Y-48550898D01*
X98403007Y-48570582D01*
X98423649Y-48587217D01*
X100459251Y-50622819D01*
X100492736Y-50684142D01*
X100487752Y-50753834D01*
X100445880Y-50809767D01*
X100380416Y-50834184D01*
X100371570Y-50834500D01*
X99995098Y-50834500D01*
X99928059Y-50814815D01*
X99907417Y-50798181D01*
X97846972Y-48737736D01*
X97813487Y-48676413D01*
X97818471Y-48606721D01*
X97860343Y-48550788D01*
X97925807Y-48526371D01*
X97977987Y-48533874D01*
G37*
%TD.AperFunction*%
%TA.AperFunction,Conductor*%
G36*
X163276941Y-42530185D02*
G01*
X163297583Y-42546819D01*
X163815712Y-43064949D01*
X163849197Y-43126272D01*
X163844213Y-43195964D01*
X163802341Y-43251897D01*
X163736877Y-43276314D01*
X163693436Y-43271706D01*
X163592573Y-43242402D01*
X163592567Y-43242401D01*
X163555701Y-43239500D01*
X163555694Y-43239500D01*
X163124306Y-43239500D01*
X163124298Y-43239500D01*
X163087432Y-43242401D01*
X163087426Y-43242402D01*
X162929606Y-43288254D01*
X162929603Y-43288255D01*
X162788137Y-43371917D01*
X162788129Y-43371923D01*
X162671923Y-43488129D01*
X162671917Y-43488137D01*
X162588255Y-43629603D01*
X162588254Y-43629606D01*
X162542402Y-43787426D01*
X162542401Y-43787432D01*
X162541395Y-43800227D01*
X162516512Y-43865516D01*
X162460282Y-43906988D01*
X162417777Y-43914500D01*
X161971713Y-43914500D01*
X161909718Y-43897890D01*
X161904674Y-43894978D01*
X161896785Y-43890423D01*
X161744057Y-43849499D01*
X161585943Y-43849499D01*
X161578347Y-43849499D01*
X161578331Y-43849500D01*
X160977412Y-43849500D01*
X160910373Y-43829815D01*
X160900097Y-43822445D01*
X160897263Y-43820185D01*
X160897262Y-43820184D01*
X160813376Y-43767475D01*
X160744523Y-43724211D01*
X160574254Y-43664631D01*
X160574249Y-43664630D01*
X160395004Y-43644435D01*
X160394996Y-43644435D01*
X160215750Y-43664630D01*
X160215745Y-43664631D01*
X160045476Y-43724211D01*
X159892737Y-43820184D01*
X159765184Y-43947737D01*
X159669211Y-44100476D01*
X159609631Y-44270745D01*
X159609630Y-44270750D01*
X159589435Y-44449996D01*
X159589435Y-44450003D01*
X159609630Y-44629249D01*
X159609631Y-44629254D01*
X159669211Y-44799523D01*
X159736200Y-44906135D01*
X159765184Y-44952262D01*
X159892738Y-45079816D01*
X160045478Y-45175789D01*
X160170603Y-45219572D01*
X160215745Y-45235368D01*
X160215750Y-45235369D01*
X160394996Y-45255565D01*
X160395000Y-45255565D01*
X160395004Y-45255565D01*
X160574249Y-45235369D01*
X160574252Y-45235368D01*
X160574255Y-45235368D01*
X160744522Y-45175789D01*
X160897262Y-45079816D01*
X160897267Y-45079810D01*
X160900097Y-45077555D01*
X160902275Y-45076665D01*
X160903158Y-45076111D01*
X160903255Y-45076265D01*
X160964783Y-45051145D01*
X160977412Y-45050500D01*
X161423286Y-45050500D01*
X161485286Y-45067113D01*
X161498211Y-45074575D01*
X161498212Y-45074576D01*
X161498214Y-45074576D01*
X161498215Y-45074577D01*
X161650943Y-45115501D01*
X161650946Y-45115501D01*
X161816653Y-45115501D01*
X161816669Y-45115500D01*
X162417777Y-45115500D01*
X162484816Y-45135185D01*
X162530571Y-45187989D01*
X162541395Y-45229773D01*
X162542401Y-45242567D01*
X162542402Y-45242573D01*
X162588254Y-45400393D01*
X162588255Y-45400396D01*
X162671917Y-45541862D01*
X162671923Y-45541870D01*
X162788129Y-45658076D01*
X162788138Y-45658083D01*
X162854476Y-45697315D01*
X162902159Y-45748384D01*
X162914663Y-45817126D01*
X162888018Y-45881715D01*
X162879037Y-45891728D01*
X162763582Y-46007182D01*
X162702262Y-46040666D01*
X162675903Y-46043500D01*
X156174500Y-46043500D01*
X156107461Y-46023815D01*
X156061706Y-45971011D01*
X156050500Y-45919500D01*
X156050500Y-45909461D01*
X156070185Y-45842422D01*
X156122989Y-45796667D01*
X156192147Y-45786723D01*
X156196785Y-45787480D01*
X156197431Y-45787598D01*
X156234306Y-45790500D01*
X156234314Y-45790500D01*
X156665686Y-45790500D01*
X156665694Y-45790500D01*
X156702569Y-45787598D01*
X156702571Y-45787597D01*
X156702573Y-45787597D01*
X156761355Y-45770519D01*
X156860398Y-45741744D01*
X156887368Y-45725793D01*
X156955091Y-45708610D01*
X157013610Y-45725792D01*
X157039803Y-45741282D01*
X157039806Y-45741283D01*
X157197505Y-45787099D01*
X157197511Y-45787100D01*
X157199998Y-45787295D01*
X157200000Y-45787295D01*
X157700000Y-45787295D01*
X157700001Y-45787295D01*
X157702486Y-45787100D01*
X157860198Y-45741281D01*
X158001552Y-45657685D01*
X158001561Y-45657678D01*
X158117678Y-45541561D01*
X158117685Y-45541552D01*
X158201282Y-45400196D01*
X158201283Y-45400193D01*
X158247099Y-45242495D01*
X158247100Y-45242489D01*
X158249999Y-45205649D01*
X158250000Y-45205634D01*
X158250000Y-44765000D01*
X157700000Y-44765000D01*
X157700000Y-45787295D01*
X157200000Y-45787295D01*
X157200000Y-45424050D01*
X157204924Y-45389455D01*
X157247597Y-45242573D01*
X157247598Y-45242567D01*
X157247613Y-45242374D01*
X157250500Y-45205694D01*
X157250500Y-44265000D01*
X157700000Y-44265000D01*
X158250000Y-44265000D01*
X158250000Y-43824365D01*
X158249999Y-43824350D01*
X158247100Y-43787510D01*
X158247099Y-43787504D01*
X158201283Y-43629806D01*
X158201282Y-43629803D01*
X158117685Y-43488447D01*
X158117678Y-43488438D01*
X158001561Y-43372321D01*
X158001552Y-43372314D01*
X157860196Y-43288717D01*
X157860193Y-43288716D01*
X157702494Y-43242900D01*
X157702497Y-43242900D01*
X157700000Y-43242703D01*
X157700000Y-44265000D01*
X157250500Y-44265000D01*
X157250500Y-43824306D01*
X157247598Y-43787431D01*
X157245843Y-43781390D01*
X157204924Y-43640545D01*
X157200000Y-43605950D01*
X157200000Y-43242703D01*
X157197505Y-43242900D01*
X157196787Y-43243032D01*
X157196383Y-43242989D01*
X157191205Y-43243399D01*
X157191128Y-43242436D01*
X157127301Y-43235717D01*
X157072801Y-43191997D01*
X157050589Y-43125752D01*
X157050500Y-43121051D01*
X157050500Y-42634500D01*
X157070185Y-42567461D01*
X157122989Y-42521706D01*
X157174500Y-42510500D01*
X163209902Y-42510500D01*
X163276941Y-42530185D01*
G37*
%TD.AperFunction*%
%TA.AperFunction,Conductor*%
G36*
X155792539Y-42530185D02*
G01*
X155838294Y-42582989D01*
X155849500Y-42634500D01*
X155849500Y-43120538D01*
X155829815Y-43187577D01*
X155777011Y-43233332D01*
X155707853Y-43243276D01*
X155703232Y-43242522D01*
X155702577Y-43242402D01*
X155665701Y-43239500D01*
X155665694Y-43239500D01*
X155234306Y-43239500D01*
X155234298Y-43239500D01*
X155197432Y-43242401D01*
X155197426Y-43242402D01*
X155039606Y-43288253D01*
X155013119Y-43303918D01*
X154945394Y-43321098D01*
X154886881Y-43303918D01*
X154860393Y-43288253D01*
X154702573Y-43242402D01*
X154702567Y-43242401D01*
X154665701Y-43239500D01*
X154665694Y-43239500D01*
X154234306Y-43239500D01*
X154234298Y-43239500D01*
X154197432Y-43242401D01*
X154197426Y-43242402D01*
X154039606Y-43288254D01*
X154039603Y-43288255D01*
X153898137Y-43371917D01*
X153898129Y-43371923D01*
X153781923Y-43488129D01*
X153781917Y-43488137D01*
X153698255Y-43629603D01*
X153698254Y-43629606D01*
X153652402Y-43787426D01*
X153652401Y-43787432D01*
X153651395Y-43800227D01*
X153626512Y-43865516D01*
X153570282Y-43906988D01*
X153527777Y-43914500D01*
X152087412Y-43914500D01*
X152020373Y-43894815D01*
X152010097Y-43887445D01*
X152007263Y-43885185D01*
X152007262Y-43885184D01*
X151854522Y-43789211D01*
X151854519Y-43789209D01*
X151681881Y-43728800D01*
X151625105Y-43688079D01*
X151599358Y-43623126D01*
X151612814Y-43554564D01*
X151635151Y-43524082D01*
X152612416Y-42546819D01*
X152673739Y-42513334D01*
X152700097Y-42510500D01*
X155725500Y-42510500D01*
X155792539Y-42530185D01*
G37*
%TD.AperFunction*%
%TA.AperFunction,Conductor*%
G36*
X157628454Y-39636185D02*
G01*
X157674209Y-39688989D01*
X157684153Y-39758147D01*
X157679122Y-39779499D01*
X157660001Y-39837203D01*
X157660001Y-39837204D01*
X157660000Y-39837204D01*
X157649500Y-39939983D01*
X157649500Y-39939991D01*
X157649500Y-40595205D01*
X157649501Y-41185500D01*
X157629816Y-41252539D01*
X157577013Y-41298294D01*
X157525501Y-41309500D01*
X156550669Y-41309500D01*
X156550653Y-41309499D01*
X156543057Y-41309499D01*
X156384943Y-41309499D01*
X156377347Y-41309499D01*
X156377331Y-41309500D01*
X154374500Y-41309500D01*
X154307461Y-41289815D01*
X154261706Y-41237011D01*
X154250500Y-41185500D01*
X154250499Y-39939998D01*
X154250498Y-39939981D01*
X154239999Y-39837203D01*
X154220878Y-39779502D01*
X154218477Y-39709677D01*
X154254208Y-39649635D01*
X154316728Y-39618442D01*
X154338585Y-39616500D01*
X157561415Y-39616500D01*
X157628454Y-39636185D01*
G37*
%TD.AperFunction*%
%TA.AperFunction,Conductor*%
G36*
X160918454Y-39636185D02*
G01*
X160964209Y-39688989D01*
X160974153Y-39758147D01*
X160969122Y-39779499D01*
X160950001Y-39837203D01*
X160950001Y-39837204D01*
X160950000Y-39837204D01*
X160939500Y-39939983D01*
X160939500Y-39939991D01*
X160939500Y-40595205D01*
X160939501Y-41185500D01*
X160919816Y-41252539D01*
X160867013Y-41298294D01*
X160815501Y-41309500D01*
X159974500Y-41309500D01*
X159907461Y-41289815D01*
X159861706Y-41237011D01*
X159850500Y-41185500D01*
X159850499Y-39939998D01*
X159850498Y-39939981D01*
X159839999Y-39837203D01*
X159820878Y-39779502D01*
X159818477Y-39709677D01*
X159854208Y-39649635D01*
X159916728Y-39618442D01*
X159938585Y-39616500D01*
X160851415Y-39616500D01*
X160918454Y-39636185D01*
G37*
%TD.AperFunction*%
%TD*%
%TA.AperFunction,Conductor*%
%TO.N,+12V Fused*%
G36*
X90771108Y-53359685D02*
G01*
X90791750Y-53376319D01*
X91159247Y-53743816D01*
X91192732Y-53805139D01*
X91195566Y-53831497D01*
X91195566Y-53954608D01*
X91175881Y-54021647D01*
X91123077Y-54067402D01*
X91071566Y-54078608D01*
X91055000Y-54078608D01*
X91055000Y-57681392D01*
X91163894Y-57681392D01*
X91163910Y-57681391D01*
X91223438Y-57674990D01*
X91223442Y-57674989D01*
X91272666Y-57656630D01*
X91342358Y-57651646D01*
X91403681Y-57685130D01*
X91437166Y-57746454D01*
X91440000Y-57772812D01*
X91440000Y-58296000D01*
X91420315Y-58363039D01*
X91367511Y-58408794D01*
X91316000Y-58420000D01*
X89024000Y-58420000D01*
X88956961Y-58400315D01*
X88911206Y-58347511D01*
X88900000Y-58296000D01*
X88900000Y-57773345D01*
X88919685Y-57706306D01*
X88972489Y-57660551D01*
X89041647Y-57650607D01*
X89067329Y-57657161D01*
X89107875Y-57672284D01*
X89115126Y-57674989D01*
X89116451Y-57675483D01*
X89176061Y-57681892D01*
X89893938Y-57681891D01*
X89953549Y-57675483D01*
X90088397Y-57625188D01*
X90096102Y-57619419D01*
X90161561Y-57595000D01*
X90229835Y-57609847D01*
X90244729Y-57619418D01*
X90251842Y-57624743D01*
X90386557Y-57674989D01*
X90386561Y-57674990D01*
X90446089Y-57681391D01*
X90446106Y-57681392D01*
X90555000Y-57681392D01*
X90555000Y-54078608D01*
X90446089Y-54078608D01*
X90386561Y-54085009D01*
X90386550Y-54085011D01*
X90337332Y-54103369D01*
X90267640Y-54108353D01*
X90206318Y-54074867D01*
X90172833Y-54013544D01*
X90170000Y-53987187D01*
X90170000Y-53464000D01*
X90189685Y-53396961D01*
X90242489Y-53351206D01*
X90294000Y-53340000D01*
X90704069Y-53340000D01*
X90771108Y-53359685D01*
G37*
%TD.AperFunction*%
%TD*%
M02*
